<?xml version="1.0" encoding="UTF-8" standalone="no"?>
<svg
   width="170"
   height="100"
   viewBox="0 0 170 100"
   version="1.1"
   xml:space="preserve"
   style="clip-rule:evenodd;fill-rule:evenodd;stroke-linejoin:round;stroke-miterlimit:2"
   id="svg11"
   sodipodi:docname="reactable-extras.svg"
   inkscape:version="1.1.2 (0a00cf5339, 2022-02-04)"
   xmlns:inkscape="http://www.inkscape.org/namespaces/inkscape"
   xmlns:sodipodi="http://sodipodi.sourceforge.net/DTD/sodipodi-0.dtd"
   xmlns="http://www.w3.org/2000/svg"
   xmlns:svg="http://www.w3.org/2000/svg"><defs
   id="defs15" /><sodipodi:namedview
   id="namedview13"
   pagecolor="#ff00ff"
   bordercolor="#666666"
   borderopacity="1.0"
   inkscape:pageshadow="2"
   inkscape:pageopacity="0"
   inkscape:pagecheckerboard="0"
   showgrid="false"
   inkscape:zoom="1.3643533"
   inkscape:cx="317"
   inkscape:cy="130.83121"
   inkscape:window-width="3440"
   inkscape:window-height="1384"
   inkscape:window-x="0"
   inkscape:window-y="28"
   inkscape:window-maximized="1"
   inkscape:current-layer="svg11" />
    <g
   transform="matrix(0.2239486,0,0,0.2239486,-864.99114,-18.335396)"
   id="g9">
        <g
   id="Artboard1"
   transform="translate(-0.743703,204.268)">
            <rect
   x="3935.74"
   y="-204.26801"
   width="633.95898"
   height="633.95898"
   style="fill:none"
   id="rect2" />
            <g
   transform="matrix(1.73113,0,0,1.73113,-1697.5,-567.717)"
   id="g6">
                <path
   d="m 3269.71,451.115 c -4.93,-3.174 -8.96,-7.842 -11.48,-14.478 -1.05,-2.761 -1.51,-5.753 -1.67,-8.703 -0.17,-3.129 -0.01,-6.321 0.7,-9.374 1.21,-5.27 4.62,-12.51 10.31,-14.719 5.57,-2.166 13.07,-1.734 19.56,0.884 6.57,2.645 12.08,7.507 13.69,14.016 0.13,0.503 0.01,0.912 -0.23,1.248 -0.22,0.315 -0.63,0.591 -1.2,0.707 -0.78,0.163 -1.96,0.018 -2.59,-0.241 -1.5,-0.612 -2.92,-1.38 -4.35,-2.106 -5.17,-2.605 -9.31,-5.548 -15.3,-6.027 -2.53,-0.203 -4.03,1.581 -4.74,3.761 -0.79,2.396 -0.68,5.308 0.21,7.148 1.33,2.756 2.93,5.393 4.74,7.855 0.05,0.062 0.1,0.123 0.14,0.184 0.35,0.4 0.7,0.794 1.06,1.182 2.7,2.599 6.57,3.607 10.74,3.835 7.67,0.42 16.35,-1.841 21.37,-2.711 4.2,-0.727 8.4,-1.408 12.59,-2.14 0,-0.113 0,-0.226 0,-0.34 0,-4.568 3.7,-8.276 8.27,-8.276 3.54,0 6.56,2.223 7.74,5.348 0.34,-0.084 0.68,-0.168 1.01,-0.253 16.76,-4.275 28.38,-18.584 39.73,-30.374 0.39,-0.406 0.95,-1.014 1.58,-1.724 0.03,-0.042 0.06,-0.082 0.1,-0.121 -3.71,1.909 -7.25,4.177 -11.1,5.794 -3.02,1.272 -6.26,2.001 -9.46,2.726 -3.04,0.689 -6.12,1.309 -9.23,1.511 -10.06,0.655 -23.53,-0.037 -34.16,-4.935 -7.25,-3.34 -13.19,-8.621 -15.97,-16.686 -8.92,-25.933 11.35,-54.708 39.1,-59.098 17.47,-2.764 35.15,-0.559 52.48,1.836 2.05,-0.19 3.39,-1.466 4.74,-2.773 1.7,-1.642 3.4,-3.352 5.89,-3.99 0.96,-0.246 1.95,-0.35 2.95,-0.358 3.33,-0.396 6.47,-0.423 9.95,-0.279 1.31,0.054 2.62,0.225 3.9,0.526 1.25,0.294 2.47,0.72 3.63,1.253 2.96,1.356 3.99,3.876 4.49,6.724 0.42,2.395 0.43,5.033 1.35,7.125 0.35,0.769 1.03,1.392 1.82,1.938 1.38,0.968 3.07,1.67 4.22,2.227 0.05,0.022 0.09,0.046 0.13,0.073 3.35,1.401 6.56,3.028 9.31,5.398 7.66,6.599 34.26,31.836 42.36,38.067 15.03,11.555 37.6,16.004 56.13,13.361 3.69,-0.526 7.3,-1.678 10.76,-3.067 3.15,-1.263 6.1,-3.022 8.96,-4.853 0.98,-0.629 1.84,-1.482 2.52,-2.428 0.65,-0.906 0.91,-1.68 0.78,-2.374 -0.22,-1.118 -1.33,-1.911 -2.71,-2.6 -4.25,-2.115 -11.27,-2.757 -12.56,-2.944 -10.61,-1.533 -21.35,-2.221 -31.92,-4.058 -0.52,-0.09 -1.03,-0.219 -1.54,-0.377 -0.25,0.002 -0.49,-0.082 -0.69,-0.238 -1.44,-0.533 -2.81,-1.284 -4.14,-2.052 -3.35,-1.948 -4.94,-5.541 -5.12,-9.479 -0.28,-5.715 2.45,-12.093 6.51,-14.762 5.15,-3.38 11.36,-2.719 17.1,-2.628 7.67,0.122 8.1,0.114 15.79,-0.594 0.59,-0.054 1.11,0.36 1.2,0.944 0.09,0.584 -0.29,1.134 -0.87,1.256 -4.51,0.945 -9.57,2.8 -14.05,3.925 -2.22,0.558 -7.67,1.888 -11.19,4.014 -1.45,0.88 -2.61,1.834 -2.73,3.036 -0.05,0.516 0.13,1.057 0.53,1.641 0.53,0.758 1.4,1.549 2.67,2.396 1.38,0.923 3.06,1.402 4.7,1.676 12.42,2.074 25.01,-0.364 37.49,1.755 2.43,0.411 6.23,1.49 9.13,3.408 2.1,1.387 3.73,3.213 4.22,5.477 2.25,10.215 -1.53,19.978 -7.93,27.916 -1.95,2.421 -3.65,3.537 -6.29,5.184 -1.82,1.136 -2.2,1.774 -3.6,2.375 8.92,1.42 20.94,2.963 30.4,0.426 5.74,-1.539 10.51,-4.618 12.92,-10.276 l 1.19,-3.906 c 0.37,-1.855 0.02,-3.324 -0.98,-4.16 -1.02,-0.858 -2.63,-0.997 -4.53,-0.4 -0.01,0.004 -0.02,0.008 -0.03,0.012 l -0.12,0.076 c -0.17,0.106 -0.36,0.165 -0.55,0.174 -3.17,1.34 -7.17,5.07 -9.63,6.729 -1.54,1.042 -3.34,1.635 -4.76,1.214 -1.06,-0.312 -2.02,-1.124 -2.56,-2.805 -1.2,-3.737 -1.05,-6.676 -0.04,-8.976 0.96,-2.185 2.71,-3.822 4.96,-5.008 3.14,-1.66 7.29,-2.43 11.43,-2.688 1.89,-0.118 4.95,-0.395 7.78,-0.123 2.05,0.196 3.98,0.693 5.36,1.659 3.51,2.458 5.01,6.443 5.3,10.87 0.42,6.265 -1.58,13.412 -3.08,17.807 -2.69,7.886 -8.3,12.068 -14.97,14.333 -6.46,2.192 -13.94,2.56 -20.64,2.833 -5.53,0.225 -13.7,0.088 -20.14,-0.588 0.54,2.222 1,4.467 1.25,6.738 0.49,4.646 -0.47,8.168 -2.38,10.824 -1.89,2.65 -4.75,4.451 -8.16,5.604 -9.68,3.276 -23.93,1.258 -31.54,0.087 -4.13,-0.637 -8.17,-1.841 -12.3,-2.529 -1.96,-0.327 -6.37,-1.27 -9.99,-0.947 -2.02,0.179 -3.81,0.679 -4.44,2.243 -0.96,2.392 -0.4,4.917 0.47,7.477 0.98,2.865 2.37,5.768 2.97,8.586 0.21,0.95 0.06,2.675 -0.47,3.499 -0.47,0.72 -1.13,1.021 -1.95,0.792 -4.45,-1.247 -7.33,-4.495 -9.03,-8.442 -1.63,-3.798 -2.16,-8.242 -1.97,-12.036 0.07,-1.341 0.75,-3.549 1.76,-5.393 0.72,-1.302 1.6,-2.415 2.5,-3 4.82,-3.141 11.14,-4.024 17.81,-3.888 9.63,0.196 19.97,2.511 27.14,2.637 1.6,0.028 6.25,-0.145 9.29,-1.662 0.01,-0.013 0.03,-0.025 0.05,-0.037 0,0 0.8,-0.591 1.92,-1.575 0.12,-0.198 0.22,-0.41 0.28,-0.64 0.17,-0.626 0.1,-1.357 -0.24,-2.216 -1,-2.577 -4.02,-3.955 -7.67,-4.793 -9.41,-2.159 -23.07,-0.315 -23.76,-0.344 -9.05,-0.385 -25.69,0.289 -35.16,-5.227 -4.11,-2.394 -8.02,-5.176 -11.79,-8.187 -8.6,-6.338 -13.02,-9.007 -24.88,-12.252 -1.75,-0.479 -3.72,-0.154 -5.67,0.478 -3.19,1.033 -6.33,2.912 -8.54,4.044 -7.54,3.854 -15.45,7.903 -21.38,13.399 -5.77,5.35 -9.62,12.09 -9.25,21.429 0.05,1.317 0.33,2.182 0.89,2.663 0.36,0.31 0.82,0.424 1.34,0.436 0.67,0.015 1.41,-0.145 2.18,-0.401 2.83,-0.947 5.94,-3.21 7.19,-4.346 4.29,-3.919 8.2,-9.365 12.76,-13.387 4.83,-4.261 10.36,-6.965 17.67,-5.083 6.39,1.647 9.68,6.558 11.76,12.332 1.95,5.422 2.81,11.604 4.47,16.192 0.72,2.012 2.87,5.596 5.23,6.711 2.09,0.994 4.21,0.439 5.91,-0.821 1.82,-1.342 3.18,-3.474 3.63,-5.585 0.7,-3.393 -1.04,-6.05 -2.98,-8.634 -2.24,-3 -4.75,-5.914 -5.2,-9.374 -0.24,-1.836 0.1,-3.386 1.04,-4.339 0.67,-0.681 1.66,-1.117 3.07,-1.095 1.02,0.017 2.23,0.526 3.37,1.267 1.51,0.976 2.92,2.323 3.58,3.013 3.34,3.5 6.35,8.241 7.63,13.172 1.32,5.096 0.81,10.387 -2.95,14.807 -5.35,6.295 -13.96,9.195 -21.64,8.292 -7.8,-0.917 -14.63,-5.711 -16.23,-14.736 -0.64,-3.592 -0.8,-7.26 -1.48,-10.843 -0.13,-0.664 -0.72,-3.087 -1.77,-4.725 -0.24,-0.366 -0.49,-0.69 -0.78,-0.922 -0.26,-0.21 -0.55,-0.335 -0.89,-0.228 -5.79,1.856 -8.91,6.886 -12.03,12.068 -3.37,5.601 -6.71,11.39 -12.68,14.324 -7.76,3.816 -16.52,1.873 -23.53,-3.026 -6.94,-4.852 -12.13,-12.591 -12.93,-20.284 -0.23,-2.181 1.07,-5.361 2.51,-6.917 0.21,-0.229 0.42,-0.458 0.63,-0.685 -7.46,4.936 -15.93,8.999 -25.07,12.987 -5.62,2.454 -11.45,4.722 -17.4,6.677 -0.14,0.125 -0.32,0.217 -0.51,0.26 -0.28,0.06 -0.56,0.118 -0.83,0.174 -9.35,2.983 -18.97,5.176 -28.58,6.09 -10.7,1.018 -21.74,0.127 -30.26,-4.964 -0.2,-0.02 -0.39,-0.093 -0.55,-0.217 -0.11,-0.083 -0.21,-0.183 -0.28,-0.295 z m 4.25,-21.015 c -1.24,-1.891 -2.37,-3.866 -3.35,-5.902 -0.61,-1.262 -0.93,-2.933 -0.94,-4.676 l -9.33,7.114 z m -2.12,-17.649 c 1.26,-1.578 3.08,-2.543 5.49,-2.35 0.12,0.009 0.23,0.019 0.35,0.031 l -5.42,-3.41 z m 14.24,0.105 c 2.43,1.129 4.78,2.498 7.37,3.804 1.39,0.7 2.75,1.444 4.19,2.034 0.17,0.069 0.51,0.096 0.8,0.106 -1.13,-3.685 -3.72,-6.711 -7.02,-8.984 -0.06,0.056 -0.13,0.106 -0.21,0.149 z m 3.2,-4.358 c -0.96,-0.526 -1.96,-0.995 -2.98,-1.407 -4.17,-1.682 -8.8,-2.411 -12.95,-2.012 3.18,2.001 10.39,6.534 10.39,6.534 z m 34.37,25.43 c -4.2,0.733 -8.4,1.416 -12.6,2.143 -5.13,0.89 -14.02,3.17 -21.88,2.74 -1.7,-0.093 -3.34,-0.313 -4.9,-0.693 12.31,10.001 28.22,13.802 44.56,10.522 6.3,-2.019 12.47,-4.401 18.4,-6.992 12.96,-5.652 24.56,-11.421 33.76,-19.739 1.45,-1.58 2.98,-3.161 4.71,-4.786 0.05,-0.054 0.11,-0.1 0.18,-0.14 5.06,-5.717 9.16,-12.556 12.05,-21.072 0.2,-0.583 0.83,-0.895 1.41,-0.697 0.59,0.198 0.9,0.831 0.7,1.413 -3.79,11.141 -9.55,19.508 -16.82,26.262 -0.03,0.038 -0.06,0.074 -0.1,0.109 -3.61,3.779 -5.74,7.073 -6.69,9.911 -0.87,2.602 -0.72,4.777 0.22,6.524 1.15,2.148 3.42,3.628 6.21,4.529 2.06,0.666 4.4,1.01 6.82,1.035 0.04,0 0.08,0 0.12,10e-4 0.9,0.006 1.81,-0.033 2.72,-0.115 -0.74,-0.811 -1.26,-2.065 -1.33,-3.938 -0.4,-10.084 3.74,-17.374 9.97,-23.15 0.64,-0.593 1.3,-1.169 1.98,-1.73 0.01,-0.08 0.03,-0.16 0.07,-0.238 l 16.82,-40.375 c -2.72,-2.162 -5.46,-4.275 -8.25,-6.326 -0.13,-0.005 -0.26,-0.034 -0.39,-0.089 -6.41,-2.73 -12.12,-1.848 -18.38,-0.634 0.02,0.083 0.02,0.168 0.02,0.255 -0.45,6.823 -1.48,15.593 -4.95,22.426 -0.1,0.234 -0.24,0.499 -0.41,0.785 -1.18,2.157 -2.62,4.096 -4.39,5.686 -0.66,0.754 -1.25,1.399 -1.67,1.831 -11.62,12.075 -23.61,26.609 -40.78,30.987 -0.35,0.09 -0.7,0.179 -1.06,0.266 0.03,0.249 0.04,0.502 0.04,0.757 0,4.568 -3.71,8.276 -8.28,8.276 -3.68,0 -6.81,-2.413 -7.88,-5.744 z m 147.99,3.062 c -1.17,-1.858 -2.52,-3.57 -3.92,-5.046 -0.59,-0.613 -1.84,-1.814 -3.18,-2.682 -0.75,-0.489 -1.52,-0.897 -2.2,-0.908 -0.65,-0.011 -1.13,0.116 -1.44,0.43 -0.53,0.539 -0.56,1.448 -0.42,2.485 0.03,0.261 0.08,0.517 0.14,0.77 z m -41.59,-14.597 c -4.18,0.247 -7.65,2.326 -10.8,5.099 -2.03,1.794 -3.93,3.872 -5.8,5.971 l 9.77,2.042 z m -157.1,28.342 c 5.13,2.73 11.13,3.962 17.35,4.242 l -4.43,-12.043 z m 22.05,4.282 c 1.86,-0.048 3.73,-0.167 5.59,-0.344 5.36,-0.51 10.72,-1.425 16.04,-2.657 -4.39,-0.058 -8.69,-0.617 -12.84,-1.661 -0.05,0.041 -0.11,0.078 -0.17,0.11 z m -10.48,-13.871 c -2.69,-2.018 -5.22,-4.307 -7.57,-6.86 -0.21,-0.195 -0.4,-0.399 -0.59,-0.609 l -3.92,14.763 z m 16.19,8.337 c -4.24,-1.335 -8.29,-3.189 -12.1,-5.542 l 3.68,9.989 z m 113.63,1.471 c 1.02,-1.57 1.98,-3.203 2.94,-4.812 1.82,-3.023 3.68,-5.962 5.98,-8.353 l -10.6,-2.216 z m 11.32,-15.304 c 1.43,-1.083 3.04,-1.957 4.88,-2.548 1.34,-0.428 2.52,0.055 3.49,1.108 1.03,1.121 1.8,2.982 2.28,4.455 l 7.69,-3.399 -12.29,-11.237 z m 11.42,6.411 c 0.5,3.15 0.69,6.349 1.25,9.49 0.58,3.228 1.91,5.833 3.76,7.843 l 5.94,-10.664 z m -26.54,-5.327 c -1.32,1.465 -2.65,2.871 -4.02,4.121 -0.53,0.482 -1.36,1.141 -2.36,1.831 l 7.7,6.095 z m 57.17,-22.256 c 2.7,2.003 5.47,3.869 8.34,5.543 9.19,5.352 25.36,4.553 34.14,4.926 0.7,0.03 14.59,-1.797 24.16,0.399 4.48,1.028 8.01,2.99 9.25,6.153 0.17,0.447 0.3,0.872 0.37,1.279 0.63,-0.658 1.25,-1.372 1.83,-2.123 1.61,-2.095 2.91,-4.465 2.47,-6.665 -0.21,-1.089 -0.9,-2.104 -2.17,-3.01 -1.46,-1.041 -3.63,-1.915 -6.7,-2.577 -0.26,-0.054 -0.47,-0.19 -0.62,-0.374 -2.69,-0.749 -5.19,-1.35 -7.2,-1.847 -13.05,-3.23 -26.55,-4.423 -39.59,-7.707 -11.52,-2.901 -21.93,-11.119 -32.16,-16.448 -23.75,-12.377 -29.79,-15.065 -43.92,-22.592 7.06,5.346 13.87,11.066 20.51,16.961 9.13,8.105 18.04,17.568 27.89,25.455 0.98,0.721 2.01,1.49 3.11,2.31 0.12,0.089 0.22,0.197 0.29,0.317 z m -61.09,-1.057 c 5.06,-3.553 10.83,-6.523 16.41,-9.375 0.25,-0.129 0.52,-0.267 0.79,-0.412 l -3.21,-23.792 z m 150.31,26.524 c 0.69,-1.874 0.93,-4.116 0.65,-6.784 -0.25,-2.399 -0.77,-4.767 -1.36,-7.11 -1.71,-1.543 -3.89,-2.871 -6.28,-4.018 0.25,0.5 0.42,1.009 0.52,1.521 0.02,0.129 0.05,0.26 0.06,0.39 z m -129.15,-38.369 c 1.32,-0.643 2.72,-1.255 4.13,-1.711 0.82,-0.265 1.64,-0.476 2.45,-0.616 l 0.1,-8.166 z m 12.83,-1.725 c 4.68,1.344 8.19,2.622 11.34,4.137 -1.85,-1.715 -3.67,-3.447 -5.48,-5.175 z M 3609.5,381.8 c -0.9,-0.327 -1.93,-0.506 -3,-0.609 -2.7,-0.259 -5.62,0.017 -7.42,0.129 -0.86,0.054 -1.72,0.13 -2.57,0.233 1.04,1.963 3.39,6.377 3.39,6.377 z m -227.29,73.097 c 0.66,0.551 1.35,1.074 2.05,1.566 2.94,2.052 6.21,3.556 9.58,4.237 -0.83,-2.327 -4.57,-12.856 -4.57,-12.856 z m 13.93,6.135 c 3.17,0.271 6.36,-0.227 9.39,-1.716 3.32,-1.634 5.74,-4.247 7.82,-7.199 -0.28,0.023 -0.56,-0.058 -0.78,-0.237 l -9.7,-7.672 z m 75.39,-3.521 c 0.27,-0.281 0.53,-0.571 0.79,-0.869 3.24,-3.819 3.63,-8.402 2.48,-12.805 -0.22,-0.864 -0.5,-1.721 -0.83,-2.565 l -4.72,8.313 z m 121.76,-75.415 c -1.15,0.257 -2.25,0.58 -3.26,0.984 -2.47,0.978 -4.47,2.421 -5.44,4.609 -0.83,1.897 -0.87,4.319 0.12,7.4 0.2,0.601 0.45,1.009 0.79,1.225 0.12,0.075 0.25,0.124 0.38,0.151 0.02,-0.118 0.05,-0.236 0.11,-0.348 z m -125.57,70.218 c -0.83,1.68 -2.08,3.223 -3.57,4.33 -0.23,0.167 -0.46,0.324 -0.69,0.47 l 5.86,0.774 z m -12.97,4.631 c -2.24,-1.688 -4.23,-4.842 -5.05,-6.923 l -4.92,8.824 z m -9.96,-24.27 c -1.83,-4.708 -4.6,-8.714 -9.9,-10.079 -0.49,-0.127 -0.98,-0.231 -1.46,-0.311 z m 3.69,13.419 c -0.8,-3.014 -1.48,-6.366 -2.42,-9.605 l -7.73,3.419 z m -48.18,-1.459 c -0.32,0.151 -0.64,0.292 -0.96,0.422 -0.13,0.282 -0.37,0.509 -0.69,0.606 -2.36,0.712 -4.87,1.122 -7.35,1.229 l 3.81,10.731 z m 188.6,-49.281 c 2.36,-1.644 5.95,-4.821 9.02,-6.408 -0.99,-1.851 -2.88,-5.401 -2.88,-5.401 z m 13.6,24.534 c 4.3,-2.25 7.8,-5.754 9.69,-11.299 0.56,-1.624 1.19,-3.643 1.73,-5.854 l -15.44,6.175 z m 12,-19.817 c 0.53,-2.759 0.84,-5.678 0.66,-8.42 -0.22,-3.338 -1.18,-6.417 -3.5,-8.509 l -3.75,12.334 c -0.22,1.059 -0.49,2.057 -0.82,2.998 z m -240.4,32.638 c -1.04,1.2 -2,3.478 -1.84,5.066 0.54,5.186 3.27,10.376 7.21,14.543 l -1.39,-8.489 c -1.46,-0.988 -2.63,-2.207 -3.4,-3.645 -1.07,-2.01 -1.4,-4.508 -0.58,-7.475 z m 70.37,28.464 c 2.36,1.655 5.18,2.641 8.16,2.992 5.4,0.635 11.32,-0.791 15.98,-4.124 l -10.77,-1.419 z m 17.47,-26.399 c 0.94,1.546 2.18,3.013 3.31,4.525 1.59,2.118 2.98,4.307 3.43,6.779 l 3.74,-6.594 z m -74.77,-81.535 c -0.41,-0.213 -0.81,-0.423 -1.22,-0.632 0.59,3.237 1.78,9.795 1.78,9.795 l 10.42,-2.85 c -0.47,-0.294 -0.95,-0.586 -1.42,-0.876 -0.25,-0.138 -0.5,-0.277 -0.75,-0.418 -0.1,-0.053 -0.19,-0.119 -0.26,-0.195 -0.86,-0.519 -1.73,-1.031 -2.6,-1.536 -1.89,-0.985 -3.76,-2.004 -5.63,-3.023 -0.13,-0.069 -0.24,-0.16 -0.32,-0.265 z m 5.69,12.641 c 4.67,-0.878 9.05,-1.551 13.61,-0.853 -1.91,-1.319 -3.83,-2.608 -5.77,-3.862 l -10.63,2.906 c 0.81,0.475 1.62,0.955 2.42,1.438 0.16,0.095 0.28,0.223 0.37,0.371 z m -21.2,-11.327 c 4.65,2.053 9.19,4.344 13.61,6.786 l -1.63,-9 z m -8.86,-11.481 c -5.42,-1.657 -11.13,-2.947 -16.85,-3.563 l 5.65,6.701 z m -9.4,4.946 c 4.39,1.179 8.72,2.639 12.97,4.316 -0.71,-2.782 -1.89,-7.418 -1.89,-7.418 z m 28.2,2.432 c -4.84,-2.309 -9.83,-4.37 -14.98,-6.136 l 2.17,8.505 z m 55.11,38.897 -0.11,8.651 7.86,-1.393 c -2.59,-2.468 -5.16,-4.91 -7.75,-7.258 z m -97.1,-50.229 c -4.84,-0.064 -9.62,0.441 -14.17,1.705 l 3.24,2.407 z m -8.61,5.619 c 6.22,0.109 12.35,0.92 18.36,2.281 l -5.88,-6.977 z m -8.15,-3.1 c -3.09,1.083 -6.05,2.548 -8.83,4.457 0.27,-0.072 0.55,-0.14 0.83,-0.205 3.97,-0.925 8.26,-1.142 12.1,-1.171 l -3.92,-2.914 c -0.07,-0.05 -0.13,-0.106 -0.18,-0.167 z m 64.32,105.151 c -1.76,-0.171 -3.45,-0.507 -5,-1.007 -0.56,-0.181 -1.1,-0.383 -1.62,-0.608 l 1.16,7.074 z m 35.37,-69.609 3.14,23.246 8.5,-13.341 c -3.82,-3.375 -7.69,-6.69 -11.64,-9.905 z m -52.94,2.936 c -2.25,1.168 -4.49,2.27 -6.75,3.253 -2.97,1.287 -5.97,2.375 -9.08,3.152 2.25,2.903 9.8,12.657 9.8,12.657 z m 92.59,-1.469 c -5.72,-3.24 -11.56,-6.153 -17.63,-8.316 l 6.42,13.223 z m 4.92,14.644 -4.13,-12.559 -10.58,4.634 c 2.55,1.318 5.36,2.769 8.46,4.386 2.07,1.081 4.15,2.284 6.25,3.539 z m -18.73,-9.992 -6.46,-13.312 -11.38,4.243 c 5.01,2.547 10.27,5.187 17.84,9.069 z m 101.45,44.608 c -0.54,1.311 -1.34,2.603 -2.27,3.806 -1.41,1.836 -3.08,3.469 -4.4,4.641 -0.5,0.69 -1.19,1.278 -2.01,1.766 l 13.67,2.248 z M 3406.26,327.063 c -4.05,0 -7.33,3.285 -7.33,7.331 0,4.047 3.28,7.332 7.33,7.332 4.05,0 7.33,-3.285 7.33,-7.332 0,-4.046 -3.28,-7.331 -7.33,-7.331 z m -21.47,45.013 c -4.37,2.156 -8.48,4.47 -12.54,6.639 l 6.59,13.005 z m -74.03,-16.109 c -1.6,-0.104 -3.3,-0.114 -4.74,0.227 4.7,3.661 9.8,6.75 15.18,9.207 l -10.25,-9.221 c -0.07,-0.064 -0.14,-0.136 -0.19,-0.213 z m 111.34,10.262 c -3.79,-0.418 -7.54,-1.239 -11.24,-2.345 5.83,3.165 10.27,5.505 14.39,7.638 z m 111,47.733 -5.89,-5.516 -13.94,1.601 c 6.32,1.059 12.64,2.135 18.85,3.673 0.31,0.078 0.64,0.158 0.98,0.242 z m -23.27,-4.494 -10.68,-8.081 -11.35,3.127 c 1.56,0.59 3.14,1.098 4.74,1.501 5.7,1.436 11.49,2.472 17.29,3.453 z m -24.02,-5.756 -4.5,-12.017 -10.17,4.041 c 4.76,2.898 9.61,5.825 14.67,7.976 z m 58.9,5.511 c -4.77,-0.253 -9.7,-0.584 -14.59,-1.11 l 5.66,5.312 z m -46.97,-9.76 c -4.76,-2.315 -9.43,-4.98 -14.06,-7.774 l 3.96,10.559 z M 3357.69,360.78 c -5.15,-0.748 -10.38,-1.383 -15.77,-1.969 1.3,2.58 5.62,11.177 5.62,11.177 z m 15.7,2.714 c -4.38,-0.895 -8.75,-1.662 -13.17,-2.338 0.67,1.814 3.12,8.511 3.12,8.511 z m -22.72,23.688 c -4.94,0.866 -10.18,0.897 -15.98,-0.323 l 9.32,14.443 z m -19.6,-1.231 c -0.31,-0.09 -0.62,-0.182 -0.93,-0.279 -4.07,-1.258 -8,-3.061 -11.62,-5.304 -0.12,-0.076 -0.24,-0.152 -0.36,-0.228 l 4.5,17.193 z m 94.37,-19.461 c -0.2,-0.009 -0.41,-0.02 -0.61,-0.032 l 3.67,6.155 10.66,-3.979 c -4.34,-1.179 -8.83,-1.931 -13.49,-2.111 -0.08,-0.003 -0.16,-0.014 -0.23,-0.033 z m 95.74,40.407 c -5.82,-0.984 -11.42,-2.361 -16.44,-4.341 -0.25,-0.1 -0.5,-0.201 -0.76,-0.304 l 7.6,5.747 z m -40.81,-17.227 c -4.75,-2.924 -9.49,-5.927 -14.28,-8.766 -0.29,-0.172 -0.58,-0.343 -0.87,-0.513 1.25,3.823 4.44,13.536 4.44,13.536 z m -141.88,-31.22 c -8.02,-0.821 -16.06,-1.467 -24.09,-2.164 3.53,3.178 10.61,9.544 10.61,9.544 z m 10.07,13.626 c 4.04,0.186 8.11,0.029 12.16,-0.492 0.31,-0.039 0.61,-0.078 0.9,-0.118 l -3.09,-8.44 z m 206.61,50.073 -7,-12.096 -10.68,5.032 c 5.73,1.536 12.7,3.758 17.68,7.064 z M 3387.59,366.87 c -3.74,-1.022 -7.44,-1.923 -11.12,-2.727 -0.08,0.1 -0.18,0.189 -0.3,0.259 l -10.55,6.481 c 7.35,-1.153 14.65,-2.696 21.97,-4.013 z m -61.12,0.702 c 6.29,2.318 12.87,3.796 19.55,4.342 l -5.93,-11.795 z m 66.69,-38.504 c -17.15,-2.372 -34.65,-4.596 -51.94,-1.86 -12.37,1.957 -23.21,8.988 -30.36,18.447 15.67,-12.227 37.59,-9.815 55.75,-3.699 3.13,1.057 6.21,2.221 9.24,3.484 0.07,0.012 0.14,0.031 0.2,0.057 9.6,3.696 19.51,2.395 28.38,-1.718 -4.4,-0.854 -7.73,-4.734 -7.73,-9.385 0,-5.276 4.28,-9.559 9.56,-9.559 5.27,0 9.56,4.283 9.56,9.559 0,0.845 -0.11,1.665 -0.32,2.445 1.46,-1.169 2.85,-2.405 4.18,-3.691 -1.17,-1.649 -1.77,-3.571 -2.45,-5.41 -0.87,-2.359 -1.93,-4.546 -5.46,-5.226 -1.51,-0.291 -3.08,-0.564 -4.63,-0.571 -0.21,0.026 -0.42,0.053 -0.64,0.081 -0.16,0.022 -0.32,0.008 -0.46,-0.036 -0.51,0.045 -1.01,0.127 -1.51,0.253 -2.09,0.536 -3.46,2.054 -4.89,3.434 -1.75,1.69 -3.56,3.207 -6.24,3.402 v 0 c -0.08,0.006 -0.16,0.003 -0.24,-0.007 z m -59.19,96.492 c -0.75,-0.33 -1.57,-0.513 -2.44,-0.513 -3.32,0 -6.02,2.682 -6.05,5.996 0.02,-0.004 0.04,-0.007 0.06,-0.011 0,0.044 0,0.089 0,0.133 0,0.725 0.13,1.42 0.36,2.065 -0.01,0.002 -0.02,0.003 -0.03,0.005 0.2,0.524 0.47,1.013 0.8,1.456 1.1,1.544 2.91,2.552 4.95,2.552 3.35,0 6.08,-2.723 6.08,-6.078 0,-2.521 -1.54,-4.685 -3.73,-5.605 z m -75.14,2.99 c 0.18,2.481 0.6,4.978 1.48,7.296 2.18,5.724 5.55,9.864 9.7,12.781 l 4.28,-16.144 z m 11.29,-23.201 c -0.6,0.16 -1.18,0.349 -1.75,0.568 -5.03,1.955 -7.87,8.481 -8.94,13.143 -0.46,1.96 -0.66,3.982 -0.7,6.003 l 10.54,-8.033 z m 336.11,-4.781 c -0.68,1.422 -1.5,2.691 -2.44,3.82 l 7.06,-2.825 z m -84.17,-28.677 c 4.61,0.752 9.26,1.304 13.91,1.822 l -2.54,-7.133 z m -95.55,-44.51 c -0.41,-1.741 -1.16,-3.276 -3.03,-4.133 -0.21,-0.098 -0.43,-0.193 -0.65,-0.283 l -2.11,4.535 z m -5.8,-5.133 c -0.15,-0.038 -0.29,-0.075 -0.44,-0.11 -1.14,-0.269 -2.31,-0.42 -3.48,-0.468 -0.4,-0.017 -0.79,-0.031 -1.17,-0.042 1.69,1.098 2.62,2.666 3.33,4.398 z m 32.8,32.481 c -3.93,-3.604 -7.23,-6.606 -9.23,-8.333 -3.03,-2.612 -6.68,-4.239 -10.4,-5.716 -3.89,-1.542 -7.87,-2.92 -11.39,-4.964 -0.49,-0.282 -0.92,-0.59 -1.31,-0.921 -9.6,9.283 -22.6,15.911 -35.81,15.018 2.97,1.492 5.9,3.074 8.77,4.737 2.6,1.355 5.23,2.646 7.93,3.781 6.65,2.798 13.53,4.98 20.52,5.716 0.18,-0.027 0.37,-0.008 0.54,0.054 5.49,0.518 11.04,0.133 16.62,-1.554 4.92,-1.489 10.57,-3.477 13.76,-7.818 z m 142.92,55.062 c -1.33,0.591 -2.74,1.077 -4.21,1.471 -4.1,1.099 -8.66,1.463 -13.26,1.408 l 20.97,6.676 z m -38.57,-44.066 c -7.48,-0.395 -14.98,0.192 -22.44,-0.177 l 2.53,7.079 z m -255.35,-1.507 c -0.91,4.94 -0.89,10.045 0.23,15.101 0.18,-0.166 0.42,-0.273 0.68,-0.289 l 12.04,-0.706 c -4.38,-3.142 -7.92,-6.737 -11.1,-11.158 -0.4,-0.56 -1.18,-1.684 -1.85,-2.948 z m 42.82,39.492 c 2.25,0.003 4.41,-0.074 6.43,-0.206 2.99,-0.194 5.95,-0.798 8.88,-1.46 0.66,-0.15 1.32,-0.299 1.98,-0.454 l -10.12,-13.075 z m 82.93,-67.646 c -0.02,-0.029 -0.03,-0.058 -0.04,-0.088 -0.84,-1.896 -1.02,-4.203 -1.33,-6.424 -0.1,0.034 -0.21,0.053 -0.32,0.056 l -6.24,0.128 c 0.64,1.568 1.53,3.037 3.28,4.052 1.48,0.86 3.04,1.596 4.65,2.276 z m 111.99,38.122 c 4.02,0.444 8.04,0.902 12.04,1.479 1.35,0.196 8.64,0.913 13.12,3.103 l -5.06,-11.545 z m -9.16,-8.974 c -1.08,-0.118 -2.16,-0.265 -3.24,-0.445 -1.95,-0.325 -3.93,-0.924 -5.57,-2.021 -2.62,-1.749 -3.81,-3.43 -4.12,-4.924 l -6.58,2.065 7.33,11.019 z m -10.4,-12.474 c 0.37,-0.287 0.78,-0.562 1.21,-0.823 3.71,-2.244 9.46,-3.68 11.8,-4.268 1.25,-0.316 2.56,-0.689 3.88,-1.083 -1.42,0.002 -3.09,-0.023 -5.44,-0.06 -3.48,-0.055 -7.15,-0.408 -10.6,0.23 z m -197.6,47.769 c 0.29,0.098 0.59,0.194 0.88,0.287 6.12,1.913 12.76,2.714 18.92,2.882 l -10.32,-16.005 z m 246.76,11.589 c -4.71,-0.5 -9.13,-1.234 -12.74,-1.825 -0.48,-0.078 -1.25,-0.064 -1.67,-0.255 -0.19,-0.085 -0.35,-0.189 -0.48,-0.313 -1.48,-0.067 -2.99,-0.133 -4.53,-0.203 l 8.07,13.95 c 0.04,0.065 0.07,0.133 0.09,0.202 6.36,0.683 14.51,0.822 20.01,0.598 6.5,-0.264 13.75,-0.591 20.01,-2.716 0.14,-0.046 0.27,-0.093 0.41,-0.14 l -29.03,-9.241 c -0.05,-0.016 -0.09,-0.035 -0.14,-0.057 z M 3304.3,357.671 c -0.22,0.606 -0.43,1.216 -0.62,1.83 0,0.123 -0.02,0.247 -0.07,0.369 -0.22,0.608 0.03,1.409 0.36,2.221 0.64,1.557 1.72,3.108 2.2,3.775 3.72,5.166 7.95,9.153 13.53,12.609 3.45,2.143 7.21,3.867 11.1,5.069 14.77,4.569 25.71,0.744 36.75,-4.877 5.52,-2.808 11.06,-6.06 17.08,-8.987 -7.86,1.472 -15.69,3.095 -23.62,4.114 -20.17,2.592 -40.77,-3.544 -56.71,-16.123 z m -1.09,23.551 c 0.2,0.721 0.42,1.441 0.67,2.159 2.86,8.299 9.38,13.365 17.11,16.371 l -5.04,-19.226 -12.4,0.728 c -0.12,0.007 -0.23,-0.005 -0.34,-0.032 z m 62.15,19.684 c 1.49,-0.405 2.95,-0.874 4.37,-1.469 2.88,-1.213 5.59,-2.797 8.33,-4.316 l -6.69,-13.214 z m 15.18,-7.122 c 0.51,-0.266 1.03,-0.525 1.55,-0.775 0.04,-0.029 0.38,-0.29 0.65,-0.524 0.92,-0.805 2.27,-2.096 3.04,-2.752 0.22,-0.191 0.43,-0.337 0.6,-0.441 2.97,-6.077 3.9,-13.734 4.34,-19.944 -1.08,0.46 -2.15,0.936 -3.2,1.424 z m 188.77,-11.232 c 0.05,0.143 0.08,0.289 0.11,0.437 0.23,1.184 -0.04,2.556 -1.16,4.102 -0.84,1.172 -1.91,2.222 -3.12,3.001 -2.98,1.906 -6.05,3.729 -9.33,5.045 -3.63,1.455 -7.41,2.653 -11.28,3.205 -19.08,2.722 -42.32,-1.9 -57.8,-13.801 -5.71,-4.39 -20.57,-18.189 -31.57,-28.298 -3.5,4.59 -9.49,6.838 -14.77,8.436 -1.32,0.401 -2.64,0.731 -3.96,0.997 10.92,2.383 20.98,7.496 30.79,13.311 12.72,7.534 25.03,16.246 38.34,21.497 14.59,5.755 34.12,6.3 49.74,7.004 0.12,-0.063 0.26,-0.118 0.41,-0.162 0.61,-0.17 1.76,-0.236 2.7,-0.279 0.4,-0.019 0.9,-0.058 0.97,-0.064 2.26,-0.677 2.27,-1.304 4.28,-2.563 2.4,-1.497 3.96,-2.492 5.73,-4.692 5.98,-7.412 9.6,-16.503 7.5,-26.04 -0.38,-1.716 -1.68,-3.045 -3.27,-4.096 -2.63,-1.737 -6.08,-2.698 -8.28,-3.071 -1.02,-0.173 -2.04,-0.316 -3.06,-0.433 l 6.95,15.833 c 0.09,0.206 0.12,0.424 0.08,0.631 z m -60.07,62.539 c 2.94,0.641 5.86,1.392 8.82,1.849 3.08,0.474 7.29,1.107 11.83,1.45 l -9.23,-7.91 z m 1.67,-82.196 c 0.38,2.64 1.58,4.981 3.89,6.324 0.17,0.096 0.33,0.191 0.5,0.286 z m 93.07,25.072 c 0.86,0.207 1.61,0.583 2.22,1.094 0.38,0.319 0.71,0.693 0.99,1.12 l 1.61,-5.291 z m -70.74,60.616 c 5.32,0.2 10.82,-0.122 15.31,-1.639 2.7,-0.914 5.02,-2.267 6.65,-4.256 -3.77,-0.621 -15.11,-2.486 -15.11,-2.486 z m -44.97,2.068 c -0.01,-1.212 0.18,-2.405 0.65,-3.571 0.18,-0.457 0.43,-0.865 0.72,-1.229 l -4.5,0.341 z m 30.93,-103.307 c -1,0.348 -1.97,0.81 -2.9,1.423 -2.61,1.712 -4.51,5.231 -5.22,8.944 2.47,-0.775 6.97,-2.188 6.97,-2.188 z m -23.89,90.807 c -3.26,0.49 -6.27,1.444 -8.82,3.106 -0.65,0.424 -1.25,1.265 -1.77,2.206 -0.09,0.179 -0.19,0.362 -0.28,0.548 l 6.83,-0.516 z m 22.72,0.99 c -4.83,-0.64 -10.01,-1.309 -15,-1.411 -1.2,-0.024 -2.38,-0.016 -3.55,0.034 l 6.86,6.098 z m 19.79,0.31 c -2.99,0.804 -6.29,0.94 -7.63,0.916 -2.07,-0.036 -4.39,-0.253 -6.88,-0.548 l 8.36,7.166 z m -54.54,7.973 c -0.02,0.167 -0.04,0.325 -0.05,0.47 -0.17,3.48 0.3,7.561 1.8,11.045 0.08,0.2 0.17,0.398 0.27,0.593 l 3.07,-4.864 z m 3.27,14.278 c 1.35,1.935 3.17,3.476 5.59,4.272 0.08,-0.418 0.19,-1.186 0.12,-1.535 -0.54,-2.49 -1.72,-5.045 -2.64,-7.58 l -2.98,4.719 c -0.03,0.044 -0.06,0.085 -0.09,0.124 z m 7.42,-18.087 c 0.41,-0.075 0.83,-0.131 1.26,-0.169 2.59,-0.231 5.56,0.136 7.86,0.505 l -5.61,-4.981 z m -187.28,-91.398 c -0.3,0.584 -0.59,1.175 -0.87,1.77 2.69,-0.509 6,-0.161 8.26,0.036 9.12,0.793 18.25,1.515 27.35,2.494 15.34,1.651 29.38,3.684 44.05,7.485 -16.89,-9.487 -35.53,-16.843 -55.08,-17.046 -4.44,-0.046 -10,-0.071 -15.04,1.103 -3.24,0.753 -6.26,1.997 -8.59,4.098 -0.03,0.021 -0.05,0.041 -0.08,0.06 z m 176.41,-41.87 c 5.78,0 10.47,4.692 10.47,10.471 0,5.779 -4.69,10.471 -10.47,10.471 -5.78,0 -10.47,-4.692 -10.47,-10.471 0,-5.779 4.69,-10.471 10.47,-10.471 z m 0,2.228 c -4.55,0 -8.24,3.693 -8.24,8.243 0,4.549 3.69,8.243 8.24,8.243 4.55,0 8.25,-3.694 8.25,-8.243 0,-4.55 -3.7,-8.243 -8.25,-8.243 z m -6.89,26.874 c 3.8,0 6.89,3.089 6.89,6.893 0,3.804 -3.09,6.893 -6.89,6.893 -3.8,0 -6.89,-3.089 -6.89,-6.893 0,-3.804 3.09,-6.893 6.89,-6.893 z m 0,2.228 c -2.57,0 -4.67,2.09 -4.67,4.665 0,2.575 2.1,4.665 4.67,4.665 2.57,0 4.67,-2.09 4.67,-4.665 0,-2.575 -2.1,-4.665 -4.67,-4.665 z"
   style="fill:#ffffff"
   id="path4" />
            </g>
        </g>
    </g>
</svg>
