<?xml version="1.0" encoding="UTF-8" standalone="no"?><!DOCTYPE svg PUBLIC "-//W3C//DTD SVG 1.1//EN" "http://www.w3.org/Graphics/SVG/1.1/DTD/svg11.dtd"><svg width="100%" height="100%" viewBox="0 0 790 465" version="1.1" xmlns="http://www.w3.org/2000/svg" xmlns:xlink="http://www.w3.org/1999/xlink" xml:space="preserve" xmlns:serif="http://www.serif.com/" style="fill-rule:evenodd;clip-rule:evenodd;stroke-miterlimit:1.5;"><rect id="reactable_extras" x="0.86" y="0.159" width="788.726" height="463.956" style="fill:none;"/><clipPath id="_clip1"><rect x="0.86" y="0.159" width="788.726" height="463.956"/></clipPath><g clip-path="url(#_clip1)"><rect id="retreat-logo" serif:id="retreat logo" x="0.86" y="364.116" width="519.685" height="519.685" style="fill:none;"/><ellipse cx="399.424" cy="248.316" rx="271.254" ry="42.748" style="fill-opacity:0.15;"/><path d="M391.574,46.684l-51.034,-1.108l-15.482,15.081l-138.972,-1.654c-0,0 -48.12,9.286 -60.675,30.946c-12.554,21.66 -20.923,53.888 -18.827,71.577c2.097,17.69 12.069,53.111 40.874,65.393c28.806,12.282 57.746,13.333 74.84,13.747c17.093,0.414 17.378,0.015 17.378,0.015l95.414,-50.275c0,0 -2.638,29.905 -36.302,62.493c-33.663,32.587 -95.852,64.684 -130.476,70.285c-34.623,5.6 -54.919,6.733 -54.919,6.733c0,-0 13.692,13.621 72.876,5.237c59.184,-8.383 95.121,-28.479 95.121,-28.479c-0,0 -11.901,14.872 -7.087,31.402c4.813,16.53 -0.009,26.78 17.81,38.954c17.819,12.174 45.861,8.659 60.13,-5.906c14.269,-14.566 14.473,-29.082 33.236,-32.153c18.764,-3.07 33.19,-5.325 39.173,-2.484c5.983,2.841 14.335,11.272 14.335,11.272c0,-0 8.642,-4.553 -1.599,-14.942c-10.242,-10.389 -26.43,-22.692 -38.445,-24.515c-12.016,-1.823 -34.794,-3.971 -39.685,-3.356c-4.891,0.616 8.809,-27.15 22.606,-34.584c13.796,-7.434 61.339,-55.515 61.339,-55.515c0,-0 31.568,38.353 65.188,55.909c33.62,17.555 50.713,18.728 82.843,18.475c32.13,-0.253 42.306,-7.779 58.213,3.395c15.907,11.173 36.145,28.559 32.749,42.242c-3.397,13.682 -0.581,29.778 7.041,21.565c7.623,-8.213 31.964,-35.846 18.094,-54.581c-13.869,-18.735 -15.572,-31.542 -32.318,-34.158c-16.746,-2.616 -52.219,6.708 -83.779,0.729c-31.561,-5.978 -41.286,-10.642 -45.135,-15.237c-3.849,-4.596 24.513,-6.256 24.513,-6.256c0,-0 95.534,-3.073 109.846,-4.08c16.002,-1.126 65.785,-43.283 51.382,-79.382c-13.007,-32.598 -14.636,-30.963 -14.636,-30.963l-5.862,43.614l-22.414,30.754l-105.671,0l-57.329,-16.468l-76.851,-76.868l-46.724,-28.617l-10.779,-38.237Z" style="fill:#f44530;"/><clipPath id="_clip2"><path d="M391.574,46.684l-51.034,-1.108l-15.482,15.081l-138.972,-1.654c-0,0 -48.12,9.286 -60.675,30.946c-12.554,21.66 -20.923,53.888 -18.827,71.577c2.097,17.69 12.069,53.111 40.874,65.393c28.806,12.282 57.746,13.333 74.84,13.747c17.093,0.414 17.378,0.015 17.378,0.015l95.414,-50.275c0,0 -2.638,29.905 -36.302,62.493c-33.663,32.587 -95.852,64.684 -130.476,70.285c-34.623,5.6 -54.919,6.733 -54.919,6.733c0,-0 13.692,13.621 72.876,5.237c59.184,-8.383 95.121,-28.479 95.121,-28.479c-0,0 -11.901,14.872 -7.087,31.402c4.813,16.53 -0.009,26.78 17.81,38.954c17.819,12.174 45.861,8.659 60.13,-5.906c14.269,-14.566 14.473,-29.082 33.236,-32.153c18.764,-3.07 33.19,-5.325 39.173,-2.484c5.983,2.841 14.335,11.272 14.335,11.272c0,-0 8.642,-4.553 -1.599,-14.942c-10.242,-10.389 -26.43,-22.692 -38.445,-24.515c-12.016,-1.823 -34.794,-3.971 -39.685,-3.356c-4.891,0.616 8.809,-27.15 22.606,-34.584c13.796,-7.434 61.339,-55.515 61.339,-55.515c0,-0 31.568,38.353 65.188,55.909c33.62,17.555 50.713,18.728 82.843,18.475c32.13,-0.253 42.306,-7.779 58.213,3.395c15.907,11.173 36.145,28.559 32.749,42.242c-3.397,13.682 -0.581,29.778 7.041,21.565c7.623,-8.213 31.964,-35.846 18.094,-54.581c-13.869,-18.735 -15.572,-31.542 -32.318,-34.158c-16.746,-2.616 -52.219,6.708 -83.779,0.729c-31.561,-5.978 -41.286,-10.642 -45.135,-15.237c-3.849,-4.596 24.513,-6.256 24.513,-6.256c0,-0 95.534,-3.073 109.846,-4.08c16.002,-1.126 65.785,-43.283 51.382,-79.382c-13.007,-32.598 -14.636,-30.963 -14.636,-30.963l-5.862,43.614l-22.414,30.754l-105.671,0l-57.329,-16.468l-76.851,-76.868l-46.724,-28.617l-10.779,-38.237Z"/></clipPath><g clip-path="url(#_clip2)"><path d="M348.18,255.527c0,0 -43.518,70.303 -86.183,85.27c-42.664,14.967 11.345,-19.231 11.345,-19.231c-0,-0 8.036,-13.821 12.578,-18.658c4.541,-4.836 31.373,-22.237 31.373,-22.237l30.887,-25.144Z" style="fill-opacity:0.38;"/></g><path d="M665.549,270.796c18.551,-3.889 61.194,60.783 22.255,83.98c-26.619,15.857 6.576,-3.172 12.409,-6.083c5.832,-2.911 16.073,-24.234 8.365,-40.244c-7.708,-16.011 -21.048,-34.182 -21.048,-34.182l-14.056,-8.727l-7.925,5.256Z" style="fill:#fff;"/><path d="M201.148,63.754c-45.024,7.954 -79.338,33.743 -94.885,76.688l17.405,-48.723l50.01,-28.501l27.47,0.536Z" style="fill:#fff;"/><path d="M458.498,183.831c-0,-0 43.905,76.171 88.688,76.171c40.199,0 16.213,-0.161 16.213,-0.161l-74.892,-47.258l-30.009,-28.752Z" style="fill:#fff;"/><path d="M359.968,52.246l-89.883,71.096l68.269,-72.977l21.614,1.881" style="fill:#fff;"/><path d="M414.43,110.598c-0,54.786 -35.143,113.043 -66.465,144.935l46.924,-96.504l10.184,-65.284l12.164,3.88l-2.807,12.973Z" style="fill:#fff;"/><path d="M287.461,59.401l-41.581,62.332l22.742,-3.438l53.979,-57.294l-35.14,-1.6Z" style="fill-opacity:0.22;"/><path d="M304.138,59.665l-42.546,56.445l63.459,-57.322l-20.913,0.877Z" style="fill-opacity:0.23;"/><path d="M427.309,180.1c-0,-0 77.967,96.197 144.138,96.197c66.171,0 90.971,8.94 103.198,29.621c12.228,20.681 1.279,9.317 1.279,9.317l-20.152,-19.619l-37.592,-3.028l-45.317,0.205l-58.912,-17.408l-58.517,-43.529l-28.125,-51.756Z" style="fill-opacity:0.2;"/><path d="M467.434,177.449c-0,0 54.736,61.216 161.099,53.945c106.364,-7.272 100.294,-67.133 100.294,-67.133l5.53,3.93l3.237,8.928l-23.476,47.149l-23.639,20.165l-75.709,2.443l-70.163,0.371l-24.939,-9.518l-33.073,-27.91l-19.161,-32.37Z" style="fill-opacity:0.24;"/><path d="M511.593,226.248l137.469,16.379l-97.108,4.506l-20.058,-3.365l-20.303,-17.52Z" style="fill-opacity:0.42;"/><path d="M305.358,345.502c7.688,24.819 41.843,9.166 76.107,-9.877l-11.62,15.271l-14.999,18.023l-20.511,14.252l-18.079,1.997l-23.972,-9.708l-11.623,-10.551l24.697,-19.407Z" style="fill-opacity:0.27;"/><path d="M416.21,162.02c0,66.159 -55.279,121.675 -129.358,188.503c-46.842,42.256 82.759,-66.894 82.759,-66.894l52.105,-48.327l-5.506,-73.282Z" style="fill-opacity:0.27;"/><path d="M366.831,77.607c14.936,162.64 -100.274,244.63 -221.744,255.642c0,-0 92.378,3.728 134.978,-27.534c42.599,-31.263 100.195,-93.795 110.064,-124.864c9.868,-31.069 10.963,-88.085 10.963,-88.085l-34.261,-15.159Z" style="fill-opacity:0.27;"/><path d="M425.258,194.492l-0.931,36.443l19.468,-15.941l-18.537,-20.502Z" style="fill-opacity:0.34;"/><path d="M427.317,194.466l-2.581,35.092l18.728,-14.564l-16.147,-20.528Z" style="fill-opacity:0.47;"/><path d="M108.653,147.897c22.527,78.954 151.17,72.339 238.388,1.279l-7.167,33.348l-53.242,32.359l-49.972,26.204l-76.978,-4.469l-38.464,-31.006l-18.277,-38.624l5.712,-19.091Z" style="fill-opacity:0.26;"/><path d="M344.771,151.02c0,0 -64.679,73.3 -101.893,84.282c-37.214,10.982 88.828,-43.964 88.828,-43.964l20.276,-33.496l-7.211,-6.822Z" style="fill-opacity:0.37;"/><path d="M86.325,332.915c-11.829,-1.892 -20.099,-7.247 -24.289,-14.187c-3.384,-5.606 -4.318,-12.354 -2.217,-19.688l10.246,2.934c-3.244,11.326 5.709,19.547 21.515,20.845l-0.008,0.091c7.582,0.72 15.265,1.089 23.034,1.089c90.595,0 169.569,-50.158 210.641,-124.195l-84.553,46.419l-0.484,-0.354l-0,0.961l-45.471,0l0,0.05c-53.425,0 -96.799,-43.374 -96.799,-96.799c-0,-51.711 40.636,-94.006 91.69,-96.667l-0,-0.133l135.775,0l11.55,-11.364l-0,-0.223l0.227,-0l0.033,-0.033l0.033,0.033l59.822,-0l11.007,44.608l15.519,7.682l0.601,-0.022l0.012,0.326l25.805,12.773l-0.193,0.388l77.336,77.337l66.545,17.83l70.149,0l-0,-0.096c26.313,-0 47.676,-21.363 47.676,-47.677c0,-23.438 -16.949,-42.949 -39.248,-46.933c-3.272,-0.49 -6.62,-0.744 -10.027,-0.744l-0,-10.658c0.534,-0 1.067,0.005 1.599,0.016l-0,-0.016c3.466,-0 6.862,0.303 10.163,0.884c37.418,5.677 66.131,38.016 66.131,77.009c0,42.99 -34.903,77.893 -77.893,77.893l-0,-0.105l-97.275,-0c16.42,5.018 33.848,7.718 51.901,7.718l45.182,0l-0,0.084c30.289,1.628 54.382,26.737 54.382,57.429c-0,23.646 -14.301,43.98 -34.72,52.811c-13.389,5.791 -25.379,6.737 -33.645,6.737l0,-10.658c6.477,-0 15.574,-0.643 25.819,-4.422c2.873,-6.067 4.478,-12.849 4.478,-20.003c0,-25.233 -19.989,-45.834 -44.983,-46.817l0,0.102l-48.274,-0l0,-0.218c-57.4,-2.123 -108.268,-29.999 -141.375,-72.405l-29.544,26.24l-0.047,-0.053l-55.469,49.92c5.573,-1.197 11.355,-1.828 17.284,-1.828c44.462,0 80.707,35.46 81.972,79.618c0.351,2.479 0.532,5.011 0.532,7.585c0,29.665 -24.084,53.749 -53.749,53.749l0,-10.658c23.783,-0 43.091,-19.308 43.091,-43.091c-0,-1.758 -0.106,-3.493 -0.311,-5.197l-0.187,0c0,-0.489 -0.005,-0.977 -0.015,-1.463c-3.206,-20.625 -21.06,-36.43 -42.578,-36.43c-16.22,-0 -30.358,8.983 -37.712,22.239l-0.012,-0.007c-9.173,16.507 -26.791,27.684 -46.998,27.684c-29.656,0 -53.732,-24.076 -53.732,-53.732c-0,-7.416 1.505,-14.483 4.227,-20.912c-34.083,17.279 -72.622,27.019 -113.419,27.019c-24.581,0 -48.343,-3.537 -70.805,-10.128l0.055,-0.187Zm249.723,-155.175c4.047,-9.466 7.504,-19.243 10.326,-29.285l10.261,2.883c-26.756,95.229 -108.259,167.646 -208.338,181.077c2.914,0.104 5.84,0.157 8.778,0.157c132.439,-0 240.039,-107.191 240.704,-239.474l-31.682,-15.683l4.728,-9.552l24.746,12.249l-6.849,-27.76l-47.176,-0l-71.374,70.228l65.876,55.16Zm-102.289,58.432l5.447,-27.607l-0.24,0.258l-73.274,-67.92l-56.95,8.403l-0.129,-0.869c-0.01,0.547 -0.015,1.095 -0.015,1.644c0,47.291 38.192,85.733 85.389,86.138l-0,-0.047l39.772,-0Zm7.791,-39.486l13.612,-68.985l-75.945,11.206l62.333,57.779Zm23.577,-64.429l-19.561,99.132l83.322,-45.743l-63.761,-53.389Zm-70.388,-68.317c-43.594,-0 -79.668,32.453 -85.359,74.498l52.361,-7.726l38.322,-66.772l-5.324,-0Zm119.834,-0l-102.221,-0c-6.223,10.842 -29.585,51.548 -37.185,64.791l86.533,-12.768l52.873,-52.023Zm99.217,37.083l-5.431,-2.689c-2.13,84.108 -45.658,158.005 -110.951,202.056l0.027,0.043c-12.302,7.589 -20.51,21.188 -20.51,36.69c-0,6.211 1.317,12.116 3.687,17.452l36.66,-32.993c2.497,-2.559 5.16,-4.956 7.971,-7.173l93.278,-83.947l-4.731,-129.439Zm27.629,13.676l-16.767,-8.3l1.042,28.503l15.725,-20.203Zm76.686,76.107l-64.845,-64.844l-21.957,59.705c5.321,8.061 14.746,22.087 16.692,24.789c14.181,19.693 32.294,36.368 53.185,48.873l51.535,-0c-39.352,-14.286 -72.606,-41.331 -94.748,-76.125l8.992,-5.722c9.102,14.302 20.194,27.218 32.884,38.354l18.262,-25.03Zm49.26,15.787l-39.803,-10.665l-14.556,19.951l54.359,-9.286Zm98.77,6.541l0,0.14l-74.42,0l0,-0.027l-78.306,13.375c7.807,5.611 16.086,10.605 24.767,14.909l126.129,-0l-0,0.074c36.16,-1.087 65.182,-30.783 65.182,-67.204c-0,-12.246 -3.281,-23.733 -9.012,-33.626c1.118,4.506 1.711,9.218 1.711,14.068c-0,31.431 -24.912,57.089 -56.051,58.291Zm-52.349,57.406c-3.949,-0.063 -7.869,-0.249 -11.756,-0.553l-80.042,0c21.536,9.289 45.269,14.437 70.196,14.437l0,0.088l39.336,-0l-0,-0.139c31.742,-0 57.512,25.77 57.512,57.512c0,4.306 -0.474,8.502 -1.373,12.539c11.026,-8.576 18.125,-21.967 18.125,-37.004c-0,-25.86 -20.995,-46.855 -46.854,-46.855l-45.144,0l0,-0.025Zm-176.365,-56.633c-2.21,-3.231 -5.792,-8.539 -9.345,-13.836l0.783,21.44l8.562,-7.604Zm-1.371,126.455c-12.691,-19.769 -34.869,-32.878 -60.084,-32.878c-16.534,0 -31.762,5.638 -43.866,15.093l-7.432,6.688c-0.216,0.224 -0.431,0.449 -0.645,0.676l-0.052,-0.049l-37.739,33.964c7.893,9.953 20.09,16.341 33.767,16.341c16.346,0 30.576,-9.126 37.875,-22.554l0.015,0.008c9.225,-16.335 26.75,-27.371 46.832,-27.371c11.686,0 22.506,3.738 31.329,10.082Zm-9.7,-187.491l2.144,8.855l7.646,-20.429l-9.819,10.765l0.029,0.809Z"/><path d="M448.943,122.294l-21.543,57.559l-7.056,-29.145l28.359,-31.092l0.24,2.678Z" style="fill-opacity:0.28;"/><circle cx="540.163" cy="69.078" r="18.606" style="fill:#fff;stroke:#000;stroke-width:8.33px;"/><circle cx="205.96" cy="56.702" r="18.606" style="fill:#fff;stroke:#000;stroke-width:8.33px;"/><circle cx="558.768" cy="115.699" r="9.468" style="fill:#fff;stroke:#000;stroke-width:8.33px;"/><circle cx="323.26" cy="383.707" r="12.129" style="fill:#fff;stroke:#000;stroke-width:8.33px;"/><circle cx="502.122" cy="359.45" r="12.129" style="fill:#fff;stroke:#000;stroke-width:8.33px;"/><circle cx="551.636" cy="305.97" r="16.601" style="fill:#fff;stroke:#000;stroke-width:8.33px;"/></g></svg>