<?xml version="1.0" encoding="UTF-8" standalone="no"?><!DOCTYPE svg PUBLIC "-//W3C//DTD SVG 1.1//EN" "http://www.w3.org/Graphics/SVG/1.1/DTD/svg11.dtd"><svg width="100%" height="100%" viewBox="0 0 790 465" version="1.1" xmlns="http://www.w3.org/2000/svg" xmlns:xlink="http://www.w3.org/1999/xlink" xml:space="preserve" xmlns:serif="http://www.serif.com/" style="fill-rule:evenodd;clip-rule:evenodd;stroke-linejoin:round;stroke-miterlimit:2;"><rect id="rhino" x="0.342" y="0.158" width="788.726" height="463.956" style="fill:none;"/><clipPath id="_clip1"><rect x="0.342" y="0.158" width="788.726" height="463.956"/></clipPath><g clip-path="url(#_clip1)"><rect id="retreat-logo" serif:id="retreat logo" x="0.342" y="364.114" width="519.685" height="519.685" style="fill:none;"/><ellipse cx="384.938" cy="391.925" rx="279.333" ry="16.56" style="fill-opacity:0.14;"/><path d="M740.031,268.638l-1.284,23.785l-16.644,24.606l-25.529,13.585l-13.85,1.594l-21.602,22.714l-60.104,-11.351l-6.815,-19.145l-31.885,-0.611l-20.886,-36.691l-27.901,14.26l10.501,48.744l-37.835,21.981l4.613,24.857l-47.776,-28.349l16.262,-29.254l-29.289,-8.287l-6.242,2.004l-19.056,30.547l13.491,14.32l-46.804,-0.02l9.243,-42.554l-54.784,-1.426l-34.486,-8.365l-33.216,10.223l2.938,24.691l11.46,6.504l-38.255,15.159l-28.962,-28.889l8.883,-16.526l-26.034,-16.753l-20.934,25.558l-1.883,22.117l17.236,19.701l-63.004,2.617l-0.994,-68.587l25.201,-45.08l0.507,-45.67l6.934,-24.678l-30.209,9.193l-14.814,-5.431l-28.568,3.789l28.27,-23.466l17.992,4.962l32.369,-27.986l12.999,-38.876c0,0 53.465,5.121 90.651,3.78c37.187,-1.341 104.102,-18.165 139.328,-32.926c35.227,-14.761 68.948,-45.082 68.948,-45.082l97.09,56.337l35.521,66.534l19.187,-22.257l9.777,19.37l-0.019,5.593l-15.408,9.939l23.785,48.074l32.354,54.907c-0,-0 17.114,2.302 25.935,-0c8.821,-2.303 43.597,-23.785 43.597,-23.785" style="fill:#b8c1e9;"/><path d="M616.313,158.59l-8.696,21.254l6.19,9.185l15.392,-7.01l-2.123,-13.172l-10.763,-10.257Z" style="fill:#44538b;"/><path d="M434.156,186.004l56.646,-118.35l-21.541,-11.595l-35.105,129.945Z" style="fill:#fff;"/><path d="M671.354,286.678l10.375,46.52l22.312,-3.794l28.484,-24.279l5.757,-33.71l-24.939,13.126l-18.037,5.44l-23.952,-3.303" style="fill:#fff;"/><path d="M738.282,271.415c0,0 -10.804,42.521 -57.961,44.662c-33.42,1.517 0.293,14.326 0.293,14.326l19.654,2.795l34.377,-30.891l6.99,-24.878l-3.353,-6.014Z" style="fill-opacity:0.15;"/><path d="M677.369,325.832l-78.615,1.26l3.998,16.383l58.022,11.766l23.354,-20.063l-6.759,-9.346Z" style="fill-opacity:0.2;"/><path d="M163.219,160.279l-14.743,49.01l-24.516,5.623l-12.466,-7.44l-31.019,6.424l24.161,-23.844l23.19,3.812l35.393,-33.585" style="fill:#44538b;"/><path d="M140.184,179.214l-10.87,30.096l19.624,-1.417l10.438,-42.937l-19.192,14.258Z" style="fill-opacity:0.2;"/><path d="M577.884,158.59l-73.378,118.946l7.52,27.589l34.966,-18.447l30.892,-128.088Z" style="fill:#44538b;"/><path d="M577.884,156.686l-48.484,134.435l18.598,-6.823l29.886,-127.612Z" style="fill-opacity:0.3;"/><path d="M456.35,342.374l-54.663,-146.903l17.362,-50.09l-44.742,23.603l-16.767,4.969l-92.25,-14.341l94.438,-4.835l46.732,-24.182l41.656,-24.113l-13.654,76.739l36.115,152.93l-14.227,6.223Z" style="fill-opacity:0.13;"/><path d="M441,332.721l-38.873,-22.774l-54.25,-88.478l-106.873,27.99l-24.446,-0.924l-71.729,-20.313l-3.523,48.223l-24.547,46.085l-0.059,66.251l62.302,-0.443l-15.13,-20.05l7.309,-28.259l20.145,-16.021l18.57,4.694l4.15,10.954l-9.252,11.365l23.657,25.129l42.33,-4.735l-5.746,-9.918l-7.045,-24.569l42.7,-11.307l26.269,5.336l57.35,1.59l-11.62,43.903l42.465,-2.5l-10.257,-8.331l19.164,-31.29l16.939,-1.608Z" style="fill:#44538b;"/><path d="M209.401,300.475l-64.033,-22.227l0.853,-38.486l63.18,60.713Z" style="fill-opacity:0.14;"/><path d="M250.58,260.29l-28.29,44.835l-9.124,-0l12.262,-50.932l12.854,-3.338l12.298,9.435Z" style="fill-opacity:0.34;"/><path d="M345.612,223.976l35.695,107.12l53.155,-0l-37.96,-25.971l-50.89,-81.149Z" style="fill-opacity:0.22;"/><path d="M423.359,331.096l-40.764,1.121l-12.951,47.406l51.196,0l-16.307,-16.389l18.826,-32.138Z" style="fill-opacity:0.35;"/><path d="M413.277,351.603l-33.12,-8.268l2.95,-11.095l37.939,1.089l-7.769,18.274Z" style="fill-opacity:0.34;"/><path d="M293.41,322.261l-84.927,-17.136l-13.561,17.954l17.314,10.738l-7.435,20.079l26.55,25.727l40.132,-9.807l-9.991,-19.196l-2.792,-16.218l34.71,-12.141Z" style="fill-opacity:0.38;"/><path d="M77.329,212.44l-0.126,-0.127l27.65,-27.65l0.084,0.083l0.022,-0.083l20.681,5.541l31.95,-31.95l9.172,-34.231l0.041,0.011l0.095,-0.496c22.664,4.344 46.06,6.619 69.983,6.619c87.269,-0 167.524,-30.273 230.826,-80.881l0.101,0.127l0.183,-0.317l98.903,57.102l0.096,-0.055l37.503,64.958l11.614,-20.116l8.018,4.629l0.092,-0.053l14.565,25.229l-0.206,0.119l0.377,0.653l-21.315,12.306l51.025,88.378c19.252,8.061 43.176,4.676 58.833,-10.981c3.015,-3.015 5.59,-6.304 7.725,-9.789c-0.004,-0.016 -0.008,-0.033 -0.012,-0.049l0.05,-0.013c0.008,-0.012 0.015,-0.024 0.023,-0.037l0.037,0.023l8.971,-2.176c1.143,4.714 1.749,9.637 1.749,14.7c0,33.359 -26.294,60.624 -59.27,62.183l0.017,0.063l-0.055,0.014l0.017,0.017l-26.006,26.006l-0.168,0.624l-0.36,-0.096l-0.01,0.01l-0.018,-0.018l-61.412,-16.455l0.045,-0.168l-0.134,0.036l-4.314,-16.099l-2.463,0l-0,-0.227l-30.159,-0l-0.031,0.018l-0.01,-0.018l-0.018,-0l0,-0.031l-20.335,-35.221l-1.094,-0.293l0.183,-0.682l-23.239,13.417l12.259,45.75l-0.296,0.08l-38.817,22.411l6.477,24.173l-9.025,2.418l-0.092,-0.342l-0.13,0.226l-43.35,-25.029l-3.753,-2.167l-4.339,-2.505l16.287,-28.21l-11.387,-6.575l-13.869,0l-15.798,27.363l13.487,7.786l0.333,0l-0,9.344l-58.52,0l-0,-5.601l-1.043,-0.28l10.346,-38.612l-52.807,0l-0.005,0.017l-0.061,-0.017l-0.316,0l-0,-0.084l-26.245,-7.033l-34.343,9.202l5.25,19.595l8.31,4.797l-0.133,0.231l0.126,-0.034l2.418,9.025l-46.968,12.586l-0.081,-0.303l-0.152,0.152l-32.144,-32.144l0.033,-0.034l-0.11,-0.064l9.997,-17.315l-15.282,-8.823l-23.871,23.871l-0,15.355l16.849,16.85l0.308,-0l0,0.308l0.007,0.006l-0.007,0.006l0,9.023l-69.269,0l0,-0.178l-3.897,0l-0,-72.696l-0.149,-0.086l0.149,-0.258l-0,-0.012l0.007,-0l24.988,-43.28l-0,-46.446l-0.057,-0.015l0.057,-0.213l-0,-0.17l0.045,0l3.971,-14.818l-21.997,5.893l-0.026,0.046l-0.046,-0.026l-0.023,0.006l-0.007,-0.023l-11.325,-6.539l-29.444,7.889l-2.419,-9.025l0.023,-0.006Zm30.339,-17.378l-12.633,12.633l15.492,-4.151l0.011,0.039l11.306,6.528l23.541,-6.308l7.368,-27.498l-24.148,24.149l-0.055,0.204l-20.882,-5.596Zm63.536,-51.514l-22.028,82.212l73.862,19.791l2.237,-8.349l-54.071,-93.654Zm284.552,-73.586c-23.692,16.772 -49.388,30.897 -76.655,41.942l-8.79,32.805l77.388,-44.68l8.057,-30.067Zm-87.449,46.123c-27.829,10.289 -57.189,17.406 -87.642,20.912l0.29,0.168l-8.239,14.27l85.946,-0l0.205,-0.118l9.44,-35.232Zm-98.684,22.02c-10.792,0.924 -21.713,1.395 -32.742,1.395c-4.476,0 -8.934,-0.077 -13.373,-0.231l39.355,10.545l6.76,-11.709Zm290.621,-24.967l-91.472,-52.812c-0.319,0.247 -0.639,0.494 -0.959,0.74l-5.594,20.878l114.3,65.991l1.908,-3.304l-18.183,-31.493Zm49.644,67.297l3.078,5.331l13.429,-7.753l-7.554,-13.085l-8.953,15.507Zm56.924,117.284l-38.967,-67.494l-0,43.089l44.297,44.297l-5.33,-19.892Zm-48.747,-84.432l-31.715,-54.932l-35.768,133.49l11.063,19.163l56.42,-97.721Zm118.617,61.838c-0.827,0.932 -1.687,1.845 -2.579,2.738c-15.624,15.623 -38.246,20.91 -58.561,16.334l8.742,32.624c28.569,-0.263 51.757,-23.218 52.398,-51.696Zm-79.26,77.178l18.941,-18.941l-0.893,-3.331l-71.425,0l2.301,8.586l51.076,13.686Zm-90.32,-31.843l34.199,-0l-0,0.079l0.187,-0.05l0.053,0.198l60.463,0l-43.227,-43.227l-0.276,-0l-0,-46.24l-51.461,89.132l0.062,0.108Zm-52.4,-22.81l29.086,-16.793l0.044,0.076l28.848,-107.66l-62.363,108.015l4.385,16.362Zm3.86,50.508l-1.002,-3.737l-54.704,-0l-13.953,24.168l35.483,20.486l-4.661,-17.397l0.249,-0.067l-0.508,-0.881l39.096,-22.572Zm-3.506,-13.081l-14.623,-54.575l-0.338,-0.196l71.752,-124.279l-112.132,-64.74l-24.993,93.277l40.329,150.513l40.005,-0Zm-90.201,-7.196l-30.041,-17.345l0.066,-0.113l-49.325,-85.432l-99.769,26.733l75.282,75.282l3.264,0.875l54.147,-0l0.034,-0.126l0.467,0.126l45.875,-0Zm-20.865,-22.836l52.017,30.032l9.371,-0l-19.319,-72.101l-42.069,42.069Zm12.391,32.179l-30.732,0l-2.903,10.835l20.534,11.856l13.101,-22.691Zm-10.21,35.149l-25.929,-14.97l-4.011,14.97l29.94,0Zm-127.682,-47.102l-65.712,-17.608l-12.474,12.474l55.701,32.159l-5.258,-19.622l9.026,-2.418l0.007,0.028l18.71,-5.013Zm-60.222,-25.811l84.75,22.709l-67.653,-67.653l-5.446,1.459l-11.651,43.485Zm44.957,67.795l-46.388,-26.782l-6.419,11.119l23.512,23.512l29.295,-7.849Zm-99.981,-23.272l34.515,-34.516l-64.406,17.258l29.891,17.258Zm-2.542,26.545l-0.454,0l-0,-17.486l-37.321,-21.547l-0,51.559l50.3,-0l-12.525,-12.526Zm-13.372,-91.113l-23.148,40.094l79.976,-21.43l-56.236,-56.237l-0,37.573l-0.592,-0Zm30.751,-142.645l50.615,87.668l7.979,-29.778l0.257,0.069l21.095,-36.538l-79.946,-21.421Zm42.539,117.807l-63.861,-17.112l53.982,53.982l9.879,-36.87Zm14.643,-18.544l-2.551,9.521l108.71,-29.129l14.91,-55.646l-89.009,-0l-22.198,38.446l-9.822,36.657l0.056,0.096l-0.096,0.055Zm190.52,-51.149l-0.765,-0.205l19.262,-71.886l-77.389,44.681l-15.699,58.59l47.058,81.507l45.017,-45.017l-18.089,-67.508l0.605,-0.162Z"/></g></svg>