<?xml version="1.0" encoding="UTF-8" standalone="no"?><!DOCTYPE svg PUBLIC "-//W3C//DTD SVG 1.1//EN" "http://www.w3.org/Graphics/SVG/1.1/DTD/svg11.dtd"><svg width="100%" height="100%" viewBox="0 0 789 465" version="1.1" xmlns="http://www.w3.org/2000/svg" xmlns:xlink="http://www.w3.org/1999/xlink" xml:space="preserve" xmlns:serif="http://www.serif.com/" style="fill-rule:evenodd;clip-rule:evenodd;stroke-linejoin:round;stroke-miterlimit:2;"><rect id="semantic_dashboard" x="0.202" y="0.099" width="788.726" height="463.956" style="fill:none;"/><clipPath id="_clip1"><rect x="0.202" y="0.099" width="788.726" height="463.956"/></clipPath><g clip-path="url(#_clip1)"><rect id="retreat-logo" serif:id="retreat logo" x="0.202" y="364.055" width="519.685" height="519.685" style="fill:none;"/><path d="M546.546,102.139l33.865,1.234l8.631,-9.785l-23.546,-22.46l-12.039,-24.936l18.224,-16.014l-1.831,-25.994l-22.727,16.451l-13.542,19.958l-23.708,4.802l-6.095,-17.419l-42.232,-23.275l8.085,33.108l29.081,13.804l1.682,19.703l8.755,15.519l-14.457,56.4l-29.402,9.004l-46.842,-8.566l-89.401,0.772l-46.533,14.248l-25.783,4.909l-9.352,34.268l3.315,17.416l24.419,-16.372l-1.529,34.875l-5.545,29.068l-18.412,20.295l-31.99,116.702l-1.045,42.377l14.507,0.212l0,-39.449l18.433,-64.031l34.086,-52.854l54.991,-31.141l9.591,-0l-36.106,61.581l0,127.835l14.257,-0l0.919,-65.263l10.165,-43.217l35.693,-64.623l34.897,5.292l23.737,-2.176l18.271,66.947l-0.304,81.115l4.976,18.552l12.292,1.235l-1.472,-13.705l-0.253,-88.36l19.159,-61.274l18.409,67.667l-0,64.325l7.152,33.332l16.558,-0.201l-9.356,-32.904l0,-121.092l13.403,-53.159l4.491,-13.131l12.173,-17.16l-0.715,-104.445Z" style="fill:#f6a05a;"/><path d="M550.433,45.489l18.92,-15.136l-1.617,-22.567l-21.774,10.692l-13.273,20.382l17.744,6.629Z" style="fill:#88664a;"/><path d="M359.407,201.575l1.579,5.894l-16.439,4.405l-1.579,-5.894l16.439,-4.405Z" style="fill:#fff;"/><path d="M307.595,208.376l1.58,5.894l-12.893,3.454l-1.579,-5.894l12.892,-3.454Z" style="fill:#fff;"/><path d="M323.586,211.275l1.58,5.894l-12.893,3.455l-1.579,-5.894l12.892,-3.455Z" style="fill:#fff;"/><path d="M338.971,197.197l1.22,4.551l-14.883,3.988l-1.219,-4.551l14.882,-3.988Z" style="fill:#fff;"/><path d="M298.374,184.905l1.22,4.551l-14.882,3.988l-1.22,-4.551l14.882,-3.988Z" style="fill:#fff;"/><path d="M320.456,160.094l1.219,4.551l-14.882,3.988l-1.22,-4.551l14.883,-3.988Z" style="fill:#fff;"/><path d="M285.491,222.401l1.579,5.894l-10.964,2.937l-1.579,-5.893l10.964,-2.938Z" style="fill:#fff;"/><path d="M340.481,226.921l1.19,4.444l-10.964,2.938l-1.191,-4.444l10.965,-2.938Z" style="fill:#fff;"/><path d="M370.454,219.933l1.004,3.747l-19.94,5.343l-1.004,-3.747l19.94,-5.343Z" style="fill:#fff;"/><path d="M382.474,195.288l1.58,5.894l-12.471,3.341l-1.579,-5.894l12.47,-3.341Z" style="fill:#fff;"/><path d="M403.953,217.622l1.58,5.894l-12.471,3.341l-1.579,-5.894l12.47,-3.341Z" style="fill:#fff;"/><path d="M446.422,199.14l1.579,5.894l-12.47,3.342l-1.58,-5.894l12.471,-3.342Z" style="fill:#fff;"/><path d="M487.422,167.432l4.315,4.315l-9.129,9.129l-4.315,-4.315l9.129,-9.129Z" style="fill:#fff;"/><path d="M406.993,188.918l1.58,5.894l-12.132,3.25l-1.579,-5.893l12.131,-3.251Z" style="fill:#fff;"/><path d="M422.231,204.866l1.579,5.894l-19.213,5.148l-1.579,-5.894l19.213,-5.148Z" style="fill:#fff;"/><path d="M411.546,167.432l5.284,3.051l-6.038,10.457l-5.763,-2.22l6.517,-11.288Z" style="fill:#fff;"/><path d="M417.699,157.648l5.284,3.051l-3.888,6.733l-5.284,-3.051l3.888,-6.733Z" style="fill:#fff;"/><path d="M549.093,105.83l-49.813,21.769l11.836,-37.143l8.496,10.513l29.851,0.875l-0.37,3.986Z" style="fill-opacity:0.23;"/><path d="M462.938,418.514l-13.307,0l8.063,26.257l12.079,-2.122l-6.835,-24.135Z" style="fill:#4f4b54;"/><path d="M481.021,281.583c-13.315,8.764 -26.955,14.767 -40.867,18.448l-7.266,-25.634l52.11,-13.421l-3.977,20.607Z" style="fill-opacity:0.19;"/><path d="M542.795,208.879c-51.461,54.494 -148.769,66.461 -201.159,39.521l33.899,25.997l68.865,0l66.659,-29.045l31.736,-36.473Z" style="fill-opacity:0.31;"/><path d="M585.678,91.178l-9.341,8.227l-55.281,0.481l-21.848,-26.832l1.211,-13.689l-3.66,-7.244l-25.123,-16.918l-7.416,-26.722l18.577,5.468l23.12,14.415l5.735,15.83l-6.014,8.536l2.465,5.965l17.512,6.131l15.822,14.604l28.768,7.364l17.376,4.229l-1.903,0.155Z" style="fill:#88664a;"/><path d="M278.501,159.537l-4.265,17.529l-1.277,21.687l-19.432,18.694l-7.754,-20.093l11.068,-32.761l21.66,-5.056Z" style="fill:#88664a;"/><path d="M267.142,162.54l-13.443,50.282l18.132,-13.626l4.589,-34.732l-9.278,-1.924Z" style="fill-opacity:0.18;"/><path d="M346.596,254.968l27.097,15.113l-34.521,61.602l-11.765,46.08l-0.711,66.621l-13.346,-0l-0.647,-129.563l33.893,-59.853Z" style="fill:#88664a;"/><path d="M363.977,290.618l-28.22,-12.781l12.011,-18.826l25.402,11.523l-9.193,20.084Z" style="fill-opacity:0.18;"/><path d="M528.691,231.815l-41.149,26.272l-3.283,21.594l18.644,67.979l0.131,66.238l7.505,30.486l11.969,-2.745l-4.267,-23.558l-3.614,-133.473l14.064,-52.793Z" style="fill:#88664a;"/><path d="M516.746,418.514l-13.306,0l7.296,26.257l12.079,-2.122l-6.069,-24.135Z" style="fill:#4f4b54;"/><path d="M324.928,418.514l-13.307,0l3.317,26.257l12.4,-2.122l-2.41,-24.135Z" style="fill:#4f4b54;"/><path d="M229.205,418.514l-13.307,0l3.316,26.257l12.401,-2.122l-2.41,-24.135Z" style="fill:#4f4b54;"/><path d="M527.984,252.146c-10.593,11.911 -28.972,23.219 -41.458,30.376l-6.263,-17.789l46.859,-26.451l0.862,13.864Z" style="fill-opacity:0.19;"/><path d="M557.275,48.389l11.321,19.609l24.828,24.827l-5.73,5.73l-0.269,-0.269l-6.144,6.144l-0,0.201l-0.2,-0.001l-0.149,0.15l-0.151,-0.151l-30.075,-0.131l-0,106.833l0.153,0.116c-5.688,7.531 -11.975,14.585 -18.789,21.092l-0,11.807l0.055,0.015l-0.055,0.209l-0,0.07l-0.019,0l-10.79,41.265l-0,132.076l5.563,20.762l-1.083,0.29l1.528,0l0,8.103l-18.982,0l-1.101,0.295l-0.079,-0.295l-0.235,0l-0,-0.877l-7.06,-26.346l-0.054,-0l-0,-0.203l-0.04,-0.147l0.04,-0.011l-0,-69.751l-16.271,-60.722l-14.086,52.572l-0,81.533l4.266,15.922l0.157,-0l0,0.587l0.106,0.393l-0.106,0.029l0,6.38l-19.055,0l-2.51,0.673l-5.592,-20.868l-0.003,0l-0,-0.013l-0.025,-0.091l0.025,-0.007l-0,-84.418l-16.628,-62.056c-5.893,0.605 -11.872,0.915 -17.923,0.915c-12.469,-0 -24.633,-1.317 -36.361,-3.818l-34.189,59.217l-10.867,40.557l-0,70.744l-0.229,0l-0,0.004l-20.398,0l0,-0.004l-1.174,0l0,-132.993l-0.06,-0.035l0.06,-0.105l0,-0.075l0.044,-0l32.605,-56.475l-2.332,-1.346l-51.901,29.965l-38.746,67.11l-13.708,51.157l0,42.757l-1.39,0l0,0.033l-13.166,-0l0,0.007l-8.103,0l0,-44.977l0.152,-0l31.752,-118.5l0.09,0.024l19.953,-19.954l6.355,-23.716l-0.569,-33.57l-12.678,12.678l-0.269,-0.269l0.179,0.667l-7.827,2.097l-6.263,-23.375l-0.058,-0.015l0.027,-0.1l-0.036,-0.136l0.078,-0.021l9.844,-36.739l-0.086,-0.324l0.187,-0.051l0.012,-0.047l0.083,0.022l22.22,-5.954l0.086,-0.32l0.554,0.149l54.162,-14.513l0,-0.008l0.031,-0l0.521,-0.14l0.038,0.141l92.595,0.183l0.013,-0.046l0.174,0.046l0.588,0.001l0,0.157l35.253,9.446l31.057,-8.322l14.703,-54.872l-9.659,-14.115l-0.094,-0l0,-0.137l-0.035,-0.052l0.035,-0.024l0,-16.641l-27.21,-15.71l-0.248,0.067l-0.066,-0.248l-0.052,-0.03l0.03,-0.051l-10.138,-37.835l7.827,-2.097l0.088,0.33l0.028,-0.048l41.361,23.879l0.492,-0.132l5.493,20.499l-3.497,0.936l3.521,3.521l-6.108,6.107l20.043,5.371l0.048,-0.048l0.082,0.083l0.123,0.033l-0.019,0.071l15.663,15.663l30.976,8.3l-11.918,-11.918l0.061,-0.061l-14.609,-25.304l3.718,-2.147l-1.039,-1.024l16.358,-16.582l0,-14.849l-18.044,10.915l-11.126,19.272l-7.017,-4.052l12.351,-21.392l0.175,0.101l27.486,-16.628l4.145,6.851l0.133,0l0,23.084l-0.015,-0l0.019,0.019l-17.206,17.44Zm-82.475,-13.616l25.997,15.01l-0.054,0.093l4.137,-4.137l-4.228,-15.779l-32.109,-18.538l6.257,23.351Zm-16.077,123.611l-19.076,-5.111l-24.352,42.178l32.458,-8.853l34.061,-34.06l-21.82,5.846l-0.085,0.318l-0.55,-0.148l-0.551,0.148l-0.085,-0.318Zm-135.656,-7.713l-41.107,11.015l-4.408,16.453l0.014,0.871l49.538,-13.274l-4.037,-15.065Zm-0.474,225.601l-0.188,-0.05l8.168,-30.486l-6.478,-41.659l-7.097,12.291l-0,101.199l5.595,0l-0,-41.295Zm54.493,-107.461c11.292,2.434 23.011,3.716 35.027,3.716c6.167,-0 12.256,-0.338 18.248,-0.996l0,-18.603l-13.28,-49.565l-68.454,18.672l-7.042,26.28l35.501,20.496Zm147.219,-40.099c3.344,-3.08 6.56,-6.296 9.641,-9.639l-21.652,-37.503l-18.62,69.493c10.931,-6.2 21.089,-13.608 30.293,-22.04l0,-0.311l0.338,0Zm-258.592,60.667l65.573,-37.858l1.962,-3.399l6.329,-23.619l-33.762,9.209l-34.405,34.405l-5.697,21.262Zm56.88,149.852l-0,-14.274l-5.595,0l-0,14.274l5.595,0Zm142.685,-0.125l-3.689,-13.769l-0.291,0l0,-0.38l-6.532,0l0,0.263l3.721,13.886l6.791,-0Zm58.689,-195.578l0,-3.721c-10.135,8.538 -21.259,15.939 -33.174,22.006l-3.111,11.613l19.919,74.341l0.26,-0l-0,69.8l5.297,0l0,-133.385l0.178,-0l10.631,-40.654Zm-250.69,50.84l-10.53,6.08l-6.079,22.688l16.609,-28.768Zm245.236,144.665l-3.771,-14.076l-5.19,0l3.772,14.076l5.189,0Zm-182.322,-109.905l32.29,-55.928l-19.92,-11.501l-18.394,31.859l0.48,-0.074l5.544,35.644Zm86.252,-180.465l-91.207,-0.18l-0.342,0.091l4.175,15.584l77.022,20.638l19.453,-33.694l-9.101,-2.439Zm38.868,191.872l19.882,-74.198c-13.542,5.879 -27.978,10.084 -43.044,12.352l16.607,61.979l0.01,-0l0,0.036l0.017,0.061l-0.017,0.004l0,76.798l6.532,0l0,-76.929l-0.013,-0.004l0.013,-0.05l0,-0.049l0.013,0Zm-112.964,-126.823l55.843,-15.232l3.707,-6.42l-70.406,-18.865l10.856,40.517Zm104.159,-20.407l0.1,0.368l-27.708,7.558l13.298,49.63l0.268,-0l0,19.578c16.032,-2.567 31.299,-7.438 45.451,-14.262l22.65,-84.531l-11.86,-20.541l-42.199,42.2Zm58.642,-97.524l-12.372,46.17l40.808,70.681c1.024,-1.232 2.03,-2.479 3.019,-3.741l-0,-104.428l-25.584,-0.112l-0,-0.006l-0.007,0.005l-5.864,-8.569Zm-241.408,99.588l-0.309,-18.199l0.148,-0.002l-0.145,-0.039l3.489,-13.022l-13.278,3.558l-8.214,30.655l3.245,12.113l15.064,-15.064Zm-49.439,229.588l0,14.263l6.454,-0l-0,-14.263l-6.454,0Zm283.168,-354.744l17.83,26.054l56.441,0.246l1.897,-1.897l-40.758,-10.922l-0.09,0.091l-15.923,-15.924l-19.397,-5.197l0,7.549Zm-224.826,170.911l-3.039,11.34l14.454,-14.454l-11.415,3.114Zm-58.342,162.862l0,13.581l6.454,0l-0,-14.642l0.145,-0l28.865,-107.726l-0.033,-0.057l0.057,-0.033l4.162,-15.532l-8.626,8.625l-31.024,115.784Zm57.407,-216.625l0.77,45.409l62.052,-16.925l-11.329,-42.282l-51.493,13.798Z"/><ellipse cx="393.89" cy="447.193" rx="193.877" ry="14.36" style="fill-opacity:0.14;"/></g></svg>