<?xml version="1.0" encoding="UTF-8" standalone="no"?>
<svg
   width="170"
   height="100"
   viewBox="0 0 170 99.999999"
   version="1.1"
   xml:space="preserve"
   style="clip-rule:evenodd;fill-rule:evenodd;stroke-linejoin:round;stroke-miterlimit:2"
   id="svg15"
   sodipodi:docname="shiny-blueprint.svg"
   inkscape:version="1.1.2 (0a00cf5339, 2022-02-04)"
   xmlns:inkscape="http://www.inkscape.org/namespaces/inkscape"
   xmlns:sodipodi="http://sodipodi.sourceforge.net/DTD/sodipodi-0.dtd"
   xmlns="http://www.w3.org/2000/svg"
   xmlns:svg="http://www.w3.org/2000/svg"><defs
   id="defs19" /><sodipodi:namedview
   id="namedview17"
   pagecolor="#ff00ff"
   bordercolor="#666666"
   borderopacity="1.0"
   inkscape:pageshadow="2"
   inkscape:pageopacity="0"
   inkscape:pagecheckerboard="0"
   showgrid="false"
   inkscape:zoom="2.8286713"
   inkscape:cx="65.22497"
   inkscape:cy="71.588381"
   inkscape:window-width="1920"
   inkscape:window-height="1024"
   inkscape:window-x="0"
   inkscape:window-y="28"
   inkscape:window-maximized="1"
   inkscape:current-layer="svg15"
   fit-margin-top="0"
   fit-margin-left="0"
   fit-margin-right="0"
   fit-margin-bottom="0" />
    <g
   transform="matrix(0.34690272,0,0,0.34690272,-1531.7992,0.35663877)"
   id="g13">
        <g
   transform="matrix(0.46358,0,0,0.46358,-147.948,-607.044)"
   id="g11">
            <path
   d="m 10388,1762.73 -23.3,-9.31 -43.1,8.82 -32.6,8.88 -53.4,30.63 -109.7,117.7 c -0.2,0.28 -0.6,0.5 -0.9,0.65 l -8.2,3.41 c -1.7,0.7 -3.6,0.57 -5.2,-0.36 -1.6,-0.93 -2.6,-2.55 -2.8,-4.37 l -0.2,-1.65 -8.1,2.43 c -2.7,0.79 -5.5,0.01 -7.4,-2.01 -1.9,-2.02 -2.4,-4.93 -1.5,-7.5 l 4.8,-12.42 c 0.1,-0.28 0.3,-0.55 0.5,-0.78 l 75.7,-89.3 c -0.3,-0.28 -0.6,-0.58 -1.2,-0.76 -1.6,-0.53 -4,-0.51 -7.8,0.44 -1.7,0.44 -3,0.11 -3.7,-0.38 -0.9,-0.53 -1.5,-1.33 -1.7,-2.47 -0.2,-1.09 0.1,-2.94 1.2,-5.27 6.3,-13.06 38.8,-50.47 44.5,-56.78 6.6,-7.15 23.8,-29.4 26.5,-32.91 0,0 4.3,-18.7 4.3,-18.69 -8.1,12.75 -20.9,32.15 -33.4,48.19 -9,11.56 -17.9,21.37 -24.9,25.94 -6.4,4.28 -10.9,7.01 -13.7,8.28 -1.6,0.75 -2.9,1.04 -3.7,1.05 -2,0.02 -3,-0.95 -3.5,-2.39 -0.3,-0.88 -0.3,-2.5 0.7,-4.71 1.4,-3.16 4.7,-8.51 9.5,-15.94 3.3,-5.22 8,-12.69 13.3,-20.94 -35.8,-11.07 -60.9,-20.8 -78.5,-28.68 v -5.31 c 17.5,7.98 43.4,18.07 81.2,29.72 1.5,-2.4 3.1,-4.85 4.6,-7.31 -43.3,-13.3 -69.7,-23.86 -85.8,-31.53 v -5.42 c 15.7,7.7 42.5,18.59 88.1,32.54 0.1,0.05 0.3,0.11 0.4,0.19 12.1,-19.03 23.9,-37.51 25.5,-39.98 1,-3.07 9.4,-27.19 19.3,-40.45 7.2,-9.73 27.2,-39.91 41.4,-58.68 6.4,-8.49 11.8,-14.67 14.5,-16.08 1.5,-0.85 5.5,-5.43 11,-12.09 22.9,-27.66 69.1,-90.49 71,-93.05 0,0 46.8,-74.69 46.8,-74.69 1.4,-3.49 15.7,-39.2 42.2,-52.22 0.5,-0.2 0.9,-0.4 1.3,-0.6 3.2,-1.91 6.4,-3.55 9.6,-4.92 21.5,-11.19 37.6,-19.55 72,-10.67 40.3,10.4 47.5,18.06 52.5,25.03 4.3,5.85 12.4,20.21 14.6,24.22 3.4,0.79 13.4,3.17 20.9,5.48 4.3,1.34 7.7,2.75 9,3.77 4,3.2 9.4,9.35 9.4,9.35 0.9,1.03 0.9,2.55 0,3.57 0,0 -0.7,0.93 -3.5,2.04 -3,1.18 -9.3,2.9 -22.4,3.86 -7.2,0.53 -11.8,0.94 -15,1.5 -2,0.36 -3.2,0.7 -4.1,1.29 -0.2,0.24 -0.4,0.44 -0.7,0.6 -0.7,0.8 -1.2,1.85 -2,3.22 -3.2,5.83 -15.2,27.44 -18.8,36.69 -2,4.92 -1.9,10.96 -1.9,11.79 v 0.01 c 0.4,2.92 7.1,62.75 0,93.81 -1.1,4.48 -2.7,11.08 -5.1,19.21 -0.8,5.25 -2.2,10.63 -4.3,16.09 -0.2,0.49 -0.5,0.88 -0.9,1.15 -8.3,25.61 -21.1,59 -38.7,89.58 -19.3,33.53 -44.5,63.64 -75.6,76.84 -12.1,5.11 -22.4,9.14 -31,12.29 25,2.54 90,8.38 158.9,8.13 v 4.87 c -83.6,0.3 -161.4,-8.32 -169.5,-9.24 -5,1.68 -9.2,2.99 -12.7,4 30.1,3.75 108.3,12.56 182.2,13.24 v 4.87 c -94.5,-0.87 -195.7,-14.95 -195.7,-14.95 -0.5,-0.07 -0.9,-0.27 -1.2,-0.56 z m -202.9,-32.04 c -5.9,9.2 -11.2,17.64 -14.9,23.36 -3.7,5.88 -6.6,10.34 -8.2,13.36 2.7,-1.42 6.4,-3.77 11.4,-7.07 6.6,-4.34 15,-13.76 23.6,-24.75 9.3,-11.88 18.7,-25.61 26.2,-37.06 -7,5.56 -15.9,11 -27.2,14.96 -3.5,5.45 -7,11.04 -10.4,16.38 -0.1,0.31 -0.3,0.59 -0.5,0.82 z m 58.5,-55.62 c 0.1,0.37 0.1,0.75 0,1.14 l -5.8,25.31 34.8,-40.38 c -2.6,0.65 -5.4,0.97 -8.7,0.93 -2.4,-0.03 -4,-0.73 -5.1,-1.75 -1.1,-1.05 -1.7,-2.49 -1.8,-4.31 -0.1,-1.94 0.5,-4.43 1.7,-7.25 4.4,-10.64 17.4,-26.74 22.9,-33.3 -2.5,-1.57 -3.4,-4.43 -3.2,-7.77 -4.8,5.84 -10.2,11.96 -16.1,17.75 -0.1,0.25 -0.2,0.5 -0.3,0.73 0,0 -7.7,12.28 -18,25.75 0,0.08 0.1,0.17 0.1,0.27 0,0 4.4,8.43 0,21.41 0,0.23 -0.1,0.45 -0.2,0.66 0,0 0,0.06 -0.1,0.17 0,0.22 -0.1,0.43 -0.2,0.64 z m -21.3,53.47 c -3.4,4.31 -7,8.74 -9.9,12.31 -0.1,0.22 -0.1,0.44 -0.2,0.65 0,0 -4,10.35 -4.2,16.74 0,0.86 0,1.63 0.2,2.25 0,0.12 0.1,0.28 0.2,0.37 0.2,-0.07 1.9,-0.55 3.3,-1.46 3.1,-2.03 7.5,-5.95 13.4,-12.42 1.7,-1.75 3.3,-3.58 5,-5.5 -2,0.01 -3.7,-0.77 -4.9,-2.03 -2.1,-2.09 -3.2,-5.94 -2.9,-10.44 0,-0.15 0,-0.31 0,-0.47 z m -17.8,21.29 c -8.7,9.84 -28.1,32.7 -36.9,46.07 -1.4,2.18 -2.6,4.09 -3.3,5.63 6.3,-1.2 9.6,0.08 11.4,1.46 0.4,0.3 0.7,0.61 1,0.92 10.6,-10.47 48.8,-47.54 84.1,-73.25 36.6,-26.57 84.7,-58.44 95.6,-65.59 l 13.5,-16.2 c 0.1,-0.23 0.4,-0.42 0.6,-0.57 l 24.9,-15.39 c -3.3,0.95 -6.5,1.65 -9,1.75 -3.1,0.11 -5.4,-0.69 -6.5,-2.1 -1,-1.14 -1.5,-2.72 -1,-4.94 0.5,-2.34 2.3,-5.78 6.1,-10.53 10.5,-12.85 19.8,-23.45 29.1,-31.93 -81.2,47.89 -133.1,106.13 -167.1,144.66 -0.1,0.36 -0.3,0.71 -0.6,1.01 -1.2,1.34 -2.3,2.53 -3.5,3.58 -5.1,5.86 -9.8,11.19 -14.2,15.87 -6.3,6.91 -11,11.04 -14.4,13.21 -2.8,1.82 -4.9,2.35 -6.4,2.24 -3.1,-0.25 -4.9,-3.13 -4.8,-7.64 0.1,-2.44 0.7,-5.42 1.4,-8.26 z m -26.5,59.65 c -0.1,0.11 -0.1,0.21 -0.2,0.31 l -76.5,90.21 -4.6,11.99 c -0.2,0.65 -0.1,1.38 0.4,1.88 0.4,0.51 1.1,0.7 1.8,0.5 l 9.1,-2.71 c 51.2,-61.14 106.6,-122.23 164.3,-183.28 -2.9,2.09 -5.8,4.17 -8.6,6.22 -38.3,27.81 -79.8,69.01 -85.7,74.88 z m -64.5,103.2 c 0.1,0.2 0.1,0.41 0.1,0.62 l 0.6,4.88 c 0,0.13 0.1,0.24 0.2,0.3 0.1,0.07 0.2,0.08 0.3,0.03 l 7.7,-3.18 108.2,-116.16 c 0.1,-0.12 0.2,-0.23 0.3,-0.34 l 71,-82 c 0.2,-0.22 0.4,-0.41 0.7,-0.56 l 17,-10 c 1.2,-0.71 2.7,-0.39 3.5,0.73 l 9.7,13.16 7.1,-3.57 16.2,-33.44 -1.4,-11.12 c -11.7,7.72 -37.1,24.67 -62.7,42.5 -0.1,0.26 -0.3,0.51 -0.5,0.73 -62.6,65.77 -122.8,131.56 -178,197.42 z m 132.7,-123.22 40.4,-23.21 c 0.2,-0.11 0.4,-0.2 0.6,-0.26 l 14.6,-3.97 27,-38.15 c -2.5,-3.31 -8.6,-11.69 -8.6,-11.69 l -14.5,8.53 z m 70.9,-31.61 3.1,-0.86 c 0.1,-0.01 0.1,-0.03 0.2,-0.04 l 44,-9 c 0.5,-0.11 1.1,-0.06 1.5,0.14 l 24.3,9.7 c 1.7,-0.36 6.5,-1.44 14.7,-3.97 l -40.5,-28.57 z m 146,-425.79 c -8,3.91 -14.7,9.99 -20.3,16.57 9.6,-6.43 18.2,-9.01 25.6,-9.57 11.6,-0.87 20.1,3.25 24.5,6 0.2,0.09 0.5,0.23 0.7,0.41 l 0.9,0.67 c 0.8,0.61 1.3,1.04 1.5,1.18 l 13.6,10.74 c -0.2,-2.25 0.1,-4.43 0.9,-6.3 0.7,-1.88 3,-4.26 6.3,-6.04 3.6,-2.05 8.5,-3.33 13.1,-2.5 0.3,-0.01 0.6,0.05 1,0.19 0.1,0.03 0.1,0.06 0.2,0.1 0.6,0.15 1.2,0.35 1.7,0.59 0.6,0.24 1.2,0.51 1.7,0.8 18.1,7.25 37.4,12.5 58.7,14.52 -19.1,-8.51 -37.2,-20.42 -55.6,-28.76 -20.3,-9.23 -41,-13.98 -64.1,-3.9 -2.9,1.49 -5.8,3.02 -8.9,4.57 -0.3,0.13 -0.5,0.27 -0.7,0.41 -0.3,0.15 -0.5,0.25 -0.8,0.32 z m -31.1,31.96 c -5.7,9.69 -8.5,17.52 -8.5,17.52 -0.1,0.17 -0.2,0.34 -0.3,0.5 l -46.7,74.64 c 26.1,-26.54 48.8,-45.2 53,-48.61 0.2,-0.21 0.3,-0.4 0.5,-0.57 l 22.4,-18.96 c -2.2,-3.18 -3.3,-7.05 -3,-10.99 0.5,-5.66 3.7,-10.74 8.6,-13.57 l 29,-16.64 c -4.2,-2.02 -10.4,-4.01 -18.2,-3.42 -10.1,0.76 -22.6,5.8 -36.8,20.1 z m -106.6,160.62 c -7.6,9.86 -14.8,19 -20.5,25.95 -6.2,7.49 -10.9,12.45 -12.7,13.4 -2.3,1.27 -7,6.99 -12.7,14.58 -3.7,4.88 -7.8,10.53 -11.9,16.4 15.6,-8.85 28.6,-20.64 34.1,-26.07 0.2,-0.19 0.3,-0.37 0.5,-0.52 l 1.1,-0.97 c 0.9,-0.94 1.4,-1.48 1.4,-1.48 0.3,-0.26 0.5,-0.45 0.8,-0.58 l 154.4,-139.03 -27.6,-13.5 c -9.5,7.67 -66.9,55.49 -105.3,110.73 -0.4,0.57 -1,0.94 -1.6,1.09 z m -63.8,78.92 c -9.8,14.01 -19,27.69 -23.5,33.67 -0.5,0.69 -1,1.42 -1.5,2.18 19.4,-11.26 36.1,-31.35 46.4,-45.79 0.1,-0.12 0.2,-0.24 0.2,-0.34 1.4,-1.87 2.6,-3.64 3.7,-5.28 -7.3,5.53 -16,11.25 -25.3,15.56 z m -29.8,43.76 c -4.2,7.91 -7.7,16.65 -9.9,22.47 10,-9.63 20.1,-22.93 27,-32.79 -5.4,4.09 -11.1,7.64 -17.1,10.32 z m -14.5,32.78 c -3.1,4.84 -9.5,14.93 -16.8,26.42 26,-11.32 37.1,-30.65 38.8,-33.89 2.7,-7.61 1.9,-13.37 1.1,-16.24 -7.1,8.88 -15.1,17.73 -22.8,23.49 -0.1,0.08 -0.2,0.15 -0.3,0.22 z m 384.3,-293.21 c 1.1,-0.83 2.5,-1.5 4.7,-2.02 3.2,-0.79 8.4,-1.3 17.4,-1.97 4.2,-0.31 7.7,-0.72 10.6,-1.15 -16.2,-1.51 -46.2,-2.93 -64.5,4.41 -5.6,3.71 -10.9,7.71 -15.4,11.86 z m 39.9,-9.27 c -1.4,-1.39 -2.9,-2.82 -4.2,-3.9 -1.1,-0.82 -3.9,-1.77 -7.3,-2.83 -5.9,-1.82 -13.4,-3.68 -17.8,-4.74 -0.4,0.04 -0.7,0.02 -1.1,-0.09 -0.9,-0.24 -1.7,-0.5 -2.6,-0.77 -0.1,-0.03 -0.2,-0.05 -0.2,-0.05 0,-0.01 -0.1,-0.03 -0.1,-0.04 -2.8,1.23 -12.9,5.83 -24.4,12.32 21.3,-3.37 47.2,-1.09 57.7,0.1 z m -38.5,-19.98 c -3.3,-5.87 -8.3,-14.32 -11.3,-18.45 -4.7,-6.53 -11.7,-13.21 -49.4,-22.96 -19.3,-4.98 -32.5,-4.21 -44.3,-0.56 14.5,-0.36 28.2,3.88 41.9,10.06 20.8,9.43 41.1,23.53 63.1,31.91 z m -26.3,176.65 c 6.5,-31.67 -0.5,-90.37 -0.5,-90.37 0,-0.07 0,-0.13 0,-0.2 0,0 -0.3,-7.82 2.2,-14.12 3.5,-8.82 14.4,-28.71 18.5,-36.03 l -47.7,11.25 -0.5,0.33 -16.5,57 c 4.1,3.36 17.1,14.76 28.2,31.42 7.5,11.42 14.1,25.28 16.3,40.72 z m -151.8,212.74 c 8.3,-3.08 18.3,-6.99 30,-11.94 26.1,-11.08 47.8,-34.59 65.2,-61.79 z m 107.5,-94.52 c 20,-36.98 33.1,-76.65 39.8,-100.64 0.1,-0.54 0.1,-1.08 0.2,-1.62 -4.5,0.94 -22,4.69 -40,8.53 z m -241.5,-5.48 c -0.1,0.32 -0.3,0.62 -0.5,0.88 l -55,63.9 c -0.1,0.16 -0.2,0.31 -0.3,0.45 0,0 -1.7,2.15 -4.2,5.4 -2.2,3.55 -3.5,7.89 -3.7,11.66 -0.2,2.83 0.1,5.35 1.4,6.67 0.8,0.84 2.1,0.78 3.9,0.06 1.9,-0.81 4.2,-2.42 6.9,-4.96 34.2,-38.76 87.7,-100.5 173.3,-150.77 -18.1,5.43 -35,10.05 -46.4,13.35 -0.4,0.27 -0.9,0.4 -1.4,0.4 -4.4,1.27 -7.8,2.33 -10.2,3.14 -20.2,7.13 -38.3,21.28 -53,37.08 -4.4,4.73 -7.8,9.03 -10.8,12.74 z m -3.8,-30.5 c -3.5,4.03 -19.1,22.45 -23.9,34.11 -0.7,1.5 -1.1,2.87 -1.3,4.06 -0.1,0.82 -0.2,1.52 0.2,1.99 0.3,0.43 1,0.49 1.9,0.5 9.7,0.13 14.6,-3.56 20,-9.66 4,-4.45 8.1,-10.11 14.2,-16.56 15.2,-16.37 34,-30.97 54.9,-38.36 2.4,-0.85 6.1,-1.97 10.8,-3.32 l 146.9,-133.07 c -0.1,-0.03 -0.1,-0.05 -0.1,-0.08 l -8.3,-11.94 -174.4,144.53 c -5.6,4.94 -17.8,15.23 -27.9,21.75 -3.7,2.36 -7.1,4.23 -9.9,5.24 -1.1,0.41 -2.2,0.67 -3.1,0.81 z m 0.2,-20.68 c 0,0.06 0,0.13 -0.1,0.19 0,0 -3.2,5.83 -3.9,10.86 -0.3,2.22 -0.2,4.4 2.1,4.83 0,0.01 0,0.01 0,0.01 0.4,-0.06 0.7,-0.07 1,-0.01 0.6,-0.08 1.3,-0.3 2.1,-0.59 2.5,-0.91 5.6,-2.63 8.9,-4.76 6.4,-4.11 13.6,-9.74 19.4,-14.53 0.2,-0.22 0.3,-0.43 0.5,-0.6 l 7.6,-6.28 c 1.9,-1.66 3,-2.68 3,-2.68 0.3,-0.21 0.5,-0.37 0.8,-0.47 l 168.7,-139.76 -21.4,-7.92 c -0.1,-0.03 -0.2,-0.06 -0.2,-0.1 l -11.1,-5.42 -158.1,142.37 c -1.7,1.62 -4.4,4.28 -8,7.48 -0.1,0.16 -0.2,0.32 -0.3,0.48 0,0 -4,7.1 -11,16.9 z m 123.2,26.25 28.7,-24.55 c 0,-0.04 0.1,-0.08 0.1,-0.12 l 42.3,-31.46 c 0,-0.14 0.1,-0.28 0.1,-0.41 0.3,-0.47 0.7,-0.85 1.1,-1.09 l 10.3,-14.9 c -6.5,3.92 -14.9,7.85 -24.2,11.64 -6.1,2.48 -12.6,4.91 -19.4,7.28 -0.2,0.18 -0.4,0.33 -0.7,0.43 -5.3,1.91 -10.2,4.33 -15,7.25 l -0.1,0.07 c -0.3,0.39 -0.8,0.64 -1.2,0.76 -14.7,9.34 -27.8,23.59 -43.7,43.16 -2.5,3.12 -4,5.52 -4.8,7.36 -0.2,0.55 -0.4,1.04 -0.4,1.46 0,0.18 -0.1,0.33 0,0.44 0.1,0.13 0.3,0.15 0.5,0.2 0.3,0.1 0.7,0.15 1.2,0.17 1.5,0.05 3.4,-0.22 5.4,-0.66 7.9,-1.75 18,-6.23 19.8,-7.03 z m 73,-50.79 -32.1,23.91 70.2,54.83 z m -39.2,29.17 -1.7,1.24 -34,29.13 27.1,6.32 z m -45.9,36.95 -24.7,15.24 -11.5,13.83 c -0.2,0.46 -0.5,0.88 -0.9,1.17 0,0 0,0.01 -0.1,0.04 l -1.4,1.71 1.2,9.28 z m -40.9,55.25 -13.1,27.11 c -0.3,0.53 -0.7,0.97 -1.3,1.24 l -9.8,4.93 -20.5,28.89 c 0,0 48.5,-33.38 48.5,-33.38 z m 46.2,-53.89 -42.2,46.64 4.6,35.06 c 0.1,0.05 0.2,0.1 0.2,0.15 l 41.8,29.44 z m 30.9,3.12 c -15.2,-3.55 -26.1,-6.08 -26.1,-6.08 l 3.9,100.97 z m 80.2,-272.93 -23.1,-18.12 -31,17.82 c -3.4,1.93 -5.6,5.41 -5.9,9.28 -0.2,3.87 1.4,7.64 4.4,10.06 l 14.3,11.38 26.8,17.22 16.8,-5.59 c 0.4,-0.14 0.9,-0.17 1.3,-0.09 l 9.9,1.8 16.2,-11.25 c 5.2,-6.52 13.1,-12.91 21.6,-18.63 0.2,-0.4 0.6,-0.72 1.1,-0.92 0.2,-0.09 0.4,-0.19 0.7,-0.28 10.8,-7.15 22.2,-13.18 29.9,-16.97 -19.9,-1.39 -38.1,-5.56 -55.2,-11.56 1.8,3.89 2.2,8.31 0.5,12.29 -3.3,7.89 -13.3,11.46 -22.4,7.66 -2.3,-0.98 -4.3,-2.4 -5.9,-4.1 z m 27.6,40.59 -11.5,7.97 -13.4,36.34 10.5,5.22 z m -16.8,8.18 -7.5,-1.36 -16.1,5.39 4.3,18.29 c 0,0.09 0,0.18 0.1,0.27 l 7.1,10.35 z m -28.9,2.99 -26.2,-16.86 c -0.1,-0.05 -0.2,-0.1 -0.2,-0.16 l -4.8,-3.79 v 23.08 l 12.5,6.1 22.7,8.4 z m -36,-24.65 -4.6,-3.62 -19.4,16.48 23.9,11.68 v -24 c 0,-0.19 0,-0.36 0.1,-0.54 z m 61,-28.51 c 0.4,0.18 0.7,0.35 1.1,0.5 6.2,2.58 13,0.59 15.3,-4.75 2.2,-5.35 -1.2,-11.66 -7.4,-14.23 -3.8,-1.59 -8.1,-0.41 -11.3,1.35 -1.9,1.07 -3.5,2.28 -3.9,3.4 -0.8,1.73 -0.7,3.86 -0.1,5.95 0.6,1.79 1.5,3.55 2.9,5.06 l 3.3,2.61 c 0.1,0.04 0.1,0.07 0.1,0.11 z m 50.8,176 c -0.3,-18.15 -7.6,-34.39 -16.2,-47.32 -8.9,-13.49 -19.3,-23.41 -24.7,-28.15 v 29.78 c 0.5,0.44 0.8,1.06 0.8,1.74 v 0.14 z m -157.9,205.21 110.8,-85.72 c -13.2,-3.07 -56.1,-13.06 -86,-20.05 z m 112.9,-97.79 v -91.18 c -20.5,4.37 -40,8.54 -40,8.54 z m 4.9,-97.2 35.9,-7.67 -35.9,-39.14 z m -157.9,32.47 c 16.1,-4.56 38.1,-10.71 59.5,-17.67 l 91.9,-104.48 -10.7,-5.35 z m 128,-50.59 8.1,-14.4 c 0,-0.1 0.1,-0.18 0.1,-0.27 l 15.5,-21.29 v -28.56 l -83,94.38 c 8.3,-2.86 16.4,-5.82 23.9,-8.85 16.6,-6.76 30,-13.69 34.9,-20.49 0.1,-0.2 0.3,-0.38 0.5,-0.52 z m 25,-28.5 -12.3,16.89 -8.9,15.86 c 0,0.07 -0.1,0.14 -0.1,0.21 l -15.6,22.57 36.9,-7.87 z m -4.1,150.42 -74,-57.71 -8.9,38.38 z"
   style="fill:#ffffff"
   id="path9" />
        </g>
    </g>
</svg>
