<?xml version="1.0" encoding="UTF-8" standalone="no"?>
<svg
   width="170"
   height="100"
   viewBox="0 0 170 100"
   version="1.1"
   xml:space="preserve"
   style="clip-rule:evenodd;fill-rule:evenodd;stroke-linejoin:round;stroke-miterlimit:2"
   id="svg84"
   sodipodi:docname="shiny-emptystate.svg"
   inkscape:version="1.1.2 (0a00cf5339, 2022-02-04)"
   xmlns:inkscape="http://www.inkscape.org/namespaces/inkscape"
   xmlns:sodipodi="http://sodipodi.sourceforge.net/DTD/sodipodi-0.dtd"
   xmlns="http://www.w3.org/2000/svg"
   xmlns:svg="http://www.w3.org/2000/svg"
   xmlns:serif="http://www.serif.com/"><defs
     id="defs88" /><sodipodi:namedview
     id="namedview86"
     pagecolor="#ff00ff"
     bordercolor="#666666"
     borderopacity="1.0"
     inkscape:pageshadow="2"
     inkscape:pageopacity="0"
     inkscape:pagecheckerboard="0"
     showgrid="false"
     inkscape:zoom="3.2502511"
     inkscape:cx="92.300561"
     inkscape:cy="105.68414"
     inkscape:window-width="1703"
     inkscape:window-height="1364"
     inkscape:window-x="1723"
     inkscape:window-y="34"
     inkscape:window-maximized="1"
     inkscape:current-layer="svg84" /><rect
     id="retreat-logo"
     serif:id="retreat logo"
     x="0"
     y="0"
     width="519.685"
     height="519.685"
     style="fill:none" /><clipPath
     id="_clip1"><rect
       id="retreat-logo1"
       serif:id="retreat logo"
       x="0"
       y="0"
       width="519.685"
       height="519.685" /></clipPath><g
     clip-path="url(#_clip1)"
     id="g82"
     transform="matrix(0.21663357,0,0,0.21663357,27.474027,-6.7218453)"><path
       d="M 0.017,319.592 0,319.556 l 0.014,-0.007 -0.003,-0.052 0.131,-0.009 33.961,-16.283 -0.464,-0.033 c 4.854,-69.851 27.928,-140.331 69.828,-189.39 l -0.071,-0.097 c 0.137,-0.101 0.275,-0.201 0.412,-0.301 1.318,-1.537 2.655,-3.052 4.011,-4.545 34.588,-38.103 73.347,-57.206 107.027,-66.065 l -0.069,-0.284 c 2.603,-0.628 5.175,-1.151 7.715,-1.575 29.993,-6.702 55.161,-5.422 68.464,-2.823 28.933,5.652 44.523,16.918 61.111,25.406 3.04,1.556 5.368,2.479 7.183,2.847 1.131,0.23 1.968,0.267 2.595,-0.035 l 1.039,-1.203 c 0.31,-0.642 0.535,-1.402 0.734,-2.246 l -0.059,-0.9 0.26,-0.017 c 0.503,-2.435 0.888,-5.348 1.713,-8.358 1.125,-4.104 1.473,-6.891 1.884,-9.086 0.727,-3.885 1.592,-6.209 5.95,-9.834 2.963,-2.464 7.353,-3.001 11.936,-2.36 6.142,0.858 12.606,3.724 15.461,5.293 4.543,2.497 9.946,3.786 24.888,13.432 14.375,9.278 27.105,13.764 38.589,13.353 12.527,-0.449 20.212,6.68 28.907,14.421 2.6,2.315 6.192,9.137 9.797,17.635 8.03,18.931 16.686,46.271 16.686,46.271 l -0.064,0.02 0.119,0.064 c 0,0 -14.546,27.222 -21.713,33.717 -2.267,2.055 -7.414,4.119 -14.355,5.917 -15.151,3.925 -39.197,7.079 -58.108,8.864 -18.738,1.768 -38.593,2.365 -49.833,4.177 -2.675,0.431 -4.828,0.916 -6.295,1.533 -0.509,0.213 -0.927,0.346 -1.098,0.617 -3.359,5.326 -9.515,8.4 -20.316,6.72 -6.654,-1.035 -9.445,-0.287 -9.445,-0.287 0,0 0.293,-0.219 0.309,-0.235 0.031,-0.029 0.051,-0.049 0.051,-0.049 l -1.635,0.685 0.818,-0.151 -72.848,27.813 -60.683,22.829 -0.27,0.034 c 0,0 -20.191,2.482 -31.059,7.587 -2.052,0.964 -3.752,1.994 -4.795,3.168 -0.602,0.679 -0.953,1.386 -0.677,2.188 2.033,5.887 2.538,11.105 1.113,15.815 -1.431,4.734 -4.811,9.022 -10.84,12.922 -4.33,2.8 -7.114,4.03 -8.76,4.149 -1.483,0.107 -2.51,-0.385 -3.254,-1.21 -0.573,-0.635 -1.002,-1.578 -1.144,-2.884 -0.194,-1.777 0.149,-4.583 0.594,-8.239 0.424,-3.485 -1.588,-5.145 -3.685,-5.946 -1.937,-0.741 -3.95,-0.861 -4.766,-0.878 -2.308,0.943 -13.962,5.775 -22.414,10.595 -3.68,2.1 -6.766,4.101 -7.868,5.807 -4.367,6.765 -8.504,8.334 -15.95,11.626 -2.427,1.073 -4.607,4.291 -6.665,8.669 -3.451,7.346 -6.184,17.924 -7.527,28.932 -1.887,15.469 -1.348,47.443 10.424,73.157 0.309,0.556 0.623,1.108 0.942,1.654 l -0.128,0.076 c 2.084,4.313 4.498,8.432 7.284,12.245 8.368,11.452 20.205,16.274 30.874,18.075 -2.456,-1.217 -4.637,-2.63 -6.577,-4.182 -14.338,-11.482 -15.401,-30.877 -15.292,-37.21 0.107,-6.285 4.187,-32.481 25.711,-45.272 9.181,-5.456 21.545,-8.518 38.169,-6.457 55.337,6.862 49.372,68.078 27.312,100.647 -6.604,9.75 -20.817,18.737 -38.243,23.656 -24.146,6.816 -54.399,5.875 -78.506,-11.148 C 62.49,461.19 49.12,442.73 42.164,414.577 c -2.707,-10.954 -4.903,-22.49 -6.541,-34.333 -0.056,-0.198 -0.084,-0.301 -0.084,-0.301 l 0.041,-0.01 c -2.105,-15.308 -3.278,-31.123 -3.419,-46.854 -0.86,-0.603 -1.696,-1.116 -2.869,-1.259 -1.618,-0.197 -3.755,0.248 -7.143,1.599 -12.805,5.104 -17.278,7.716 -17.278,7.716 L 1.423,339.32 Z m 42.539,-20.44 65.342,-31.329 -31.728,-2.714 z m 72.547,-29.697 -45.442,21.787 35.278,-0.823 z M 59.105,296.303 9.238,320.212 c 7.46,2.222 21.92,6.527 21.923,6.527 8.675,-0.116 16.534,-4.556 23.84,-12.2 z m 47.838,-179.53 c -16.576,19.407 -30.147,42.223 -40.764,67.036 11.22,-21.261 21.398,-35.124 21.398,-35.124 0.455,-0.628 0.998,-1.189 1.64,-1.661 1.513,-1.114 3.603,-1.796 6.513,-1.544 4.019,0.348 7.966,0.157 11.371,0.649 1.802,0.26 3.466,0.706 4.954,1.442 l 45.978,-31.275 85.126,-28.226 c -6.9,-10.13 -38.802,-42.342 -136.216,28.703 z M 48.026,239.12 c -4.501,18.79 -7.582,38.064 -9.262,57.345 l 34.078,-34.513 c -0.486,-5.836 0.569,-15.607 2.389,-26.611 4.065,-24.584 11.812,-55.474 13.274,-61.223 -1.279,-7.027 -2.263,-11.928 -2.263,-11.928 l 0.085,-0.018 c -0.121,-0.507 -0.339,-1.511 -0.509,-2.774 -9.127,13.982 -27.471,44.742 -37.435,79.824 z M 223.163,45.452 c -31.126,7.017 -67.568,22.849 -101.092,55.26 89.896,-58.868 119.525,-23.924 125.586,-14.134 l 0.091,-0.03 85.625,7.319 C 321.226,78.928 280.615,35.807 223.163,45.452 Z m 134.832,25.31 c -2.072,-0.473 -4.693,-1.48 -8.017,-3.181 -16.268,-8.324 -31.527,-19.445 -59.902,-24.988 -7.713,-1.507 -19.504,-2.545 -33.937,-1.762 44.299,7.263 74.275,41.788 82.503,52.314 z m 152.834,59.933 c -3.218,-9.451 -7.755,-22.204 -12.107,-32.464 -3.249,-7.657 -6.282,-13.915 -8.625,-16.001 -7.782,-6.929 -14.481,-13.665 -25.693,-13.263 -0.167,0.006 -0.335,0.011 -0.503,0.015 3.954,2.458 7.367,5.758 9.956,9.694 l 0.048,-0.034 z M 441.582,64.567 c -5.857,-2.311 -11.988,-5.533 -18.418,-9.683 -14.772,-9.536 -20.119,-10.797 -24.61,-13.266 -2.565,-1.41 -8.369,-3.999 -13.887,-4.771 -3.193,-0.446 -6.305,-0.371 -8.368,1.345 -3.18,2.644 -3.845,4.318 -4.376,7.152 -0.107,0.574 -0.211,1.188 -0.325,1.852 l 67.4,17.91 c 0.846,-0.213 1.708,-0.393 2.584,-0.539 z M 370.726,51.71 c -0.212,0.944 -0.464,1.969 -0.771,3.089 -0.754,2.751 -1.134,5.421 -1.579,7.71 l 56.947,9.896 c 1.924,-1.736 4.066,-3.248 6.391,-4.489 z M 144.127,278.547 c 3.502,1.554 6.584,4.591 5.867,10.482 -0.277,2.281 -0.531,4.198 -0.603,5.699 -0.023,0.462 0.007,0.983 0.04,1.367 0.319,-0.096 0.737,-0.237 1.121,-0.414 1.272,-0.584 2.897,-1.536 4.964,-2.873 4.902,-3.17 7.777,-6.55 8.941,-10.398 1.1,-3.637 0.674,-7.633 -0.766,-12.116 z m 22.365,-17.273 c 1.277,-1.021 2.896,-1.982 4.763,-2.859 2.805,-1.317 6.202,-2.471 9.729,-3.462 l -20.655,-3.447 c 2.651,3.035 4.877,6.352 6.163,9.768 z m 30.483,-9.82 c 3.26,-0.557 5.665,-0.887 6.447,-0.99 L 239.13,237.03 c -8.091,-2.603 -22.094,-7.109 -22.094,-7.109 z m 51.915,-18.096 14.701,-5.53 17.345,-6.622 -18.668,-5.447 z m 41.045,-15.588 39.888,-15.229 c -6.56,-0.873 -15.553,-2.354 -24.163,-4.712 z m 49.96,-18.579 c 1.528,-0.101 3.774,-0.059 7.047,0.369 -0.82,-2.909 -2.249,-7.535 -4.125,-11.888 -0.828,-1.92 -3.168,-4.061 -5.933,-6.219 -6.002,-4.685 -14.132,-9.133 -16.59,-10.441 -3.197,0.214 -5.566,0.334 -6.582,0.373 l -0.175,-4.582 c 2.109,-0.081 10.267,-0.496 19.413,-1.389 6.09,-1.151 10.312,-3.587 13.07,-6.964 3.501,-4.287 4.604,-9.991 4.414,-16.101 -0.395,-12.76 -6.421,-27.264 -10.58,-35.838 0.1,5.899 1.312,13.205 2.135,19.482 0.679,5.179 -1.354,9.633 -6.114,13.455 -0.445,0.357 -0.916,0.709 -1.414,1.056 l 0.148,0.201 c -15.31,11.262 -32.081,22.446 -40.208,32.202 -3.45,4.142 -5.411,7.854 -4.136,11.224 0.614,1.625 1.982,3.086 4.12,4.47 1.111,0.719 2.414,1.404 3.923,2.057 17.353,6.59 41.599,8.379 41.599,8.379 z m 11.964,0.971 c 6.374,0.393 10.32,-1.46 12.545,-4.988 0.543,-0.86 1.586,-1.721 3.201,-2.4 1.714,-0.719 4.217,-1.329 7.341,-1.832 3.843,-0.619 8.686,-1.099 14.145,-1.532 l -0.041,-0.089 57.172,-26.597 -41.81,6.947 -53.632,26.675 c 0.477,1.585 0.841,2.913 1.079,3.816 z m 49.797,-11.648 c 4.181,-0.282 8.519,-0.573 12.894,-0.903 l -0.032,-0.179 c 38.781,-6.865 72.524,-25.333 86.503,-33.814 l -40.061,6.657 0.249,0.535 z m 42.823,-3.918 c 13.825,-1.735 27.903,-3.994 37.988,-6.607 5.967,-1.545 10.477,-3.108 12.425,-4.875 3.386,-3.068 8.456,-10.969 12.737,-18.208 -8.04,5.136 -32.271,19.699 -63.15,29.69 z m 67.613,-37.466 c 0.661,-1.183 1.251,-2.254 1.752,-3.169 -9.91,-0.171 -37.24,-0.89 -58.44,-3.77 -25.48,-3.461 -39.685,-2.528 -49.1,3.044 -5.886,3.484 -10.846,1.807 -14.333,-0.75 -3.27,-2.399 -5.154,-5.619 -5.154,-5.619 l 3.953,-2.324 c 0,0 1.437,2.429 3.913,4.244 2.26,1.657 5.472,2.759 9.285,0.502 9.987,-5.91 25.027,-7.312 52.053,-3.641 1.765,0.24 3.573,0.464 5.41,0.675 l 0.021,-0.202 c 10.623,1.083 16.902,-0.865 20.242,-4.82 3.282,-3.886 3.579,-9.496 2.737,-15.208 -0.917,-6.214 -3.257,-12.571 -5.366,-17.372 -1.059,14.651 -12.101,27.181 -27.229,29.527 -14.458,2.242 -28.177,-5.511 -34.118,-18.112 l -43.905,6.233 13.959,47.486 12.766,1.812 z M 71.238,357.79 c 0.118,-4.215 0.398,-7.96 0.777,-11.066 1.408,-11.542 4.31,-22.624 7.929,-30.326 2.656,-5.654 5.826,-9.528 8.961,-10.914 5.539,-2.449 9.055,-3.677 12.333,-7.681 -7.776,3.669 -20.043,9.456 -29.113,13.736 -0.547,4.925 -2.359,23.797 -0.887,46.251 z m 39.355,-68.52 c 0.553,-0.336 1.125,-0.672 1.712,-1.007 6.609,-3.77 15.129,-7.549 19.845,-9.557 -3.797,-1.762 -8.499,-4.407 -12.527,-8.063 z m -6.953,159.499 c -1.23,-0.805 -2.439,-1.677 -3.621,-2.62 l -0.156,0.227 C 79.917,432.678 67.439,411.601 59.694,391.204 50.984,368.263 48.262,346.225 47.452,336.829 c -1.586,0.626 -3.309,0.871 -5.161,0.613 -2.299,-0.321 -4.064,-0.872 -5.506,-1.52 0.248,14.579 1.387,29.2 3.336,43.379 1.617,5.603 16.902,54.328 63.519,69.468 z M 84.805,426.388 c -0.611,-1.188 -1.196,-2.392 -1.758,-3.609 -20.635,-37.103 -17.19,-93.395 -15.754,-108.961 -4.191,1.977 -6.942,3.275 -6.942,3.275 -0.646,2.418 -2.429,8.329 -5.501,13.061 -0.9,1.386 -1.91,2.661 -3.026,3.747 0.466,6.904 2.691,30.741 12.158,55.675 4.815,12.684 11.504,25.666 20.823,36.812 z M 43.577,399.857 c 0.926,4.625 1.939,9.171 3.039,13.62 6.63,26.835 19.27,44.497 34.566,55.298 2.397,1.692 4.858,3.216 7.37,4.581 v -0.012 c 0,0 30.131,1.683 62.827,-16.432 -0.407,0.041 -0.816,0.075 -1.229,0.103 -3.221,0.501 -9.507,1.22 -17.058,0.77 v 0.039 C 81.56,457.864 55.304,422.945 43.577,399.857 Z m 54.413,77.816 c 19.18,7.248 40.206,6.551 57.808,1.582 6.403,-1.807 12.358,-4.175 17.598,-6.938 0.315,-0.7 7.336,-16.49 8.841,-37.022 -2.411,4.624 -5.693,8.93 -9.766,12.473 l 0.249,0.309 c -28.777,23.142 -59.51,28.452 -74.73,29.596 z m 81.823,-9.175 c 5.007,-3.371 9.016,-7.129 11.676,-11.056 7.234,-10.682 12.752,-24.731 14.585,-38.705 l -0.405,-0.003 c 0.107,-16.563 -4.844,-26.075 -12.103,-31.167 -6.771,-4.749 -15.397,-5.639 -23.29,-5.093 -1.841,0.128 -3.645,0.335 -5.381,0.596 0.332,0.084 0.665,0.174 1,0.268 9.853,2.77 15.597,7.009 18.856,11.726 3.883,5.62 4.312,12.018 3.588,17.916 -0.362,2.951 -1.02,5.76 -1.603,8.231 -0.045,0.348 -0.095,0.697 -0.15,1.047 l 0.373,-0.02 c 1.072,19.796 -4.036,37.519 -7.146,46.26 z m 24.756,-75.53 c -4.353,-14.788 -15.647,-26.383 -37.159,-29.051 -11.945,-1.481 -21.518,-0.166 -29.172,2.864 l 0.123,0.338 c -7.877,2.883 -11.065,11.115 -12.324,19.785 -0.791,5.443 -0.789,11.099 -0.492,15.97 3.646,-9.031 10.967,-16.735 20.915,-19.708 2.648,-1.013 12.432,-4.5 23.499,-5.267 8.906,-0.616 18.601,0.556 26.24,5.914 3.204,2.247 6.073,5.233 8.37,9.155 z m -80.358,-17.099 c -12.784,12.482 -15.449,30.436 -15.532,35.304 -0.097,5.698 0.674,23.222 13.574,33.552 4.491,3.596 10.454,6.29 18.34,7.334 9.993,-0.621 16.61,-3.563 20.92,-7.602 3.519,-3.299 5.484,-7.283 6.531,-11.174 -4.979,6.976 -12.925,11.118 -20.97,10.799 -7.196,-0.285 -14.548,-4.083 -19.931,-12.765 -2.677,-4.317 -4.018,-9.248 -4.179,-14.286 l -0.271,0.055 c 0,0 -3.329,-16.157 -1.195,-30.841 0.529,-3.636 1.4,-7.17 2.713,-10.376 z M 4.908,323.708 c 0.345,4.84 0.843,11.817 0.843,11.817 2.741,-1.333 7.42,-3.465 14.7,-6.366 0.416,-0.166 0.818,-0.32 1.208,-0.463 z m 95.489,-87.001 -19.441,8.05 31.789,16.886 c -3.698,-6.9 -8.516,-15.622 -12.348,-24.936 z m -6.754,-28.864 -7.884,4.583 10.054,10.688 c -0.891,-3.543 -1.512,-7.086 -1.755,-10.567 -0.103,-1.47 -0.243,-3.048 -0.415,-4.704 z m -8.263,-0.501 7.691,-4.471 c -0.706,-5.634 -1.651,-11.784 -2.613,-17.558 -1.422,5.881 -3.245,13.633 -5.078,22.029 z m -6.338,33.243 19.367,-8.019 -14.998,-15.943 c -1.348,6.55 -2.622,13.213 -3.656,19.467 -0.252,1.526 -0.491,3.027 -0.713,4.495 z m -1.702,20.022 28.223,2.414 -27.571,-14.646 c -0.558,4.861 -0.822,9.071 -0.652,12.232 z m -23.391,61.251 c -5.409,4.632 -11.117,7.666 -17.149,8.876 1.438,0.907 3.271,1.767 6.125,2.166 3.518,0.491 6.083,-2.169 8.079,-5.243 1.199,-1.848 2.176,-3.897 2.945,-5.799 z m 42.026,-26.643 -32.093,0.749 -3.624,16.103 z m 19.83,-144.648 c 2.144,2.675 3.537,6.912 3.534,13.784 -0.005,10.204 2.256,23.545 5.191,34.947 l 30.284,-75.266 z m 11.012,56.79 c 1.777,5.673 3.641,10.341 5.312,13.109 3.295,5.458 5.86,9.989 7.765,13.002 1.034,1.637 1.75,2.783 2.323,3.179 0.767,0.529 5.274,3.297 10.257,7.378 1.067,-0.229 4.638,-1.166 8.081,-4.039 l -0.113,-0.023 c 2.707,-13.291 0.861,-21.571 -3.365,-26.609 -3.837,-4.574 -9.536,-6.348 -14.949,-6.924 -6.573,-0.699 -12.797,0.39 -15.311,0.927 z m 17.483,36.207 c -2.433,-1.717 -4.238,-2.832 -4.689,-3.143 -0.668,-0.462 -1.585,-1.482 -2.653,-3.06 -1.988,-2.936 -4.872,-8.092 -8.755,-14.525 -5.624,-9.317 -13.459,-39.243 -13.45,-58.487 0.003,-6.506 -1.178,-10.047 -3.523,-11.908 -0.974,-0.773 -2.117,-1.234 -3.377,-1.524 -1.121,7.667 -3.855,28.554 -3.908,50.187 -0.044,17.868 1.686,36.267 7.856,47.917 3.247,6.13 6.189,8.785 9.308,9.056 2.242,0.195 4.415,-0.861 6.591,-2.317 2.576,-1.724 5.108,-4.049 7.609,-6.198 2.435,-2.091 4.849,-4.018 7.221,-5.227 0.59,-0.301 1.181,-0.56 1.77,-0.771 z m -41.004,-93.173 c -2.519,-0.124 -5.224,-0.105 -7.962,-0.342 -1.505,-0.131 -2.615,0.091 -3.398,0.668 -0.264,0.194 -0.487,0.42 -0.676,0.672 l 0.013,0.01 c 0,0 -0.086,0.117 -0.251,0.347 -0.499,0.85 -0.698,1.911 -0.797,2.958 -0.308,3.257 0.616,6.62 0.616,6.62 l -0.09,0.025 c 0.317,1.587 6.671,33.578 7.882,50.878 0.235,3.358 0.839,6.774 1.708,10.187 -0.718,-6.899 -1,-14.149 -0.982,-21.321 0.053,-21.766 2.784,-42.786 3.937,-50.702 z m 140.012,-57.539 -79.285,26.289 41.289,29.201 z m 90.905,5.69 -81.714,-6.985 38.547,55.635 z m 24.934,21.473 c -1.298,-5.421 -4.642,-9.533 -8.295,-12.581 -2.692,-2.246 -5.561,-3.926 -7.982,-5.119 4.278,8.527 11.696,25.304 12.148,39.892 0.226,7.285 -1.272,14.033 -5.446,19.144 -0.641,0.785 -1.346,1.533 -2.12,2.24 5.147,-0.839 9.721,-1.868 12.703,-3.115 1.102,-0.46 1.794,-1.503 2.312,-2.827 0.692,-1.769 1.02,-4.009 1.13,-6.492 0.558,-12.617 -4.647,-31.087 -4.647,-31.087 z m 4.982,-49.336 c -6.597,7.63 -22.524,26.051 -22.524,26.051 3.076,1.252 7.839,3.556 12.185,7.183 4.923,4.108 9.288,9.883 10.297,17.644 l -0.011,0.002 c 1.445,5.79 4.553,19.619 4.102,29.8 -0.164,3.71 -0.814,6.966 -2.059,9.317 -0.017,0.032 -0.034,0.065 -0.052,0.097 l 16.717,2.373 L 366.573,108 Z m 147.2,68.647 -25.487,-35.93 c 1.167,3.285 2.211,6.849 2.859,10.411 1.665,9.146 0.606,18.193 -6.536,23.22 -0.493,0.347 -1.017,0.675 -1.573,0.984 12.341,0.823 23.904,1.171 30.737,1.315 z m -65.981,-15.322 c 1.897,0.104 3.834,0.014 5.786,-0.289 15.088,-2.34 25.438,-16.489 23.098,-31.577 -2.34,-15.089 -16.49,-25.439 -31.578,-23.099 -1.952,0.303 -3.825,0.804 -5.601,1.478 0.327,-0.063 0.656,-0.12 0.987,-0.171 14.77,-2.291 28.621,7.841 30.912,22.611 2.29,14.769 -7.841,28.62 -22.611,30.911 -0.332,0.051 -0.662,0.097 -0.993,0.136 z m -23.771,-47.595 -53.081,-9.224 0.948,14.477 48.152,1.24 c 1.069,-2.317 2.407,-4.497 3.981,-6.493 z M 119.709,264.133 c 5.318,6.696 13.901,10.488 18.196,12.062 l 18.058,-7.618 z m 8.829,-3.538 34.26,4.199 c -0.943,-4.257 -4.005,-8.362 -7.482,-11.967 -1.566,-1.625 -3.23,-3.145 -4.866,-4.527 -0.532,-0.351 -1.066,-0.587 -1.61,-0.71 -1.517,-0.346 -3.032,0.171 -4.587,1.02 -3.373,1.844 -6.795,5.263 -10.309,8.167 -1.775,1.467 -3.582,2.795 -5.406,3.818 z m 30.208,-14.002 31.58,5.27 20.558,-22.066 c -8.737,1.382 -16.905,1.446 -24.683,-1.426 -9.25,-3.416 -13.677,3.506 -18.339,10.326 -2.745,4.016 -6.207,6.446 -9.116,7.896 z m 64.645,-19.444 19.653,6.323 13.438,-17.679 c -13.973,5.063 -27.002,9.632 -33.091,11.356 z m 42.993,-14.966 17.98,5.246 13.299,-16.864 c -7.625,2.863 -19.285,7.219 -31.279,11.618 z m 62.45,-41.614 c 3.406,2.025 7.467,4.611 10.872,7.269 3.493,2.726 6.277,5.593 7.322,8.018 0.875,2.03 1.657,4.115 2.332,6.075 l 45.2,-22.481 -32.326,-4.589 0.045,-0.312 c -0.117,0.055 -0.235,0.108 -0.355,0.159 -5.788,2.418 -17.359,4.08 -27.777,5.143 -1.65,0.328 -3.419,0.57 -5.313,0.718 z m -12.429,-22.3 c -4.201,1.224 -8.907,2.363 -14.101,3.431 -6.244,1.283 -10.967,2.612 -14.458,4.178 -3.085,1.384 -5.133,2.902 -6.314,4.825 -1.148,1.868 -1.433,4.082 -1.246,6.756 0.218,3.098 1.074,6.741 2.244,11.098 0.456,1.697 1.46,3.226 2.847,4.631 -0.393,-4.032 1.586,-8.517 5.501,-13.216 5.579,-6.698 15.121,-14.085 25.527,-21.703 z m -19.31,46.831 c -0.914,-0.34 -1.81,-0.693 -2.685,-1.059 -8.361,-3.496 -14.702,-8.311 -16.309,-14.294 -1.261,-4.696 -2.155,-8.628 -2.389,-11.967 -0.265,-3.763 0.296,-6.848 1.912,-9.477 1.206,-1.963 3.021,-3.696 5.645,-5.23 -5.865,0.037 -14.598,0.094 -24.091,0.155 2.327,7.284 7.818,25.868 8.364,40.561 0.188,5.048 -0.214,9.655 -1.439,13.27 -0.047,0.138 -0.095,0.274 -0.144,0.409 12.685,-4.661 24.884,-9.232 32.135,-11.962 -0.341,-0.133 -0.673,-0.269 -0.999,-0.406 z m -0.982,-46.709 c 1.63,-0.403 3.384,-0.796 5.268,-1.184 12.592,-2.588 22.193,-5.522 28.459,-9.186 5.427,-3.173 8.21,-6.793 7.602,-11.432 -0.956,-7.296 -2.381,-15.937 -2.153,-22.351 z m 76.393,-36.47 43.523,-6.178 c -0.432,-1.429 -0.77,-2.906 -1.005,-4.423 -0.157,-1.011 -0.265,-2.018 -0.325,-3.019 l -43.958,3.161 0.375,5.732 z m -2.761,-25.664 0.696,10.629 44.307,-3.186 c 0.178,-2.14 0.568,-4.233 1.153,-6.255 z M 164.61,447.839 c 8.39,-5.017 14.081,-13.429 16.514,-22.046 0.184,-1.433 0.599,-3.177 1.06,-5.132 0.066,-0.508 0.12,-1.015 0.163,-1.52 0.851,-10.116 -3.184,-19.44 -13.493,-21.9 -2.896,-0.691 -5.675,-1.054 -8.314,-1.132 l 0.009,0.297 c -5.69,0.17 -9.458,1.933 -11.903,4.431 -2.496,2.548 -3.642,5.778 -4.139,8.616 0.593,-0.351 1.252,-0.69 1.983,-1.014 5.082,-2.252 10.391,-3.362 14.828,-3.014 3.288,0.258 6.125,1.313 8.2,3.176 2.319,2.083 3.8,5.256 3.679,9.74 0.77,5.468 1.637,19.915 -8.548,29.462 -0.013,0.012 -0.026,0.024 -0.039,0.036 z m -21.592,-47.208 c -3.263,2.107 -5.805,4.813 -7.47,7.823 -3.062,5.54 -3.025,12.085 1.237,17.444 3.179,3.997 6.27,5.9 9.177,6.313 3.21,0.456 6.072,-0.947 8.283,-2.866 2.304,-2 3.942,-4.583 4.478,-6.542 0.07,-0.258 0.116,-0.54 0.145,-0.781 -0.249,0.05 -0.532,0.117 -0.753,0.198 -1.511,0.555 -3.217,1.633 -4.449,2.643 -0.786,0.644 -1.837,1.021 -3.076,1.048 -1.31,0.028 -2.891,-0.352 -4.434,-1.094 -2.031,-0.976 -3.992,-2.568 -5.17,-4.41 -0.788,-1.232 -1.239,-2.575 -1.254,-3.946 -0.17,-1.747 -0.655,-9.497 3.286,-15.83 z m 25.614,16.508 c -0.117,-2.258 -0.867,-3.948 -2.179,-5.126 -1.38,-1.24 -3.306,-1.844 -5.494,-2.016 -3.777,-0.296 -8.284,0.718 -12.611,2.635 -2.577,1.142 -3.878,2.248 -4.02,3.564 -0.088,0.811 0.337,1.57 0.897,2.256 0.762,0.931 1.831,1.71 2.917,2.232 0.714,0.342 1.432,0.578 2.074,0.633 0.2,0.016 0.522,-0.025 0.584,-0.034 2.044,-1.665 5.084,-3.393 7.339,-3.824 1.977,-0.378 3.54,0.153 4.462,1.287 0.754,0.926 1.281,2.577 0.546,5.266 -0.716,2.617 -2.819,6.125 -5.896,8.796 -3.171,2.752 -7.331,4.598 -11.934,3.944 -3.79,-0.539 -7.976,-2.789 -12.121,-8 -4.14,-5.205 -5.214,-11.275 -3.823,-17.012 3.092,-12.753 18.854,-24.136 40.545,-18.96 5.947,1.419 10.281,4.641 13.102,8.944 -0.475,-1.387 -1.14,-2.747 -2.042,-4.053 -2.804,-4.058 -7.848,-7.535 -16.324,-9.918 -28.275,-7.951 -44.939,22.883 -33.614,41.148 4.406,7.105 10.326,10.365 16.216,10.599 8.845,0.35 17.449,-6 20.338,-15.587 0.601,-1.996 0.939,-3.759 1.03,-5.3 -0.149,-0.897 -0.273,-1.407 -0.273,-1.407 z M 286.35,148.467 C 277.404,135.555 248.345,93.613 248.345,93.613 l -37.895,55.342 z m -84.855,2.792 c -11.896,-8.413 -41.02,-29.01 -41.02,-29.01 l -30.804,76.557 c 22.001,-16.62 45.827,-32.515 71.824,-47.547 z m -68.18,50.543 c 2.787,-0.224 6.002,-0.282 9.298,0.068 6.539,0.696 13.343,3.011 17.977,8.537 3.985,4.751 6.453,11.97 5.482,22.855 0.371,-0.511 0.745,-1.013 1.124,-1.505 l -0.081,-0.055 c 7.972,-11.839 6.14,-24.57 2.402,-34.336 -2.748,-7.18 -6.547,-12.796 -8.46,-15.379 -9.565,6.478 -18.805,13.087 -27.742,19.815 z m 42.44,22.31 c 3.311,-1.551 7.197,-1.83 12.034,-0.043 2.841,1.049 5.737,1.657 8.699,1.927 l 0.012,-0.133 c 1.334,0.126 2.372,-0.017 3.128,-0.543 0.857,-0.595 1.265,-1.63 1.488,-2.905 0.307,-1.756 0.2,-3.913 -0.175,-6.337 -2.445,-15.833 -16.263,-41.983 -19.265,-47.53 -5.713,3.582 -11.315,7.209 -16.811,10.878 2.125,2.894 6.065,8.804 8.935,16.301 3.141,8.205 4.98,18.268 1.955,28.385 z m 29.047,1.852 c 2.603,-0.224 5.26,-0.621 7.976,-1.131 l -0.015,-0.035 c 2.783,-1.253 4.574,-3.574 5.678,-6.552 1.238,-3.342 1.628,-7.467 1.481,-11.988 -0.61,-18.799 -10.536,-44.134 -13.628,-51.605 -0.141,-0.1 -0.366,-0.259 -0.668,-0.473 -6.837,3.918 -13.516,7.901 -20.052,11.941 2.786,5.162 17.342,32.698 19.9,49.257 0.563,3.644 0.543,6.807 -0.157,9.199 -0.144,0.49 -0.316,0.953 -0.515,1.387 z m 39.509,-10.654 c 4.684,-1.665 9.7,-3.476 14.767,-5.323 l -0.049,-0.06 c 1.605,-1.309 2.573,-3.389 3.182,-5.912 0.698,-2.893 0.887,-6.341 0.749,-10.056 -0.569,-15.3 -6.693,-34.947 -8.589,-40.7 -4.615,0.029 -9.324,0.06 -13.897,0.089 2.111,5.592 7.342,20.675 8.497,35.599 0.748,9.671 -0.282,19.232 -4.66,26.363 z m -23.104,7.683 c 2.86,-0.743 8.012,-2.424 14.406,-4.631 l -0.09,-0.123 c 8.284,-6.028 9.763,-17.473 8.876,-28.938 -1.261,-16.29 -7.573,-32.775 -8.828,-35.921 -10.459,0.067 -19.711,0.126 -24.783,0.159 3.442,8.443 13.105,33.705 13.718,52.571 0.217,6.683 -0.756,12.571 -3.299,16.883 z M 451.974,76.853 c -3.971,-1.924 -8.545,-2.702 -13.231,-1.976 -12.269,1.903 -20.685,13.409 -18.782,25.677 1.903,12.269 13.408,20.685 25.677,18.782 0.405,-0.063 0.806,-0.136 1.203,-0.219 l -14.499,-19.391 0.025,-0.018 c -0.749,-1.163 -1.272,-2.497 -1.497,-3.95 -0.688,-4.432 1.598,-8.645 5.37,-10.606 l -0.03,-0.058 z m -0.53,40.762 c 8.991,-4.054 14.56,-13.74 12.976,-23.956 -0.885,-5.702 -3.844,-10.573 -7.99,-13.961 l -10.617,5.55 c 2.69,1.468 4.691,4.127 5.196,7.386 0.862,5.558 -2.95,10.77 -8.508,11.632 -0.322,0.05 -0.642,0.084 -0.961,0.103 z M 440.081,88.658 c -3.057,0.474 -5.154,3.34 -4.68,6.397 0.474,3.057 3.341,5.153 6.397,4.679 3.057,-0.474 5.154,-3.34 4.68,-6.397 -0.474,-3.056 -3.341,-5.153 -6.397,-4.679 z"
       style="fill:#ffffff"
       id="path80" /></g></svg>
