<?xml version="1.0" encoding="UTF-8" standalone="no"?><!DOCTYPE svg PUBLIC "-//W3C//DTD SVG 1.1//EN" "http://www.w3.org/Graphics/SVG/1.1/DTD/svg11.dtd"><svg width="100%" height="100%" viewBox="0 0 789 465" version="1.1" xmlns="http://www.w3.org/2000/svg" xmlns:xlink="http://www.w3.org/1999/xlink" xml:space="preserve" xmlns:serif="http://www.serif.com/" style="fill-rule:evenodd;clip-rule:evenodd;stroke-linejoin:round;stroke-miterlimit:2;"><rect id="shiny.blueprint" x="0.202" y="0.158" width="788.726" height="463.956" style="fill:none;"/><clipPath id="_clip1"><rect x="0.202" y="0.158" width="788.726" height="463.956"/></clipPath><g clip-path="url(#_clip1)"><rect id="retreat-logo" serif:id="retreat logo" x="0.202" y="364.114" width="519.685" height="519.685" style="fill:none;"/><path d="M470.122,21.072c-0,-0 -96.296,196.302 -258.915,328.509c-90.71,73.747 -109.606,85.152 -111.42,83.243l63.314,5.222l29.808,-28.804l68.748,-38.152l72.88,-43.196l29.06,21.545l126.723,-5.713c-0,0 62.784,-26.714 72.749,-80.501c9.965,-53.787 5.454,-73.528 -1.183,-104.547c-6.637,-31.02 -12.843,-31.848 -12.843,-31.848l14.552,-11.985l57.483,-31.081l-17.574,-9.269l-24.998,-5.445l-45.654,-47.866l-62.796,0" style="fill:#2e96f4;"/><path d="M394.282,245.899l-131.365,118.271l100.219,-52.551l31.146,-65.72Z" style="fill-opacity:0.16;"/><path d="M426.662,104.505l7.101,19.094c-53.748,70.559 -113.556,134.634 -178.41,193.31c60.805,-65.66 117.916,-136.45 171.309,-212.404Z" style="fill:#fff;"/><path d="M502.102,151.136l-136.679,158.906l134.989,-80.483l1.69,-78.423Z" style="fill-opacity:0.24;"/><path d="M502.102,217.03l-127.763,82.054l127.763,-68.495l0,-13.559" style="fill:#fff;"/><path d="M560.508,189.472c-30.996,117.195 -90.242,151.883 -161.499,151.489l94.596,6.658c-0,0 53.331,-41.581 62.677,-61.305c10.23,-21.589 14.641,-85.998 9.771,-85.913l-5.545,-10.929Z" style="fill-opacity:0.17;"/><path d="M497.015,236.99l-107.005,108.044l-29.578,3.091l-25.546,-20.065l162.129,-91.07Z" style="fill:#386b72;"/><path d="M489.787,241.908l-124.364,101.021l-30.252,-14.928l154.616,-86.093Z" style="fill-opacity:0.16;"/><ellipse cx="413.537" cy="430.392" rx="258.164" ry="17.668" style="fill-opacity:0.14;"/><path d="M379.536,350.176l86.752,49.059l-22.055,16.613l63.912,1.898l-34.083,-16.423l-57.062,-54.772l-37.464,3.625" style="fill:#d4c2b0;"/><path d="M433.561,366.075l-39.966,-4.731l-14.877,-12.354l42.682,-3.304l12.161,20.389Z" style="fill-opacity:0.27;"/><path d="M241.022,346.724l-123.252,77.888l111.919,-88.359l11.333,10.471" style="fill:#fff;"/><path d="M246.305,351.924l17.667,15.875l-70.952,40.872l-33.693,29.375l86.978,-86.122Z" style="fill:#386b72;"/><path d="M255.353,360.113l-67.652,50.036l-24.6,24.686l81.452,-81.738l10.8,7.016Z" style="fill-opacity:0.11;"/><path d="M437.004,115.518l38.065,-59.657l5.811,22.021l-43.876,37.636Z" style="fill:#fff;"/><path d="M578.129,67.066l-19.127,16.018l11.286,11.033l-8.215,16.971l53.359,-30.578l-37.303,-13.444Z" style="fill:#d4c2b0;"/><path d="M571.101,94.809l44.331,-16.927l3.218,3.74l-55.153,31.342l7.604,-18.155" style="fill:#d19559;fill-opacity:0.56;"/><path d="M469.191,21.072c47.148,19.934 62.08,52.557 91.317,94.927l-11.896,11.693l-63.269,-91.633l-16.152,-14.987Z" style="fill-opacity:0.25;"/><path d="M88.928,431.963l-0.347,-0.57c161.717,-98.541 291.474,-242.445 375.033,-413.512l1.27,0.621l0,-1.205l2.857,-0l0.074,-0.1c0.045,0.033 0.09,0.066 0.136,0.1l67.308,-0l0,0.934l0.618,-0.618l46.344,46.344l40.284,10.794l-0.222,0.826l4.009,6.944l-67.259,38.832l-4.241,7.384c11.843,29.14 18.439,60.882 18.439,94.005c-0,2.736 -0.043,5.462 -0.129,8.177l0.129,-0c-0,54.114 -33.22,100.53 -80.363,119.948l-0.504,-1.223l0,0.812l-66.847,-0l46.625,46.626l51.822,15.61l-2.533,8.407l-0.099,-0.03l0,0.127l-84.055,-0l-0,-8.779l0.441,-0l-0.49,-0.85l20.055,-11.579l-85.673,-49.463l0.04,-0.069l-7.746,-0l-0,-1.011l-0.494,0.855l-30.629,-17.684l-64.499,37.239l-2.261,2.261l-0.606,-0.606l-77.213,44.579l-0.182,-0.315l-24.227,24.228l-0,0.741l-74.978,-0l0,-8.78l0.113,0Zm377.709,-397.9c-10.714,21.236 -22.138,42.045 -34.245,62.392l4.907,18.313l40.193,-40.193l-10.855,-40.512Zm-40.538,72.826c-19.324,31.61 -40.312,62.073 -62.858,91.255l0,56.401l38.268,-22.094l29.117,-108.667l-4.527,-16.895Zm-71.637,102.454c-10.77,13.541 -21.88,26.795 -33.319,39.75l0,29.757l33.319,-19.236l-0,-50.271Zm-42.098,49.562c-18.178,20.05 -37.157,39.355 -56.897,57.863l56.897,-32.849l-0,-25.014Zm-82.415,80.974c-17.049,14.912 -34.617,29.249 -52.68,42.981l-11.438,42.687l74.893,-74.893l-10.775,-10.775Zm-64.051,51.497c-15.137,11.168 -30.612,21.916 -46.408,32.227l40.695,-10.905l5.713,-21.322Zm366.026,-365.3l-41.15,0l43.336,11.612l3.45,-5.976l-5.636,-5.636Zm39.76,39.76l-27.697,-27.697l-9.285,16.083l24.015,24.581l12.967,-12.967Zm39.854,15.065l-33.521,-8.981l-13.164,13.163l9.388,9.609l-0.043,0.043l0.092,0.053l-6.547,11.398l43.795,-25.285Zm-61.091,37.773l12.939,-22.529l-35.816,-36.659l-9.946,5.742c12.971,16.327 24.048,34.266 32.823,53.446Zm11.504,130.447l-0.032,-0.003c0.932,-8.665 1.409,-17.465 1.409,-26.376c0,-11.141 -0.777,-22.119 -2.275,-32.884l-54.241,-31.316l-0,69.537l47.784,47.784c3.438,-8.476 5.933,-17.433 7.355,-26.742Zm-2.729,-70.458c-10.594,-56.33 -40.971,-106.158 -82.795,-141.984l29.854,111.419l52.941,30.565Zm-70.052,-143.928c8.069,7.375 15.689,15.267 22.8,23.62l15.312,-8.841l2.284,-3.955l-40.396,-10.824Zm0.009,306.942c11.684,-4.823 22.442,-11.443 31.927,-19.513l-0.665,-68.04l-15.884,-15.883l-27.715,103.436l12.337,-0Zm40.627,-27.691c8.382,-8.7 15.461,-18.663 20.923,-29.574l-21.422,-21.422l0.499,50.996Zm-116.705,36.47l-24.052,-0l56.908,32.856l-32.856,-32.856Zm-47.068,-8.779l20.266,-0l94.544,-94.544l-139.283,80.415l24.473,14.129Zm32.682,-0l69.038,-0l25.269,-94.308l-94.307,94.308Zm93.896,70.74l-25.823,-7.779l-13.473,7.779l39.296,-0Zm-228.183,-50.475l94.391,-54.496l34.823,-60.315l-154.706,89.319l25.492,25.492Zm109.597,-63.275l124.007,-71.596l0,-75.837l-17.917,-66.867l-40.76,40.761l-30.145,112.504l0.04,0.023l-0.087,0.151l-0.015,0.054l-0.014,-0.003l-35.109,60.81Zm-163.013,94.115l45.545,-26.295l-9.625,-9.625l-35.92,35.92Zm-88.803,39.181l32.814,0l2.538,-9.472l-35.352,9.472Z"/></g></svg>