<svg xmlns="http://www.w3.org/2000/svg" fill="none" viewBox="0 0 200 100">
  <path fill="#fff" fill-rule="evenodd" d="M45.465 58.419a.598.598 0 0 1 .192-1.178l43.39 4.292 5.144-1.612-5.074-.629.109-.878a.597.597 0 0 1 .035-.288l.003-.021h.005l5.579-13.473c-.629-.76-1.256-1.521-1.881-2.283l-30.075-31.66a.598.598 0 0 1 .708-.944 186.693 186.693 0 0 1 8.588 4.735 191.456 191.456 0 0 1-2.861-4.55.598.598 0 0 1-.023-.581c.085-.168.29-.414.733-.333.227.041.824.315 1.714.82 6.389 3.63 30.155 19.483 45.21 30.186l.136-3.739a5.992 5.992 0 0 0-.401-2.384l-5.4-13.927a.597.597 0 0 1 .175-.676l1.244-1.036-.47-3.374a.6.6 0 0 1 .967-.55l3.552 2.844.166-3.254a.599.599 0 0 1 1.034-.378s29.133 31.118 33.901 37.965c1.459 2.097 2.426 3.723 2.859 5.052.324.997.36 1.848.122 2.612-.237.761-.751 1.447-1.588 2.098-1.117.867-2.85 1.692-5.264 2.638-3.878 1.52-7.027 2.479-8.95 3.523-.966.524-1.609 1.026-1.747 1.714-.039.19-.035.391.009.606l.642 1.386-.013.006.023.042-.065.036C147.16 76.694 151.763 82 151.763 82l.392.451-.035.031a.596.596 0 0 1-.389.781l-.576.173c.411.528.684 1.23.826 1.998.242 1.313.109 2.816-.227 3.822-.17.511-.403.906-.648 1.137-.269.254-.57.356-.875.328a.598.598 0 0 1-.456-.286l-1.06-1.75-1.482-.216-.001.006-.594-.07a6.134 6.134 0 0 1-.06-.008l-18.112 1.996a.63.63 0 0 1-.08.004l-26.397-.608a.6.6 0 0 1-.303-.09l-16.77-10.43a.568.568 0 0 1-.03-.021l-11.932-8.49-.53-.212.013-.035L45.465 58.42Zm51.188 1.984-6.737 2.111.61 1.766c5.564-.936 10.621-.408 13.754.157-5.168-3.017-7.562-4.007-7.562-4.007l-.065-.027Zm-7.938 2.3-30.187-2.987 28.05 5.4c.69-.156 1.395-.316 2.114-.477.215-.048.43-.094.644-.138l-.62-1.799Zm-5.03 3.074L57.88 60.81c5.653 1.745 12.773 3.968 20.249 6.264 1.62-.382 3.491-.82 5.555-1.296Zm7.927-7.38 5.336.66 4.062-1.273-1.697-1.849-7.7 2.461Zm4.313-13.24-5.06 12.222 8.3-2.652a.604.604 0 0 1 .153-.069l.516-.145.237-.076.002.008 12.676-3.585-16.824-5.702Zm-22.24-28.4a199.868 199.868 0 0 0-7.403-4.237l18.071 19.024c-3.731-4.845-7.315-9.76-10.668-14.787Zm41.965 23.787c-14.826-10.51-37.633-25.716-44.25-29.53a199.594 199.594 0 0 0 3.132 4.857c11.517 6.93 23.123 15.317 34.762 24.26l.596.04.105-.026.008.033 5.647.366Zm20.848 27.469c.213-.328.507-.636.881-.928 1.737-1.354 5.416-2.42 10.178-4.286.5-.196.97-.386 1.41-.572l-15.976-1.786 3.507 7.572Zm14.889-6.943c.209-.117.404-.235.587-.353.926-.597 1.509-1.186 1.73-1.896.22-.707.073-1.51-.353-2.505-.482-1.128-1.318-2.467-2.468-4.12-1.506-2.162-5.45-6.752-10.136-12.014a127.087 127.087 0 0 1 10.454 20.657l.186.231Zm-15.495-26.293a1865.093 1865.093 0 0 0-17.839-19.382l-.14 2.745 16.712 21.61 1.267-4.973Zm-18.925-15.904a.882.882 0 0 1-.039-.029l-3.291-2.634.244 1.752.425.784 13.863 14.612-11.202-14.485Zm-3.694.478-.706.589 5.244 13.527c.353.91.517 1.883.482 2.86l-.165 4.526c.055.04.11.08.165.118l6.999.57-12.019-22.19Zm34.894 60.789c-3.299-2.965-9.633-7.903-19.031-12.07.074 1.142.421 2.254.93 3.357v.001c5.803 2.595 11.831 5.356 18.101 8.712Zm-18.994-13.36a81.065 81.065 0 0 1 7.027 3.476l-.026-.096-4.088-8.826c-.275.355-.573.73-.896 1.126-1.235 1.511-1.846 2.94-2.017 4.32Zm20.696 17.043-6.686 2.01c.201.09.387.188.569.29.703.394 1.337.862 2.839 1.07l.029-.004a.61.61 0 0 1 .152.003l2.395.35c.177.026.333.13.425.283l.871 1.436a2.87 2.87 0 0 0 .157-.384c.283-.85.389-2.117.184-3.226-.124-.671-.355-1.287-.77-1.674l-.165-.154Zm-8.984 2.701-6.808 2.047 9.681-1.066-.206-.117c-.596-.343-1.121-.685-2.17-.806l-.497-.058Zm-4.98.248 14.133-4.25a180.135 180.135 0 0 0-3.252-1.763c-.105.353-.403.664-.84.876-.648.315-1.594.416-2.294.202-.683-.208-1.2-.88-1.539-1.645-.4-.902-.568-1.906-.602-2.125-3.596-1.773-7.111-3.389-10.547-4.934 1.416 2.428 3.329 4.856 4.686 7.468.3.578.524 1.119.683 1.626l.012.006-.006.012c.539 1.733.324 3.06-.164 4.052a4.555 4.555 0 0 1-.27.475Zm9.973-6.49a205.09 205.09 0 0 0-3.39-1.73c.085.367.219.842.417 1.289.232.521.534 1.025 1 1.167.507.155 1.193.076 1.663-.153.129-.063.242-.136.319-.224.04-.045.072-.093.072-.149.001-.065-.029-.13-.081-.2ZM77.635 72.62l7.113 5.061.321-2.103-7.434-2.958Zm10.636 7.326 13.598 8.458 2.563-4.76-16.161-3.698Zm20.124 8.794 19.356.445-.906-2.941-18.45 2.496ZM53.522 60.72l17.822 7.99.312-.078s1.547-.383 4.186-1.015c-8.656-2.665-16.686-5.18-22.32-6.897Zm48.489-1.995-3.652 1.144c2.072 1.002 6.918 3.53 14.967 8.764 1.061.69 2.125 1.37 3.182 2.036-1.363-1.872-2.209-3.811-2.73-5.4-4.038-1.99-7.958-4.112-11.767-6.545Zm18.157 15.611a290.125 290.125 0 0 1-7.495-4.7 231.218 231.218 0 0 0-4.961-3.141l-.508-.16s-8.59-2.697-18.25-.529c-3.18.714-6.084 1.383-8.557 1.963 15.104 4.622 31.191 9.373 39.333 10.985 5.006.99 9.29 1.834 12.149 2.397a383.783 383.783 0 0 1-9.457-5.459l-.011.02-.524-.289a16.29 16.29 0 0 1-1.719-1.087ZM97.41 44.398l14.924 5.058-7.983-6.762-6.94 1.704Zm15.567 7.641-12.398 3.506 1.875 2.042a.347.347 0 0 1 .02.014l.012-.038-.015-.01a10.886 10.886 0 0 1-.041-.025s1.518.62 10.547 3.578v-9.067Zm-35.94-32.485c5.22 7.521 10.928 14.808 16.827 22.002l1.963 2.067 7.459-1.831-26.25-22.238Zm30.951 21.083c-9.199-7.054-18.376-13.753-27.504-19.643l24.158 20.465 3.346-.822Zm9.041 1.196-7.068-.46 5.147 8.949 8.861 4.485-6.845-12.797-.017-.002.002-.025-.08-.15Zm16.507 17.466 15.299 1.71-14.661-6.634c.391.639.573 1.269.537 1.972-.042.806-.407 1.738-1.175 2.952Zm14.929.302-13.286-17.18-2.55 10.015 15.836 7.165Zm-18.633-9.675-3.898-7.198-5.861-.478c4.582 3.31 7.973 5.9 9.188 7.113.195.194.385.382.571.563Zm-2.523-7.171 4.456 8.227 2.281-8.956-6.737.729Zm6.476-1.837-17.407-18.346 10.337 19.086.128.01 6.942-.75Zm-5.3 29.804c-.371-1.045-.589-2.104-.582-3.186a83.407 83.407 0 0 0-7.017-2.608c-2.487-.8-4.65-1.5-6.532-2.113.089.44.219.989.405 1.61 4.43 2.172 9.003 4.192 13.726 6.297Zm-13.546-8.975c1.832.596 3.924 1.273 6.314 2.042a84.834 84.834 0 0 1 6.76 2.495c.251-1.466.945-2.983 2.25-4.58.506-.62.949-1.182 1.334-1.695l-6.14-3.108c-1.315.606-8.251 3.802-10.518 4.845Zm13.905 27.148 4.482-1.347c.546-.3 1.324-.86 1.776-1.778.262-.535.405-1.187.336-1.975l-7.539 2.032.945 3.068Zm5.836-7.563c-.03-.06-.06-.12-.092-.18-1.608-3.096-3.99-5.937-5.417-8.823-4.77-2.133-9.388-4.157-13.862-6.313.927 2.343 2.584 5.182 5.518 7.32a373.716 373.716 0 0 0 13.853 7.996ZM73.118 69.505l.324.145c.03.014.06.03.087.049l20.86 8.3 7.121 2.774-13.46-9.434c-3.322-1-6.671-2.02-9.954-3.028-2.214.524-3.928.938-4.978 1.194Zm26.889 11.967-6.055-2.36a.07.07 0 0 1-.004-.001l-7.801-3.104-.339 2.216 14.199 3.249Zm5.753 2.088-2.552 4.741 20.532-2.777-17.98-1.964Zm1.453-23.1c2.01 1.142 4.051 2.22 6.122 3.26a18.559 18.559 0 0 1-.272-1.326 797.253 797.253 0 0 1-5.85-1.934Zm27.125 22.393c-2.071-.407-6.944-1.364-13.136-2.588l6.259 4.441 6.877-1.853Zm-17.801-3.566c-6.271-1.45-15.404-4.043-25.048-6.918l13.944 9.774 11.104-2.856Zm-10.83-36.926 6.713 5.687-3.697-6.428-3.016.741Zm9.114 9.157-.651.184v9.082l9.925-4.572-9.274-4.694Zm16.577 1.527c-.814-.773-1.822-1.677-2.982-2.835-1.236-1.235-4.736-3.9-9.453-7.3l6.866 12.839 6.471 3.275c.162-.24.307-.468.437-.685.489-.82.749-1.47.779-2.054.044-.84-.418-1.504-1.197-2.33a21.736 21.736 0 0 0-.771-.767l-.15-.143Zm-6.211 31.433-6.464-4.587-10.591 2.725 17.055 1.862Zm10.367-43.527 13.174 17.034a126.168 126.168 0 0 0-11.981-21.72l-1.193 4.686Z" clip-rule="evenodd"/>
</svg>
