<?xml version="1.0" encoding="UTF-8" standalone="no"?><!DOCTYPE svg PUBLIC "-//W3C//DTD SVG 1.1//EN" "http://www.w3.org/Graphics/SVG/1.1/DTD/svg11.dtd"><svg width="100%" height="100%" viewBox="0 0 790 465" version="1.1" xmlns="http://www.w3.org/2000/svg" xmlns:xlink="http://www.w3.org/1999/xlink" xml:space="preserve" xmlns:serif="http://www.serif.com/" style="fill-rule:evenodd;clip-rule:evenodd;stroke-linejoin:round;stroke-miterlimit:2;"><rect id="shiny_info" x="0.86" y="0.158" width="788.726" height="463.956" style="fill:none;"/><clipPath id="_clip1"><rect x="0.86" y="0.158" width="788.726" height="463.956"/></clipPath><g clip-path="url(#_clip1)"><rect id="retreat-logo" serif:id="retreat logo" x="0.86" y="364.114" width="519.685" height="519.685" style="fill:none;"/><path d="M387.069,282.498l-9.729,47.468l28.011,101.867l20.741,12.237l-52.176,1.832l16.237,-15.958l-26.352,-98.197l0.686,-51.094l22.582,0l0,1.845Z" style="fill:#f24013;"/><path d="M417.859,233.407l-27.706,49.091l-32.775,-1.845l-4.951,-17.613l69.284,-42.91l-3.852,13.277Z" style="fill:#fff;"/><path d="M414.042,243.181l-60.682,26.7l-2.84,-8.932l68.71,-35.716l-5.188,17.948" style="fill:#c9d1d7;"/><path d="M457.326,38.431l0.87,-19.538l-20.499,-15.123l-21.665,1.324l-11.747,36.431l31.018,50.849l-10.058,24.032l-69.31,20.986l-94.425,104.176l-38.738,25.868l-14.868,27.711l39.347,0.385l128.065,-46.263l45.352,-25.587l42.306,-34.94l14.879,-57.738l-29.573,-55.935l2.027,-16.193l37.123,34.28l-30.104,-54.725Z" style="fill:#fff;"/><path d="M479.665,81.429l-22.52,-41.666l-20.029,-10.902l7.096,23.517l35.453,29.051" style="fill:#f24013;"/><path d="M426.092,126.708l31.053,64.122l-22.819,-93.782l-8.234,29.66Z" style="fill:#c9d1d7;"/><path d="M417.272,174.261l-132.788,49.421l-17.07,15.136l151.816,-38.923l-1.958,-25.634Z" style="fill:#c9d1d7;"/><path d="M461.014,188.59l-199.437,51.959l-38.602,27.22l-15.071,30.547l51.01,-6.358c47.67,-12.15 94.297,-29.511 139.216,-55.401l62.884,-47.967Z" style="fill:#414141;"/><path d="M457.145,190.83c-78.862,45.289 -161.52,78.386 -246.29,104.702l53.626,-6.186l118.905,-42.052l67.921,-49.211l5.838,-7.253Z" style="fill-opacity:0.31;"/><path d="M461.264,38.412l35.455,61.41l-6.382,3.684l-0.513,0.514l-0.138,-0.138l-0.006,0.003l-0.012,-0.021l-37.543,-37.543l-1.582,5.904l32.867,56.928l-0.942,0.544l1.179,0.316l-16.172,60.356l-0.863,-0.231l0.386,0.434c-12.444,11.073 -25.461,21.457 -39.008,31.096l-33.878,62.547l-0.086,-0.046l-1.315,0l-11.254,44.772l25.737,102.385l36.685,10.478l-2.12,7.423l0,0.921l-71.974,0l0,-0.112l-0.093,0.057l-4.259,-6.921l20.488,-12.609l-25.304,-100.662l0.714,-0.179l-0.741,0.007l-0.446,-45.56l-2.917,0l0,-0.028l-0.019,0.011l-9.371,-17.083c-43.538,18.984 -90.71,31.147 -140.554,35.204l-0.014,0.023l-6.988,-4.149l19.715,-33.199l-0.011,-0.018c12.402,-7.805 24.406,-16.271 35.967,-25.345l-0.001,-0.002l0.006,-0.002c37.78,-29.653 70.826,-65.795 97.566,-106.559l0.802,0.526l-0.255,-0.95l69.894,-18.728l5.639,-21.043l-28.449,-49.274l0.046,-0.027l-0.007,-0.001l11.414,-42.6l0.025,0.007l-0,-0.189l29.17,-0l19.462,18.33l-0,19.339Zm-51.367,4.03l12.632,21.878l14.83,-14.83l-5.21,-19.445l-16.394,-9.465l-5.858,21.862Zm32.191,-6.707l3.314,12.369l28.565,28.565l-19.51,-33.793l-12.369,-7.141Zm-23.195,-26.865l-0.96,3.583l20.819,12.02l0.021,-0.036l14.363,8.292l0,-10.146l-14.559,-13.713l-19.684,-0Zm42.99,170.966l11.947,-44.588l-23.894,0l11.947,44.588Zm-48.555,51.837c-18.475,12.081 -37.857,22.814 -58.047,32.067l6.748,12.302l27.267,0l24.032,-44.369Zm8.208,-108.738l-50.514,13.535l43.746,11.722l6.768,-25.257Zm12.55,-15.438l-11.468,42.798l24.71,6.621l-13.242,-49.419Zm-209.881,166.281l-11.81,19.887c12.627,-1.194 25.075,-2.92 37.328,-5.154l-25.518,-14.733Zm30.292,-22.817c-7.862,5.938 -15.916,11.602 -24.15,16.979l24.15,13.943l0,-30.922Zm103.268,-109.629c-23.351,34.835 -51.255,66.263 -82.743,93.14l139.351,-37.338l-0,-40.634l-56.608,-15.168Zm68.971,-69.725l9.896,17.141l14.066,0l-8.883,-15.385l0.055,-0.032l-0.035,-0.009l3.654,-13.637l-3.415,-3.416l-15.338,15.338Zm46.117,55.514l-17.462,-30.245l-15.737,-0l8.104,30.245l25.095,-0Zm-210.228,158.834c69.097,-14.782 131.656,-45.883 184.632,-89.219l-184.632,49.472l-0,39.747Zm121.706,-1.786l-16.059,0l0.406,41.494l5.223,0l10.43,-41.494Zm13.834,144.578l-23.869,-94.956l-4.321,-0l23.535,93.626l4.655,1.33Zm16.529,13.259l-21.761,-6.216l-10.1,6.216l31.861,-0Zm7.806,-247.05l32.675,-8.755l-5.418,-20.22l-27.257,-7.303l-0,36.278Z"/><ellipse cx="397.293" cy="449.293" rx="145.376" ry="14.293" style="fill-opacity:0.14;"/></g></svg>