<svg xmlns="http://www.w3.org/2000/svg" viewBox="0 0 200 100" style="fill: #fff;">
  <path d="M165.123 17.71a.5.5 0 00-.305.116l-6.297 5.242-6.025 2.092a.5.5 0 00-.047.02l-7.369 3.422-7.836 1.572-41.058-3.188a.5.5 0 00-.098.002l-15.36 1.864a.5.5 0 00-.017.002l-.01.002a.5.5 0 00-.049.007.5.5 0 00-.01.002.5.5 0 00-.029.008.5.5 0 00-.035.014.5.5 0 00-.02.008l-16.925 6.62h-.002a.5.5 0 00-.006.003l-.014.006a.5.5 0 00-.006.002.5.5 0 00-.021.01.5.5 0 00-.018.01.5.5 0 00-.043.025.5.5 0 00-.015.01.5.5 0 00-.02.013l-.016.012L27.95 60.512a.5.5 0 00-.053.043l-7.435 6.895a.5.5 0 00.2.847l11.157 3.19a.5.5 0 00.217.013l14.858-2.393a.5.5 0 00.2-.08l19.573-13.279h.06v-.041l1.579-1.07a.5.5 0 00.08-.067l10.302-10.703L74.999 57l-4.46 7.348a.5.5 0 00-.003.002l-.017.029a.5.5 0 00-.008.012.5.5 0 00-.016.03.5.5 0 00-.02.048.5.5 0 00-.01.027.5.5 0 00-.007.035.5.5 0 00-.008.043.5.5 0 00-.002.026.5.5 0 00-.002.015.5.5 0 000 .014.5.5 0 000 .02l.272 12.736a.5.5 0 00.037.18l2.392 5.824a.5.5 0 00.463.31h6.895a.5.5 0 00.46-.693L79.64 79.83a.5.5 0 00-.251-.262l-2.178-1.011-1.498-5.942 2.568-6.894 8.852-8.143-.235 7.299a.5.5 0 00.067.264l5.299 9.289a.5.5 0 00.021.033l4.516 6.639a.5.5 0 00.412.218h6.654a.5.5 0 00.48-.64l-.556-1.908a.5.5 0 00-.205-.28l-4.645-3.049-4.845-11.726 10.695-8.96 14.068 2.626 3.906 11.39a.5.5 0 00.004.008l.262.719.026.32a.5.5 0 00.228.38l2.377 6.546a.5.5 0 00.02.047l3.209 6.623a.5.5 0 00.449.283h5.043a.5.5 0 00.482-.627l-.555-2.111a.5.5 0 00-.199-.285l-3.004-2.06-2.066-12.093 2.262-7.06 3.949-1.264 6.21 13.543a.5.5 0 00.013.022l6.054 11.666a.5.5 0 00.444.27h5.441a.5.5 0 00.44-.737l-1.352-2.51a.5.5 0 00-.207-.205l-2.528-1.336-3.515-13.236.277-11.223 10.104-8.752 6.133-2.166 10.988 3.008a.5.5 0 00.277-.004l3.461-1.053a.5.5 0 00.223-.136l1.851-1.996a.5.5 0 00-.025-.706l-6.295-5.9-3.406-7.6a.5.5 0 00-.127-.171l-4.074-3.57V18.21a.5.5 0 00-.516-.5zm-1.408 2.337l-3.268 6.896-1.092-3.267zm.924.383v4.906l-3.155 1.752zm-6.182 3.718l1.227 3.668-11.89.627 5.054-2.345zm6.615 2.092l3.9 3.416 3.403 7.592a.5.5 0 00.113.162l6.006 5.63-1.174 1.263-2.554-2.33a.5.5 0 00-.13-.084l-2-.918-3.357-5.25a.5.5 0 00-.086-.102l-7.974-7.238zm-69.226 1.785l7.088 15.83-20.79-14.167zm1.105.024l22.065 1.713-14.745 14.636zm62.7.771l-1.708 4.91-10.45-4.27zm.939.34l7.883 7.154 2.521 3.946-12.25-.766v-5.017zm-15.988.557l-1.735 8.672-4.771-7.366zm1.007.054l12.135 4.958v4.726l-14.02-.25zm-24.629.143l15.28 1.186-9.22 10.882zm-40.783.195l-.933 11.272-14.084-5.397zm39.805.082l6.16 12.27-20.695 2.158zm-38.81.057l20.908 14.25-21.854-2.846zm56.03 1.264l5.075 7.834-14.06 2.771zm-73.19 5.103l14.445 5.533-23.545 11.948zm-1.85 1.39L53.355 54.96a.5.5 0 00-.06.117l-1.455 2.795-19.91 5.65zm82.59 2.218l11.423.205-6.431 3.217zm-1.51.175l5.478 3.758-.008.004a.5.5 0 00-.146.111l-10.998 12.13-5.526 1.769zm-1.188.01l-11.306 17.94-8.291-6.035a.5.5 0 00-.024-.018.5.5 0 00-.015-.012.5.5 0 00-.026-.015.5.5 0 00-.017-.01.5.5 0 00-.028-.014.5.5 0 00-.017-.008h-.002l-16.217-6.681 20.85-2.174a.5.5 0 00.05-.008zm16.67.09l12.111.756 3.293 1.51 2.213 2.021-2.482.754-11-3.01a.5.5 0 00-.299.01l-3.836 1.356zm-1 .274v3.476l-1.432.504-5.375-.578zm-77.672 1.865l23.229 3.025-9.873 17.03-5.338-6.567a.5.5 0 00-.006-.008.5.5 0 00-.055-.062.5.5 0 00-.035-.033.5.5 0 00-.006-.006.5.5 0 00-.123-.075.5.5 0 00-.004-.002.5.5 0 00-.09-.027.5.5 0 00-.007-.002.5.5 0 00-.043-.006.5.5 0 00-.006 0 .5.5 0 00-.055-.002.5.5 0 00-.02.002.5.5 0 00-.033.002l-11.472.75zm-25.166.195l-24.992 21.08-1.709-2.281.346-.32zM77.3 43.87L67.7 53.84l-1.34.91H55.854zm72.383.934l.316.217a.5.5 0 00.23.084l4.952.533-9.393 8.138-6.299 2.016 9.776-10.78zm-45.358 1.088l15.744 6.488-15.46 1.346a.5.5 0 00-.28.115l-8.967 7.514zm17.377 7.35l1.004 12.269-2.994-8.729a.5.5 0 00-.383-.328l-10.982-2.05zm1.045.503l7.572 5.514-2.214 6.908-4.118 2.729zm22.772 1.168l-.237 9.541-6.543-7.37zm-91.446.836H64.89l-16.721 11.34zm31.121 1.316l-12.93 6.366 3.49-5.746zm52.502.352l7.541 8.492-.709 9.567-2.16-4.162-6.154-13.422zm-49.568.34l4.898 6.025 2.248 13.295-2.15-3.16-5.22-9.146zm-3.352.63l-7.26 6.68a.5.5 0 00-.13.194l-2.276 6.111-3.478-6.514zm-33.57.706l-4.72 9.066-14.19 2.285-1.822-5.468zM27.47 62.314l1.916 2.557 1.797 5.393-9.391-2.686zm44.02 4.403l3.232 6.054 1.58 6.262a.5.5 0 00.273.33l2.219 1.032.96 2.304h-5.81l-2.228-5.428zm56.257.887l-1.715 7.23-1.783-4.912zm-33.014.269l3.344 8.094a.5.5 0 00.188.226l4.619 3.034.318 1.093H97.48l-.856-1.26zm51.3.863l2.825 10.645a.5.5 0 00.25.314l2.586 1.368.883 1.636h-4.299l-2.87-5.531zm-17.585.248l1.711 10.008a.5.5 0 00.21.328l3.023 2.076.343 1.303h-4.082l-2.99-6.178z"/>
</svg>