<svg xmlns="http://www.w3.org/2000/svg" viewBox="0 0 200 100">
  <path fill="#fefefe" d="M72.648 5.166l-6.812.482-3.598 9.713 4.955 12.756-7.38 18.178L46.36 53.84l-.72-1.158.046 1.752-6.505 19.345.755 5.85h11.194l-1.684-4.461-1.974-1.621.615-.541-.55.021 4.335-8.441.008.012.303-.612 20.755-6.521 1.553 7.594-.092.128.16.202.032.156.129.047 13.392 16.836.139 1.037.582-.74h11.09l-3.121-4.34-4.032-1.48-5.199-7.405 5.65-4.125 11.93 7.732 11.485 18.995.092 1.49.683-1.14h10.766l-2.194-4.81-4.76-2.208-4.734-14.147.326-.058-.044-.05 14.107-3.49 4.648 10.215-.119.196.36.222 15.158 16.487h11.076l-3.416-4.614-4.092-1.433-9.84-14.834-1.502-6.764 6.08-12.611-.164-4.198.305-.095-.289-.39 2.527-13.688.088-.1-1.672-5.967 2.846-1.908-.557-.83-2.125 1.424 1.036-4.885-.979-.207-1.228 5.799-3.327.99-3.318 4.365-10.021.166-2.233-3.375-4.56-2.187-.815-5.725-.99.14.695 4.884-1.832-1.375-.6.8 2.454 1.84-2.155 6.203-11.183-2.324-18.285-9.055-.508-.662-.174.53-14.867-1.13-7.416-9.091 7.23-3.584zm-.46 1.035l3.386 4.365-6.191 3.07-2.5-7.058zm-6.006 1.395l2.246 6.34-4.887.793zm2.355 7.334l-1.096 11.064-3.976-10.24zm.942.658l6.765 8.293-7.932 3.445zm8.199 9.037l14.172 1.076-8.455 25.863zm-.99.152l5.511 25.971-13.742-22.394zm16.015 1.532l11.984 15.628-.33.104.16.105-20.376 10.346zm1.526.345l16.005 7.926-4.736 6.774zM67.563 29.87l5.011 25.742-11.758-9.129zm57.81.617l4.066 1.951 2.16 3.264.641 7.627-3.252 1.139-.365-3.504-5.389-4.317zm23.73.041l1.487 5.305-4.086 4.678-1.906 3.879-2.594-.758 1.101-8.074 3.188-4.194zm-80.353.215l13.787 22.469-8.838 2.955zm42.45 4.203l9.468 1.967-13.9 4.371zm30.853.924l-1.073 7.875-1.787 1.627 1.377 2.656-3.666 2.28-3.478-2.467 1.24-2.479-1.408-1.873-.627-7.465zm-19.778 1.586l2.676 12.063-.326 4.56-17.947-11.719zm28.047.205l-2.05 11.108-2.827-3.832 1.899-3.866zm-26.879.434l4.229 3.388.369 3.532-2.338 3.267zm-17.668 4.873l17.6 11.49-21.617-.103zm-1.146.244l-3.92 11.111-15.604-1.199zm27.963 1.055l.902 1.203-.992 1.984-5.885 1.27 2.256-3.155zm8.99.283l2.979.87 2.779 3.769-5.762-1.39-1.142-2.204zm-81.195 2.865l11.869 9.217-19.457 6.111zm-1.342.459L51.78 62.545l-4.89-7.856zm72.883.727l-1.32 2.644-3.555-1.592zm1.047.144l3.894 2.762 4.162-2.588 1.44 2.78-3.084 4.609-4.494-.239-3.461-4.238zm9.212.23l4.499 1.085-3.383 1.068zm-16.283 1.258l4.623 2.073 3.557 4.353-3.018 9.14-5.435-10.818.103-.177-.15-.098zm22.176.436l.143 3.676-5.48 11.365-2.556-8.8 3.182-4.755zm-63.603 3.41l15.6 1.2-6.891 8.71zM82 54.443l-6.717 9.495-1.387-6.784zm1.494.03l8.975 10.213-5.668 4.14-10.987-3.906 7.225-10.213.148.701zm18.703.884l22.002.104-8.459 14.598zm-1.384.6l3.914 15.684-10.79-6.993zm24.218.059l5.403 10.754-13.58 3.359zm-78.293.322l4.52 7.258-4.11 7.998zm55.276.295l12.832 13.931-8.957 1.61zm32.986.441l4.262.229 2.699 9.3h-10.107zm-89.234.268l.423 15.736-5.793.225zm30.738 8.883l9.922 3.529 1.431 10.744zm55.435 1.379h9.803l-5.588 9.261zm10.471.828l1.201 5.412-6.24 2.937zm-54.764 2.912l4.182 5.957-2.898 3.683zm27.721.144l1.137 18.465-10.182-16.842zm-70.05 2.625l-4.563 4.018-.496-3.824zm1.396.104l1.892 1.554 1.079 2.858h-7.98zm69.851.443l3.707 11.076-2.744 4.576zm27.444.102l8.478 12.781-15.35-9.545zM92.62 77.914l3.549 1.305 1.803 2.506H89.62zm46.32 2.383l14.551 9.047-2.435 4.13zm-17.925 6.142l4.213 1.956 1.394 3.056h-8.611zm33.377 3.346l3.572 1.252 2.053 2.772h-7.997z"/>
</svg>
