<?xml version="1.0" encoding="UTF-8" standalone="no"?><!DOCTYPE svg PUBLIC "-//W3C//DTD SVG 1.1//EN" "http://www.w3.org/Graphics/SVG/1.1/DTD/svg11.dtd"><svg width="100%" height="100%" viewBox="0 0 790 465" version="1.1" xmlns="http://www.w3.org/2000/svg" xmlns:xlink="http://www.w3.org/1999/xlink" xml:space="preserve" xmlns:serif="http://www.serif.com/" style="fill-rule:evenodd;clip-rule:evenodd;stroke-linejoin:round;stroke-miterlimit:2;"><rect id="shiny_fluent" x="0.342" y="0.159" width="788.726" height="463.956" style="fill:none;"/><clipPath id="_clip1"><rect x="0.342" y="0.159" width="788.726" height="463.956"/></clipPath><g clip-path="url(#_clip1)"><rect id="retreat-logo" serif:id="retreat logo" x="0.342" y="364.116" width="519.685" height="519.685" style="fill:none;"/><ellipse cx="381.204" cy="400.159" rx="285.162" ry="30.014" style="fill-opacity:0.14;"/><path d="M639.231,68.795l-43.121,48.797l-36.165,6.574l-49.885,-37.396l16.129,60.94l-74.818,-9.301l-73.718,-38.335l-86.804,11.387l-31.241,-43.613l29.296,-23.857l-19.851,-20.704l-39.921,5.292l-12.791,54.317l33.909,56.098l-51.61,98.566l-46.869,30.965l-53.271,100.713l4.739,26.086l43.811,-2.463l-19.542,-25.822l14.852,-20.327c0,0 75.638,-55.064 78.505,-56.142c2.867,-1.078 50.702,-17.791 50.702,-17.791l14.905,55.749l58.477,50.069l48.29,-6.257l-22.939,-21.82l-27.514,3.682l-15.712,-68.692l83.836,39.039l14.489,-0.768l51.359,89.285l49.431,-4.742l-24.523,-20.949l-7.074,0.638l-20.113,-67.203l56.161,-39.463l38.476,54.943l76.123,66.205l46.038,-7.415l-23.82,-23.924l-12.593,1.048l-44.324,-69.351l-17.281,-60.37l3.53,-18.646l36.918,-5.076l17.82,-29.097l-2.633,-25.657l-27.447,-19.109l17.784,-76.103Z" style="fill:#bbaa95;"/><path d="M516.791,94.84l27.052,36.881l10.141,-7.576l-37.193,-29.305Z" style="fill:#fff;"/><path d="M629.969,85.867l-27.052,41.17l-10.141,-5.967l37.193,-35.203Z" style="fill:#fff;"/><path d="M494.893,146.695l-71.563,27.929l10.557,-40.957l19.175,5.552l41.831,7.476" style="fill-opacity:0.15;"/><path d="M236.805,31.279l42.072,18.287l-20.305,13.31l-21.767,-31.597Z" style="fill-opacity:0.24;"/><path d="M591.42,199.176l-29.038,3.117l11.09,15.436l17.948,-18.553Z" style="fill:#886246;"/><path d="M595.311,227.695l-43.679,3.463l10.612,12.531l26.173,-2.395l6.894,-13.599" style="fill:#fff;"/><path d="M496.431,223.065l-10.226,-17.778l1.61,-26.176l32.075,-32.602l9.419,0.106l1.329,10.138l-23.941,25.294l0.281,27.375l10.719,20.874l-21.266,-7.231" style="fill-opacity:0.13;"/><path d="M345.031,138.512l-217.864,180.942l22.669,-47.496l195.195,-133.446Z" style="fill-opacity:0.15;"/><path d="M507.906,184.443l43.726,45.335l-26.594,3.489l-18.783,-26.818l1.651,-22.006Z" style="fill:#fff;"/><path d="M645.238,163.005l-45.383,60.447l25.464,-3.34l18.783,-31.746l1.136,-25.361Z" style="fill:#fff;"/><path d="M269.318,270.463l19.886,-6.259l32.904,21.046l22.378,69.667l26.628,-1.547l19.405,15.515c0,-0 -21.671,8.128 -23.734,8.399c-2.064,0.27 -29.705,1.04 -29.705,1.04l-51.112,-48.263l-16.65,-59.598Z" style="fill:#886246;"/><path d="M327.632,301.433l-46.752,-3.056l-9.214,-27.953l15.662,-4.939l38.21,20.295l2.094,15.653Z" style="fill-opacity:0.38;"/><path d="M592.347,241.032l-19.494,4.84l-39.699,33.762l34.691,56.944l74.754,64.484l44.554,-5.834l-19.819,-21.745l-13.866,2.413l-42.874,-75.583l-18.247,-59.281Z" style="fill:#886246;"/><path d="M599.043,259.865l-41.317,54.314l-27.088,-35.506l42.279,-32.147l19.378,-4.413l6.748,17.752Z" style="fill-opacity:0.17;"/><path d="M592.119,246.791l-51.198,44.732l-7.818,-16.07l41.173,-29.121l21.195,-2.855" style="fill-opacity:0.23;"/><path d="M285.968,265.232l42.173,-16.564l87.176,-61.068l108.761,46.396l29.952,-3.929l13.549,16.264l7.735,0.214l-22.752,16.37l-12.546,-15.018l-31.472,7.28l-98.735,-38.117l-85.022,64.439l-38.819,-16.267Z" style="fill-opacity:0.16;"/><path d="M92.812,369.713l-0.282,-0.151l55.451,-103.317l-0.051,-0.071l0.143,-0.102l0.226,-0.421l0.21,0.113l45.26,-32.068l50.463,-94.025l0,-1.961l-34.5,-55.23l0.168,-0.106l-0.585,-0.151l15.086,-58.283l-0.024,-0.182l0.074,-0.009l0.129,-0.501l1.24,0.321l44.13,-5.789l0.077,0.587l0.003,-0.004l26.268,22.822l-5.93,6.825l-1.317,-1.143l1.344,1.896l-27.434,19.437l24.699,39.54l86.212,-11.31l0.105,0.802l0.19,-0.403l75.657,35.688l71.959,9.841l-15.812,-56.936l-14.344,-12.463l5.93,-6.825l60.883,52.895l1.537,0l-0.032,-0.245l27.712,-3.635l-0,-0.388l2.96,-0l0.87,-0.115l0.015,0.115l0.556,-0l55.785,-63.103l7.721,6.826l-13.781,15.589l-16.711,64.559l27.318,23.734l0.403,0l-0,27.375l0.293,0.158l-18.759,34.954l0.023,0.18l-0.129,0.017l-0.19,0.353l-0.49,-0.264l-31.739,4.164l-4.376,8.154l17.324,62.381l43.47,69.59l11.182,-1.466l0.046,0.355l0.092,-0.105l25.211,21.904l0.025,-0.003l0.003,0.027l0.351,0.305l-0.27,0.31l1.116,8.504l-54.087,7.095l-0.027,-0.205l-0.156,0.179l-25.427,-22.091l-0.205,0.027l-0.03,-0.231l-52.191,-45.345l-0.235,0.146l-33.922,-54.306l-47.675,33.779l17.655,63.572l5.934,-0.778l0.02,0.154l0.141,-0.162l25.59,22.233l-0.794,0.914l0.973,7.419l-53.518,7.021l-0.073,-0.554l-0.336,0.21l-52.745,-84.438l-0.045,0.099l-65.577,-29.259l-0.294,0.333l-1.059,-0.936l-26.815,-11.964l15.607,56.198l22.729,-2.982l0.026,0.198l0.159,-0.183l28.659,24.9l-6.15,7.078l-0.204,-0.177l-49.221,6.456l-0.019,-0.149l-0.115,0.133l-25.429,-22.093l-0.416,0.054l-0.062,-0.469l-32.913,-28.596l0.618,-0.711l-1.09,0.303l-15.233,-54.852l-40.925,16.335l-86.679,61.415l-0.107,-0.15l-6.574,12.249l24.258,21.076l-6.15,7.078l-0.204,-0.178l-49.221,6.457l-0.029,-0.217l-0.74,0.206l-8.841,-31.837Zm518.449,-1.814l7.689,6.681l29.34,-3.849l-37.943,-60.742l-36.21,25.656l6.984,6.068l12.198,-8.009l3.662,6.051l-10.317,6.774l5.926,5.148l9.281,-6.094l3.661,6.052l-7.399,4.858l7.585,6.59l7.288,-4.786l3.661,6.052l-5.406,3.55Zm3.403,-30.451l3.662,6.052l-7.997,5.25l-3.661,-6.051l7.996,-5.251Zm-395.066,-130.295l-7.137,13.299l156.997,-111.238l-1.378,-2.206l-28.201,3.699l1.073,1.773l-8.729,5.731l-3.643,-6.022l-39.583,5.193l-35.013,25.702l-27.378,51.013l6.443,-4.232l3.661,6.052l-17.112,11.236Zm36.856,-42.764l3.662,6.051l-9.476,6.222l-3.661,-6.052l9.475,-6.221Zm-6.158,13.83l3.661,6.051l-8.729,5.731l-3.661,-6.051l8.729,-5.731Zm69.748,-60.143l3.661,6.051l-17.629,11.576l-3.662,-6.051l17.63,-11.576Zm-24.131,5.686l3.662,6.052l-9.476,6.221l-3.661,-6.051l9.475,-6.222Zm-149.102,197.426l36.084,-67.232l-27.002,19.132l-49.923,93.018l18.001,-2.361l8.441,-15.728l-5.371,1.865l-1.895,-6.923l12.267,-4.26l4.398,-8.193l-4.303,1.494l-1.895,-6.923l11.198,-3.889Zm409.892,-10.624l10.985,17.585l37.793,-26.778l-15.312,-55.139l-7.884,1.035l-45.142,31.984l8.065,12.911l10.48,-6.881l3.661,6.051l-10.395,6.826l4.004,6.41l11.281,-7.407l3.662,6.051l-11.198,7.352Zm20.33,-21.539l3.661,6.052l-7.996,5.25l-3.662,-6.051l7.997,-5.251Zm-114.092,88.625l5.224,8.363l21.775,-2.856l-9.81,-35.323l-28.667,11.442l7.732,12.378l7.485,-4.916l3.662,6.052l-7.401,4.86Zm92.179,-243.835l-28.334,32.051l28.334,-3.717l0,-28.334Zm0,51.891l0,-13.731l-13.73,1.801l13.73,11.93Zm0.684,22.73l-0.684,-0l0,-6.695l-8.08,9.141l9.114,14.59l16.556,-2.172l-16.993,-14.764l0.087,-0.1Zm41.509,-14.017l0,9.256l0.296,0.261l-16.103,18.215l13.498,-1.77l10.237,-19.074l-7.928,-6.888Zm0,-27.986l0,11.943l11.944,-13.509l-11.944,1.566Zm-14.521,38.703l-14.945,1.96l7.473,6.493l7.472,-8.453Zm-51.538,23.602l14.975,-1.964l-5.481,-8.775l-9.494,10.739Zm-28.798,161.975l-28.98,3.802l8.926,14.29l35.515,-4.659l-15.461,-13.433Zm163.621,-13.009l-37.82,4.962l16.173,14.051l37.82,-4.961l-16.173,-14.052Zm-194.882,-62.045l-1.056,-1.49l8.806,-6.239l-69.297,-60.206l-44.047,49.826l50.689,22.615l-20.492,-32.804l7.728,-4.827l42.889,68.66l31.191,-12.449l-6.411,-23.086Zm-28.153,2.555l-6.28,4.573l-9.022,-12.134l6.28,-4.572l9.022,12.133Zm-12.237,-16.361l-6.28,4.572l-6.45,-8.674l6.28,-4.572l6.45,8.674Zm55.733,0.697l73.999,-52.431l-0.066,0.009l-0.092,-0.702l-8.478,-13.572l-32.555,4.271l-0.112,-0.86l-0.199,0.124l-0.567,-0.908l-10.864,-4.847l0.036,0.271l-86.978,11.41l65.876,57.235Zm9.081,-10.658l-6.28,4.573l-7.635,-7.199l6.28,-4.572l7.635,7.198Zm21.817,-18.022l-6.28,4.572l-5.693,-5.368l6.279,-4.572l5.694,5.368Zm1.108,-13.223l-6.28,4.573l-5.693,-5.369l6.279,-4.572l5.694,5.368Zm-35.756,19.992l-6.28,4.572l-7.635,-7.199l6.28,-4.572l7.635,7.199Zm24.826,1.864l-6.28,4.572l-14.048,-13.244l6.28,-4.573l14.048,13.245Zm119.828,-129.834l-30.129,-26.176l0,30.128l30.129,-3.952Zm-19.974,66.077l15.504,-2.034l-9.829,-8.54l-5.675,10.574Zm-21.349,18.189l3.219,-5.997l-11.164,1.464l0.001,0.005l-16.349,2.145l3.216,5.148l21.077,-2.765Zm1.538,-111.977l-22.887,3.003l-0,69.729l22.887,-3.002l-0,-69.73Zm39.559,-34.408l-24.972,28.249l14.418,12.526l10.554,-40.775Zm15.935,75.767l-5.897,-5.123l-12.437,1.631l-21.756,24.61l27.116,23.559l12.974,-24.174l-0,-20.503Zm-215.89,-34.338l-46.559,-21.962l36.937,59.132l9.622,-37.17Zm97.263,20.251l-21.174,-2.896l0.177,0.443l-78.704,31.413l-1.273,4.918l86.238,38.477l-9.721,-15.562l-0.371,-0l-0,-26.782l-0.64,-0.566l25.603,-28.962l-0.135,-0.483Zm-69.617,34.824l-3.978,6.657l-9.721,-4.841l3.979,-6.657l9.72,4.841Zm14.863,6.638l-3.978,6.657l-9.72,-4.841l3.978,-6.657l9.72,4.841Zm1.406,-13.904l-3.978,6.656l-13.471,-6.709l3.978,-6.657l13.471,6.71Zm6.744,17.436l-3.978,6.656l-4.135,-2.059l3.978,-6.657l4.135,2.06Zm40.819,-100.709l13.291,47.86l18.156,-20.538l-31.447,-27.322Zm-251.462,-68.566l-27.228,3.571l17.476,27.977l25.372,-17.977l-15.62,-13.571Zm12.12,83.759l-25.509,-40.836l0,59.561l25.509,-18.725Zm168.013,29.775l-10.969,-5.174l-8.498,32.827l56.196,-22.429l-36.756,-5.027l0.027,-0.197Zm-151.863,124.811l60.189,26.854l42.147,-47.675l13.068,-50.484l-81.176,57.515l-0.491,-0.693l0.35,0.878l-34.087,13.605Zm59.484,9.763l6.027,3.852l-7.197,8.695l-6.027,-3.852l7.197,-8.695Zm8.001,-10.102l6.027,3.852l-4.914,5.936l-6.026,-3.852l4.913,-5.936Zm-20.716,7.683l6.026,3.851l-4.913,5.936l-6.026,-3.851l4.913,-5.936Zm24.125,81.442l-37.343,4.899l16.191,14.067l37.343,-4.899l-16.191,-14.067Zm-215.45,-20.096l35.53,-25.174l-28.021,11.184l-7.509,13.99Zm-8.62,52.064l-16.556,-14.384l-20.954,2.749l4.436,15.974l33.074,-4.339Zm348.705,-160.788l-69.852,-31.166l-10.806,41.747l80.658,-10.581Zm18.262,-19.584l11.454,18.337l28.577,-32.325l-19.958,-17.34l-12.451,1.633l-7.622,8.622l-0,21.073Zm-221.642,106.531l2.878,10.365l35.222,-14.058l-6.245,-22.486l-35.863,-16.001l-6.937,2.769l4.406,15.866l5.983,-2.077l1.895,6.922l-5.958,2.069l2.699,9.717l9.552,-3.317l1.896,6.922l-9.528,3.309Zm24.349,31.956l7.75,6.733l17.146,-2.249l-8.621,-31.043l-32.099,12.811l9.59,8.332l10.121,-3.515l1.895,6.923l-5.782,2.008Zm68.126,-218.799l-4.862,-7.784l-143.529,162.357l12.426,-4.959l11.612,-12.533l5.178,4.767l-1.565,1.689l16.425,-6.556l-1.116,-1.028l14.575,-15.731l5.178,4.767l-6.695,7.226l36.078,-14.4l-0.023,-0.033l90.04,-63.797l-1.582,-2.533l-5.703,3.745l-3.662,-6.051l5.62,-3.69l-2.64,-4.226l-6.173,4.054l-3.661,-6.051l6.089,-3.999l-2.865,-4.585l-12.072,7.926l-3.661,-6.051l11.988,-7.871l-4.512,-7.223l-12.669,8.32l-3.661,-6.052l12.585,-8.264l-3.397,-5.438l-6.768,4.444l-3.661,-6.051l6.683,-4.389Zm-1.675,35.747l3.661,6.051l-14.904,9.787l-3.662,-6.051l14.905,-9.787Zm-38.817,25.265l3.661,6.051l-14.905,9.787l-3.661,-6.051l14.905,-9.787Zm-66.284,56.976l5.178,4.768l-12.17,13.134l-5.178,-4.768l12.17,-13.134Zm12.566,-14.041l5.178,4.767l-7.868,8.491l-5.177,-4.767l7.867,-8.491Zm104.235,-61.075l3.661,6.051l-8.453,5.551l-3.661,-6.052l8.453,-5.55Zm-29.765,18.795l3.662,6.051l-8.454,5.551l-3.661,-6.052l8.453,-5.55Zm10.091,-38.884l3.661,6.052l-8.453,5.55l-3.661,-6.051l8.453,-5.551Zm-171.79,144.981l11.793,-4.707l130.23,-147.314l-139.168,98.605l-35.705,66.527l18.362,-7.329l-0.251,-0.231l16.938,-18.28l5.178,4.767l-7.377,7.962Zm15.605,-27.746l5.178,4.767l-8.899,9.605l-5.178,-4.767l8.899,-9.605Zm5.483,-184.95l24.412,39.081l0,-65.099l-12.498,-20.009l-11.914,46.027Z"/></g></svg>