<svg xmlns="http://www.w3.org/2000/svg"><symbol id="appsilon-logo" viewBox="0 0 139 40"><path d="M2.91 1.884v36.284l31.44-18.14zm9.807 18.142L4.079 35.015V5.049zm.668 0zm.335.58h17.3L5.069 35.593zm0-1.157L5.083 4.46 31.03 19.45z" id="path22" display="inline" opacity=".7" fill="#fff" stroke-width=".254"/><path d="M31.509 17.35a3.01 3.01 0 1 0 4.11 1.103 3.01 3.01 0 0 0-4.11-1.102zM2.003 34.388a3.008 3.008 0 1 0 4.111 1.103 3.008 3.008 0 0 0-4.11-1.103zm9.875-16.965a3.008 3.008 0 1 0 4.111 1.1 3.008 3.008 0 0 0-4.11-1.1zM2.052.398A3.008 3.008 0 1 0 6.15 1.5 3.008 3.008 0 0 0 2.052.398zM130.38 14.615a14.753 14.753 0 0 1 3.221-.407q2.409 0 3.625.945 1.217.945 1.217 3.11v7.66h-3.353v-6.985q0-1.958-2.208-1.958a4.857 4.857 0 0 0-1.016.112 3.226 3.226 0 0 0-.81.269v8.561H127.7V15.491a11.115 11.115 0 0 1 2.68-.876zm-14.933 10.113q-1.446-1.524-1.443-4.55 0-3.155 1.43-4.596 1.43-1.44 4.337-1.443 2.906 0 4.372 1.476 1.466 1.477 1.463 4.573 0 2.973-1.509 4.528-1.509 1.554-4.319 1.554-2.89-.01-4.331-1.542zm6.193-2.017q.633-.866.633-2.54 0-1.824-.62-2.602-.62-.777-1.882-.777c-.872 0-1.497.254-1.88.777-.384.523-.575 1.385-.575 2.602q0 1.735.597 2.568t1.858.833a2.162 2.162 0 0 0 1.87-.86zm-13.538 3.211v-15.7h3.333v15.7zm-6.666-15.543h3.467v2.59h-3.467zm.066 4.302h3.356l.023 11.241h-3.38zm-9.664 11.366a14.847 14.847 0 0 1-1.802-.62v-2.952a6.26 6.26 0 0 0 3.829 1.374 1.895 1.895 0 0 0 1.115-.254.838.838 0 0 0 .348-.709.816.816 0 0 0-.561-.762 11.26 11.26 0 0 0-1.804-.538 4.263 4.263 0 0 1-2.15-1.083q-.845-.81-.845-2.365a3.425 3.425 0 0 1 .676-2.185 3.91 3.91 0 0 1 1.7-1.25 5.864 5.864 0 0 1 2.13-.396 8.26 8.26 0 0 1 2.196.239 6.562 6.562 0 0 1 1.656.732v2.634a22.317 22.317 0 0 0-1.778-.902 3.732 3.732 0 0 0-1.464-.27 2.342 2.342 0 0 0-1.24.255.82.82 0 0 0-.403.732.882.882 0 0 0 .45.823 6.54 6.54 0 0 0 1.44.528 12.878 12.878 0 0 1 1.778.574 2.942 2.942 0 0 1 1.171.97q.509.687.509 1.927-.046 1.935-1.464 2.827-1.417.892-3.605.89a7.484 7.484 0 0 1-1.882-.22zM86.275 15.57q1.509 1.433 1.509 4.766 0 2.68-1.352 4.303-1.351 1.624-3.696 1.621a6.097 6.097 0 0 1-2.86-.607V30h-3.288V16.934q0-1.377 1.524-2.073 1.525-.696 3.91-.722 2.741 0 4.253 1.43zm-2.5 7.22q.65-.762.653-2.566c0-1.082-.193-1.898-.574-2.447-.381-.548-1.042-.82-1.972-.82-1.336 0-2.007.254-2.007.762v5.363a3.049 3.049 0 0 0 .902.36 4.446 4.446 0 0 0 .97.113c.915.002 1.591-.252 2.028-.765zm-10.81-7.22q1.51 1.433 1.51 4.766 0 2.68-1.352 4.303-1.352 1.624-3.694 1.621a6.082 6.082 0 0 1-2.86-.607V30h-3.296V16.934q0-1.377 1.524-2.073 1.525-.696 3.908-.722 2.736 0 4.26 1.43zm-2.5 7.22q.653-.762.653-2.566 0-1.623-.574-2.447-.574-.823-1.971-.82-2.005 0-2.005.762v5.363a3.008 3.008 0 0 0 .902.36 4.44 4.44 0 0 0 .968.113c.91.002 1.585-.252 2.022-.765zm-14.039-.12h-5.61l-1.081 3.245H46.29l5.678-15.025h3.976l5.335 15.032h-3.75zm-.901-2.68-1.916-5.678-1.893 5.678z" id="path30-3" fill="#fff" stroke-width=".254"/></symbol><symbol id="logo" viewBox="0 0 100 100"><path class="logo__triangle" d="M88.971 27.5 50 95 11.029 27.5h77.942"/><path class="logo__outer" d="M88.971 27.5v45L50 95M50 95 11.029 72.5v-45M11.029 27.5 50 5l38.971 22.5"/><path class="logo__inner" d="M88.971 27.5 50 50M50 95V50M11.029 27.5 50 50"/><circle class="logo__circle" cx="88.971" cy="27.5" r="5"/><circle class="logo__circle" cx="11.029" cy="27.5" r="5"/><circle class="logo__circle" cx="50" cy="95" r="5"/><circle class="logo__circle" cx="50" cy="50" r="5"/></symbol><symbol id="burger" viewBox="0 0 100 100"><path d="M0 0h100v16H0zM0 42h100v16H0zM0 84h100v16H0z"/></symbol><symbol id="hex" viewBox="0 0 100 115.47"><path d="M100 28.867v57.735L50 115.47 0 86.602V28.867L50 0z"/></symbol><symbol id="star" viewBox="0 0 100 100"><path d="M50 7.796 60.467 40.25l34.1-.075L66.934 60.16l10.609 32.407L50 72.463 22.456 92.566 33.065 60.16 5.434 40.175l34.1.075z"/></symbol><symbol id="github" viewBox="0 0 100 100"><path d="M50 .967c-27.625 0-50 22.375-50 50 0 22.125 14.313 40.812 34.188 47.437 2.5.438 3.437-1.062 3.437-2.375 0-1.187-.063-5.125-.063-9.312C25 89.029 21.75 83.654 20.75 80.842c-.563-1.438-3-5.875-5.125-7.063-1.75-.937-4.25-3.25-.063-3.312 3.938-.063 6.75 3.625 7.688 5.125 4.5 7.562 11.688 5.437 14.563 4.125.437-3.25 1.75-5.438 3.187-6.688-11.125-1.25-22.75-5.562-22.75-24.687 0-5.438 1.938-9.938 5.125-13.438-.5-1.25-2.25-6.375.5-13.25 0 0 4.188-1.312 13.75 5.125 4-1.125 8.25-1.687 12.5-1.687s8.5.562 12.5 1.687c9.563-6.5 13.75-5.125 13.75-5.125 2.75 6.875 1 12 .5 13.25C80.063 38.404 82 42.842 82 48.342c0 19.187-11.688 23.437-22.813 24.687 1.813 1.563 3.376 4.563 3.376 9.25 0 6.688-.063 12.063-.063 13.75 0 1.313.938 2.875 3.438 2.375C85.688 91.78 100 73.03 100 50.967c0-27.625-22.375-50-50-50z"/></symbol><symbol id="linkedin" viewBox="0 0 100 100"><path d="M50 0C22.376 0 0 22.406 0 50c0 27.624 22.406 50 50 50 27.624 0 50-22.406 50-50 0-27.624-22.406-50-50-50zM30.564 25.225a5.588 5.588 0 0 1 5.579 5.58c0 3.06-2.49 5.578-5.58 5.578-3.06 0-5.579-2.49-5.579-5.58a5.588 5.588 0 0 1 5.58-5.578zm-5.548 14.847h11.127v33.383H25.016zm18.505 0h10.29v5.248h.15c1.44-2.58 4.919-5.248 10.137-5.248 10.828 0 12.838 6.748 12.838 15.506v17.877h-10.71V57.617c0-3.779-.09-8.637-5.58-8.637-5.578 0-6.417 4.11-6.417 8.37v16.105H43.52z"/></symbol><symbol id="twitter" viewBox="0 0 100 100"><path d="M50 0c27.594 0 50 22.376 50 50 0 27.594-22.376 50-50 50-27.594 0-50-22.376-50-50C0 22.406 22.376 0 50 0zm26.995 33.233c-1.98.9-4.11 1.47-6.36 1.74 2.28-1.38 4.05-3.54 4.86-6.119a22.89 22.89 0 0 1-7.019 2.7 11.043 11.043 0 0 0-8.098-3.48A11.06 11.06 0 0 0 49.31 39.142c0 .87.09 1.71.27 2.52a31.43 31.43 0 0 1-22.825-11.578c-.99 1.68-1.5 3.6-1.5 5.579 0 3.84 1.95 7.228 4.919 9.208-1.83-.06-3.51-.57-5.009-1.38v.15c0 5.37 3.81 9.838 8.878 10.858-.93.24-1.92.39-2.91.39-.72 0-1.409-.06-2.099-.21a11.12 11.12 0 0 0 10.348 7.709c-3.81 2.969-8.548 4.739-13.767 4.739-.9 0-1.77-.06-2.64-.15a31.373 31.373 0 0 0 16.977 4.979c20.366 0 31.524-16.887 31.524-31.524 0-.48 0-.96-.03-1.44a22.287 22.287 0 0 0 5.519-5.729z"/></symbol><symbol id="posit" viewBox="0 0 1000 250"><path d="M782.325 7.316c3.526-3.775 8.637-5.662 13.635-6.38 7.539-1.08 16.536 1.224 21.39 7.395 9.843 12.508.986 29.603-13.858 31.732-7.258 1.041-15.895-.542-21.075-6.082-6.669-7.133-6.772-19.511-.092-26.665Z"/><path fill-rule="evenodd" d="m0 10.388 10.613 4.31 20.54 9.106 62.993 27.823 23.28 10.323 9.388 3.921 9.441-3.92 106.812-47.212 10.613-4.351v62.73c0 .33.028.726.058 1.15.091 1.308.202 2.898-.41 3.772-.567.81-1.795 1.255-2.85 1.638-.327.118-.637.231-.906.346l-9.586 4.062c-3.798 1.618-7.64 3.43-11.515 5.257-8.247 3.888-16.647 7.85-25.116 10.168v.686c5.808 1.591 11.546 4.391 17.168 7.135 2.519 1.229 5.014 2.447 7.481 3.539.589.261 1.378.533 2.242.832h.002c2.377.821 5.331 1.841 6.305 3.367.512.802.444 2.029.386 3.09-.017.317-.034.619-.034.89v9.598c0 .679.08 1.61.169 2.649.246 2.864.563 6.556-.521 8.101-1.086 1.55-4.152 2.61-6.673 3.482-.988.341-1.892.654-2.561.955-2.767 1.25-5.592 2.429-8.422 3.61-5.154 2.152-10.326 4.31-15.2 6.912l36.289 15.477 9.586 4.062 3.756 1.936.352 5.262v63.072c-7.322-2.096-14.55-5.628-21.648-9.097-3.312-1.619-6.596-3.224-9.848-4.662a6896.99 6896.99 0 0 0-21.557-9.477l-.029-.012-.021-.01c-12.789-5.604-25.579-11.209-38.304-16.952-3.97-1.792-7.957-3.544-11.944-5.297l-.012-.005-.005-.002a1310.203 1310.203 0 0 1-12.003-5.323c-.879-.396-1.882-.933-2.946-1.504h-.001l-.002-.001c-2.735-1.465-5.874-3.147-8.349-3.22-2.169-.064-4.909 1.398-7.3 2.674-.95.507-1.845.985-2.628 1.325-3.909 1.703-7.802 3.446-11.694 5.188l-.012.005a1191.946 1191.946 0 0 1-12.258 5.434c-14.965 6.499-29.878 13.123-44.79 19.747l-.004.002-.02.009-.016.007c-5.825 2.587-11.65 5.175-17.478 7.755-3.133 1.387-6.307 2.945-9.513 4.52C14.32 238.696 7.19 242.197 0 244.166v-63.415l.352-4.902 3.756-1.902 9.586-4.113 36.289-15.477c-4.817-2.744-10.075-4.893-15.303-7.03-2.924-1.195-5.84-2.386-8.662-3.676-.773-.353-1.72-.686-2.716-1.036l-.001-.001c-2.209-.776-4.655-1.636-5.977-2.986-1.348-1.377-.975-5.889-.71-9.097.086-1.046.161-1.954.161-2.568 0-.848-.1-1.996-.21-3.272-.294-3.403-.667-7.71.562-9.619.993-1.543 3.966-2.564 6.409-3.402.96-.33 1.839-.632 2.482-.926l.736-.336c7.91-3.613 15.873-7.251 23.914-10.554L14.036 84.183l-9.585-4.066-4.1-2.08L0 73.116v-62.73Zm9.585 48.675V25.127l11.983 5.037 93.118 41.239c-2.095 1.695-4.983 2.784-7.741 3.824-1.24.467-2.453.924-3.556 1.422-5.668 2.559-11.363 5.059-17.057 7.559l-.005.002c-2.987 1.31-5.974 2.622-8.957 3.941-1.154.511-2.5 1.246-3.934 2.03h-.001c-3.446 1.882-7.402 4.042-10.443 4.042-1.929 0-4.264-1.194-6.363-2.269-.907-.464-1.77-.906-2.538-1.22-5.469-2.23-10.899-4.58-16.325-6.927l-.005-.002c-1.86-.806-3.72-1.61-5.58-2.41l-16.09-6.856c-.44-.189-.997-.38-1.598-.585-1.699-.581-3.756-1.286-4.556-2.427-1.219-1.74-.843-6.056-.553-9.38.107-1.22.201-2.307.201-3.084Zm129.408 12.683v-.343c14.635-6.093 29.097-12.626 43.558-19.159h.002l.001-.001c10.11-4.567 20.22-9.134 30.386-13.55 3.369-1.463 6.766-3.132 10.192-4.814 6.872-3.375 13.86-6.807 20.962-8.752v32.907c0 1.04.109 2.332.225 3.72.282 3.354.611 7.27-.431 9.555-.574 1.256-2.757 1.98-4.475 2.552-.57.19-1.089.362-1.481.53l-3.6 1.56-.004.001-.002.001c-4.376 1.898-8.755 3.797-13.169 5.597-4.684 1.911-9.332 3.921-13.979 5.93a1372.894 1372.894 0 0 1-7.247 3.119c-.744.316-1.579.748-2.459 1.202-2.218 1.147-4.723 2.44-6.784 2.423-2.991-.024-6.842-2.118-10.245-3.967-1.503-.817-2.919-1.586-4.134-2.11-4.465-1.92-8.909-4.025-13.364-6.135l-.001-.001c-7.887-3.736-15.808-7.49-23.951-10.265ZM75.317 99.854v-.343c7.139-2.932 14.178-6.117 21.217-9.301 4.899-2.216 9.798-4.432 14.729-6.563 1.37-.592 2.912-1.423 4.532-2.296 3.595-1.936 7.57-4.077 10.874-4.262 2.8-.156 6.558 1.892 9.782 3.649 1.311.714 2.535 1.38 3.57 1.831 6.044 2.633 12.068 5.31 18.093 7.988 2.641 1.174 5.282 2.348 7.925 3.518 1.128.5 2.369.969 3.641 1.45 3.092 1.17 6.371 2.41 8.684 4.329-8.495 3.3-16.871 6.964-25.237 10.624a1415.711 1415.711 0 0 1-11.395 4.945l-10.27 4.364c-.336.144-.695.321-1.069.505-1.19.586-2.524 1.243-3.724 1.153-3.322-.251-7.234-2.278-10.781-4.115l-.001-.001c-1.52-.786-2.972-1.538-4.281-2.101-3.664-1.575-7.332-3.233-11.012-4.897h-.001c-8.335-3.768-16.73-7.564-25.276-10.477Zm38.685 26.737v.686c-8.495 3.3-16.875 6.965-25.244 10.626v.001c-3.795 1.66-7.587 3.318-11.387 4.942l-10.27 4.363a23.98 23.98 0 0 0-1.07.506c-1.19.586-2.524 1.243-3.724 1.153-1.857-.141-3.922-1.23-5.829-2.236-.836-.441-1.642-.866-2.387-1.188a1312.266 1312.266 0 0 1-19.172-8.465c-.508-.23-1.237-.484-2.056-.77-2.409-.842-5.601-1.957-6.296-3.525-.773-1.745-.99-9.801.146-11.338 1.043-1.411 3.802-2.37 6.108-3.171h.001c.936-.326 1.798-.625 2.44-.918 3.446-1.575 6.923-3.082 10.4-4.59l.001-.001c3.045-1.32 6.089-2.64 9.113-4.005.608-.275 1.316-.657 2.075-1.067 2.106-1.137 4.606-2.488 6.483-2.344 3.211.246 7.002 2.22 10.45 4.013 1.517.789 2.967 1.544 4.271 2.101 3.765 1.609 7.53 3.311 11.308 5.018h.002c8.126 3.673 16.305 7.369 24.637 10.209Zm25.676.686v-.686c8.755-2.984 17.353-6.873 25.885-10.733l.002-.001c3.591-1.624 7.17-3.243 10.744-4.788a818.32 818.32 0 0 1 6.335-2.694l.002-.001c1.312-.553 2.623-1.106 3.934-1.664.297-.127.609-.278.933-.434 1.118-.541 2.362-1.143 3.517-.991 1.87.246 3.858 1.281 5.733 2.258.859.447 1.694.882 2.484 1.223a862.97 862.97 0 0 1 9.553 4.223l.002.001.002.001c3.199 1.429 6.398 2.859 9.614 4.249.491.212 1.198.456 2 .733l.002.001c2.509.866 5.955 2.056 6.693 3.61.853 1.798.93 9.716-.146 11.385-.979 1.521-4.05 2.588-6.451 3.422-.811.282-1.546.538-2.098.775a781.486 781.486 0 0 0-10.1 4.458l-.002.001c-3.131 1.4-6.263 2.801-9.412 4.162-.624.27-1.325.643-2.066 1.038-1.891 1.007-4.039 2.15-5.808 2.051-3.258-.183-7.194-2.239-10.74-4.092-1.545-.807-3.015-1.576-4.323-2.134-3.841-1.638-7.682-3.374-11.535-5.116h-.001c-8.165-3.69-16.382-7.404-24.753-10.257Zm-65.046 27.422v-.343c8.508-3.304 16.905-6.962 25.291-10.616h.001l.002-.001c3.664-1.596 7.326-3.192 10.995-4.756 1.38-.589 2.935-1.404 4.568-2.259 3.697-1.937 7.796-4.085 11.18-4.297 2.772-.175 6.761 1.926 10.114 3.693 1.332.701 2.564 1.35 3.58 1.783 3.284 1.398 6.565 2.808 9.845 4.218l.012.005a2107.676 2107.676 0 0 0 15.477 6.601c1.202.505 2.53.979 3.897 1.468 3.364 1.202 6.958 2.485 9.454 4.504-9.014 3.072-17.887 7.267-26.652 11.41-3.457 1.634-6.897 3.26-10.321 4.806a622.705 622.705 0 0 1-10.613 4.694c-.369.158-.758.357-1.162.562-1.162.59-2.436 1.238-3.631 1.148-3.435-.26-7.601-2.497-11.296-4.481-1.47-.789-2.865-1.538-4.11-2.107-4-1.827-8.034-3.58-12.068-5.333-3.516-1.528-7.033-3.056-10.527-4.634-1.279-.577-2.57-1.2-3.87-1.828h-.001c-3.326-1.605-6.72-3.243-10.165-4.237Zm-43.82 65.424-21.226 9.303v-33.25c0-1.043-.113-2.358-.234-3.777-.296-3.449-.644-7.517.44-9.799.576-1.212 2.831-1.98 4.554-2.567l.003-.001a21.296 21.296 0 0 0 1.399-.508l37.316-15.912c.777-.331 1.626-.761 2.512-1.21 2.2-1.113 4.624-2.34 6.731-2.452 1.306-.07 2.77.679 4.06 1.337l.002.001c.376.192.736.376 1.074.531a470.65 470.65 0 0 0 9.585 4.244 880.002 880.002 0 0 0 9.953 4.184l.001.001h.002l.002.001c9.378 3.898 18.863 7.841 27.701 12.559l-13.352 6.122-70.524 31.193Zm121.533-31.197-13.352-6.118c8.258-3.918 16.659-7.561 25.055-11.202 3.98-1.726 7.958-3.45 11.919-5.204a2011.2 2011.2 0 0 0 3.647-1.621l.015-.007a934.172 934.172 0 0 1 6.951-3.074c.359-.156.732-.342 1.116-.532 1.175-.584 2.444-1.215 3.677-1.192 2.018.04 4.341 1.228 6.449 2.305.866.443 1.695.867 2.452 1.185a2805.836 2805.836 0 0 1 21.225 9.007c2.558 1.099 5.121 2.186 7.684 3.273l.005.002c3.032 1.286 6.064 2.572 9.087 3.878.362.157.831.318 1.345.494 1.625.559 3.7 1.271 4.268 2.478 1.079 2.295.734 6.348.44 9.793v.001c-.121 1.42-.234 2.737-.234 3.784v33.25l-91.749-40.5Z" clip-rule="evenodd"/><path d="M859.979 24.785v32.221h-26.36v36.678h26.36v47.99c0 15.671.644 32.45 12.681 44.188 15.741 15.347 43.348 16.028 62.636 7.769 5.063-2.168 9.819-5.149 14.036-8.682.209-.174.449-.363.709-.565 1.236-.969 2.859-2.24 3.057-3.633.302-2.088-2.232-5.684-4.163-8.423-.705-1.002-1.331-1.888-1.708-2.546-1.185-2.064-2.39-4.116-3.595-6.169v-.002a702.526 702.526 0 0 1-3.594-6.169 15.24 15.24 0 0 1-.439-.87c-.619-1.29-1.499-3.125-2.625-3.186-1.37-.074-3.383 1.47-5.132 2.812-.901.689-1.729 1.325-2.366 1.662-6.908 3.651-19.349 7.353-25.573.579-4.588-4.993-4.571-12.967-4.553-19.461V93.684h42.451V57.006H899.35V24.785h-39.371Z"/><path fill-rule="evenodd" d="M361.862 57.007v6.856c11.041-9.564 27.909-10.811 41.767-9.01 13.663 1.778 26.799 7.097 36.974 16.581 29.863 27.844 26.901 82.385-1.37 109.998-14.652 14.311-34.735 18.366-54.433 17.501-7.433-.327-17.128-.963-22.938-6.184v57.931h-39.37V57.007h39.37Zm.706 47.989c5.169-9.671 14.81-13.16 24.971-14.247 2.187-.234 4.693.127 6.925.449l.606.087c25.077 3.56 32.102 36.659 20.928 56.216-5.402 9.455-15.611 14.028-26.063 15.024-7.566.721-15.587-1.075-21.91-5.34-2.082-1.404-4.899-3.514-5.868-5.914-.671-1.657-.524-3.947-.394-6.013.051-.786.099-1.54.099-2.213v-31.194c0-.459-.017-.932-.034-1.412-.061-1.862-.13-3.818.74-5.443ZM542.622 54.41c-14.902 1.96-28.777 5.334-41.081 14.558-32.298 24.217-36.899 75.992-9.87 105.957 17.47 19.365 44.423 26.893 69.781 23.555 11.759-1.548 22.79-5.338 32.865-11.624 34.437-21.492 41.065-72.807 17.152-104.483-15.286-20.25-43.701-31.269-68.847-27.963Zm-19.753 47.843c6.864-8.016 15.905-10.433 25.916-11.504 3.05-.326 6.597.313 9.585.95 24.386 5.2 34.218 35.8 21.195 56.145-5.85 9.137-15.813 13.678-26.33 14.681-10.287.981-21.438-2.392-28.726-9.896-12.578-12.948-13.4-36.636-1.64-50.376Z" clip-rule="evenodd"/><path d="M690.25 54.668c.657-.085 1.318-.17 1.979-.258 17.576-2.31 38.035 2.667 52.721 12.424 3.756 2.494 7.47 5.242 10.415 8.683.171.2.38.422.606.66.927.98 2.126 2.241 1.982 3.454-.168 1.391-1.763 2.644-3.057 3.66-.391.307-.757.593-1.045.854-3.735 3.385-7.391 7.003-10.955 10.568-.804.806-1.684 1.788-2.612 2.825v.002l-.007.006v.002c-2.461 2.753-5.272 5.895-7.994 7.191-1.095.522-1.978-.355-2.735-1.106a12.019 12.019 0 0 0-.346-.338 39.356 39.356 0 0 0-7.189-5.35c-9.069-5.226-20.698-8.044-31.154-7.06l-.147.013c-3.749.352-9.654.906-9.973 5.872-.219 3.377 4.889 5.097 7.642 6.025l.424.144c4.937 1.683 9.99 2.981 15.043 4.279 4.601 1.182 9.202 2.363 13.714 3.836 13.328 4.349 28.063 10.516 36.05 22.737 9.777 14.958 7.761 36.971-4.927 49.673-7.713 7.723-18.805 12.187-29.411 14.055-23.166 4.081-48.935 1.241-68.469-12.8a60.14 60.14 0 0 1-13.89-13.908c-.143-.203-.332-.444-.537-.711-1.226-1.589-3.191-4.134-1.883-5.624 1.318-1.501 3.369-2.734 5.279-3.881v-.001c.75-.451 1.479-.888 2.129-1.323l1.113-.744.586-.389v-.001l.003-.003c4.361-2.907 8.726-5.82 13.019-8.822.432-.302.986-.757 1.616-1.27 1.938-1.588 4.554-3.729 6.245-3.586.924.078 1.746 1.083 2.43 1.928h.004c.236.292.459.565.664.774a47.666 47.666 0 0 0 6.844 5.709c9.483 6.521 20.712 9.853 32.18 9.716 4.221-.05 11.205-1.171 12.236-6.169.705-3.44-3.434-5.751-6.073-6.851-5.776-2.407-11.88-4.054-17.946-5.692a426.32 426.32 0 0 1-6.019-1.655c-14.303-4.083-30.246-9.538-40.298-21.108-11.157-12.844-11.088-33.347-1.321-46.962 4.046-5.641 9.812-9.706 15.943-12.767 8.634-4.311 17.761-5.496 27.121-6.711Zm89.62 2.339v140.198h39.028V57.007H779.87Zm181.102 4.799V57.35h16.775v4.456h-6.162v15.082h-4.45V61.806h-6.163Zm18.829-4.456v19.538h4.451V65.92h.342c.617 1.626 3.349 7.278 5.43 7.04 1.852-.214 3.793-4.423 4.666-6.316.062-.14.123-.268.175-.38h.342v10.625H1000V57.35c-5.601 0-7.648 4.027-9.928 8.912a61.616 61.616 0 0 1-1.558-2.47c-2.15-3.538-3.916-6.442-8.713-6.442Z"/></symbol></svg>