<svg xmlns="http://www.w3.org/2000/svg" viewBox="0 0 200 100" style="fill: #fff;">
  <path d="M135.87 0a.502.502 0 00-.37.152l-4.887 5.032a.502.502 0 00-.045.054l-3.396 4.653-4.121.695-2.004-5.232a.502.502 0 00-.258-.276l-8.27-3.824a.502.502 0 00-.699.57l1.924 8.153a.502.502 0 00.238.318l6.141 3.533.719 4.252-1.412 15.18-8.97.367-18.95-2.717a.502.502 0 00-.07-.004h-7.702a.502.502 0 00-.16.026l-10.78 3.623a.502.502 0 00-.251.191l-.18.26-4.87 2.527a.502.502 0 00-.253.317l-1.873 7.048a.502.502 0 00.01.288l1.314 3.943a.502.502 0 00.79.232l2.41-1.931v6.379l-1.823 6.03-4.287 3.784a.502.502 0 00-.146.22l-8.614 26.405a.502.502 0 00-.025.156v9.094a.502.502 0 00.502.5h3.424a.502.502 0 00.494-.594l-.664-3.535.834-7.226L66.695 70.7l16.871-12.664.823 1.582-3.237 7.111-.002.004a.502.502 0 00-.052.118l-1.745 3.83a.502.502 0 00-.044.19l-.692 19.144a.502.502 0 000 .007v.018a.502.502 0 000 .033.502.502 0 000 .016l.572 9.44a.502.502 0 00.5.47h2.735a.502.502 0 00.492-.602l-.547-2.71v-3.53l1.356-17.836 9.656-14.138 7.043 1.343a.502.502 0 00.094.008h5.773l3.484 13.387.225 20.502a.502.502 0 00.018.129l.85 3.078a.502.502 0 00.484.369h3.08a.502.502 0 00.484-.633l-.672-2.494.29-20.809 1.855-13.773.863-.736 1.426 6.12 2.054 15.096 1.541 11.696a.502.502 0 00.008.049l1.194 5.097a.502.502 0 00.488.387h2.803a.502.502 0 00.474-.662l-2.47-7.346-.303-26.285 5.549-11.19a.502.502 0 00.052-.222V49.33l.58-.574a.502.502 0 00.141-.262l.67-3.545.004-.012a.502.502 0 00.002-.015.502.502 0 00.006-.033.502.502 0 00.002-.016.502.502 0 00.002-.035.502.502 0 000-.016.502.502 0 000-.004l-.408-21.336 7.85.368a.502.502 0 00.454-.248l1.288-2.19a.502.502 0 00-.116-.642l-5.17-4.229-2.94-5.215a.502.502 0 00-.206-.197l1.775-.9a.502.502 0 00.137-.104l2.43-2.563a.502.502 0 00.136-.369L136.36.477a.502.502 0 00-.49-.477zm-.454 1.678l.275 5.351-2.22 2.344-2.68 1.357-.104-.027.758-4.935zm-22.318 1.19l8.841 8.107.131-.145.08.21-.867.954-.803.883-5.81-3.342zm2.464.898l4.622 2.136 1.24 3.239zm14.604 3.722l-.453 2.951-1.422-.382zm-2.736 3.375l4.232 1.14 2.883 5.114a.502.502 0 00.12.14l3.94 3.225-2.01-.214-6.806-2.045-2.623-2.075-.652-1.603a.502.502 0 00-.356-.3l-4.627-1.034.494-.543.96-1.055zm-6.23 3.301l4.484 1.002.603 1.482a.502.502 0 00.154.204l2.801 2.218a.502.502 0 00.168.086l6.684 2.008.482 1.572-10.787-.504-3.97-4.394zm.542 5.086l3.444 3.81a.502.502 0 00.347.165l4.531.21.077 3.985-9.471 3.334zm15.455 2.09l2.201.236-.738 1.258-1.02-.047zm-7.037 7.139l.283 14.876-9.287-11.709zm-45.959 3.43h6.787l.78 7.308-8.153-1.93zm7.803.085l17.533 2.512-5.576 7.596-11.158-2.641zm-8.836.133l-.555 5.094-4.174-1.133a.502.502 0 000-.002l-3.904-1.057zm37.346.324l9.463 11.928-3.51.185-6.065-10.927zm-2.676 1.88l-11.881 6.743 4.74-6.453zm1.855.099l5.809 10.463-18.623 10.732-2.156-12.697zm-46.478 1.115l-.043.156 5.006 1.354 3.127.851-10.407 3.358v-2.36zm-2.06 1.22l-1.17 1.698a.502.502 0 00-.09.285v5.137l-1.987-4.414-.064.029.312-1.178zm12.763 1.624l18.248 4.318-15.281 4.299zm-1.04.062l3.054 8.867-15.034 5.649v-6.403a.502.502 0 00.01-.427l-.01-.022v-3.799zM67.464 40.93l2.371 5.263-2.416 1.936-1.04-3.117zm36.307 2.369l2.142 12.617H94.246l-6.793-8.027zm26.591 2.064l-.529 2.791-8.094 8.018 4.774-10.606zm-5.275.928l-5.254 11.67-12.672 3.422-.144-4.68zm-39.201 2.117l-1.344 6.387-1.191 2.15-16.495 12.381 1.934-8.601-.162-.037.215-.19a.502.502 0 00.148-.23l1.881-6.22zm.96.315l6.786 8.02a.502.502 0 00.383.177h12.006l.14 4.613h-5.594l-7.21-1.377-7.735-5.625zm42.22 1.603v3.852L123.597 65.2l-4.073 1.692-1.416-6.07 2.393-2.044.19-.16a.502.502 0 00.027-.025zm-43.782 5.2l6.934 5.042-9.553 5.258 2.738-6.013a.502.502 0 00-.011-.438l-1.084-2.086zm32.893 3.921l-2.584 2.205a.502.502 0 00-.137.192.502.502 0 00-.01.023l-5.062 12.403-3.094-11.881zm-50.621 2.188l-2.11 9.386-5.127 6.237 4.233-12.973zm23.996.445l-8.06 11.807-1.35-6.625zm23.344 3.79l-1.36 10.09a.502.502 0 00-.006.061l-.215 15.44-2.52-15.549zm8.576.47l.172 14.828-3.866-13.293zM81.393 68.62l1.326 6.512-2.946 10.672.534-14.797zm-17.069 5.346l-4.812 12.148.2-6.543zm56.258.267l2.865 9.854-.957 4.344-.763-5.793a.502.502 0 000-.002zM82.344 80.26l-.977 12.842a.502.502 0 00-.002.037V94.2l-1.719-4.174zM58.62 82.459l-.195 6.39.129.005-.805 6.976a.502.502 0 00.006.15l.566 3.016h-2.318v-8.512zm52.229.072l2.316 14.285.074-.011-.002.125a.502.502 0 00.018.136l.521 1.93h-2.045l-.73-2.648zm12.865 4.998l.053 4.555a.502.502 0 00.025.154l2.273 6.758h-1.705l-1.097-4.685-.391-2.961zM79.8 93.033l1.584 3.85.427 2.113h-1.65z"/>
</svg>
