<svg xmlns="http://www.w3.org/2000/svg" width="200" height="100"><path d="M77.413 11.023a.564.564 0 00-.475.289l-6.247 6.934-.96-2.359a.564.564 0 00-.085-.144l-2.814-3.469a.564.564 0 00-.361-.204l-7.39-1.033a.564.564 0 10-.157 1.116l7.17 1.006 2.624 3.23 1.132 2.789-.835.926-3.334-2.307a.564.564 0 00-.476-.078L48.394 22.47a.564.564 0 00-.281.179l-.998 1.188a.565.565 0 10.865.726l.888-1.053 16.388-4.635 3.311 2.294 1.32 12.742-7.03 2.769-.06.004a.564.564 0 00-.521.476l-2.968 4.825-3.82-.927a.565.565 0 10-.266 1.098l4.218 1.021a.564.564 0 00.613-.252l3.165-5.14 12.56-.913 9.519 5.544a.564.564 0 00.553.007l5.699-.209-9.76 7.647a.564.564 0 00-.198.304.564.564 0 00-.005.012.564.564 0 00-.01.048.564.564 0 00-.01.082l-1.678 11.875h-4.05a.564.564 0 100 1.128h4.446a.564.564 0 00.457-.133.564.564 0 00.024-.019.564.564 0 00.018-.018.564.564 0 00.021-.024.564.564 0 00.016-.02.564.564 0 00.033-.047.564.564 0 00.007-.01l9.529-15.624 12.438-5.319V49.7a.564.564 0 00.033.183l-.494 13.873-.725 13.29a.564.564 0 000 .005.564.564 0 00.005.111.564.564 0 00.01.05.564.564 0 00.001.005.564.564 0 00.074.177l3.839 7.695-2.934 2.922a.565.565 0 10.799.8l3.22-3.209a.564.564 0 00.105-.652l-3.929-7.88 7.143-14.992 7.691 13.16a.564.564 0 00.36.388l9.672 5.783a.564.564 0 00.685-.08l5.229-5.112a.564.564 0 00.233-.49l1.511-13.933a.564.564 0 00.014-.043.564.564 0 00.002-.008.564.564 0 00-.002-.434.564.564 0 00-.002-.002l-.92-10.034 11.371 12.728a.564.564 0 00.963-.535l-5.525-18.703a.564.564 0 00-.316-.357l-14.07-6.17 11.215-2.53 14.073 6.052a.564.564 0 00.626-.914L139.53 27.363a.564.564 0 00-.005-.005.564.564 0 00-.037-.032.564.564 0 00-.005-.004.564.564 0 00-.04-.03.564.564 0 00-.004-.005.564.564 0 00-.045-.026.564.564 0 00-.005-.003.564.564 0 00-.046-.023.564.564 0 00-.004-.002.564.564 0 00-.047-.016.564.564 0 00-.007-.002.564.564 0 00-.048-.012.564.564 0 00-.008-.002.564.564 0 00-.025-.005l-.024-.002-29.236-4.363-5.135-4.999a.564.564 0 00-.265-.143l-11.931-2.811a.564.564 0 00-.506.044.564.564 0 00-.005.005l-7.713 3.46v-3.383a.564.564 0 00-.378-.631l-6.174-3.176a.564.564 0 00-.423-.174zm-.218 1.69l1.107 3.471.003.008a.564.564 0 000 .004l.077 4.157-6.083 4.67-2.497-4.107zm1.198.041l3.822 1.964-2.968.71zm4.866 2.871v2.655l-2.984-1.94zm9.55.46l10.253 2.413-7.811 5.224a.564.564 0 00-.123.042l-4.677 1.292zm-1.253.325l-2.175 8.278-4.627-5.229zm-12.105.743l2.96 1.92-2.908.822zm24.92 1.828l4.002 3.894-10.872.699zm-21.652 1.18l-4.263 8.193 1.04-7.284zm1.243.108l4.772 5.393-10.033 4.67zm-5.725 1.618l-1.197 8.406-4.061-4.37zm-8.317 1.399l1.627 2.675-.888 4.44zm39.712.64l26.018 3.88-20.676 3.737a.564.564 0 00-.418-.066l-16.679-6.799zm-14.788 1.088v5.092l-2.464-1.859-1.71-2.081zm1.128.11l17.637 7.187-10.136 8.126-7.501-9.37zm-7.155 1.742L85.32 40.63l-7.004-8.876zm-16.337.18l3.973 4.276v.003l-5.24 2.053zm17.456.006l1.615 1.964a.564.564 0 00.095.092l2.913 2.193-7.893 8.61zm48.52 1.397l-.816 6.025-19.176-2.414zm1.068.52l10.44 10.617-11.225-4.825zm-44.169 3.134l6.878 8.592-8.879.325a.564.564 0 00-.195.007.564.564 0 00-.004.003l-6.19.225zm-18.823.403l-1.045 3.256-8.853.644 3.973-1.566a.564.564 0 00.098-.039zm1.114.22l5.739 7.27-6.8-3.956zm37.198.045l9.24 5.311-14.332 10.803-5.59-7.554zm2.84.329l17.224 2.167-9.663 2.18zm7.28 5.73l7.697 10.305h-21.366zm1.88.628l13.402 5.876 4.738 16.04-10.777-12.062a.564.564 0 00-.009-.007.564.564 0 00-.002-.003.564.564 0 00-.005-.007.564.564 0 00-.011-.015zm-26.41 2.432l-9.031 3.862 2.202-3.61zm3.523 1.064l5.106 6.896a.564.564 0 000 .003.564.564 0 00.028.076v8.403l-5.127-8.772a.564.564 0 00-.008-.018zm-12.76.974l-1.582 2.59-3.8 1.624zM88.6 48.18L81.32 60.118l1.326-9.393zm21.617 2.086h21.19l-21.041 10.248-.148-.253zm23.035.357l.957 10.403-22.149-.083zm-29.33 1.1l5.168 8.844v.745a.564.564 0 00-.002.002l-6.167 12.943.571-10.446a.564.564 0 000-.011zm7.353 10.348l21.915.081-14.811 12.072zm22.83.794L132.77 75.17l-13.058-.578zm-13.663 12.89l11.508.507-4.047 3.957z" style="line-height:normal;font-variant-ligatures:normal;font-variant-position:normal;font-variant-caps:normal;font-variant-numeric:normal;font-variant-alternates:normal;font-feature-settings:normal;text-indent:0;text-align:start;text-decoration-line:none;text-decoration-style:solid;text-decoration-color:#000;text-transform:none;text-orientation:mixed;white-space:normal;shape-padding:0;isolation:auto;mix-blend-mode:normal;solid-color:#000;solid-opacity:1" font-weight="400" overflow="visible" color="#000" font-family="sans-serif" fill="#fff"/></svg>