<svg xmlns="http://www.w3.org/2000/svg">
  <symbol id="appsilon-logo" width="100" height="29" viewBox="0 0 100 29">
    <path d="M94.154 4c.87-.195 1.649-.293 2.335-.293 1.165 0 2.042.229 2.63.686.587.457.881 1.208.881 2.253V12.2h-2.433V7.137c0-.948-.534-1.421-1.6-1.421-.24 0-.485.027-.736.082-.25.054-.446.12-.588.196v6.205H92.21V4.638c.425-.229 1.072-.441 1.944-.637zm-10.827 7.333c-.697-.74-1.045-1.84-1.045-3.299 0-1.524.345-2.634 1.037-3.331.691-.696 1.739-1.045 3.143-1.045 1.405 0 2.46.357 3.169 1.07.707.713 1.06 1.816 1.06 3.307 0 1.437-.364 2.531-1.093 3.282-.73.752-1.775 1.127-3.136 1.127-1.394 0-2.439-.37-3.135-1.11zm4.49-1.461c.305-.42.458-1.031.458-1.837 0-.882-.15-1.51-.45-1.886-.299-.376-.753-.564-1.363-.564-.632 0-1.086.188-1.364.564-.278.375-.416 1.004-.416 1.886 0 .838.144 1.459.433 1.862.288.403.737.604 1.347.604.599 0 1.05-.21 1.356-.63zm-9.814 2.327V.817h2.417v11.382h-2.417zM73.169.931h2.515V2.81H73.17zm.05 3.12h2.432l.017 8.148h-2.45zm-7.007 8.238a10.703 10.703 0 01-1.306-.449V9.7c.882.665 1.807.997 2.776.997.37 0 .64-.063.808-.188a.606.606 0 00.253-.515c0-.25-.136-.435-.408-.555-.273-.12-.708-.25-1.307-.392-.631-.13-1.151-.392-1.56-.784-.408-.392-.612-.964-.612-1.714 0-.642.163-1.17.49-1.584a2.843 2.843 0 011.233-.907 4.27 4.27 0 011.544-.285c.653 0 1.184.057 1.592.171.408.115.808.292 1.2.53v1.912a16.133 16.133 0 00-1.29-.654 2.684 2.684 0 00-1.062-.195c-.402 0-.702.062-.897.187a.595.595 0 00-.295.531c0 .272.11.471.327.596.218.126.566.253 1.045.384.545.142.974.28 1.29.416.316.136.599.37.85.702.25.332.375.798.375 1.396-.022.937-.375 1.62-1.061 2.05-.686.43-1.557.645-2.613.645-.523 0-.98-.052-1.372-.155zm-4.034-7.594c.73.692 1.095 1.843 1.095 3.454 0 1.296-.327 2.335-.98 3.12-.653.783-1.547 1.175-2.679 1.175-.827 0-1.518-.147-2.074-.441v3.151h-2.384v-9.47c0-.665.367-1.166 1.102-1.504.735-.337 1.68-.511 2.834-.522 1.328 0 2.357.346 3.086 1.037zm-1.812 5.234c.315-.37.473-.99.473-1.862 0-.784-.139-1.374-.416-1.772-.278-.397-.754-.596-1.429-.596-.969 0-1.454.186-1.454.555v3.887c.196.12.414.207.654.261.24.055.473.082.702.082.664 0 1.154-.184 1.47-.555zm-7.84-5.234c.73.692 1.095 1.843 1.095 3.454 0 1.296-.326 2.335-.98 3.12-.653.783-1.546 1.175-2.678 1.175-.828 0-1.519-.147-2.074-.441v3.151h-2.385v-9.47c0-.665.368-1.166 1.103-1.504.735-.337 1.679-.511 2.833-.522 1.329 0 2.357.346 3.087 1.037zm-1.812 5.234c.316-.37.474-.99.474-1.862 0-.784-.14-1.374-.416-1.772-.278-.397-.755-.596-1.43-.596-.968 0-1.452.186-1.452.555v3.887c.195.12.413.207.653.261.24.055.473.082.702.082.663 0 1.154-.184 1.47-.555zM40.54 9.847h-4.066L35.69 12.2h-2.498l4.115-10.892h2.89l3.854 10.892h-2.71zm-.653-1.943L38.5 3.79l-1.372 4.115zM96.05 20.731h3.91v.632h-3.242v2.136h2.851v.65h-2.85v2.145h3.24v.631h-3.91zm-6.078 5.47c-.48-.532-.72-1.325-.72-2.377 0-1.053.24-1.845.72-2.378.48-.532 1.196-.798 2.15-.798.63 0 1.26.152 1.885.455v.64a3.81 3.81 0 00-1.811-.463c-.78 0-1.35.203-1.709.612s-.539 1.053-.539 1.932c0 .885.178 1.53.534 1.936.356.406.928.608 1.714.608.656 0 1.26-.151 1.81-.455v.64c-.631.298-1.26.446-1.885.446-.953 0-1.67-.265-2.149-.798zm-2.763-5.47v6.194h-.752l-3.705-5.219v5.219h-.669v-6.194h.762l3.695 5.22v-5.22zm-11.264 0h3.91v.632h-3.241v2.136h2.85v.65h-2.85v2.145h3.24v.631h-3.909zm-2.99 0h.668v6.194h-.668zm-6.264 5.47c-.48-.532-.72-1.325-.72-2.377 0-1.053.24-1.845.72-2.378.48-.532 1.197-.798 2.15-.798.632 0 1.26.152 1.885.455v.64a3.807 3.807 0 00-1.811-.463c-.78 0-1.35.203-1.709.612s-.538 1.053-.538 1.932c0 .885.178 1.53.534 1.936.356.406.926.608 1.713.608.656 0 1.26-.151 1.81-.455v.64c-.63.298-1.259.446-1.884.446-.953 0-1.67-.265-2.15-.798zm-5.419.696a5.654 5.654 0 01-.919-.408v-.725c.223.186.503.34.84.46.338.12.714.181 1.129.181.452 0 .79-.096 1.012-.288.223-.192.335-.452.335-.78a.91.91 0 00-.196-.6 1.415 1.415 0 00-.464-.37 9.453 9.453 0 00-.808-.34 6.69 6.69 0 01-.915-.37 1.625 1.625 0 01-.58-.52c-.16-.23-.242-.533-.242-.91a1.515 1.515 0 01.804-1.347c.281-.161.645-.242 1.091-.242.328 0 .596.031.803.093.207.062.481.177.822.344v.687l-.348-.2a2.249 2.249 0 00-.585-.237 2.735 2.735 0 00-.655-.074c-.427 0-.743.088-.947.265a.84.84 0 00-.307.664c0 .241.054.436.162.585.109.148.254.269.437.362.182.093.441.195.775.307.384.13.698.259.943.385.244.127.453.308.626.544.174.235.26.535.26.9 0 .49-.162.904-.486 1.245-.325.34-.847.51-1.565.51-.427 0-.768-.04-1.022-.12zm-6.044-1.903h-2.675l-.743 1.931h-.725l2.471-6.194h.669l2.46 6.194h-.715zm-.251-.641L53.89 21.52l-1.086 2.833zm-7.3-2.99h-2.191v-.632h5.042v.632h-2.182v5.562h-.669v-5.562zm-4.206 3.63h-2.675l-.742 1.932h-.725l2.47-6.194h.67l2.46 6.194h-.715zm-.25-.64l-1.087-2.833-1.086 2.833zm-9.854-3.622h1.941c.966 0 1.692.259 2.178.775.486.518.729 1.29.729 2.318 0 2.067-.97 3.101-2.907 3.101h-1.941v-6.194zm1.895 5.563c.786 0 1.36-.198 1.722-.595.363-.396.544-1.021.544-1.875 0-.855-.181-1.48-.544-1.877-.362-.396-.936-.594-1.722-.594h-1.226v4.94z"/>
    <path d="M9.339 14.102h14.35v.84H9.338zm-.362.209l.727.42-7.176 12.424-.727-.42zM1.804 2.305l.727-.42 7.167 12.427-.727.42zm22.724 12.217L1.746 27.675V1.37zM2.585 26.221L22.85 14.522 2.586 2.823z"/>
    <path d="M22.478 12.582a2.183 2.183 0 00-.796 2.979 2.183 2.183 0 002.977.799 2.184 2.184 0 00.8-2.98 2.184 2.184 0 00-2.98-.798zm-21.39 12.35a2.182 2.182 0 00-.796 2.978 2.183 2.183 0 002.978.799 2.183 2.183 0 00.798-2.979 2.184 2.184 0 00-2.98-.799zm7.16-12.3a2.184 2.184 0 00-.797 2.98 2.183 2.183 0 002.977.798 2.183 2.183 0 00.8-2.979 2.184 2.184 0 00-2.98-.799zM1.123.292A2.183 2.183 0 00.326 3.27c.601 1.04 1.937 1.4 2.978.8a2.184 2.184 0 00.798-2.98 2.185 2.185 0 00-2.98-.799z"/>
  </symbol>
  <symbol id="logo" viewBox="0 0 100 100">
    <polyline class="logo__triangle" points="88.971,27.5 50,95 11.029,27.5 88.971,27.5" />
    <polyline class="logo__outer" points="88.971,27.5 88.971,72.5 50,95" />
    <polyline class="logo__outer" points="50,95 11.029,72.5 11.029,27.5 " />
    <polyline class="logo__outer" points="11.029,27.5 50,5 88.971,27.5" />
    <polyline class="logo__inner" points="88.971,27.5 50,50" />
    <polyline class="logo__inner" points="50,95 50,50" />
    <polyline class="logo__inner" points="11.029,27.5 50,50" />
    <circle class="logo__circle" cx="88.971" cy="27.5" r="5" />
    <circle class="logo__circle" cx="11.029" cy="27.5" r="5" />
    <circle class="logo__circle" cx="50" cy="95" r="5" />
    <circle class="logo__circle" cx="50" cy="50" r="5" />
  </symbol>
  <symbol id="burger" viewBox="0 0 100 100">
    <rect x="0" y="0" width="100" height="16" />
    <rect x="0" y="42" width="100" height="16" />
    <rect x="0" y="84" width="100" height="16" />
  </symbol>
  <symbol id="hex" viewBox="0 0 100 115.47">
    <path d="M100 28.867v57.735L50 115.47 0 86.602V28.867L50 0z"/>
  </symbol>
  <symbol id="star" viewBox="0 0 100 100">
    <path d="M50 7.796L60.467 40.25l34.1-.075L66.934 60.16l10.609 32.407L50 72.463 22.456 92.566 33.065 60.16 5.434 40.175l34.1.075z"/>
  </symbol>
  <symbol id="github" viewBox="0 0 100 100">
    <path d="M50 .967c-27.625 0-50 22.375-50 50 0 22.125 14.313 40.812 34.188 47.437 2.5.438 3.437-1.062 3.437-2.375 0-1.187-.063-5.125-.063-9.312C25 89.029 21.75 83.654 20.75 80.842c-.563-1.438-3-5.875-5.125-7.063-1.75-.937-4.25-3.25-.063-3.312 3.938-.063 6.75 3.625 7.688 5.125 4.5 7.562 11.688 5.437 14.563 4.125.437-3.25 1.75-5.438 3.187-6.688-11.125-1.25-22.75-5.562-22.75-24.687 0-5.438 1.938-9.938 5.125-13.438-.5-1.25-2.25-6.375.5-13.25 0 0 4.188-1.312 13.75 5.125 4-1.125 8.25-1.687 12.5-1.687s8.5.562 12.5 1.687c9.563-6.5 13.75-5.125 13.75-5.125 2.75 6.875 1 12 .5 13.25C80.063 38.404 82 42.842 82 48.342c0 19.187-11.688 23.437-22.813 24.687 1.813 1.563 3.376 4.563 3.376 9.25 0 6.688-.063 12.063-.063 13.75 0 1.313.938 2.875 3.438 2.375C85.688 91.78 100 73.03 100 50.967c0-27.625-22.375-50-50-50z"/>
  </symbol>
  <symbol id="linkedin" viewBox="0 0 100 100">
    <path d="M50 0C22.376 0 0 22.406 0 50c0 27.624 22.406 50 50 50 27.624 0 50-22.406 50-50 0-27.624-22.406-50-50-50zM30.564 25.225a5.588 5.588 0 015.579 5.58c0 3.06-2.49 5.578-5.58 5.578-3.06 0-5.579-2.49-5.579-5.58 0-3.06 2.491-5.578 5.58-5.578zm-5.548 14.847h11.127v33.383H25.016zm18.505 0h10.29v5.248h.15c1.44-2.58 4.919-5.248 10.137-5.248 10.828 0 12.838 6.748 12.838 15.506v17.877h-10.71V57.617c0-3.779-.09-8.637-5.58-8.637-5.578 0-6.417 4.11-6.417 8.37v16.105H43.52z"/>
  </symbol>
  <symbol id="twitter" viewBox="0 0 100 100">
    <path d="M50 0c27.594 0 50 22.376 50 50 0 27.594-22.376 50-50 50-27.594 0-50-22.376-50-50C0 22.406 22.376 0 50 0zm26.995 33.233c-1.98.9-4.11 1.47-6.36 1.74 2.28-1.38 4.05-3.54 4.86-6.119a22.89 22.89 0 01-7.019 2.7 11.043 11.043 0 00-8.098-3.48A11.06 11.06 0 0049.31 39.142c0 .87.09 1.71.27 2.52a31.43 31.43 0 01-22.825-11.578c-.99 1.68-1.5 3.6-1.5 5.579 0 3.84 1.95 7.228 4.919 9.208-1.83-.06-3.51-.57-5.009-1.38v.15c0 5.37 3.81 9.838 8.878 10.858-.93.24-1.92.39-2.91.39-.72 0-1.409-.06-2.099-.21a11.12 11.12 0 0010.348 7.709c-3.81 2.969-8.548 4.739-13.767 4.739-.9 0-1.77-.06-2.64-.15a31.373 31.373 0 0016.977 4.979c20.366 0 31.524-16.887 31.524-31.524 0-.48 0-.96-.03-1.44 2.16-1.56 4.049-3.51 5.519-5.729z"/>
  </symbol>
  <symbol id="rstudio" viewBox="0 0 200 72">
    <path d="M168.587 39.9v11.315h4.14V28.586h-4.14zm-52.217-3.845c.023 8.088.011 7.832.329 9.318.833 3.84 3.3 6.131 6.845 6.341 3.261.198 6.069-1.134 7.821-3.715.176-.26.33-.46.34-.448.018.017.244 3.267.244 3.533v.13h3.681l-.028-.555a6.171 6.171 0 00-.063-.663c-.022-.063-.05-4.9-.068-10.748l-.034-10.634-2.053-.017-2.058-.011V35.6c0 7.027-.017 7.64-.205 8.383-.119.47-.64 1.508-.98 1.962-1.305 1.713-3.33 2.592-5.366 2.325-2.524-.334-3.925-2.228-4.225-5.733-.034-.386-.057-3.386-.057-7.305v-6.647h-4.146zm71.2-7.832c-3.199.385-5.944 2.064-7.708 4.713-1.843 2.762-2.461 7.004-1.548 10.628 1.123 4.452 4.407 7.452 8.853 8.076.71.102 2.32.12 3 .029a11.675 11.675 0 003.885-1.174c1.106-.556 1.747-1.027 2.666-1.946.885-.884 1.372-1.537 1.894-2.552.618-1.202 1.032-2.501 1.254-3.942.147-.935.181-3.022.062-4.02-.323-2.802-1.361-5.094-3.097-6.846-.743-.749-1.145-1.066-1.968-1.56-2.013-1.214-4.662-1.724-7.293-1.406zm3.096 3.215c2.456.647 4.237 2.859 4.89 6.075.691 3.414-.143 6.976-2.128 9.12-1.593 1.723-3.964 2.404-6.159 1.769-2.36-.68-4.106-2.728-4.815-5.655-.47-1.928-.403-4.35.176-6.278.232-.766.737-1.843 1.157-2.473.386-.578 1.22-1.406 1.747-1.752 1.162-.749 2.12-1.004 3.64-.97.778.017 1.027.045 1.492.164zm-86.365-7.758c-.84.26-1.719.527-1.94.595l-.414.125v4.186l-1.74.011-1.748.017v3.12l1.741.016 1.742.012.022 6.936c.023 7.526.017 7.361.346 8.734.295 1.236.72 2.042 1.446 2.762.568.556 1.118.896 1.929 1.174.771.272 1.367.363 2.399.363 1.202 0 2.212-.13 3.153-.408.38-.114.408-.136.408-.284 0-.238-.17-2.966-.187-2.983a1.813 1.813 0 00-.323.068c-.391.102-1.35.198-1.923.198-1.877 0-2.83-.907-3.125-2.977-.034-.244-.056-2.91-.056-6.993v-6.59H111.872v-3.176H106.031v-2.694c0-2.53-.006-2.694-.097-2.689-.056.006-.788.222-1.633.477zm65.59-3.89c-.487.158-.76.317-1.077.634-.675.692-.902 1.77-.573 2.728.488 1.413 2.082 2.03 3.562 1.373.329-.142.811-.567 1.015-.885.471-.737.488-1.894.051-2.705-.312-.573-.935-1.05-1.565-1.191-.386-.091-1.06-.068-1.412.045zm-83.172-.551c-4.412.204-7.843 2.495-8.99 5.995-.68 2.093-.453 4.565.58 6.33 1.196 2.035 3.385 3.646 6.709 4.933 1.395.54 2.178.874 2.824 1.203 2.598 1.327 3.726 2.892 3.726 5.178 0 .788-.068 1.242-.278 1.854-.527 1.532-1.854 2.711-3.635 3.227-.896.261-1.469.33-2.722.33-1.242-.006-1.872-.074-3.04-.335-1.23-.278-2.825-.902-3.772-1.475-.187-.119-.351-.204-.357-.193-.034.04-1.055 3.301-1.055 3.37 0 .164 1.475.861 2.57 1.213 1.86.595 3.578.862 5.54.862 3.67-.006 6.42-.975 8.428-2.983 1.225-1.22 1.911-2.507 2.303-4.3.17-.782.187-2.773.028-3.612a7.676 7.676 0 00-2.217-4.168c-1.282-1.26-2.899-2.207-5.678-3.318-1.554-.619-3.028-1.333-3.771-1.82a7.512 7.512 0 01-1.078-.897c-.771-.783-1.106-1.4-1.276-2.354-.425-2.461.857-4.525 3.324-5.325 1.542-.505 3.788-.477 5.892.08.698.186 1.696.572 2.224.861.175.097.334.165.346.153.01-.017.266-.76.567-1.661l.544-1.628-.125-.085c-.26-.17-1.032-.494-1.673-.709-1.735-.573-3.805-.828-5.938-.726zm70.911 5.547l-.017 6.754-.306-.43c-.647-.902-1.725-1.759-2.808-2.235-1.055-.46-2.059-.68-3.357-.726-3.415-.13-6.471 1.469-8.445 4.412-1.05 1.56-1.82 3.857-2.02 6.018-.084.958-.039 3.113.092 3.93.272 1.77.879 3.46 1.701 4.764.442.71.715 1.05 1.304 1.668 1.39 1.446 3.063 2.342 5.014 2.677 1.151.198 2.836.136 3.92-.148 2.222-.573 4.026-1.928 5.07-3.8.118-.204.232-.368.26-.368.034 0 .057.096.057.21 0 .119.04.94.085 1.831.045.89.085 1.673.085 1.741v.13H161.963l-.034-.356c-.119-1.248-.147-4.424-.147-17.95V18.036h-4.14zm-5.337 6.635a5.974 5.974 0 013.624 1.798c.845.868 1.492 2.19 1.668 3.42.028.204.056 1.634.056 3.182 0 3.051-.022 3.335-.317 4.22-.811 2.438-2.927 4.151-5.337 4.332-2.995.222-5.326-1.298-6.488-4.225-.239-.607-.482-1.576-.596-2.382-.108-.794-.125-2.512-.028-3.284.397-3.125 1.775-5.416 3.89-6.465a6.305 6.305 0 013.528-.596zM33.89 21.27c-.68.046-1.94.154-3.09.273l-.398.04-.017 5.563-.011 5.57 1.174.04c2.473.09 4.554-.04 5.887-.375 2.257-.562 3.737-1.582 4.475-3.08.43-.867.516-1.299.51-2.53 0-.946-.017-1.105-.153-1.604-.567-2.116-2.07-3.346-4.662-3.817-.612-.108-2.58-.153-3.715-.08zM33.294.74c-5.07.3-10.005 1.639-14.292 3.879C10.93 8.838 4.834 15.893 1.908 24.41-1.02 32.92-.565 42.21 3.178 50.478c2.427 5.365 6.437 10.254 11.332 13.827 9.75 7.106 22.606 8.677 33.847 4.129 4.441-1.793 8.417-4.464 11.854-7.952a34.24 34.24 0 004.452-5.524c3.08-4.736 4.917-10.05 5.507-15.937.142-1.406.142-4.951 0-6.352-.613-6.046-2.496-11.394-5.728-16.249-5.57-8.37-14.389-13.946-24.314-15.364-2.076-.3-4.912-.43-6.834-.317zm-7.628 18.058c.947.107 2.807.124 3.8.034.357-.034 1.457-.148 2.438-.256 3.097-.34 4.18-.368 5.899-.164 3.43.408 6.062 2.002 7.26 4.39.345.692.589 1.452.708 2.24.136.856.09 2.643-.08 3.443a8.09 8.09 0 01-3.238 4.934c-.68.482-2.002 1.151-2.79 1.406-.335.108-.607.221-.607.255 0 .029 1.82 2.734 4.044 6.012l4.044 5.955 1.905.017 1.911.012v2.949h-5.784l-4.821-7.231-4.821-7.231h-5.161v11.513h5.048v2.949H22.773v-2.949h4.367V34.342c0-7.004-.006-12.732-.011-12.738-.011 0-.987-.125-2.172-.272l-2.156-.267-.017-1.39-.01-1.389 1.037.21c.567.113 1.407.25 1.855.3z"/>
  </symbol>
</svg>
