<svg xmlns="http://www.w3.org/2000/svg">
  <symbol id="appsilon-logo" width="100" height="29" viewBox="0 0 100 29">
    <path d="M94.154 4c.87-.195 1.649-.293 2.335-.293 1.165 0 2.042.229 2.63.686.587.457.881 1.208.881 2.253V12.2h-2.433V7.137c0-.948-.534-1.421-1.6-1.421-.24 0-.485.027-.736.082-.25.054-.446.12-.588.196v6.205H92.21V4.638c.425-.229 1.072-.441 1.944-.637zm-10.827 7.333c-.697-.74-1.045-1.84-1.045-3.299 0-1.524.345-2.634 1.037-3.331.691-.696 1.739-1.045 3.143-1.045 1.405 0 2.46.357 3.169 1.07.707.713 1.06 1.816 1.06 3.307 0 1.437-.364 2.531-1.093 3.282-.73.752-1.775 1.127-3.136 1.127-1.394 0-2.439-.37-3.135-1.11zm4.49-1.461c.305-.42.458-1.031.458-1.837 0-.882-.15-1.51-.45-1.886-.299-.376-.753-.564-1.363-.564-.632 0-1.086.188-1.364.564-.278.375-.416 1.004-.416 1.886 0 .838.144 1.459.433 1.862.288.403.737.604 1.347.604.599 0 1.05-.21 1.356-.63zm-9.814 2.327V.817h2.417v11.382h-2.417zM73.169.931h2.515V2.81H73.17zm.05 3.12h2.432l.017 8.148h-2.45zm-7.007 8.238a10.703 10.703 0 01-1.306-.449V9.7c.882.665 1.807.997 2.776.997.37 0 .64-.063.808-.188a.606.606 0 00.253-.515c0-.25-.136-.435-.408-.555-.273-.12-.708-.25-1.307-.392-.631-.13-1.151-.392-1.56-.784-.408-.392-.612-.964-.612-1.714 0-.642.163-1.17.49-1.584a2.843 2.843 0 011.233-.907 4.27 4.27 0 011.544-.285c.653 0 1.184.057 1.592.171.408.115.808.292 1.2.53v1.912a16.133 16.133 0 00-1.29-.654 2.684 2.684 0 00-1.062-.195c-.402 0-.702.062-.897.187a.595.595 0 00-.295.531c0 .272.11.471.327.596.218.126.566.253 1.045.384.545.142.974.28 1.29.416.316.136.599.37.85.702.25.332.375.798.375 1.396-.022.937-.375 1.62-1.061 2.05-.686.43-1.557.645-2.613.645-.523 0-.98-.052-1.372-.155zm-4.034-7.594c.73.692 1.095 1.843 1.095 3.454 0 1.296-.327 2.335-.98 3.12-.653.783-1.547 1.175-2.679 1.175-.827 0-1.518-.147-2.074-.441v3.151h-2.384v-9.47c0-.665.367-1.166 1.102-1.504.735-.337 1.68-.511 2.834-.522 1.328 0 2.357.346 3.086 1.037zm-1.812 5.234c.315-.37.473-.99.473-1.862 0-.784-.139-1.374-.416-1.772-.278-.397-.754-.596-1.429-.596-.969 0-1.454.186-1.454.555v3.887c.196.12.414.207.654.261.24.055.473.082.702.082.664 0 1.154-.184 1.47-.555zm-7.84-5.234c.73.692 1.095 1.843 1.095 3.454 0 1.296-.326 2.335-.98 3.12-.653.783-1.546 1.175-2.678 1.175-.828 0-1.519-.147-2.074-.441v3.151h-2.385v-9.47c0-.665.368-1.166 1.103-1.504.735-.337 1.679-.511 2.833-.522 1.329 0 2.357.346 3.087 1.037zm-1.812 5.234c.316-.37.474-.99.474-1.862 0-.784-.14-1.374-.416-1.772-.278-.397-.755-.596-1.43-.596-.968 0-1.452.186-1.452.555v3.887c.195.12.413.207.653.261.24.055.473.082.702.082.663 0 1.154-.184 1.47-.555zM40.54 9.847h-4.066L35.69 12.2h-2.498l4.115-10.892h2.89l3.854 10.892h-2.71zm-.653-1.943L38.5 3.79l-1.372 4.115zM96.05 20.731h3.91v.632h-3.242v2.136h2.851v.65h-2.85v2.145h3.24v.631h-3.91zm-6.078 5.47c-.48-.532-.72-1.325-.72-2.377 0-1.053.24-1.845.72-2.378.48-.532 1.196-.798 2.15-.798.63 0 1.26.152 1.885.455v.64a3.81 3.81 0 00-1.811-.463c-.78 0-1.35.203-1.709.612s-.539 1.053-.539 1.932c0 .885.178 1.53.534 1.936.356.406.928.608 1.714.608.656 0 1.26-.151 1.81-.455v.64c-.631.298-1.26.446-1.885.446-.953 0-1.67-.265-2.149-.798zm-2.763-5.47v6.194h-.752l-3.705-5.219v5.219h-.669v-6.194h.762l3.695 5.22v-5.22zm-11.264 0h3.91v.632h-3.241v2.136h2.85v.65h-2.85v2.145h3.24v.631h-3.909zm-2.99 0h.668v6.194h-.668zm-6.264 5.47c-.48-.532-.72-1.325-.72-2.377 0-1.053.24-1.845.72-2.378.48-.532 1.197-.798 2.15-.798.632 0 1.26.152 1.885.455v.64a3.807 3.807 0 00-1.811-.463c-.78 0-1.35.203-1.709.612s-.538 1.053-.538 1.932c0 .885.178 1.53.534 1.936.356.406.926.608 1.713.608.656 0 1.26-.151 1.81-.455v.64c-.63.298-1.259.446-1.884.446-.953 0-1.67-.265-2.15-.798zm-5.419.696a5.654 5.654 0 01-.919-.408v-.725c.223.186.503.34.84.46.338.12.714.181 1.129.181.452 0 .79-.096 1.012-.288.223-.192.335-.452.335-.78a.91.91 0 00-.196-.6 1.415 1.415 0 00-.464-.37 9.453 9.453 0 00-.808-.34 6.69 6.69 0 01-.915-.37 1.625 1.625 0 01-.58-.52c-.16-.23-.242-.533-.242-.91a1.515 1.515 0 01.804-1.347c.281-.161.645-.242 1.091-.242.328 0 .596.031.803.093.207.062.481.177.822.344v.687l-.348-.2a2.249 2.249 0 00-.585-.237 2.735 2.735 0 00-.655-.074c-.427 0-.743.088-.947.265a.84.84 0 00-.307.664c0 .241.054.436.162.585.109.148.254.269.437.362.182.093.441.195.775.307.384.13.698.259.943.385.244.127.453.308.626.544.174.235.26.535.26.9 0 .49-.162.904-.486 1.245-.325.34-.847.51-1.565.51-.427 0-.768-.04-1.022-.12zm-6.044-1.903h-2.675l-.743 1.931h-.725l2.471-6.194h.669l2.46 6.194h-.715zm-.251-.641L53.89 21.52l-1.086 2.833zm-7.3-2.99h-2.191v-.632h5.042v.632h-2.182v5.562h-.669v-5.562zm-4.206 3.63h-2.675l-.742 1.932h-.725l2.47-6.194h.67l2.46 6.194h-.715zm-.25-.64l-1.087-2.833-1.086 2.833zm-9.854-3.622h1.941c.966 0 1.692.259 2.178.775.486.518.729 1.29.729 2.318 0 2.067-.97 3.101-2.907 3.101h-1.941v-6.194zm1.895 5.563c.786 0 1.36-.198 1.722-.595.363-.396.544-1.021.544-1.875 0-.855-.181-1.48-.544-1.877-.362-.396-.936-.594-1.722-.594h-1.226v4.94z"/>
    <path d="M9.339 14.102h14.35v.84H9.338zm-.362.209l.727.42-7.176 12.424-.727-.42zM1.804 2.305l.727-.42 7.167 12.427-.727.42zm22.724 12.217L1.746 27.675V1.37zM2.585 26.221L22.85 14.522 2.586 2.823z"/>
    <path d="M22.478 12.582a2.183 2.183 0 00-.796 2.979 2.183 2.183 0 002.977.799 2.184 2.184 0 00.8-2.98 2.184 2.184 0 00-2.98-.798zm-21.39 12.35a2.182 2.182 0 00-.796 2.978 2.183 2.183 0 002.978.799 2.183 2.183 0 00.798-2.979 2.184 2.184 0 00-2.98-.799zm7.16-12.3a2.184 2.184 0 00-.797 2.98 2.183 2.183 0 002.977.798 2.183 2.183 0 00.8-2.979 2.184 2.184 0 00-2.98-.799zM1.123.292A2.183 2.183 0 00.326 3.27c.601 1.04 1.937 1.4 2.978.8a2.184 2.184 0 00.798-2.98 2.185 2.185 0 00-2.98-.799z"/>
  </symbol>
  <symbol id="burger" viewBox="0 0 100 100">
    <rect x="0" y="0" width="100" height="16" />
    <rect x="0" y="42" width="100" height="16" />
    <rect x="0" y="84" width="100" height="16" />
  </symbol>
  <symbol id="hex" viewBox="0 0 100 115.47">
    <path d="M100 28.867v57.735L50 115.47 0 86.602V28.867L50 0z"/>
  </symbol>
  <symbol id="star" viewBox="0 0 100 100">
    <path d="M50 7.796L60.467 40.25l34.1-.075L66.934 60.16l10.609 32.407L50 72.463 22.456 92.566 33.065 60.16 5.434 40.175l34.1.075z"/>
  </symbol>
  <symbol id="shiny-semantic" viewBox="0 0 200 100">
    <path d="M165.123 17.71a.5.5 0 00-.305.116l-6.297 5.242-6.025 2.092a.5.5 0 00-.047.02l-7.369 3.422-7.836 1.572-41.058-3.188a.5.5 0 00-.098.002l-15.36 1.864a.5.5 0 00-.017.002l-.01.002a.5.5 0 00-.049.007.5.5 0 00-.01.002.5.5 0 00-.029.008.5.5 0 00-.035.014.5.5 0 00-.02.008l-16.925 6.62h-.002a.5.5 0 00-.006.003l-.014.006a.5.5 0 00-.006.002.5.5 0 00-.021.01.5.5 0 00-.018.01.5.5 0 00-.043.025.5.5 0 00-.015.01.5.5 0 00-.02.013l-.016.012L27.95 60.512a.5.5 0 00-.053.043l-7.435 6.895a.5.5 0 00.2.847l11.157 3.19a.5.5 0 00.217.013l14.858-2.393a.5.5 0 00.2-.08l19.573-13.279h.06v-.041l1.579-1.07a.5.5 0 00.08-.067l10.302-10.703L74.999 57l-4.46 7.348a.5.5 0 00-.003.002l-.017.029a.5.5 0 00-.008.012.5.5 0 00-.016.03.5.5 0 00-.02.048.5.5 0 00-.01.027.5.5 0 00-.007.035.5.5 0 00-.008.043.5.5 0 00-.002.026.5.5 0 00-.002.015.5.5 0 000 .014.5.5 0 000 .02l.272 12.736a.5.5 0 00.037.18l2.392 5.824a.5.5 0 00.463.31h6.895a.5.5 0 00.46-.693L79.64 79.83a.5.5 0 00-.251-.262l-2.178-1.011-1.498-5.942 2.568-6.894 8.852-8.143-.235 7.299a.5.5 0 00.067.264l5.299 9.289a.5.5 0 00.021.033l4.516 6.639a.5.5 0 00.412.218h6.654a.5.5 0 00.48-.64l-.556-1.908a.5.5 0 00-.205-.28l-4.645-3.049-4.845-11.726 10.695-8.96 14.068 2.626 3.906 11.39a.5.5 0 00.004.008l.262.719.026.32a.5.5 0 00.228.38l2.377 6.546a.5.5 0 00.02.047l3.209 6.623a.5.5 0 00.449.283h5.043a.5.5 0 00.482-.627l-.555-2.111a.5.5 0 00-.199-.285l-3.004-2.06-2.066-12.093 2.262-7.06 3.949-1.264 6.21 13.543a.5.5 0 00.013.022l6.054 11.666a.5.5 0 00.444.27h5.441a.5.5 0 00.44-.737l-1.352-2.51a.5.5 0 00-.207-.205l-2.528-1.336-3.515-13.236.277-11.223 10.104-8.752 6.133-2.166 10.988 3.008a.5.5 0 00.277-.004l3.461-1.053a.5.5 0 00.223-.136l1.851-1.996a.5.5 0 00-.025-.706l-6.295-5.9-3.406-7.6a.5.5 0 00-.127-.171l-4.074-3.57V18.21a.5.5 0 00-.516-.5zm-1.408 2.337l-3.268 6.896-1.092-3.267zm.924.383v4.906l-3.155 1.752zm-6.182 3.718l1.227 3.668-11.89.627 5.054-2.345zm6.615 2.092l3.9 3.416 3.403 7.592a.5.5 0 00.113.162l6.006 5.63-1.174 1.263-2.554-2.33a.5.5 0 00-.13-.084l-2-.918-3.357-5.25a.5.5 0 00-.086-.102l-7.974-7.238zm-69.226 1.785l7.088 15.83-20.79-14.167zm1.105.024l22.065 1.713-14.745 14.636zm62.7.771l-1.708 4.91-10.45-4.27zm.939.34l7.883 7.154 2.521 3.946-12.25-.766v-5.017zm-15.988.557l-1.735 8.672-4.771-7.366zm1.007.054l12.135 4.958v4.726l-14.02-.25zm-24.629.143l15.28 1.186-9.22 10.882zm-40.783.195l-.933 11.272-14.084-5.397zm39.805.082l6.16 12.27-20.695 2.158zm-38.81.057l20.908 14.25-21.854-2.846zm56.03 1.264l5.075 7.834-14.06 2.771zm-73.19 5.103l14.445 5.533-23.545 11.948zm-1.85 1.39L53.355 54.96a.5.5 0 00-.06.117l-1.455 2.795-19.91 5.65zm82.59 2.218l11.423.205-6.431 3.217zm-1.51.175l5.478 3.758-.008.004a.5.5 0 00-.146.111l-10.998 12.13-5.526 1.769zm-1.188.01l-11.306 17.94-8.291-6.035a.5.5 0 00-.024-.018.5.5 0 00-.015-.012.5.5 0 00-.026-.015.5.5 0 00-.017-.01.5.5 0 00-.028-.014.5.5 0 00-.017-.008h-.002l-16.217-6.681 20.85-2.174a.5.5 0 00.05-.008zm16.67.09l12.111.756 3.293 1.51 2.213 2.021-2.482.754-11-3.01a.5.5 0 00-.299.01l-3.836 1.356zm-1 .274v3.476l-1.432.504-5.375-.578zm-77.672 1.865l23.229 3.025-9.873 17.03-5.338-6.567a.5.5 0 00-.006-.008.5.5 0 00-.055-.062.5.5 0 00-.035-.033.5.5 0 00-.006-.006.5.5 0 00-.123-.075.5.5 0 00-.004-.002.5.5 0 00-.09-.027.5.5 0 00-.007-.002.5.5 0 00-.043-.006.5.5 0 00-.006 0 .5.5 0 00-.055-.002.5.5 0 00-.02.002.5.5 0 00-.033.002l-11.472.75zm-25.166.195l-24.992 21.08-1.709-2.281.346-.32zM77.3 43.87L67.7 53.84l-1.34.91H55.854zm72.383.934l.316.217a.5.5 0 00.23.084l4.952.533-9.393 8.138-6.299 2.016 9.776-10.78zm-45.358 1.088l15.744 6.488-15.46 1.346a.5.5 0 00-.28.115l-8.967 7.514zm17.377 7.35l1.004 12.269-2.994-8.729a.5.5 0 00-.383-.328l-10.982-2.05zm1.045.503l7.572 5.514-2.214 6.908-4.118 2.729zm22.772 1.168l-.237 9.541-6.543-7.37zm-91.446.836H64.89l-16.721 11.34zm31.121 1.316l-12.93 6.366 3.49-5.746zm52.502.352l7.541 8.492-.709 9.567-2.16-4.162-6.154-13.422zm-49.568.34l4.898 6.025 2.248 13.295-2.15-3.16-5.22-9.146zm-3.352.63l-7.26 6.68a.5.5 0 00-.13.194l-2.276 6.111-3.478-6.514zm-33.57.706l-4.72 9.066-14.19 2.285-1.822-5.468zM27.47 62.314l1.916 2.557 1.797 5.393-9.391-2.686zm44.02 4.403l3.232 6.054 1.58 6.262a.5.5 0 00.273.33l2.219 1.032.96 2.304h-5.81l-2.228-5.428zm56.257.887l-1.715 7.23-1.783-4.912zm-33.014.269l3.344 8.094a.5.5 0 00.188.226l4.619 3.034.318 1.093H97.48l-.856-1.26zm51.3.863l2.825 10.645a.5.5 0 00.25.314l2.586 1.368.883 1.636h-4.299l-2.87-5.531zm-17.585.248l1.711 10.008a.5.5 0 00.21.328l3.023 2.076.343 1.303h-4.082l-2.99-6.178z"/>
  </symbol>
  <symbol id="semantic-dashboard" viewBox="0 0 200 100">
    <path d="M135.87 0a.502.502 0 00-.37.152l-4.887 5.032a.502.502 0 00-.045.054l-3.396 4.653-4.121.695-2.004-5.232a.502.502 0 00-.258-.276l-8.27-3.824a.502.502 0 00-.699.57l1.924 8.153a.502.502 0 00.238.318l6.141 3.533.719 4.252-1.412 15.18-8.97.367-18.95-2.717a.502.502 0 00-.07-.004h-7.702a.502.502 0 00-.16.026l-10.78 3.623a.502.502 0 00-.251.191l-.18.26-4.87 2.527a.502.502 0 00-.253.317l-1.873 7.048a.502.502 0 00.01.288l1.314 3.943a.502.502 0 00.79.232l2.41-1.931v6.379l-1.823 6.03-4.287 3.784a.502.502 0 00-.146.22l-8.614 26.405a.502.502 0 00-.025.156v9.094a.502.502 0 00.502.5h3.424a.502.502 0 00.494-.594l-.664-3.535.834-7.226L66.695 70.7l16.871-12.664.823 1.582-3.237 7.111-.002.004a.502.502 0 00-.052.118l-1.745 3.83a.502.502 0 00-.044.19l-.692 19.144a.502.502 0 000 .007v.018a.502.502 0 000 .033.502.502 0 000 .016l.572 9.44a.502.502 0 00.5.47h2.735a.502.502 0 00.492-.602l-.547-2.71v-3.53l1.356-17.836 9.656-14.138 7.043 1.343a.502.502 0 00.094.008h5.773l3.484 13.387.225 20.502a.502.502 0 00.018.129l.85 3.078a.502.502 0 00.484.369h3.08a.502.502 0 00.484-.633l-.672-2.494.29-20.809 1.855-13.773.863-.736 1.426 6.12 2.054 15.096 1.541 11.696a.502.502 0 00.008.049l1.194 5.097a.502.502 0 00.488.387h2.803a.502.502 0 00.474-.662l-2.47-7.346-.303-26.285 5.549-11.19a.502.502 0 00.052-.222V49.33l.58-.574a.502.502 0 00.141-.262l.67-3.545.004-.012a.502.502 0 00.002-.015.502.502 0 00.006-.033.502.502 0 00.002-.016.502.502 0 00.002-.035.502.502 0 000-.016.502.502 0 000-.004l-.408-21.336 7.85.368a.502.502 0 00.454-.248l1.288-2.19a.502.502 0 00-.116-.642l-5.17-4.229-2.94-5.215a.502.502 0 00-.206-.197l1.775-.9a.502.502 0 00.137-.104l2.43-2.563a.502.502 0 00.136-.369L136.36.477a.502.502 0 00-.49-.477zm-.454 1.678l.275 5.351-2.22 2.344-2.68 1.357-.104-.027.758-4.935zm-22.318 1.19l8.841 8.107.131-.145.08.21-.867.954-.803.883-5.81-3.342zm2.464.898l4.622 2.136 1.24 3.239zm14.604 3.722l-.453 2.951-1.422-.382zm-2.736 3.375l4.232 1.14 2.883 5.114a.502.502 0 00.12.14l3.94 3.225-2.01-.214-6.806-2.045-2.623-2.075-.652-1.603a.502.502 0 00-.356-.3l-4.627-1.034.494-.543.96-1.055zm-6.23 3.301l4.484 1.002.603 1.482a.502.502 0 00.154.204l2.801 2.218a.502.502 0 00.168.086l6.684 2.008.482 1.572-10.787-.504-3.97-4.394zm.542 5.086l3.444 3.81a.502.502 0 00.347.165l4.531.21.077 3.985-9.471 3.334zm15.455 2.09l2.201.236-.738 1.258-1.02-.047zm-7.037 7.139l.283 14.876-9.287-11.709zm-45.959 3.43h6.787l.78 7.308-8.153-1.93zm7.803.085l17.533 2.512-5.576 7.596-11.158-2.641zm-8.836.133l-.555 5.094-4.174-1.133a.502.502 0 000-.002l-3.904-1.057zm37.346.324l9.463 11.928-3.51.185-6.065-10.927zm-2.676 1.88l-11.881 6.743 4.74-6.453zm1.855.099l5.809 10.463-18.623 10.732-2.156-12.697zm-46.478 1.115l-.043.156 5.006 1.354 3.127.851-10.407 3.358v-2.36zm-2.06 1.22l-1.17 1.698a.502.502 0 00-.09.285v5.137l-1.987-4.414-.064.029.312-1.178zm12.763 1.624l18.248 4.318-15.281 4.299zm-1.04.062l3.054 8.867-15.034 5.649v-6.403a.502.502 0 00.01-.427l-.01-.022v-3.799zM67.464 40.93l2.371 5.263-2.416 1.936-1.04-3.117zm36.307 2.369l2.142 12.617H94.246l-6.793-8.027zm26.591 2.064l-.529 2.791-8.094 8.018 4.774-10.606zm-5.275.928l-5.254 11.67-12.672 3.422-.144-4.68zm-39.201 2.117l-1.344 6.387-1.191 2.15-16.495 12.381 1.934-8.601-.162-.037.215-.19a.502.502 0 00.148-.23l1.881-6.22zm.96.315l6.786 8.02a.502.502 0 00.383.177h12.006l.14 4.613h-5.594l-7.21-1.377-7.735-5.625zm42.22 1.603v3.852L123.597 65.2l-4.073 1.692-1.416-6.07 2.393-2.044.19-.16a.502.502 0 00.027-.025zm-43.782 5.2l6.934 5.042-9.553 5.258 2.738-6.013a.502.502 0 00-.011-.438l-1.084-2.086zm32.893 3.921l-2.584 2.205a.502.502 0 00-.137.192.502.502 0 00-.01.023l-5.062 12.403-3.094-11.881zm-50.621 2.188l-2.11 9.386-5.127 6.237 4.233-12.973zm23.996.445l-8.06 11.807-1.35-6.625zm23.344 3.79l-1.36 10.09a.502.502 0 00-.006.061l-.215 15.44-2.52-15.549zm8.576.47l.172 14.828-3.866-13.293zM81.393 68.62l1.326 6.512-2.946 10.672.534-14.797zm-17.069 5.346l-4.812 12.148.2-6.543zm56.258.267l2.865 9.854-.957 4.344-.763-5.793a.502.502 0 000-.002zM82.344 80.26l-.977 12.842a.502.502 0 00-.002.037V94.2l-1.719-4.174zM58.62 82.459l-.195 6.39.129.005-.805 6.976a.502.502 0 00.006.15l.566 3.016h-2.318v-8.512zm52.229.072l2.316 14.285.074-.011-.002.125a.502.502 0 00.018.136l.521 1.93h-2.045l-.73-2.648zm12.865 4.998l.053 4.555a.502.502 0 00.025.154l2.273 6.758h-1.705l-1.097-4.685-.391-2.961zM79.8 93.033l1.584 3.85.427 2.113h-1.65z"/>
  </symbol>
  <symbol id="shiny-info" viewBox="0 0 200 100">
    <path d="M114.332 0a.501.501 0 00-.123.018l-3.082.826a.501.501 0 00-.281.195l-2.463 3.496a.501.501 0 00-.088.358l.824 5.941a.501.501 0 000 .006l.002.012a.501.501 0 00.006.04.501.501 0 00.01.036.501.501 0 00.004.012.501.501 0 00.016.039.501.501 0 00.011.025l4.692 11.053.777 3.615-15.129 4.492a.501.501 0 00-.035.014.501.501 0 00-.027.012.501.501 0 00-.02.007.501.501 0 00-.01.006.501.501 0 00-.043.026.501.501 0 00-.003.002.501.501 0 00-.028.02l-23.88 16.257a.501.501 0 00-.001.002l-.02.013a.501.501 0 00-.039.03.501.501 0 00-.037.035.501.501 0 00-.012.01.501.501 0 00-.011.011l-9.266 10.102-5.869 4.266a.501.501 0 00.371.9l10.815-1.676-2.395 3.828a.501.501 0 00.521.758l10.563-2.074a.501.501 0 00.045-.012l5.558-1.65a.501.501 0 00.079-.031l8.066-3.961-2.816 7.052a.501.501 0 00.341.67l8.159 2.094-.4 7.871a.501.501 0 00.009.127l4.107 19.774-3.964 3.826a.501.501 0 00.443.851l3.65-.713 8.043 1.381a.501.501 0 00.534-.717l-.407-.812 3.12-.986a.501.501 0 00-.122-.979l-5.738-.336-3.215-1.06-2.289-15.174.168-4.299a.501.501 0 00-.06-.26l-.938-1.717.438-5.908 6.744 1.717-2.53 1.049a.501.501 0 00.032.937l1.591.537-2.468 5.235a.501.501 0 00.718.639l1.24-.772 1.669 5.564a.501.501 0 00.978-.1l.772-8.376 2.44-6.234a.501.501 0 00-.335-.666l-10.6-2.907.083-1.111 2.195-5.678 3.31-5.847 10.873-9.293a.501.501 0 00.004-.004.501.501 0 00.032-.03.501.501 0 00.004-.006.501.501 0 00.021-.023.501.501 0 00.012-.014.501.501 0 00.025-.037.501.501 0 00.002-.004.501.501 0 00.024-.039.501.501 0 00.002-.006.501.501 0 00.011-.027.501.501 0 00.008-.018.501.501 0 00.004-.011.501.501 0 00.012-.04l2.793-11.107a.501.501 0 00.004-.224l-1.287-6.203a.501.501 0 00-.018-.063l-4.197-12.094 12.934 11.598a.501.501 0 00.742-.664L119.963 8.33l-.809-5.031a.501.501 0 00-.216-.338l-4.32-2.877a.501.501 0 00-.286-.084zm-.197 1.074l2.61 5.662-7.145-2.19 1.96-2.782zm1.52.905l2.546 1.695.631 3.928-.781-.42zm-6.26 3.554l6.767 2.074-6.137 2.473zm8.48 2.692l1.271.687 8.137 11.397-10.707-9.6zm-1.283.29l-1.078 2.063a.501.501 0 00-.002.004l-.002.006a.501.501 0 00-.03.398l3.877 11.172-8.927-11.16zm-5.086 5.432l8.39 10.489-4.289.982-.779-3.62a.501.501 0 00-.027-.089zm8.892 11.4l1.069 5.15-10.276.847 4.301-4.871zm-6.705 1.651l-3.9 4.416-7.711-.969zm-13.207 4.258l8.864 1.113-3.194 11.111zm20.93.248l-2.396 9.53-7.965-8.675zm-21.832.19l5.924 12.77-14.664 1.143zm-1.633.714l-7.715 12.28-.691-6.555zm12.278.531l8.091 8.815-11.34 2.486zm-21.624 5.832l.73 6.94-11.847.629zm28.83 4.202l-8.847 7.56-1.678-5.252zm-13.665 2.632L85.15 54.98l5.036-8.316zm2.287.295l1.68 5.26-8.755 4.729-.687-1.215zm-1.893.63l-6.617 7.476-.168-.057-.067.197-10.746 1.243zm-16.17.255l-11.066 6.969-.653-6.346zm.37.953l-4.788 7.907-5.762-1.264zm-13.026.358l.63 6.129-8.068 1.978zm31.709 4.578l-2.516 4.443a.501.501 0 00-.03.067l-1.864 4.82-3.149-5.25zM76.52 55.123l5.271 1.156-8.268 2.408-1.097.32-4.4-1.802zm18.34.316l-9.499 4.663-5.437 1.615 4.154-5.031zm1.96.153l-2.341 6.892a.501.501 0 00.341.645l4.819 1.314-.073 1.412-7.41-1.9 3.018-7.555zm.979.238l.555.98a.501.501 0 00.005.01.501.501 0 00.022.036l1.516 2.529-.206 4.033-4.093-1.115zm-15.4 1.316l-4.034 4.883-7.906 1.553 2.262-3.617zm-15.915.508l4.06 1.664-8.073 1.252zm34.338 3.274l1.4 2.336-.777 10.463a.501.501 0 00.06.277l.942 1.723-.166 4.209a.501.501 0 00.006.093l2.344 15.528a.501.501 0 00.338.4l3.568 1.176a.501.501 0 00.13.025l3.095.182-1.094.346a.501.501 0 00-.297.703l.225.449-7.158-1.229a.501.501 0 00-.182.002l-2.076.407 2.945-2.842a.501.501 0 00.143-.463l-4.15-19.98zm2.246 4.459l9.873 2.707-2.261 5.781a.501.501 0 00-.034.137l-.539 5.875-1.115-3.715a.501.501 0 00-.744-.283l-.355.22 1.984-4.207a.501.501 0 00-.295-.687l-.86-.291 2.688-1.113a.501.501 0 00-.068-.95l-8.373-2.132z"/>
  </symbol>
  <symbol id="shiny-router" viewBox="0 0 200 100">
    <path d="M70.38 9.9a.5.5 0 00-.042.004.5.5 0 00-.045.006.5.5 0 00-.006.002.5.5 0 00-.094.031.5.5 0 00-.039.018.5.5 0 00-.006.004.5.5 0 00-.039.025.5.5 0 00-.008.004.5.5 0 00-.003.004L55.104 21.033a.5.5 0 00.283.903l9.824.261 8.018 6.764-6.983 18.607a.5.5 0 00-.03.139.5.5 0 00.01.148l6.575 28.407a.5.5 0 00.25.328l24.992 13.45.002.001a.5.5 0 00.043.02.5.5 0 00.031.011.5.5 0 00.016.006.5.5 0 00.002 0 .5.5 0 00.047.012.5.5 0 00.002 0 .5.5 0 00.047.008.5.5 0 00.002 0 .5.5 0 00.023 0 .5.5 0 00.023.002.5.5 0 00.002 0h33.928a.5.5 0 00.393-.81l-3.147-3.981a.5.5 0 00-.382-.19l-10.42-.234 9.363-14.508a.5.5 0 00.08-.27v-7.785l4.992.446a.5.5 0 00.291-.065l6.48-3.68 5.333 2.376a.5.5 0 00.685-.325l.998-3.64a.5.5 0 00-.119-.477l-2.818-2.984a.5.5 0 00-.38-.156l-8.862.283 2.48-2.953 7.113.257a.5.5 0 00.395-.17l3.691-4.21a.5.5 0 00.051-.59l-6.586-10.784a.5.5 0 00-.012-.017.5.5 0 00-.017-.024.5.5 0 00-.014-.017.5.5 0 00-.018-.022.5.5 0 00-.015-.015.5.5 0 00-.022-.02.5.5 0 00-.015-.014.5.5 0 00-.024-.017.5.5 0 00-.01-.006l-.008-.006a.5.5 0 00-.006-.004l-6.455-4.394-4.67-9.09a.5.5 0 00-.908.043l-4.664 11.644-6.877 3.065-16.781 4.976-.028.008a.5.5 0 00-.037.012.5.5 0 00-.023.01.5.5 0 00-.016.007.5.5 0 00-.015.008.5.5 0 00-.02.012.5.5 0 00-.035.021.5.5 0 00-.008.006.5.5 0 00-.02.016.5.5 0 00-.037.035.5.5 0 00-.033.037.5.5 0 00-.023.03.5.5 0 00-.014.021.5.5 0 00-.006.008.5.5 0 00-.008.015.5.5 0 00-.016.03l-5.138 9.344 1.097-14.086a.5.5 0 00-.013-.157l-4.22-17.623a.5.5 0 00-.293-.343L70.588 9.939a.5.5 0 00-.006-.001.5.5 0 00-.096-.028.5.5 0 00-.043-.008.5.5 0 00-.006 0 .5.5 0 00-.056-.002zm.675 1.32l19.976 8.42-16.842 8.422zm-1.877.696l-4.098 9.275-8.209-.214zm1.02.166l2.874 15.438-7.062-5.96zm21.689 8.25l3.857 16.098-20.672-7.692zm38.281 3.104l3.945 7.681-7.902 2.197zM74.055 29.6l20.3 14.906-26.89 2.66zm2.949.925l18.916 7.04-.504 6.478zm57.746 1.455l4.703 3.202-11.478-1.32zm-8.332 2.71l14.574 1.675 2.707 14.018-6.48-.235zm-1.022.283l10.926 15.636-2.824 3.362-13.31-10.643.083-.137zm-1.314.216l-4.658 7.473-.13.21-15.02-.972 14.15-4.195a.5.5 0 00.06-.023zm18.35 3.348l4.95 8.104-2.775 3.166zm-39.65 4.268l15.911 1.029-5.533 8.875zm-1.216.224l10.455 9.975-16.001.113zm18.088 1.153l12.367 9.888-17.89-1.025zM95.31 45.414l-.59 7.604-24.692-5.1zm-27.93 2.977l26.8 5.537-20.61 21.217zm44.346 5.617L94.934 66.369l.71-12.25zm1.57.084l13.059 7.543-10.749 3.304a.5.5 0 00-.273.206l-10.215 15.793-10.039-13.432zm2.039.023l17.215.989-5.065 6.029zm28.033.71l2.47 2.614-.769 2.809-5.03-2.24a.5.5 0 00-.452.021l-6.563 3.729-4.425-.395 5.236-6.234zm-48.773.11l-.692 11.98-11.232.296zm32.504 7.518v7.506l-9.703 15.035-6.645 3.94-5.002-7.133 10.324-15.96zm-35.4 5.52l-16.36 6.787 6.334-6.522zm2.292.129l3.62 20.568-23.157-12.461zm1.24 1.28l9.272 12.405-5.908 6.703zm9.872 13.237l4.543 6.48H99.389zm14.695 3.293l8.174.182-2.557 2.877zm-2.037.027l5.799 3.16h-11.13zm11.281.456l2.137 2.705h-4.541z"/>
  </symbol>
  <symbol id="shiny-i18n" viewBox="0 0 200 100">
    <path d="M81.34.002a.5.5 0 00-.334.871l5.99 5.377-4.941 2.867a.5.5 0 00-.243.52h-.001l2.164 12.32-.022-.012-5.316 10.418-.016.03a.5.5 0 00-.004.007.5.5 0 00-.006.014.5.5 0 00-.015.04.5.5 0 00-.004.01l-8.426 21.454a.5.5 0 00-.016.047h-.002L66.09 68.307l-.008.025a.5.5 0 00-.004.018.5.5 0 00-.004.011.5.5 0 00-.006.03.5.5 0 00-.002.013.5.5 0 00-.002.026.5.5 0 00-.002.013l-1.06 20.815a.5.5 0 000 .025v7.932a.5.5 0 00.756.428l11.83-7.063 3.619 5.453a.5.5 0 00.271.203l12.393 3.74a.5.5 0 00.543-.779l-2.184-2.885 4.559.495 9.033 3.164a.5.5 0 00.564-.774l-2.183-2.886 8.426.908a.5.5 0 00.328-.914l-6.53-4.325a.5.5 0 00-.146-.066l-7.947-2.143 4.408-2.035a.5.5 0 00.137-.093l.023-.024 19.473-18.79a.5.5 0 00.132-.226l4.545-16.312a.5.5 0 00.016-.088l1.496-16.625a.5.5 0 00-.002-.103l-1.469-12.23a.5.5 0 00-.011-.07l-1.524-5.833-.103.027 1.62-7.672a.5.5 0 00.003-.004.5.5 0 00-.23-.58L121.5 6.064l5.773-5.191a.5.5 0 00-.334-.871h-5.048a.5.5 0 00-.192.037l-8.88 3.682-2.284-.588a.5.5 0 00-.125-.016H98.098a.5.5 0 00-.13.016l-2.386.633L86.59.039a.5.5 0 00-.192-.037zm1.306 1H86.3l7.69 3.187-6.014 1.594zm39.344 0h3.647l-5.21 4.682-6-1.547zM98.682 4.117h11.13l-4.654 26.547h-2.224zm12.125.12l1.359.349-2.582 6.633zm-13.116.005l1.194 7.455-2.739-7.045zm15.452.596l7.084 1.826-13.79 22.5 2.268-12.935zm-17.967.07l4.43 11.405.017-.006 2.074 12.96L88.6 6.653zm-7.518 2.113L97.59 24.17l-6.412-4.252-.026.039-3.175-5.555a.5.5 0 00-.086-.111l-4.764-4.64zm33.518.01l4.595 2.621-4.81 4.639a.5.5 0 00-.076.092l-3.514 5.57-6.662 4.158zm-38.114 3.953l4.08 3.975 6.53 11.426-7.004 5.127zm42.708.059l-4.33 20.486-6.971-5.103 7.228-11.457zm-.729 8.281l1.064 4.072 1.442 11.999-10.559 14.273-12.043-9.232 17.026-7.588a.5.5 0 00.287-.354zM92.203 21.8l6.516 4.318 2.117 3.658-6.123-3.586zm23.942.096l-2.704 4.287-6.187 3.566 2.308-3.766.01.016zm-31.89 1.658l1.47 8.353-5.829.188zm10.255 3.676l7.459 4.367a.5.5 0 00.11.049l1.255 7.841-12.195-5.478zm19.08.021l3.422 6.713-12.383 5.52 1.379-7.864a.5.5 0 00.04-.021zm-20.666.922L90.227 33.6l-2.922-1.313zm22.271.025l5.582 4.086-2.851 1.272zm-12.101 3.467h1.888l-.986 5.635zM85.938 32.9l3.968 14.748L79.99 33.09zm1.136.38l15.942 7.16-11.57 9.074zm-8.125 1.01l4.285 17.946-11.838 1.282zm1.233.86L90.365 50.1l-6.15 1.935zm47.228 2.112l-1.135 12.613h-8.195zm-23.433 3.693l12.388 9.494-12.12 14.1-12.362-14.106zm13.767 9.92h8.442l-.108 1.193-4.045 14.518zm-26.902.123l4.562 13.701-3.875-4.281-6.781-7.502zm26.013.416l4.48 16.422-16.138-2.863zM92.42 52.57l10.879 12.416-6.334 1.235zm-10.03.764l-14.869 13.58 3.499-12.35zm1.43.049l4.66 5.156-20.334 9.16zm5.674 6.275l1.293 1.432 5.182 5.72L79.27 87.25zm-1.068.002L77.682 88.668 67.459 69.106zm16.277 6.24l16.272 2.89-17.842 17.218zm-1.672.159l-15.01 19.289 8.948-18.11zm.588.873l-1.562 20.02-5.393 2.488a.5.5 0 00.08.937l9.2 2.482 4.75 3.145-7.536-.813a.5.5 0 00-.453.8l1.885 2.49-7.524-2.637a.5.5 0 00-.11-.026l-5.768-.625a.5.5 0 00-.454.8l1.955 2.583-10.75-3.246-3.302-4.978 6.777-.31v-.003a.5.5 0 00.371-.191zm-36.65 3.392l10.127 19.383-11.094 6.627v-7.039zm27.261.196l-9.158 18.535-6.215.287z"/>
  </symbol>
</svg>
