<svg xmlns="http://www.w3.org/2000/svg">
  <symbol id="appsilon-logo" viewBox="0 0 139 40">
    <path d="M2.91 1.884v36.284l31.44-18.14zm9.807 18.142L4.079 35.015V5.049zm.668 0zm.335.58h17.3L5.069 35.593zm0-1.157L5.083 4.46 31.03 19.45z" id="path22" display="inline" opacity=".7" fill="#fff" stroke-width=".254"/>
    <path d="M31.509 17.35a3.01 3.01 0 104.11 1.103 3.01 3.01 0 00-4.11-1.102zM2.003 34.388a3.008 3.008 0 104.111 1.103 3.008 3.008 0 00-4.11-1.103zm9.875-16.965a3.008 3.008 0 104.111 1.1 3.008 3.008 0 00-4.11-1.1zM2.052.398A3.008 3.008 0 106.15 1.5 3.008 3.008 0 002.052.398zM130.38 14.615a14.753 14.753 0 013.221-.407q2.409 0 3.625.945 1.217.945 1.217 3.11v7.66h-3.353v-6.985q0-1.958-2.208-1.958a4.857 4.857 0 00-1.016.112 3.226 3.226 0 00-.81.269v8.561H127.7V15.491a11.115 11.115 0 012.68-.876zm-14.933 10.113q-1.446-1.524-1.443-4.55 0-3.155 1.43-4.596 1.43-1.44 4.337-1.443 2.906 0 4.372 1.476 1.466 1.477 1.463 4.573 0 2.973-1.509 4.528-1.509 1.554-4.319 1.554-2.89-.01-4.331-1.542zm6.193-2.017q.633-.866.633-2.54 0-1.824-.62-2.602-.62-.777-1.882-.777c-.872 0-1.497.254-1.88.777-.384.523-.575 1.385-.575 2.602q0 1.735.597 2.568t1.858.833a2.162 2.162 0 001.87-.86zm-13.538 3.211v-15.7h3.333v15.7zm-6.666-15.543h3.467v2.59h-3.467zm.066 4.302h3.356l.023 11.241h-3.38zm-9.664 11.366a14.847 14.847 0 01-1.802-.62v-2.952a6.26 6.26 0 003.829 1.374 1.895 1.895 0 001.115-.254.838.838 0 00.348-.709.816.816 0 00-.561-.762 11.26 11.26 0 00-1.804-.538 4.263 4.263 0 01-2.15-1.083q-.845-.81-.845-2.365a3.425 3.425 0 01.676-2.185 3.91 3.91 0 011.7-1.25 5.864 5.864 0 012.13-.396 8.26 8.26 0 012.196.239 6.562 6.562 0 011.656.732v2.634a22.317 22.317 0 00-1.778-.902 3.732 3.732 0 00-1.464-.27 2.342 2.342 0 00-1.24.255.82.82 0 00-.403.732.882.882 0 00.45.823 6.54 6.54 0 001.44.528 12.878 12.878 0 011.778.574 2.942 2.942 0 011.171.97q.509.687.509 1.927-.046 1.935-1.464 2.827-1.417.892-3.605.89a7.484 7.484 0 01-1.882-.22zM86.275 15.57q1.509 1.433 1.509 4.766 0 2.68-1.352 4.303-1.351 1.624-3.696 1.621a6.097 6.097 0 01-2.86-.607V30h-3.288V16.934q0-1.377 1.524-2.073 1.525-.696 3.91-.722 2.741 0 4.253 1.43zm-2.5 7.22q.65-.762.653-2.566c0-1.082-.193-1.898-.574-2.447-.381-.548-1.042-.82-1.972-.82-1.336 0-2.007.254-2.007.762v5.363a3.049 3.049 0 00.902.36 4.446 4.446 0 00.97.113c.915.002 1.591-.252 2.028-.765zm-10.81-7.22q1.51 1.433 1.51 4.766 0 2.68-1.352 4.303-1.352 1.624-3.694 1.621a6.082 6.082 0 01-2.86-.607V30h-3.296V16.934q0-1.377 1.524-2.073 1.525-.696 3.908-.722 2.736 0 4.26 1.43zm-2.5 7.22q.653-.762.653-2.566 0-1.623-.574-2.447-.574-.823-1.971-.82-2.005 0-2.005.762v5.363a3.008 3.008 0 00.902.36 4.44 4.44 0 00.968.113c.91.002 1.585-.252 2.022-.765zm-14.039-.12h-5.61l-1.081 3.245H46.29l5.678-15.025h3.976l5.335 15.032h-3.75zm-.901-2.68l-1.916-5.678-1.893 5.678z" id="path30-3" fill="#fff" stroke-width=".254"/>
  </symbol>
  <symbol id="logo" viewBox="0 0 100 100">
    <polyline class="logo__triangle" points="88.971,27.5 50,95 11.029,27.5 88.971,27.5" />
    <polyline class="logo__outer" points="88.971,27.5 88.971,72.5 50,95" />
    <polyline class="logo__outer" points="50,95 11.029,72.5 11.029,27.5 " />
    <polyline class="logo__outer" points="11.029,27.5 50,5 88.971,27.5" />
    <polyline class="logo__inner" points="88.971,27.5 50,50" />
    <polyline class="logo__inner" points="50,95 50,50" />
    <polyline class="logo__inner" points="11.029,27.5 50,50" />
    <circle class="logo__circle" cx="88.971" cy="27.5" r="5" />
    <circle class="logo__circle" cx="11.029" cy="27.5" r="5" />
    <circle class="logo__circle" cx="50" cy="95" r="5" />
    <circle class="logo__circle" cx="50" cy="50" r="5" />
  </symbol>
  <symbol id="burger" viewBox="0 0 100 100">
    <rect x="0" y="0" width="100" height="16" />
    <rect x="0" y="42" width="100" height="16" />
    <rect x="0" y="84" width="100" height="16" />
  </symbol>
  <symbol id="hex" viewBox="0 0 100 115.47">
    <path d="M100 28.867v57.735L50 115.47 0 86.602V28.867L50 0z"/>
  </symbol>
  <symbol id="star" viewBox="0 0 100 100">
    <path d="M50 7.796L60.467 40.25l34.1-.075L66.934 60.16l10.609 32.407L50 72.463 22.456 92.566 33.065 60.16 5.434 40.175l34.1.075z"/>
  </symbol>
  <symbol id="github" viewBox="0 0 100 100">
    <path d="M50 .967c-27.625 0-50 22.375-50 50 0 22.125 14.313 40.812 34.188 47.437 2.5.438 3.437-1.062 3.437-2.375 0-1.187-.063-5.125-.063-9.312C25 89.029 21.75 83.654 20.75 80.842c-.563-1.438-3-5.875-5.125-7.063-1.75-.937-4.25-3.25-.063-3.312 3.938-.063 6.75 3.625 7.688 5.125 4.5 7.562 11.688 5.437 14.563 4.125.437-3.25 1.75-5.438 3.187-6.688-11.125-1.25-22.75-5.562-22.75-24.687 0-5.438 1.938-9.938 5.125-13.438-.5-1.25-2.25-6.375.5-13.25 0 0 4.188-1.312 13.75 5.125 4-1.125 8.25-1.687 12.5-1.687s8.5.562 12.5 1.687c9.563-6.5 13.75-5.125 13.75-5.125 2.75 6.875 1 12 .5 13.25C80.063 38.404 82 42.842 82 48.342c0 19.187-11.688 23.437-22.813 24.687 1.813 1.563 3.376 4.563 3.376 9.25 0 6.688-.063 12.063-.063 13.75 0 1.313.938 2.875 3.438 2.375C85.688 91.78 100 73.03 100 50.967c0-27.625-22.375-50-50-50z"/>
  </symbol>
  <symbol id="linkedin" viewBox="0 0 100 100">
    <path d="M50 0C22.376 0 0 22.406 0 50c0 27.624 22.406 50 50 50 27.624 0 50-22.406 50-50 0-27.624-22.406-50-50-50zM30.564 25.225a5.588 5.588 0 015.579 5.58c0 3.06-2.49 5.578-5.58 5.578-3.06 0-5.579-2.49-5.579-5.58 0-3.06 2.491-5.578 5.58-5.578zm-5.548 14.847h11.127v33.383H25.016zm18.505 0h10.29v5.248h.15c1.44-2.58 4.919-5.248 10.137-5.248 10.828 0 12.838 6.748 12.838 15.506v17.877h-10.71V57.617c0-3.779-.09-8.637-5.58-8.637-5.578 0-6.417 4.11-6.417 8.37v16.105H43.52z"/>
  </symbol>
  <symbol id="twitter" viewBox="0 0 100 100">
    <path d="M50 0c27.594 0 50 22.376 50 50 0 27.594-22.376 50-50 50-27.594 0-50-22.376-50-50C0 22.406 22.376 0 50 0zm26.995 33.233c-1.98.9-4.11 1.47-6.36 1.74 2.28-1.38 4.05-3.54 4.86-6.119a22.89 22.89 0 01-7.019 2.7 11.043 11.043 0 00-8.098-3.48A11.06 11.06 0 0049.31 39.142c0 .87.09 1.71.27 2.52a31.43 31.43 0 01-22.825-11.578c-.99 1.68-1.5 3.6-1.5 5.579 0 3.84 1.95 7.228 4.919 9.208-1.83-.06-3.51-.57-5.009-1.38v.15c0 5.37 3.81 9.838 8.878 10.858-.93.24-1.92.39-2.91.39-.72 0-1.409-.06-2.099-.21a11.12 11.12 0 0010.348 7.709c-3.81 2.969-8.548 4.739-13.767 4.739-.9 0-1.77-.06-2.64-.15a31.373 31.373 0 0016.977 4.979c20.366 0 31.524-16.887 31.524-31.524 0-.48 0-.96-.03-1.44 2.16-1.56 4.049-3.51 5.519-5.729z"/>
  </symbol>
  <symbol id="rstudio" viewBox="0 0 200 72">
    <path d="M168.587 39.9v11.315h4.14V28.586h-4.14zm-52.217-3.845c.023 8.088.011 7.832.329 9.318.833 3.84 3.3 6.131 6.845 6.341 3.261.198 6.069-1.134 7.821-3.715.176-.26.33-.46.34-.448.018.017.244 3.267.244 3.533v.13h3.681l-.028-.555a6.171 6.171 0 00-.063-.663c-.022-.063-.05-4.9-.068-10.748l-.034-10.634-2.053-.017-2.058-.011V35.6c0 7.027-.017 7.64-.205 8.383-.119.47-.64 1.508-.98 1.962-1.305 1.713-3.33 2.592-5.366 2.325-2.524-.334-3.925-2.228-4.225-5.733-.034-.386-.057-3.386-.057-7.305v-6.647h-4.146zm71.2-7.832c-3.199.385-5.944 2.064-7.708 4.713-1.843 2.762-2.461 7.004-1.548 10.628 1.123 4.452 4.407 7.452 8.853 8.076.71.102 2.32.12 3 .029a11.675 11.675 0 003.885-1.174c1.106-.556 1.747-1.027 2.666-1.946.885-.884 1.372-1.537 1.894-2.552.618-1.202 1.032-2.501 1.254-3.942.147-.935.181-3.022.062-4.02-.323-2.802-1.361-5.094-3.097-6.846-.743-.749-1.145-1.066-1.968-1.56-2.013-1.214-4.662-1.724-7.293-1.406zm3.096 3.215c2.456.647 4.237 2.859 4.89 6.075.691 3.414-.143 6.976-2.128 9.12-1.593 1.723-3.964 2.404-6.159 1.769-2.36-.68-4.106-2.728-4.815-5.655-.47-1.928-.403-4.35.176-6.278.232-.766.737-1.843 1.157-2.473.386-.578 1.22-1.406 1.747-1.752 1.162-.749 2.12-1.004 3.64-.97.778.017 1.027.045 1.492.164zm-86.365-7.758c-.84.26-1.719.527-1.94.595l-.414.125v4.186l-1.74.011-1.748.017v3.12l1.741.016 1.742.012.022 6.936c.023 7.526.017 7.361.346 8.734.295 1.236.72 2.042 1.446 2.762.568.556 1.118.896 1.929 1.174.771.272 1.367.363 2.399.363 1.202 0 2.212-.13 3.153-.408.38-.114.408-.136.408-.284 0-.238-.17-2.966-.187-2.983a1.813 1.813 0 00-.323.068c-.391.102-1.35.198-1.923.198-1.877 0-2.83-.907-3.125-2.977-.034-.244-.056-2.91-.056-6.993v-6.59H111.872v-3.176H106.031v-2.694c0-2.53-.006-2.694-.097-2.689-.056.006-.788.222-1.633.477zm65.59-3.89c-.487.158-.76.317-1.077.634-.675.692-.902 1.77-.573 2.728.488 1.413 2.082 2.03 3.562 1.373.329-.142.811-.567 1.015-.885.471-.737.488-1.894.051-2.705-.312-.573-.935-1.05-1.565-1.191-.386-.091-1.06-.068-1.412.045zm-83.172-.551c-4.412.204-7.843 2.495-8.99 5.995-.68 2.093-.453 4.565.58 6.33 1.196 2.035 3.385 3.646 6.709 4.933 1.395.54 2.178.874 2.824 1.203 2.598 1.327 3.726 2.892 3.726 5.178 0 .788-.068 1.242-.278 1.854-.527 1.532-1.854 2.711-3.635 3.227-.896.261-1.469.33-2.722.33-1.242-.006-1.872-.074-3.04-.335-1.23-.278-2.825-.902-3.772-1.475-.187-.119-.351-.204-.357-.193-.034.04-1.055 3.301-1.055 3.37 0 .164 1.475.861 2.57 1.213 1.86.595 3.578.862 5.54.862 3.67-.006 6.42-.975 8.428-2.983 1.225-1.22 1.911-2.507 2.303-4.3.17-.782.187-2.773.028-3.612a7.676 7.676 0 00-2.217-4.168c-1.282-1.26-2.899-2.207-5.678-3.318-1.554-.619-3.028-1.333-3.771-1.82a7.512 7.512 0 01-1.078-.897c-.771-.783-1.106-1.4-1.276-2.354-.425-2.461.857-4.525 3.324-5.325 1.542-.505 3.788-.477 5.892.08.698.186 1.696.572 2.224.861.175.097.334.165.346.153.01-.017.266-.76.567-1.661l.544-1.628-.125-.085c-.26-.17-1.032-.494-1.673-.709-1.735-.573-3.805-.828-5.938-.726zm70.911 5.547l-.017 6.754-.306-.43c-.647-.902-1.725-1.759-2.808-2.235-1.055-.46-2.059-.68-3.357-.726-3.415-.13-6.471 1.469-8.445 4.412-1.05 1.56-1.82 3.857-2.02 6.018-.084.958-.039 3.113.092 3.93.272 1.77.879 3.46 1.701 4.764.442.71.715 1.05 1.304 1.668 1.39 1.446 3.063 2.342 5.014 2.677 1.151.198 2.836.136 3.92-.148 2.222-.573 4.026-1.928 5.07-3.8.118-.204.232-.368.26-.368.034 0 .057.096.057.21 0 .119.04.94.085 1.831.045.89.085 1.673.085 1.741v.13H161.963l-.034-.356c-.119-1.248-.147-4.424-.147-17.95V18.036h-4.14zm-5.337 6.635a5.974 5.974 0 013.624 1.798c.845.868 1.492 2.19 1.668 3.42.028.204.056 1.634.056 3.182 0 3.051-.022 3.335-.317 4.22-.811 2.438-2.927 4.151-5.337 4.332-2.995.222-5.326-1.298-6.488-4.225-.239-.607-.482-1.576-.596-2.382-.108-.794-.125-2.512-.028-3.284.397-3.125 1.775-5.416 3.89-6.465a6.305 6.305 0 013.528-.596zM33.89 21.27c-.68.046-1.94.154-3.09.273l-.398.04-.017 5.563-.011 5.57 1.174.04c2.473.09 4.554-.04 5.887-.375 2.257-.562 3.737-1.582 4.475-3.08.43-.867.516-1.299.51-2.53 0-.946-.017-1.105-.153-1.604-.567-2.116-2.07-3.346-4.662-3.817-.612-.108-2.58-.153-3.715-.08zM33.294.74c-5.07.3-10.005 1.639-14.292 3.879C10.93 8.838 4.834 15.893 1.908 24.41-1.02 32.92-.565 42.21 3.178 50.478c2.427 5.365 6.437 10.254 11.332 13.827 9.75 7.106 22.606 8.677 33.847 4.129 4.441-1.793 8.417-4.464 11.854-7.952a34.24 34.24 0 004.452-5.524c3.08-4.736 4.917-10.05 5.507-15.937.142-1.406.142-4.951 0-6.352-.613-6.046-2.496-11.394-5.728-16.249-5.57-8.37-14.389-13.946-24.314-15.364-2.076-.3-4.912-.43-6.834-.317zm-7.628 18.058c.947.107 2.807.124 3.8.034.357-.034 1.457-.148 2.438-.256 3.097-.34 4.18-.368 5.899-.164 3.43.408 6.062 2.002 7.26 4.39.345.692.589 1.452.708 2.24.136.856.09 2.643-.08 3.443a8.09 8.09 0 01-3.238 4.934c-.68.482-2.002 1.151-2.79 1.406-.335.108-.607.221-.607.255 0 .029 1.82 2.734 4.044 6.012l4.044 5.955 1.905.017 1.911.012v2.949h-5.784l-4.821-7.231-4.821-7.231h-5.161v11.513h5.048v2.949H22.773v-2.949h4.367V34.342c0-7.004-.006-12.732-.011-12.738-.011 0-.987-.125-2.172-.272l-2.156-.267-.017-1.39-.01-1.389 1.037.21c.567.113 1.407.25 1.855.3z"/>
  </symbol>
</svg>
