<svg xmlns="http://www.w3.org/2000/svg" viewBox="0 0 100 29" style="fill: #fff;">
  <path d="M94.154 4c.87-.195 1.649-.293 2.335-.293 1.165 0 2.042.229 2.63.686.587.457.881 1.208.881 2.253V12.2h-2.433V7.137c0-.948-.534-1.421-1.6-1.421-.24 0-.485.027-.736.082-.25.054-.446.12-.588.196v6.205H92.21V4.638c.425-.229 1.072-.441 1.944-.637zm-10.827 7.333c-.697-.74-1.045-1.84-1.045-3.299 0-1.524.345-2.634 1.037-3.331.691-.696 1.739-1.045 3.143-1.045 1.405 0 2.46.357 3.169 1.07.707.713 1.06 1.816 1.06 3.307 0 1.437-.364 2.531-1.093 3.282-.73.752-1.775 1.127-3.136 1.127-1.394 0-2.439-.37-3.135-1.11zm4.49-1.461c.305-.42.458-1.031.458-1.837 0-.882-.15-1.51-.45-1.886-.299-.376-.753-.564-1.363-.564-.632 0-1.086.188-1.364.564-.278.375-.416 1.004-.416 1.886 0 .838.144 1.459.433 1.862.288.403.737.604 1.347.604.599 0 1.05-.21 1.356-.63zm-9.814 2.327V.817h2.417v11.382h-2.417zM73.169.931h2.515V2.81H73.17zm.05 3.12h2.432l.017 8.148h-2.45zm-7.007 8.238a10.703 10.703 0 01-1.306-.449V9.7c.882.665 1.807.997 2.776.997.37 0 .64-.063.808-.188a.606.606 0 00.253-.515c0-.25-.136-.435-.408-.555-.273-.12-.708-.25-1.307-.392-.631-.13-1.151-.392-1.56-.784-.408-.392-.612-.964-.612-1.714 0-.642.163-1.17.49-1.584a2.843 2.843 0 011.233-.907 4.27 4.27 0 011.544-.285c.653 0 1.184.057 1.592.171.408.115.808.292 1.2.53v1.912a16.133 16.133 0 00-1.29-.654 2.684 2.684 0 00-1.062-.195c-.402 0-.702.062-.897.187a.595.595 0 00-.295.531c0 .272.11.471.327.596.218.126.566.253 1.045.384.545.142.974.28 1.29.416.316.136.599.37.85.702.25.332.375.798.375 1.396-.022.937-.375 1.62-1.061 2.05-.686.43-1.557.645-2.613.645-.523 0-.98-.052-1.372-.155zm-4.034-7.594c.73.692 1.095 1.843 1.095 3.454 0 1.296-.327 2.335-.98 3.12-.653.783-1.547 1.175-2.679 1.175-.827 0-1.518-.147-2.074-.441v3.151h-2.384v-9.47c0-.665.367-1.166 1.102-1.504.735-.337 1.68-.511 2.834-.522 1.328 0 2.357.346 3.086 1.037zm-1.812 5.234c.315-.37.473-.99.473-1.862 0-.784-.139-1.374-.416-1.772-.278-.397-.754-.596-1.429-.596-.969 0-1.454.186-1.454.555v3.887c.196.12.414.207.654.261.24.055.473.082.702.082.664 0 1.154-.184 1.47-.555zm-7.84-5.234c.73.692 1.095 1.843 1.095 3.454 0 1.296-.326 2.335-.98 3.12-.653.783-1.546 1.175-2.678 1.175-.828 0-1.519-.147-2.074-.441v3.151h-2.385v-9.47c0-.665.368-1.166 1.103-1.504.735-.337 1.679-.511 2.833-.522 1.329 0 2.357.346 3.087 1.037zm-1.812 5.234c.316-.37.474-.99.474-1.862 0-.784-.14-1.374-.416-1.772-.278-.397-.755-.596-1.43-.596-.968 0-1.452.186-1.452.555v3.887c.195.12.413.207.653.261.24.055.473.082.702.082.663 0 1.154-.184 1.47-.555zM40.54 9.847h-4.066L35.69 12.2h-2.498l4.115-10.892h2.89l3.854 10.892h-2.71zm-.653-1.943L38.5 3.79l-1.372 4.115zM96.05 20.731h3.91v.632h-3.242v2.136h2.851v.65h-2.85v2.145h3.24v.631h-3.91zm-6.078 5.47c-.48-.532-.72-1.325-.72-2.377 0-1.053.24-1.845.72-2.378.48-.532 1.196-.798 2.15-.798.63 0 1.26.152 1.885.455v.64a3.81 3.81 0 00-1.811-.463c-.78 0-1.35.203-1.709.612s-.539 1.053-.539 1.932c0 .885.178 1.53.534 1.936.356.406.928.608 1.714.608.656 0 1.26-.151 1.81-.455v.64c-.631.298-1.26.446-1.885.446-.953 0-1.67-.265-2.149-.798zm-2.763-5.47v6.194h-.752l-3.705-5.219v5.219h-.669v-6.194h.762l3.695 5.22v-5.22zm-11.264 0h3.91v.632h-3.241v2.136h2.85v.65h-2.85v2.145h3.24v.631h-3.909zm-2.99 0h.668v6.194h-.668zm-6.264 5.47c-.48-.532-.72-1.325-.72-2.377 0-1.053.24-1.845.72-2.378.48-.532 1.197-.798 2.15-.798.632 0 1.26.152 1.885.455v.64a3.807 3.807 0 00-1.811-.463c-.78 0-1.35.203-1.709.612s-.538 1.053-.538 1.932c0 .885.178 1.53.534 1.936.356.406.926.608 1.713.608.656 0 1.26-.151 1.81-.455v.64c-.63.298-1.259.446-1.884.446-.953 0-1.67-.265-2.15-.798zm-5.419.696a5.654 5.654 0 01-.919-.408v-.725c.223.186.503.34.84.46.338.12.714.181 1.129.181.452 0 .79-.096 1.012-.288.223-.192.335-.452.335-.78a.91.91 0 00-.196-.6 1.415 1.415 0 00-.464-.37 9.453 9.453 0 00-.808-.34 6.69 6.69 0 01-.915-.37 1.625 1.625 0 01-.58-.52c-.16-.23-.242-.533-.242-.91a1.515 1.515 0 01.804-1.347c.281-.161.645-.242 1.091-.242.328 0 .596.031.803.093.207.062.481.177.822.344v.687l-.348-.2a2.249 2.249 0 00-.585-.237 2.735 2.735 0 00-.655-.074c-.427 0-.743.088-.947.265a.84.84 0 00-.307.664c0 .241.054.436.162.585.109.148.254.269.437.362.182.093.441.195.775.307.384.13.698.259.943.385.244.127.453.308.626.544.174.235.26.535.26.9 0 .49-.162.904-.486 1.245-.325.34-.847.51-1.565.51-.427 0-.768-.04-1.022-.12zm-6.044-1.903h-2.675l-.743 1.931h-.725l2.471-6.194h.669l2.46 6.194h-.715zm-.251-.641L53.89 21.52l-1.086 2.833zm-7.3-2.99h-2.191v-.632h5.042v.632h-2.182v5.562h-.669v-5.562zm-4.206 3.63h-2.675l-.742 1.932h-.725l2.47-6.194h.67l2.46 6.194h-.715zm-.25-.64l-1.087-2.833-1.086 2.833zm-9.854-3.622h1.941c.966 0 1.692.259 2.178.775.486.518.729 1.29.729 2.318 0 2.067-.97 3.101-2.907 3.101h-1.941v-6.194zm1.895 5.563c.786 0 1.36-.198 1.722-.595.363-.396.544-1.021.544-1.875 0-.855-.181-1.48-.544-1.877-.362-.396-.936-.594-1.722-.594h-1.226v4.94z"/>
  <path d="M9.339 14.102h14.35v.84H9.338zm-.362.209l.727.42-7.176 12.424-.727-.42zM1.804 2.305l.727-.42 7.167 12.427-.727.42zm22.724 12.217L1.746 27.675V1.37zM2.585 26.221L22.85 14.522 2.586 2.823z"/>
  <path d="M22.478 12.582a2.183 2.183 0 00-.796 2.979 2.183 2.183 0 002.977.799 2.184 2.184 0 00.8-2.98 2.184 2.184 0 00-2.98-.798zm-21.39 12.35a2.182 2.182 0 00-.796 2.978 2.183 2.183 0 002.978.799 2.183 2.183 0 00.798-2.979 2.184 2.184 0 00-2.98-.799zm7.16-12.3a2.184 2.184 0 00-.797 2.98 2.183 2.183 0 002.977.798 2.183 2.183 0 00.8-2.979 2.184 2.184 0 00-2.98-.799zM1.123.292A2.183 2.183 0 00.326 3.27c.601 1.04 1.937 1.4 2.978.8a2.184 2.184 0 00.798-2.98 2.185 2.185 0 00-2.98-.799z"/>
</svg>
