<?xml version="1.0" encoding="UTF-8" standalone="no"?>
<svg
   width="170"
   height="100"
   viewBox="0 0 170 100"
   version="1.1"
   xml:space="preserve"
   style="clip-rule:evenodd;fill-rule:evenodd;stroke-linejoin:round;stroke-miterlimit:2"
   id="svg12"
   sodipodi:docname="data-validator.svg"
   inkscape:version="1.1.2 (0a00cf5339, 2022-02-04)"
   xmlns:inkscape="http://www.inkscape.org/namespaces/inkscape"
   xmlns:sodipodi="http://sodipodi.sourceforge.net/DTD/sodipodi-0.dtd"
   xmlns="http://www.w3.org/2000/svg"
   xmlns:svg="http://www.w3.org/2000/svg"
   xmlns:serif="http://www.serif.com/"><defs
   id="defs16" /><sodipodi:namedview
   id="namedview14"
   pagecolor="#ff00ff"
   bordercolor="#666666"
   borderopacity="1.0"
   inkscape:pageshadow="2"
   inkscape:pageopacity="0"
   inkscape:pagecheckerboard="0"
   showgrid="false"
   inkscape:zoom="2.3512397"
   inkscape:cx="199.6819"
   inkscape:cy="149.0703"
   inkscape:window-width="2116"
   inkscape:window-height="1364"
   inkscape:window-x="6"
   inkscape:window-y="34"
   inkscape:window-maximized="1"
   inkscape:current-layer="svg12" />
    <g
   transform="matrix(0.18181656,0,0,0.18181656,-14158.972,-670.60477)"
   id="g10">
        <g
   transform="matrix(1.1631,0,0,0.543862,-6915.56,-4451.61)"
   id="g8">
            <rect
   id="data_validator"
   x="72983.5"
   y="15175.5"
   width="624.17297"
   height="624.17297"
   style="fill:none" />
            <g
   id="data_validator1"
   serif:id="data_validator">
                <g
   transform="matrix(0.859774,0,0,1.8387,5945.81,8185.19)"
   id="g5">
                    <path
   d="m 78045.1,4094.72 -60.4,16.19 -1.6,-6.03 59.3,-15.89 30.3,-52.61 0.3,0.15 c -15.4,-49.92 8.5,-95.95 45.7,-120.65 11.3,-7.52 23.8,-13.06 36.8,-16.12 l 22.4,-22.38 -0.4,-0.34 4.5,-4.42 0.3,0.34 0.3,-0.28 4.4,4.42 -0.3,0.28 27.1,27.06 57.5,28.22 73.4,-19.68 25.8,-25.72 -0.2,-0.4 0.8,-0.19 0.2,-0.3 0.2,0.17 35,-9.37 0.3,-0.53 0.5,0.3 0.9,-0.23 0.2,0.86 37.2,21.46 12.3,-21.33 -0.2,-0.87 0.9,-0.23 0.6,-1.05 1,0.61 49.2,-13.18 0.6,-1.01 1,0.58 0.9,-0.23 0.2,0.87 36.8,21.24 28,-48.56 -0.3,-1.26 1.3,-0.34 0.2,-0.43 0.4,0.25 49.8,-13.33 0.5,-0.94 0.9,0.55 0.8,-0.2 0.2,0.73 15.5,8.98 -3.1,5.41 -14.2,-8.22 -46.9,12.57 -27.7,47.92 10.1,5.84 40.4,-40.39 v -0.97 h 1 l 0.6,-0.55 0.5,0.55 h 42.8 v 0.7 l 30.1,8.06 -1.6,6.04 -30.7,-8.22 0.1,-0.33 h -39.2 l -38.4,38.35 4.6,2.62 0.1,-0.04 v 0.12 l 0.2,0.09 -0.1,0.1 30.9,53.44 0.3,0.06 -0.1,0.23 0.1,0.25 -0.2,0.14 -8.6,31.93 -6,-1.62 0.1,-0.38 -0.1,0.07 -12.8,-22.09 -56.7,-15.19 -37.4,4.37 31,54.62 0.1,-0.01 9.2,34.33 h 37.8 v 6.25 h -41.2 l -1.3,0.37 -0.1,-0.37 h -0.5 v -1.85 l -6.8,-25.27 -63.9,-63.91 -12.5,1.45 43.6,76.47 0.1,-0.04 19.9,74.3 37.1,9.95 -1.6,6.04 -38,-10.19 -2.2,0.59 -0.4,-1.28 -1,-0.28 0.5,-1.78 -17.5,-65.22 -64.8,-64.73 -40.5,40.94 -0.2,-0.22 v 0.61 h -6.3 v -29.73 l -32.9,33.28 v 0.08 l -0.1,0.04 -0.2,0.14 -0.1,-0.08 -27.3,7.31 -0.3,0.32 -0.2,-0.18 -0.3,0.1 -0.2,-0.66 -10.2,-10.15 -18.9,70.48 0.6,1.04 -1,0.59 -0.2,0.65 -0.6,-0.18 -37.9,21.87 -3.1,-5.41 35.5,-20.5 v -85.22 l -18.2,4.87 -46.3,46.33 v 0.24 l -0.4,0.1 -0.4,0.42 -0.2,-0.24 -14.4,3.84 -0.4,0.4 -0.2,-0.23 -56,15.01 -0.5,0.78 -0.8,-0.45 -1.2,0.32 -0.3,-1.2 -26.2,-15.12 1,1.71 -54.4,31.44 v 0.29 l -1,0.29 -0.3,0.15 v -0.07 l -0.7,0.18 -0.5,0.86 z m 30.5,-50.77 -23.1,40.04 45.2,-26.09 -15.5,-8.92 -0.3,0.07 v -0.25 l -4.8,-2.78 -0.6,0.23 c -0.1,-0.24 -0.2,-0.49 -0.3,-0.73 l -0.6,-0.37 0.3,-0.5 c -0.1,-0.23 -0.2,-0.47 -0.3,-0.7 z m 90.7,-146.15 c 11.2,-1.41 22.5,-0.98 33.6,1.6 l -17.6,-17.6 z m 93.1,36 c -18.8,-9.25 -53.3,-26.16 -53.3,-26.16 -2.5,-0.85 -5.1,-1.58 -7.7,-2.18 l 55.7,96.47 -1.5,0.86 21.1,-5.66 1.7,-1.65 0.8,0.82 z m -69.1,-29.79 c -23.7,-3.13 -48,3.64 -68.2,17.08 -36.6,24.33 -59.6,70.6 -40.9,120.11 l 1.9,1.07 69.9,-18.74 67.4,-67.39 z m 150.4,16.51 -64.6,17.32 52,29.65 z m 31.5,-26.12 -23.3,23.28 0.1,0.61 -1.3,0.36 -10.9,40.68 69.5,-18.63 0.1,0.22 16.9,-17.02 z m 34.3,-10.75 -27.6,7.4 48.9,28.26 14.7,-14.85 z m 44.5,18.51 66.2,38.2 -0.2,0.27 4.6,-0.53 v -0.22 l 0.6,0.14 0.5,-0.06 0.1,0.22 0.3,0.1 27.5,-47.63 -40.5,-23.39 -47.4,12.71 z m 56.1,39.62 -36.4,-21.06 -28.3,28.61 z m -42,-24.29 -19.8,-11.4 2.2,2.18 -76.4,77.2 v 26.99 z m 105,-13.57 -14,-8.14 -26.7,46.17 44.6,11.96 -8.8,-15.23 5.4,-3.12 22.9,39.67 5.7,-21.08 z m -92.5,47.6 -21.1,2.45 52,51.96 z m -6.2,79.37 -40.1,-70.39 -15.1,15.23 z m -142.9,-11.31 69.5,-70.17 -63.1,16.89 -1.1,4.39 v 0.04 l -0.1,0.25 -13.6,50.86 z m -22.9,6.14 7.5,-2.01 13.4,-49.98 -58.9,-33.54 17.4,64.95 z m -17.7,-8.84 -13.5,-13.48 -0.8,0.22 v 66.57 z m -41.1,-12.53 1.3,-0.35 -24.4,-42.26 -63.7,63.61 28.8,28.71 10.5,-2.82 46.1,-46.13 -0.1,-0.37 0.6,-0.17 0.6,-0.51 z m -116.3,65.31 51.3,-13.73 -26.5,-26.53 -64.6,17.29 z"
   style="fill:#ffffff"
   id="path3" />
                </g>
            </g>
        </g>
    </g>
</svg>
