<?xml version="1.0" encoding="UTF-8" standalone="no"?><!DOCTYPE svg PUBLIC "-//W3C//DTD SVG 1.1//EN" "http://www.w3.org/Graphics/SVG/1.1/DTD/svg11.dtd"><svg width="100%" height="100%" viewBox="0 0 790 465" version="1.1" xmlns="http://www.w3.org/2000/svg" xmlns:xlink="http://www.w3.org/1999/xlink" xml:space="preserve" xmlns:serif="http://www.serif.com/" style="fill-rule:evenodd;clip-rule:evenodd;stroke-linejoin:round;stroke-miterlimit:2;"><rect id="data_validator" x="0.342" y="0.099" width="788.726" height="463.956" style="fill:none;"/><clipPath id="_clip1"><rect x="0.342" y="0.099" width="788.726" height="463.956"/></clipPath><g clip-path="url(#_clip1)"><rect id="retreat-logo" serif:id="retreat logo" x="0.342" y="364.055" width="519.685" height="519.685" style="fill:none;"/><path d="M277.257,173.41l-21.32,-20.252l-11.983,11.188l-1.994,6.499l35.297,2.565Z" style="fill:#2a3a5b;"/><path d="M646.723,247.866l7.201,-22.668l-28.946,-50.574l-58.295,-37.35l-47.46,14.823l-11.244,22.527l-40.244,-23.068l-29.11,8.024l-28.665,27.401l-65.487,17.23l-65.89,-29.587c-0,0 -42.064,-10.093 -68.18,8.056c-26.116,18.15 -42.639,36.959 -49.44,53.063c-6.802,16.104 -6.229,55.842 -5.712,63.496c0.518,7.653 -26.46,49.991 -26.46,49.991l50.013,-23.856l30.109,9.947l64.423,-14.209l46.511,-51.021l18.922,-0l-1.345,68.357l23.286,-53.936l11.23,8.067l24.01,-4.202l35.637,-34.643l1.177,24.279l41.813,-32.607l54.401,48.685l-33.907,-68.543l16.913,-4.116l49.734,48.659l-21.247,-49.602l40.751,-8.253l45.703,12.621l19.798,23.009Z" style="fill:#678abf;"/><path d="M263.951,178.355c-72.772,3.764 -115.875,59.075 -99.529,129.952c0,0 -36.241,-54.393 20.346,-110.981c24.909,-24.909 79.183,-18.971 79.183,-18.971Z" style="fill:#fff;"/><path d="M445.324,172.162l-37.824,30.466l6.115,-15.603l21.384,-22.679l10.325,7.816" style="fill:#fff;"/><path d="M579.48,149.241l-66.12,15.105l8.595,-14.464l45.117,-7.912l12.408,7.271Z" style="fill:#fff;"/><path d="M624.16,206.098l-33.85,-8.772l-8.665,18.699l49.231,6.49l-6.716,-16.417Z" style="fill-opacity:0.22;"/><path d="M155.078,307.913l27.691,12.842l-54.86,32.229l27.169,-45.071Z" style="fill:#3a507e;"/><path d="M323.396,270.091l-29.021,-42.713l-63.72,66.713l-65.79,16.441l43.218,23.333l60.079,-13.729l55.234,-50.045Z" style="fill:#3a507e;"/><path d="M182.769,322.637l64.809,-12.31l65.526,-51.787l10.292,12.642l-52.794,51.455l-68.701,11.228c0,0 -19.132,-11.228 -19.132,-11.228Z" style="fill-opacity:0.26;"/><path d="M465.363,217.343l-69.913,69.189l-25.958,7.559l-22.862,-24l-12.039,-65.308l56.767,36.092l10.946,-10.641l63.059,-12.891Z" style="fill:#3a507e;"/><path d="M346.75,249.308l41.502,18.872l65.575,-45.665l-56.278,65.245l-28.687,4.305l-16.311,-19.776l-5.801,-22.981Z" style="fill-opacity:0.28;"/><path d="M568.507,214.265l-40.159,-26.605l-57.865,60.889l9.4,2.725l46.606,42.817l-30.79,-66.186l11.781,-6.72l13.093,11.024l39.382,37.882l-17.004,-48.528l25.556,-7.298Z" style="fill:#3a507e;"/><path d="M129.761,357.33l-58.843,15.766l-2.51,-9.368l55.162,-14.78l27.844,-48.227c-14.223,-47.701 8.709,-91.594 44.208,-115.212c10.963,-7.294 23.118,-12.641 35.736,-15.576l25.538,-25.538l0.028,0.027l0.124,-0.124l30.142,30.142l54.115,26.548l67.79,-18.164l24.671,-24.671l-0.027,-0.1l35.715,-9.57l0.064,0.239l0.071,-0.123l34.948,20.177l11.617,-20.123l-0.015,-0.056l0.057,-0.015l0.178,-0.309l0.309,0.178l50.086,-13.42l0.154,-0.267l0.267,0.154l0.062,-0.017l0.016,0.062l34.709,20.039l26.452,-45.816l-0.114,-0.425l50.576,-13.552l0.119,-0.207l16.432,9.487l-4.849,8.4l-12.747,-7.359l-42.715,11.445l-24.754,42.877l6.645,3.836l38.418,-38.418l-0,-0.131l42.369,-0l0,0.591l28.882,7.739l-2.511,9.368l-28.934,-7.753l0.067,-0.247l-35.725,0l-33.871,33.871l1.46,0.843l0.239,-0.138l0.239,0.415l0.486,0.28l-0.162,0.28l30.244,52.384l0.124,0.034l-0.033,0.124l0.186,0.322l-0.322,0.186l-8.058,30.072l-9.368,-2.51l0.065,-0.243l-10.702,-18.536l-53.209,-14.258l-32.048,3.736l28.477,49.324l-0.422,0.243l7.923,29.568l33.018,0l-0,9.699l-39.412,-0l-0.978,0.262l-0.07,-0.262l-0.216,-0l-0,-0.808l-6.531,-24.374l-59.281,-59.281l-7.954,0.927l40.359,69.904l-0.421,0.243l1.97,7.353l0.428,0.428l-0.247,0.247l16.324,60.923l33.97,9.102l-2.51,9.368l-39.074,-10.47l-0.264,0.071l-17.322,-64.648l-59.372,-59.372l-36.427,36.426l-0,0.346l-9.699,-0l0,-24.22l-28.413,28.413l-0.383,-0.383l0.105,0.393l-27.813,7.453l-0.404,0.404l-7.946,-7.945l-17.456,65.15l0.168,0.292l-37.478,21.638l-4.85,-8.399l32.544,-18.789l0,-76.827l-14.286,3.828l-44.064,44.064l-0.106,-0.106l0.027,0.102l-69.79,18.7l-0.035,0.061l-0.06,-0.035l-0.377,0.101l-0.101,-0.377l-23.534,-13.587l-51.789,29.9l0.056,0.211l-0.785,0.21l-0.023,0.013l-0.004,-0.006l-0.369,0.099l-0.073,0.127l-0.127,-0.073Zm26.604,-45.787l-16.812,29.118l33.623,-19.412l-16.811,-9.706Zm90.327,-143.948c6.906,-0.499 13.861,-0.251 20.753,0.816l-10.784,-10.784l-9.969,9.968Zm16.665,10.47c-21.601,-2.64 -43.721,3.632 -62.125,15.877c-33.645,22.384 -54.957,64.887 -37.914,110.416l0.186,0.108l64.73,-17.345l62.184,-62.185l-27.061,-46.871Zm64.71,27.711c-17.875,-8.769 -49.562,-24.315 -49.567,-24.317c-0.806,-0.267 -1.613,-0.52 -2.423,-0.759l49.6,85.909l17.438,-4.672l-15.048,-56.161Zm75.541,-11.441l-53.408,14.311l42.932,24.786l10.476,-39.097Zm32.646,-24.953l-21.702,21.701l0.08,0.298l-0.207,0.056l-9.146,34.134l61.826,-16.567l13.828,-13.827l-44.679,-25.795Zm31.785,-10.479l-20.858,5.589l40.851,23.585l11.178,-11.178l-31.171,-17.996Zm44.897,14.722l60.57,34.97l3.915,-0.456l0.028,-0.048l0.005,-0.022l0.006,0.002l24.26,-42.018l-35.9,-20.727l-43.234,11.584l-9.65,16.715Zm44.432,36.852l-28.178,-16.269l-22.134,22.134l50.312,-5.865Zm-36.874,-21.289l-12.588,-7.268l-71.08,71.079l-0,19.857l83.668,-83.668Zm100.061,-12.261l-10.436,-6.025l-22.96,39.768l36.098,9.672l-6.921,-11.987l8.399,-4.85l19.632,34.003l3.539,-13.208l-27.351,-47.373Zm-86.19,45.996l-14.715,1.715l37.161,37.161l-22.446,-38.876Zm-12.83,61.79l-30.325,-52.525l-11.099,11.1l41.424,41.425Zm-127.753,-2.385l59.607,-59.608l-51.008,13.668l-0.554,2.065l0.007,0.003l-0.015,0.026l-12.035,44.917l3.998,-1.071Zm-20.898,5.599l6.083,-1.629l11.566,-43.167l-50.179,-28.971l15.094,56.332l17.436,17.435Zm-18.529,-4.813l-9.455,-9.454l-0,44.74l9.455,-35.286Zm-82.49,30.146l43.933,-43.932l-0.018,-0.067l0.115,-0.03l0.061,-0.062l-20.517,-35.537l-56.909,56.909l24.962,24.963l8.373,-2.244Zm-63.608,17.044l44.418,-11.902l-21.917,-21.916l-55.376,14.838l32.875,18.98Z"/><ellipse cx="360.976" cy="371.372" rx="289.936" ry="17.188" style="fill-opacity:0.14;"/></g></svg>