<svg xmlns="http://www.w3.org/2000/svg" viewBox="0 0 200 100">
  <defs/>
  <path d="M60.953 0v17.619H51l9.961 60.336.494-.08v.5h47.75L121.689 100l6.701-3.87-10.253-17.754h29.24V7.678h-50.61L92.382 0zm1.004 1.004H91.8l3.81 6.674H61.958zm0 7.677h34.227l5.104 8.938H61.957zm35.382 0h49.035v63.08l-8.94-54.142h-34.991zm-45.157 9.942h49.678l5.222 9.148H96.525l-.18-.104-.18.104h-11.71l-2.14 3.71-3.713 6.43-.182.105v.21l-5.71 9.89-.145.251-12.031 20.838zm50.833 0h33.124l-16.593 28.74-5.272-9.135v-.212l-.183-.104-5.71-9.889-.082-.143-.062-.11zm33.727.964l9.542 57.786h-28.725l-3.98-6.89-.434.25-2.478 1.43-2.14-3.703 5.564-9.638.183-.105v-.212l5.853-10.138zm-51.709 9.187h9.393L80.339 36.91l2.844-4.926zm13.23 0h9.393l4.697 8.135zm-1.918.051l16.925 9.771v19.542L96.345 67.91l-16.922-9.77V38.595zM78.42 40.233v16.269l-4.697-8.135zm35.854.004l4.694 8.128v.002l-4.694 8.129zm-41.13 9.134l5.276 9.138v.21l.182.105 5.853 10.138H96.16l.184.106.184-.106h11.127l2.14 3.703-2.916 1.683 1.745 3.023H61.882l-1.091-6.604zm39.207 10.455l-4.695 8.132h-9.39zm-32.01.002l14.083 8.13h-9.389zm32.872 12.025l13.805 23.91-4.96 2.867-13.808-23.913z" fill="#fff"/>
</svg>
