<svg xmlns="http://www.w3.org/2000/svg" fill="#fff" viewBox="0 0 200 100">
  <path d="M87.885 73.483a.568.568 0 0 1-.403-.168l-11.15-11.17a.569.569 0 0 1-.166-.38l-1.322-32.072-34.24 3.36a.568.568 0 1 1-.11-1.133l34.84-3.42a.574.574 0 0 1 .429.137c.118.103.19.25.195.407l1.338 32.454L88.288 72.51a.569.569 0 0 1-.403.972Z"/>
  <path d="M62.945 72.56a.57.57 0 0 1-.345-1.023l13.47-10.249a.571.571 0 0 1 .217-.101l24.037-5.543-25.344-26.18a.572.572 0 0 1-.157-.469.571.571 0 0 1 .27-.413l15.25-9.298a.568.568 0 1 1 .592.973l-14.642 8.927 25.552 26.394a.569.569 0 0 1-.282.95l-24.9 5.743-13.374 10.174a.577.577 0 0 1-.344.114Z"/>
  <path d="M50.836 93H39.783a.57.57 0 0 1-.536-.764l1.83-5.054.51-5.452-1.27-3.05a.577.577 0 0 1-.045-.237l.321-10.691-3.488-8.555a.536.536 0 0 1-.034-.119L35.01 47.13a.575.575 0 0 1 .022-.282l4.977-14.547a.576.576 0 0 1 .266-.316l18.58-10.189a.567.567 0 0 1 .115-.048l16.196-4.712a.565.565 0 0 1 .24-.017l15.205 2.17 16.162-3.873 3.703-5.865a.57.57 0 0 1 .482-.265h7.805c.117 0 .23.035.325.101l6.126 4.256 5.218 1.034 4.206-4.506 1.436-2.764a.569.569 0 0 1 1.038.062l1.769 4.712a.569.569 0 0 1-.03.467l-1.577 2.979 5.388-3.664 1.859-2.453a.567.567 0 0 1 1.021.378l-.324 5.354a.566.566 0 0 1-.135.334l-3.946 4.658-1.878 3.121 2.009 6.69 8.196 3.709a.6.6 0 0 1 .116.07l5.539 4.33 7.214-6.104 6.132-12.434a.569.569 0 0 1 1.079.252v15.19a.58.58 0 0 1-.075.285l-6.367 11.109-.477 9.457a.568.568 0 0 1-.264.452l-11.781 7.45a.561.561 0 0 1-.564.025l-5.066-2.604-7.717-.997a.564.564 0 0 1-.238-.088l-5.857-3.825-2.891 2.33-2.567 9.248a.58.58 0 0 1-.095.19l-6.359 8.422v7.275l4.579 4.07c.165.147.23.376.167.587l-1.236 4.19a.57.57 0 0 1-.546.408h-10.492a.572.572 0 0 1-.568-.613l.492-6.456-1.906-5.453a.57.57 0 0 1-.03-.164l-.255-5.928-3.741-2.74-4.932 3.494-1.107 4.33v6.685l2.681 4.1c.079.119.11.264.086.405l-.303 1.802a.57.57 0 0 1-.562.475H90.45a.57.57 0 0 1-.55-.722l1.652-5.943-.511-5.656-3.526-7.119-12.517-1.405-1.686 3.72a.637.637 0 0 1-.07.118l-2.994 3.817 1.684 5.3 2.513 2.014c.107.085.18.208.205.343l.56 3.102a.576.576 0 0 1-.123.467.573.573 0 0 1-.438.204H62.06a.57.57 0 0 1-.555-.701l.89-3.732-2.884-8.02a.553.553 0 0 1-.032-.188V75.25c0-.139.051-.273.143-.378l2.523-2.844-3.89-3.538-7.12 6.848-.265 12.143.53 4.884a.571.571 0 0 1-.141.441.57.57 0 0 1-.423.194Zm-10.243-1.139h9.609l-.466-4.326.268-12.452a.574.574 0 0 1 .174-.399l7.671-7.38a.571.571 0 0 1 .778-.011l4.7 4.275a.57.57 0 0 1 .043.8l-2.752 3.102v2.914l.785 2.253 2.12 5.824a.561.561 0 0 1 .02.327l-.762 3.195h11.185l-.4-2.222-2.483-1.987a.573.573 0 0 1-.186-.272l-1.828-5.752a.57.57 0 0 1 .094-.524l3.138-4 1.828-4.035a.566.566 0 0 1 .582-.331l13.238 1.487c.192.022.36.14.447.313l3.712 7.493a.6.6 0 0 1 .057.201l.53 5.865a.586.586 0 0 1-.018.204l-1.48 5.322h9.875l.185-1.108-2.652-4.054a.575.575 0 0 1-.094-.312v-6.927a.52.52 0 0 1 .019-.141l1.176-4.603a.572.572 0 0 1 .222-.324l5.437-3.852a.567.567 0 0 1 .665.004l4.293 3.145a.564.564 0 0 1 .233.434l.263 6.118 1.917 5.486a.566.566 0 0 1 .029.231l-.453 5.962h9.452l1.014-3.434-4.501-4.001a.568.568 0 0 1-.191-.426v-7.721c0-.125.041-.244.115-.343l6.409-8.488 2.587-9.32a.562.562 0 0 1 .191-.29l2.838-2.286-7.277-6.482a.56.56 0 0 1-.176-.296l-2.357-10.151a.551.551 0 0 1-.008-.214l1.638-10.801-.006-3.417-14.681-7.558-5.458 9.712.105 29.681a.568.568 0 0 1-.567.572h-.002a.57.57 0 0 1-.569-.567l-.107-29.832a.59.59 0 0 1 .072-.281l5.163-9.185-15.224 3.648a.564.564 0 0 1-.214.01l-15.191-2.167-16.018 4.66L41.016 32.88l-4.858 14.2 2.024 11.743 3.511 8.61a.58.58 0 0 1 .043.233l-.322 10.689 1.28 3.067c.036.086.05.18.041.272l-.53 5.666a.604.604 0 0 1-.032.14l-1.58 4.36Zm96.913-32.837 7.688.993a.595.595 0 0 1 .188.058l4.864 2.502 11.255-7.119.47-9.298a.565.565 0 0 1 .075-.254l6.36-11.097V22.212l-5.104 10.35a.572.572 0 0 1-.142.183l-7.659 6.479a.567.567 0 0 1-.718.014l-5.849-4.573-8.371-3.788a.572.572 0 0 1-.311-.355l-2.156-7.18a.57.57 0 0 1 .058-.457l2.063-3.412 3.875-4.586.2-3.288-.779 1.028a.557.557 0 0 1-.134.127l-7.362 5.006a.57.57 0 0 1-.824-.737l2.532-4.78-1.229-3.275-.882 1.7a.562.562 0 0 1-.089.126l-4.476 4.794a.563.563 0 0 1-.527.17l-5.645-1.118a.57.57 0 0 1-.214-.091l-6.077-4.222h-7.313l-3.327 5.27 14.923 7.684c.19.097.309.293.309.506v3.85l-1.628 10.777 2.293 9.87 7.631 6.805.008.007 6.024 3.928Z"/>
  <path d="M150.835 63.492a.569.569 0 0 1-.527-.354l-5.134-12.576a.57.57 0 0 1 .09-.58l9.302-11.16a.575.575 0 0 1 .402-.204.58.58 0 0 1 .424.151l6.622 6.155.442-12.813a.57.57 0 0 1 .814-.495l5.951 2.833a.57.57 0 0 1-.49 1.03l-5.166-2.46-.455 13.192a.569.569 0 0 1-.957.397l-7.095-6.594-8.698 10.436 5.004 12.26a.57.57 0 0 1-.312.742.634.634 0 0 1-.217.04Z"/>
  <path d="M137.305 60.14a.57.57 0 0 1-.42-.952l7.803-8.574-7.822-2.547-16.177-9.134-19.493-12.204-25.743 2.905a.57.57 0 0 1-.127-1.132l25.94-2.927a.559.559 0 0 1 .366.083l19.64 12.297 16.051 9.074 8.555 2.776a.571.571 0 0 1 .245.925l-8.397 9.225a.567.567 0 0 1-.421.186Z"/>
  <path d="M145.702 40.396a.576.576 0 0 1-.063-.004l-5.772-.64-18.919-.746a.57.57 0 0 1-.547-.59c.013-.315.317-.575.591-.547l18.96.747 5.742.636 9.231-1.273a.557.557 0 0 1 .641.486.567.567 0 0 1-.486.641l-9.302 1.283a.416.416 0 0 1-.076.007Z"/>
  <path d="M141.853 43.234a.567.567 0 0 1-.497-.294l-1.89-3.416-12.141-12.78a.567.567 0 0 1-.138-.537l2.887-10.907a.57.57 0 0 1 1.101.292l-2.807 10.6 11.973 12.6a.517.517 0 0 1 .085.118l1.531 2.767 6.841-7.875a.57.57 0 0 1 .86.748l-7.376 8.49a.567.567 0 0 1-.429.194Zm-34.488-27.217a.568.568 0 0 1-.044-1.137l17.622-1.366a.57.57 0 0 1 .087 1.136l-17.621 1.365c-.015.002-.029.002-.044.002Z"/>
  <path d="M112.196 86.175a.57.57 0 0 1-.141-1.12l5.54-1.425-8.207-9a.569.569 0 0 1 .196-.907l14.734-6.342-23.483-40.955a.567.567 0 0 1 .431-.85l21.278-2.353a.577.577 0 0 1 .318.057l5.132 2.566 12.971 3.971c.26.08.427.33.4.6l-.868 8.825a.569.569 0 1 1-1.133-.11l.822-8.362-12.614-3.87-5.069-2.525-20.247 2.239 23.367 40.752a.57.57 0 0 1-.268.806l-14.585 6.279 8.305 9.11a.567.567 0 0 1-.279.934l-6.457 1.66a.514.514 0 0 1-.143.02Zm-12.946.518a.562.562 0 0 1-.34-.114l-7.655-5.718a.57.57 0 0 1 .03-.933l7.39-4.833-10.792-1.5a.57.57 0 0 1 .157-1.128l12.296 1.71a.57.57 0 0 1 .233 1.04l-7.978 5.22 7.002 5.231a.569.569 0 0 1-.343 1.025Zm-37.188 4.429a.571.571 0 0 1-.273-1.07l8.513-4.65-10.549-6.435a.567.567 0 0 1-.241-.67.564.564 0 0 1 .603-.38l8.094.927-5.69-6.477a.57.57 0 1 1 .855-.753l6.666 7.588a.566.566 0 0 1 .077.64.557.557 0 0 1-.57.302l-6.993-.802 9.182 5.6a.57.57 0 0 1-.023.986l-9.378 5.124a.557.557 0 0 1-.273.07Zm-11.765-3.245h-8.66a.57.57 0 0 1 0-1.138h6.847l-6.641-4.629a.57.57 0 0 1 .65-.935l8.13 5.666a.569.569 0 0 1-.326 1.037Zm-9.455-8.847a.57.57 0 0 1-.187-1.107l8.967-3.101-12.434-15.483a.57.57 0 0 1 .165-.853L57.34 47.283l17.635-18.607a.569.569 0 1 1 .827.783L58.108 48.13a.545.545 0 0 1-.135.104L38.498 59.15l12.52 15.589a.57.57 0 0 1-.258.895L41.028 79a.594.594 0 0 1-.186.03Z"/>
  <path d="M105.693 71.459a.57.57 0 0 1-.548-.413l-4.257-14.917a.573.573 0 0 1 .098-.506.593.593 0 0 1 .467-.22l16.964.524 4.417-7.622a.565.565 0 0 1 .777-.207.568.568 0 0 1 .208.778l-4.586 7.917a.557.557 0 0 1-.511.285l-16.525-.512 4.044 14.168a.57.57 0 0 1-.548.725Zm-47.449-3.174a.571.571 0 0 1-.57-.553L57.133 48 40.17 32.912a.57.57 0 1 1 .757-.85l17.146 15.25a.566.566 0 0 1 .19.41l.481 17.462 15.887-35.815-15.722-6.546a.57.57 0 1 1 .439-1.05l16.259 6.768a.57.57 0 0 1 .302.757L58.765 67.945a.569.569 0 0 1-.52.34Zm4.7 4.274a.57.57 0 0 1-.026-1.138l11.702-.564c.285-.028.58.228.595.543a.57.57 0 0 1-.542.595l-11.701.564h-.028Zm75.698-48.809a.569.569 0 0 1-.51-.314l-2.842-5.683-7.046-2.45a.568.568 0 1 1 .374-1.076l7.264 2.528c.142.049.257.15.323.283l2.945 5.89a.57.57 0 0 1-.508.822ZM31.57 62.354a.57.57 0 0 1-.55-.719l4.003-14.749a.57.57 0 1 1 1.099.297l-3.04 11.197 3.171-4.924a.57.57 0 0 1 .958.616l-5.162 8.02a.573.573 0 0 1-.48.262Z"/>
</svg>
