<svg xmlns="http://www.w3.org/2000/svg" fill="#fff" viewBox="0 0 200 100">
  <path d="M85.145 77.305a.661.661 0 0 1-.469-.194L71.712 64.12a.662.662 0 0 1-.193-.44L69.98 26.386l-39.814 3.908a.66.66 0 1 1-.129-1.318L70.55 25a.667.667 0 0 1 .499.159c.138.119.22.29.227.473l1.555 37.736 12.782 12.807a.661.661 0 0 1-.469 1.13Z"/>
  <path d="M56.146 76.232a.662.662 0 0 1-.401-1.19l15.663-11.916a.664.664 0 0 1 .251-.118l27.95-6.445L70.14 26.12a.665.665 0 0 1-.181-.544.664.664 0 0 1 .312-.481l17.733-10.811a.66.66 0 1 1 .689 1.13L71.666 25.797l29.712 30.69a.665.665 0 0 1-.327 1.106L72.096 64.27 56.546 76.1a.67.67 0 0 1-.4.133Z"/>
  <path d="M42.065 100H29.212a.662.662 0 0 1-.622-.889l2.128-5.877.593-6.339-1.478-3.546a.671.671 0 0 1-.051-.275l.373-12.432-4.056-9.948a.63.63 0 0 1-.04-.138l-2.397-13.893a.67.67 0 0 1 .027-.328l5.787-16.915a.67.67 0 0 1 .308-.367L51.39 17.205a.667.667 0 0 1 .134-.056l18.833-5.48a.659.659 0 0 1 .278-.02l17.681 2.523 18.793-4.502 4.306-6.82a.662.662 0 0 1 .56-.308h9.076a.66.66 0 0 1 .378.118l7.123 4.948 6.068 1.203 4.89-5.24 1.67-3.214a.668.668 0 0 1 .628-.357c.26.016.488.185.58.428l2.056 5.48a.668.668 0 0 1-.034.543l-1.834 3.464 6.265-4.26 2.161-2.852a.662.662 0 0 1 1.188.44l-.378 6.224a.656.656 0 0 1-.156.388l-4.589 5.416-2.183 3.63 2.336 7.779 9.53 4.313a.686.686 0 0 1 .135.082l6.44 5.033 8.389-7.096 7.13-14.458a.662.662 0 0 1 1.255.293V32.51a.67.67 0 0 1-.087.33l-7.404 12.918-.555 10.996a.662.662 0 0 1-.307.526l-13.698 8.663a.655.655 0 0 1-.657.03l-5.89-3.029-8.973-1.159a.658.658 0 0 1-.277-.103l-6.81-4.447-3.363 2.71-2.984 10.752a.669.669 0 0 1-.11.221l-7.395 9.793v8.46l5.325 4.734a.66.66 0 0 1 .195.681l-1.439 4.872a.662.662 0 0 1-.634.475h-12.2a.665.665 0 0 1-.661-.713l.572-7.507-2.215-6.34a.685.685 0 0 1-.036-.191l-.297-6.894-4.35-3.186-5.734 4.063-1.287 5.036v7.773l3.117 4.766a.654.654 0 0 1 .1.471l-.353 2.096a.661.661 0 0 1-.652.553H88.127a.662.662 0 0 1-.638-.84l1.92-6.911-.594-6.576-4.1-8.278-14.555-1.634-1.96 4.326a.745.745 0 0 1-.082.136l-3.481 4.44 1.958 6.162 2.923 2.342c.124.099.21.242.238.398l.65 3.607a.67.67 0 0 1-.143.543.666.666 0 0 1-.508.237H55.117a.664.664 0 0 1-.645-.816l1.033-4.338-3.353-9.326a.641.641 0 0 1-.037-.219v-3.752c0-.162.06-.318.167-.44l2.933-3.307L50.69 71.5l-8.278 7.963-.308 14.12.617 5.678a.664.664 0 0 1-.166.514.663.663 0 0 1-.49.225Zm-11.91-1.324h11.173l-.542-5.031.311-14.48a.667.667 0 0 1 .203-.463l8.92-8.58a.664.664 0 0 1 .904-.014l5.465 4.971c.27.245.29.658.05.93l-3.2 3.607v3.389l.914 2.62 2.464 6.771a.653.653 0 0 1 .023.38l-.885 3.716H68.96l-.466-2.584-2.885-2.31a.666.666 0 0 1-.217-.317l-2.126-6.689a.662.662 0 0 1 .11-.609l3.648-4.65 2.126-4.692a.658.658 0 0 1 .676-.385l15.393 1.729c.224.025.42.163.52.364l4.316 8.712a.7.7 0 0 1 .067.235l.617 6.82c.006.079 0 .16-.021.237l-1.72 6.188h11.48l.216-1.289-3.084-4.714a.67.67 0 0 1-.108-.363v-8.054c0-.055.006-.11.02-.164l1.369-5.353a.664.664 0 0 1 .258-.376l6.322-4.48a.66.66 0 0 1 .773.006l4.993 3.656a.66.66 0 0 1 .27.506l.306 7.114 2.228 6.378a.662.662 0 0 1 .035.27l-.527 6.932h10.991l1.178-3.994-5.233-4.652a.66.66 0 0 1-.222-.496V80.49c0-.144.047-.283.133-.398l7.453-9.87 3.007-10.836a.666.666 0 0 1 .223-.338l3.3-2.659-8.462-7.536a.656.656 0 0 1-.204-.345l-2.741-11.804a.615.615 0 0 1-.009-.249l1.904-12.559-.007-3.972-17.07-8.79-6.347 11.294.123 34.513a.663.663 0 0 1-.66.665h-.002a.663.663 0 0 1-.663-.66l-.124-34.688c0-.114.029-.226.085-.327l6.002-10.68-17.702 4.242a.658.658 0 0 1-.249.012l-17.664-2.52-18.625 5.418-21.318 11.69-5.649 16.514 2.355 13.654 4.082 10.011a.675.675 0 0 1 .05.27l-.374 12.43 1.487 3.566c.042.1.058.21.049.316l-.617 6.588a.705.705 0 0 1-.037.165l-1.837 5.069Zm112.69-38.183 8.938 1.154a.7.7 0 0 1 .219.068l5.656 2.91 13.087-8.278.547-10.813a.64.64 0 0 1 .087-.295l7.395-12.903V17.688l-5.934 12.035a.67.67 0 0 1-.166.213l-8.905 7.534a.66.66 0 0 1-.836.016l-6.801-5.317-9.733-4.405a.665.665 0 0 1-.362-.413l-2.506-8.348a.66.66 0 0 1 .067-.532l2.398-3.967 4.507-5.333.232-3.823-.906 1.196a.671.671 0 0 1-.155.146l-8.561 5.822a.662.662 0 0 1-.958-.857l2.944-5.558-1.429-3.808-1.026 1.975a.645.645 0 0 1-.103.147l-5.205 5.575a.655.655 0 0 1-.613.198l-6.564-1.3a.664.664 0 0 1-.249-.107l-7.066-4.908h-8.503l-3.869 6.127 17.352 8.936a.66.66 0 0 1 .359.588v4.476l-1.892 12.532 2.666 11.477 8.873 7.913.01.008 7.005 4.567Z"/>
  <path d="M158.344 65.689a.663.663 0 0 1-.614-.412l-5.969-14.623a.66.66 0 0 1 .104-.675l10.817-12.977a.663.663 0 0 1 .96-.06l7.7 7.155.514-14.899a.662.662 0 0 1 .947-.575l6.919 3.294a.664.664 0 0 1-.569 1.197l-6.007-2.86-.53 15.34a.66.66 0 0 1-1.112.462l-8.25-7.668-10.115 12.136 5.819 14.255a.662.662 0 0 1-.363.864.73.73 0 0 1-.251.046Z"/>
  <path d="M142.61 61.792a.661.661 0 0 1-.488-1.107l9.073-9.97-9.095-2.963-18.81-10.62-22.667-14.192-29.933 3.378a.663.663 0 0 1-.148-1.316l30.163-3.403a.65.65 0 0 1 .425.096l22.838 14.3 18.664 10.55 9.947 3.228a.664.664 0 0 1 .285 1.075L143.1 61.576a.663.663 0 0 1-.49.216Z"/>
  <path d="M152.374 38.832a.648.648 0 0 1-.073-.004l-6.711-.745-22-.866a.661.661 0 0 1-.635-.688c.014-.365.368-.667.687-.635l22.046.868 6.677.74 10.734-1.48a.648.648 0 0 1 .745.566.66.66 0 0 1-.565.745l-10.816 1.491a.497.497 0 0 1-.089.008Z"/>
  <path d="M147.899 42.132a.658.658 0 0 1-.578-.342l-2.197-3.972-14.118-14.86a.656.656 0 0 1-.16-.624l3.357-12.682a.662.662 0 0 1 1.279.339l-3.263 12.324 13.922 14.653a.627.627 0 0 1 .099.136l1.78 3.218 7.955-9.157a.663.663 0 0 1 .999.87l-8.577 9.871a.657.657 0 0 1-.498.226Zm-40.103-31.648a.663.663 0 0 1-.05-1.322l20.49-1.587a.663.663 0 0 1 .102 1.32l-20.49 1.588-.052.001Z"/>
  <path d="M113.414 92.064a.662.662 0 0 1-.165-1.303l6.443-1.657-9.543-10.465a.662.662 0 0 1 .228-1.054l17.132-7.375-27.306-47.622a.665.665 0 0 1 .502-.988l24.742-2.736a.67.67 0 0 1 .369.066l5.967 2.984 15.083 4.618a.66.66 0 0 1 .465.698l-1.009 10.261a.661.661 0 1 1-1.317-.128l.956-9.723-14.668-4.5-5.894-2.937-23.543 2.604 27.17 47.386a.665.665 0 0 1 .055.539.665.665 0 0 1-.366.398l-16.959 7.301 9.657 10.593a.66.66 0 0 1-.324 1.087l-7.508 1.93a.609.609 0 0 1-.167.023Zm-15.053.602a.653.653 0 0 1-.396-.132l-8.901-6.649a.662.662 0 0 1 .034-1.084l8.593-5.62-12.548-1.746a.662.662 0 0 1 .182-1.31l14.298 1.988a.662.662 0 0 1 .271 1.21l-9.277 6.07 8.143 6.082a.662.662 0 0 1-.399 1.192Zm-43.243 5.15a.66.66 0 0 1-.581-.344.664.664 0 0 1 .263-.9l9.9-5.407-12.266-7.482a.659.659 0 0 1-.28-.78.656.656 0 0 1 .701-.443l9.411 1.08-6.617-7.533a.662.662 0 1 1 .995-.875l7.752 8.824a.659.659 0 0 1 .088.744.648.648 0 0 1-.662.35l-8.132-.931 10.678 6.512a.664.664 0 0 1-.026 1.145l-10.906 5.958a.647.647 0 0 1-.318.082Zm-13.679-3.772h-10.07a.662.662 0 0 1 0-1.325h7.962l-7.723-5.381a.663.663 0 0 1 .756-1.088l9.454 6.588a.662.662 0 0 1-.38 1.206ZM30.444 83.757a.662.662 0 0 1-.217-1.287l10.427-3.608L26.196 60.86a.662.662 0 0 1 .192-.992l23.24-13.027 20.506-21.637a.662.662 0 1 1 .961.912L50.52 47.824a.63.63 0 0 1-.156.122L27.718 60.64l14.558 18.126a.662.662 0 0 1-.3 1.04l-11.315 3.915a.692.692 0 0 1-.217.036Z"/>
  <path d="M105.852 74.952a.664.664 0 0 1-.637-.48l-4.95-17.345a.664.664 0 0 1 .114-.588.69.69 0 0 1 .543-.256l19.726.61 5.135-8.864a.661.661 0 1 1 1.146.663l-5.333 9.207a.647.647 0 0 1-.593.33l-19.216-.594 4.702 16.474a.661.661 0 0 1-.637.843ZM50.68 71.261a.664.664 0 0 1-.662-.644l-.632-22.943-19.724-17.543a.662.662 0 1 1 .881-.99l19.938 17.733a.66.66 0 0 1 .22.477l.56 20.304 18.473-41.644-18.281-7.612a.662.662 0 1 1 .51-1.222l18.906 7.871a.664.664 0 0 1 .35.88L51.285 70.866a.66.66 0 0 1-.606.394Zm5.465 4.97a.662.662 0 0 1-.031-1.323l13.607-.655c.332-.033.675.265.692.63a.662.662 0 0 1-.63.693l-13.607.655h-.032Zm88.02-56.754a.661.661 0 0 1-.593-.365l-3.304-6.608-8.193-2.85a.662.662 0 0 1 .434-1.25l8.447 2.939a.656.656 0 0 1 .375.33l3.425 6.848a.663.663 0 0 1-.591.956ZM19.662 64.365a.663.663 0 0 1-.639-.836l4.655-17.15a.662.662 0 1 1 1.278.346l-3.534 13.02 3.686-5.726a.663.663 0 0 1 1.114.716l-6.003 9.326a.667.667 0 0 1-.557.304Z"/>
</svg>
