<?xml version="1.0" encoding="UTF-8" standalone="no"?><!DOCTYPE svg PUBLIC "-//W3C//DTD SVG 1.1//EN" "http://www.w3.org/Graphics/SVG/1.1/DTD/svg11.dtd"><svg width="100%" height="100%" viewBox="0 0 789 465" version="1.1" xmlns="http://www.w3.org/2000/svg" xmlns:xlink="http://www.w3.org/1999/xlink" xml:space="preserve" xmlns:serif="http://www.serif.com/" style="fill-rule:evenodd;clip-rule:evenodd;stroke-linejoin:round;stroke-miterlimit:2;"><rect id="shiny_router" x="0.202" y="0.1" width="788.726" height="463.956" style="fill:none;"/><clipPath id="_clip1"><rect x="0.202" y="0.1" width="788.726" height="463.956"/></clipPath><g clip-path="url(#_clip1)"><rect id="retreat-logo" serif:id="retreat logo" x="0.202" y="364.056" width="519.685" height="519.685" style="fill:none;"/><ellipse cx="396.748" cy="445.819" rx="239.031" ry="16.439" style="fill-opacity:0.14;"/><path d="M662.786,198.545l-36.272,-60.54l-43.043,-23.932l-32.685,-47.823l-20.71,64.439l-36.173,18.866l-99.02,23.447l-33.696,53.686l16.678,-75.11l-26.315,-117.829l-117.063,-27.997l-97.864,58.013l85.711,2.352l15.217,4.349l-0.269,10.424l-6.133,14.764l-25.831,23.192l-28.319,48.786c-0,-0 -4.816,83.866 7.011,107.083c11.826,23.217 37.839,111.163 98.688,138.496c60.848,27.334 51.509,30.074 51.509,30.074l67.515,1.726l162.625,-2.81l-16.5,-22.769l-58.17,1.63l52.1,-90.82l-0.723,-46.544l29.045,4.868l33.174,-19.624l37.203,18.1l6.67,-25.354l-19.319,-17.199l-49.672,0.118l18.16,-22.484l38.017,2.864l28.454,-26.442Z" style="fill:#f58d3d;"/><clipPath id="_clip2"><path d="M662.786,198.545l-36.272,-60.54l-43.043,-23.932l-32.685,-47.823l-20.71,64.439l-36.173,18.866l-99.02,23.447l-33.696,53.686l16.678,-75.11l-26.315,-117.829l-117.063,-27.997l-97.864,58.013l85.711,2.352l15.217,4.349l-0.269,10.424l-6.133,14.764l-25.831,23.192l-28.319,48.786c-0,-0 -4.816,83.866 7.011,107.083c11.826,23.217 37.839,111.163 98.688,138.496c60.848,27.334 51.509,30.074 51.509,30.074l67.515,1.726l162.625,-2.81l-16.5,-22.769l-58.17,1.63l52.1,-90.82l-0.723,-46.544l29.045,4.868l33.174,-19.624l37.203,18.1l6.67,-25.354l-19.319,-17.199l-49.672,0.118l18.16,-22.484l38.017,2.864l28.454,-26.442Z"/></clipPath><g clip-path="url(#_clip2)"><path d="M352.903,245.119l-30.684,108.128l39.229,91.764l53.923,-0l-57.316,-99.946l-5.152,-99.946Z" style="fill:#ce472b;"/><path d="M405.581,425.813c-105.245,1.465 -271.879,-134.62 -189.899,-315.609c-83.966,69.5 -98.722,148.537 -140.025,226.527l239.199,135.989l100.515,-23.791l-9.79,-23.116Z" style="fill:#ce472b;"/><path d="M235.393,95.316c-48.468,45.615 -41.966,242.153 118.397,253.254l60.539,95.89l-235.113,-19.815l-44.962,-319.786l101.139,-9.543Z" style="fill:#0a0400;fill-opacity:0.13;"/></g><path d="M354.391,347.857l21.948,95.004l37.99,0l-59.938,-95.004Z" style="fill:#240600;fill-opacity:0.29;"/><path d="M550.317,71.9l-1.487,50.997l-15.519,2.675l17.006,-53.672Z" style="fill:#fff;"/><path d="M492.715,151.328l61.003,107.897l24.165,-22.713l-60.334,-100.07l-24.834,14.886Z" style="fill:#f7ac6c;"/><path d="M234.362,8.741l-28.053,54.112l-65.626,-1.808l93.679,-52.304Z" style="fill:#f7ac6c;"/><path d="M347.273,140.016l-70.172,-122.502l70.647,19.143l33.603,114.671l-34.078,-11.312Z" style="fill:#f7ac6c;"/><path d="M375.55,147.219l-43.52,-112.274l16.797,0.852l26.723,111.422Z" style="fill:#fff;"/><path d="M466.394,159.52l79.045,110.709l8.279,-6.631l-62.349,-112.27l-24.975,8.192Z" style="fill-opacity:0.11;"/><path d="M475.034,254.495l-114.451,93.362l97.312,-102.738l17.139,9.376Z" style="fill:#fff;"/><path d="M641.8,285.037l6.362,-25.667l-18.095,-14.251l-55.552,1.801l-35.209,32.346l-2.659,10.738l-58.71,17.55l-72.356,116.047l7.111,17.701l156.409,3.709l-17.811,-26.076l-60.993,1.266l49.979,-88.107l1.521,-47.462l18.888,1.125l11.947,2.116l36.575,-18.49l32.593,15.654Z" style="fill:#ce472b;"/><path d="M518.039,425.679l-83.88,17.182l52.73,-21.594l31.15,4.412Z" style="fill:#100300;fill-opacity:0.27;"/><path d="M601.866,248.317l-57.811,32.876l29.181,-32.956l28.63,0.08Z" style="fill-opacity:0.35;"/><path d="M131.45,60.773l-0.43,-0.745l103.812,-59.936l0.682,1.183l0.265,-0.986l116.807,31.298l-0.452,1.686l1.26,-0.337l31.298,116.807l-1.121,0.3l1.121,0.301l-14.133,52.746l17.05,-29.532l1.154,0.666l-0.297,-1.109l98.554,-26.407l38.176,-22.042l0.151,0.261l-0.07,-0.26l2.041,-0.547l16.598,-61.946l0.874,0.234l7.093,-4.095l29.613,51.29l2.038,-0.546l0.27,1.007l0.507,-0.879l44.211,25.525l-0.581,1.007l1.015,-0.586l37.521,64.988l-1.065,0.615l0.888,0.888l-27.817,27.818l-0.765,-0.765l-0,1.07l-41.48,0l-11.094,11.093l47.534,0l-0,0.799l0.584,-0.584l18.585,18.586l-0.636,0.636l0.863,0.194l-6.762,30.124l-7.971,-1.789l-0.381,0.658l-27.145,-15.672l-36.804,21.248l-0.443,-0.768l-0.243,0.905l-28.417,-7.614l0,46.874l-0.665,0l0.635,0.367l-47.482,82.241l54.67,0l-0,1.11l0.761,-0.762l21.24,21.24l-0.779,0.779l0,8.009l-234.996,-0l-0,-1.195l-0.384,0.991c-98.551,-38.187 -168.506,-133.945 -168.506,-245.912c0,-45.409 22.612,-85.578 57.183,-109.849l-0.001,-0.003c0.033,-0.022 0.066,-0.044 0.1,-0.066c0.068,-0.048 0.136,-0.096 0.205,-0.144l0.002,0.004c3.601,-2.461 6.582,-5.807 6.582,-10.481c-0,-6.415 -5.208,-11.623 -11.624,-11.623l0,-0.08l-89.399,-0l-0,-8.288Zm94.169,-44.836l-76.225,44.008l50.817,0l25.408,-44.008Zm120.005,23.222l-61.003,-16.346l66.961,115.981l22.343,5.987l-28.301,-105.622Zm-73.455,-19.682l-29.171,-7.817l28.301,105.622l67.831,18.175l-66.961,-115.98Zm81.98,209.637l20.048,-74.823l-21.287,-5.704l-39.191,10.501l40.43,70.026Zm38.687,-46.378l-30.653,53.093l84.145,-0l-53.093,-53.093l-0.399,-0Zm94.894,-26.781l-65.929,17.665l76.128,-0l-10.199,-17.665Zm28.89,-15.811l-20.62,11.905l60.41,104.632l17.43,-17.429l-57.22,-99.108Zm20.865,-18.748l34.895,-9.35l-22.122,-38.317l-12.773,47.667Zm45.141,-2.658l-40.994,10.984l60.02,-0l-19.026,-10.984Zm39.509,22.81l-2.344,-1.353l20.085,74.96l15.695,-15.695l-33.436,-57.912Zm-29.15,79.993l0,-0.912l38.921,0l-21.916,-81.791l-83.599,-0l54.122,93.74l11.754,-11.754l0.718,0.717Zm36.286,28.413l-42.51,-0l51.639,29.813l3.791,-16.893l-12.92,-12.92Zm-28.572,18.573l-27.415,-15.828l-26.26,26.26l24.32,6.516l29.355,-16.948Zm-65.906,63.78l-0,-35.11l-50.29,13.475l47.086,27.185l3.204,-5.55Zm-47.995,83.129l37.017,-64.115l-80.569,21.589l-7.527,13.036l51.079,29.49Zm60.905,10.723l-56.488,-0l-45.324,12.144l113.957,0l-12.145,-12.144Zm-208.12,12.144l65.647,0l-52.233,-90.47l0.773,-0.446l-0.94,0l-0,-43.924l-33.626,-19.413l-59.955,103.844c23.19,21.485 50.385,38.705 80.334,50.409Zm-161.903,-235.962c0.28,69.915 28.829,133.213 74.8,179.047l58.83,-101.896l-133.63,-77.151Zm53.256,-103.311c-2.485,1.745 -4.905,3.577 -7.253,5.493l37.449,10.035l-25.969,-96.92l-24.426,42.307l10.112,0l0,-0.08c11.535,0 20.899,9.365 20.899,20.899c0,8.019 -4.615,14.085 -10.812,18.266Zm-15.396,12.749c-19.867,19.309 -33.338,45.165 -36.913,74.069l156.673,-41.98l-119.76,-32.089Zm130.664,121.806l-41.6,-72.055l-113.656,30.454l155.256,41.601Zm104.242,11.36l-88.501,-0l0,88.501l88.501,-88.501Zm-44.32,-62.209l56.619,56.618l72.048,41.597l-0,-2.37l0.923,-0l-0.603,-0.603l14.624,-14.624l-46.545,-80.618l-97.066,-0Zm66.817,122.72l-0.281,-1.048l57.733,-15.47l-70.403,-40.648l-97.594,97.595l42.963,74.413l66.623,-115.395l0.959,0.553Zm48.493,37.065l-45.484,-26.26l-26.26,45.484l71.744,-19.224Zm-44.17,77.938l-46.104,-26.619l-20.539,35.574l4.452,7.709l62.191,-16.664Zm-124.436,-127.521l-0,-48.141l-49.964,-13.388l10.359,38.663l39.605,22.866Zm-155.592,-89.832l104.823,60.52l-9.362,-34.941l-95.461,-25.579Z"/></g></svg>