<?xml version="1.0" encoding="UTF-8" standalone="no"?><!DOCTYPE svg PUBLIC "-//W3C//DTD SVG 1.1//EN" "http://www.w3.org/Graphics/SVG/1.1/DTD/svg11.dtd"><svg width="100%" height="100%" viewBox="0 0 790 465" version="1.1" xmlns="http://www.w3.org/2000/svg" xmlns:xlink="http://www.w3.org/1999/xlink" xml:space="preserve" xmlns:serif="http://www.serif.com/" style="fill-rule:evenodd;clip-rule:evenodd;stroke-linejoin:round;stroke-miterlimit:2;"><rect id="shiny_semantic" x="0.86" y="0.099" width="788.726" height="463.956" style="fill:none;"/><clipPath id="_clip1"><rect x="0.86" y="0.099" width="788.726" height="463.956"/></clipPath><g clip-path="url(#_clip1)"><rect id="retreat-logo" serif:id="retreat logo" x="0.86" y="364.055" width="519.685" height="519.685" style="fill:none;"/><ellipse cx="428.219" cy="447.251" rx="228.484" ry="16.804" style="fill-opacity:0.14;"/><path d="M671.555,218.106l39.921,-11.076l-6.76,-6.557l-38.871,-22.11l-34.163,-55.335l-88.374,-71.673l-56.979,-16.751l-49.063,6.471l-45.377,23.043l-34.141,26.513l-53.551,-52.601l-128.857,-32.818l-93.055,0.368l37.876,60.601l107.98,64.34l87.861,0.804l0.148,12.158l18.972,81.815l-18.931,23.386l-2.388,104.213l25.096,-16.798l-0.056,-80.546l30.658,-19.363l57.765,-58.698l88.642,0.035l-3.603,14.419l35.894,17.489l2.232,7.357l-8.474,15.371l-42.77,0.231l17.758,22.343l48.953,-1.435l16.875,-23.311l7.217,4.59l0.742,24.791l10.054,21.018l10.045,4.303l8.314,-26.971l4.348,-13.352l15.316,-2.702l17.351,-13.913l15.395,-9.649Z" style="fill:#e47e28;"/><path d="M83.206,9.186l82.978,12.244l6.171,-13.4l-89.149,1.156Z" style="fill:#fff;"/><path d="M706.435,206.943c-0,0 -35.648,-14.318 -35.648,-14.318l-0.389,-9.482l36.037,23.8Z" style="fill:#fff;"/><path d="M509.025,131.042l-40.28,-91.647l-14.107,1.85l54.387,89.797Z" style="fill:#fff;"/><path d="M572.437,197.93l-55.299,-25.975l-2.287,17.971l45.392,23.369l12.194,-15.365Z" style="fill:#fff;"/><path d="M603.991,257.914l-10.422,-53.363l-4.973,53.61l15.395,-0.247Z" style="fill:#fff;"/><path d="M590.457,209.856l-34.364,0.458l-15.381,23.941l-37.124,0.113l-4.12,6.833l25.662,13.836l42.526,-1.354l22.801,-43.827Z" style="fill:#b53711;"/><path d="M568.978,255.037l-26.978,-18.823l13.676,-26.358l34.781,0l-0,16.531l-21.479,28.65Z" style="fill-opacity:0.16;"/><path d="M228.43,18.325l11.243,55.98l-72.959,-16.412l-4.963,-33.821l19.908,-17.711l46.771,11.964" style="fill:#e36321;"/><path d="M663.094,179.054l-21.545,12.232l-53.48,-0.8l51.426,-57.937l23.599,46.505Z" style="fill:#e36321;"/><path d="M476.25,86.044l-51.399,89.814l87.387,3.196l1.734,-35.361l-37.722,-57.649Z" style="fill:#e36321;"/><path d="M509.598,165.133l-78.769,-0l-4.943,11.784l85.718,-2.248l-2.006,-9.536Z" style="fill:#fff;"/><rect x="420.992" y="169.999" width="92.98" height="6.582" style="fill-opacity:0.11;"/><path d="M560.157,205.515l-3.744,6.486l-47.192,-27.246l3.745,-6.486l47.191,27.246Z" style="fill-opacity:0.11;"/><path d="M629.437,126.873l7.886,7.885l-58.776,58.776l-7.886,-7.885l58.776,-58.776Z" style="fill-opacity:0.11;"/><path d="M426.099,45.159l87.873,124.677l0,9.218l0,-33.353l-60.658,-105.368l-27.215,4.826Z" style="fill-opacity:0.14;"/><path d="M337.655,334.49l0.277,-77.938l43.029,-32.81l-28.028,-119.997l-4.227,-13.282l-61.988,-16.928l-34.241,30.969l-14.15,-30.317l-67.925,-13.349l-9.341,-29.589l-40.709,35.905l107.032,64.69l86.234,-2.286l5.901,37.469l15.313,59.001l-22.171,24.926l0.558,105.638l24.436,-22.102" style="fill:#b53711;"/><path d="M331.512,115.466l-85.133,-1.606l-115.56,-54.234l-8.214,9.494l108.668,62.349l87.708,1.187l12.531,-17.19Z" style="fill-opacity:0.28;"/><path d="M342.42,79.236l-46.529,51.806l24.149,0l37.629,-38.749l-15.249,-13.057Z" style="fill-opacity:0.18;"/><path d="M113.504,68.71l-0.522,0.301l-34.532,-59.812l-5.3,-9.1l105.559,-0l0,0.201l0.048,-0.175l126.208,33.817l-0.094,0.352l0.312,-0.312l52.082,52.082l11.436,-11.435l-0.072,-0.078c0.528,-0.484 1.058,-0.965 1.592,-1.442l0.283,-0.284l0.016,0.017c28.753,-25.592 66.63,-41.148 108.112,-41.148c36.989,-0 71.112,12.369 98.455,33.192l-0.02,0.027l68.36,68.36l-0.575,0.575l0.713,-0.411l24.181,41.884l45.587,26.319l-0.309,0.535l2.272,8.479l-51.383,13.768l-19.416,19.416l-0.535,-0.535l0.19,0.708l-20.87,5.592l-9.453,35.278l-0.606,-0.162l-6.25,6.25l-20.825,-20.825l0.42,-0.42l-4.121,-7.138l-0.512,-0l0,-25.449l-11.828,20.487l-0.801,-0.462l0,0.897l-56.913,-0l-0,-1.176l-0.519,0.519l-22.291,-22.291l6.208,-6.208l-0,-0.613l40.471,-0l8.197,-13.453l-36.859,-21.28l0.565,-0.978l-0.81,-0l-0,-9.693l-79.5,0l-58.577,58.577l-0.031,-0.031l0.032,0.055l-28.319,16.349l0,79.203l-0.496,0l0.227,0.226l-26.836,26.836l-3.953,-3.953l-2.881,-0l0,-43.449l-0.023,-0.013l0.023,-0.04l0,-68.618l1.135,-0l-0.414,-0.412l21.263,-21.384l-23.893,-89.171l0.561,-0.151l0.174,-0.1l-0.663,-0.664l1.196,-1.196l-81.692,-0l-0,-0.959l-0.399,0.69l-113.155,-65.33l0.37,-0.641Zm-23.885,-59.13l29.839,51.683l51.683,-51.683l-81.522,0Zm210.681,32.929l-68.119,-18.253l19.748,73.701l51.91,-51.91l-3.539,-3.538Zm-78.694,-21.087l-38.564,-10.333l-16.581,16.581l7.074,26.401l61.214,16.402l-13.143,-49.051Zm123.037,65.429l-34.099,-34.099l-19.688,19.687l53.787,14.412Zm32.093,-6.848l-16.583,16.583l34.065,0l63.012,-36.38l-9.217,-15.965c-27.012,5.487 -51.452,18.089 -71.277,35.762Zm190.855,-10.342c-25.088,-17.931 -55.8,-28.486 -88.959,-28.486c-7,0 -13.891,0.471 -20.643,1.382l50.038,86.668l59.564,-59.564Zm66.223,65.409l-59.111,-59.112l-61.768,61.768l5.787,10.023l-0.101,0.057l0.216,0l-0,40.135l28.191,16.276l17.638,0l6.758,-6.757l-21.587,-21.587l6.704,-6.705l21.588,21.587l55.685,-55.685Zm26.402,42.708l-20.388,-35.313l-45.833,45.833l48.001,-0l18.22,-10.52Zm41.837,27.144l-30.419,-17.563l-0,25.713l30.419,-8.15Zm-60.575,30.525l20.674,-20.674l-0,-27.164l-17.339,10.011l-0.275,-0.476l-0,0.636l-4.225,-0l-10.964,40.917l12.129,-3.25Zm-33.292,41.325l5.589,-20.858l-16.767,9.68l11.178,11.178Zm-14.769,-20.053l25.182,-14.539l11.897,-44.4l-45.983,-0l-6.562,6.771l15.466,0.272l0,51.896Zm-9.482,-38.546l0,-4.474l-20.484,0l17.301,9.989l3.183,-5.515Zm-17.553,30.404l9.629,-16.678l-21.339,-12.319l-10.966,17.998l-0.69,-0.42l-0,0.614l-35.362,-0l10.805,10.805l47.923,-0Zm-57.027,-75.172l-0,-22.916l-33.032,-57.213l-46.262,80.129l79.294,-0Zm-138.485,55.057l6.363,-6.364l-30.133,-112.459l-28.423,28.423l52.193,90.4Zm14.105,-14.106l34.748,-34.747l-60.185,-60.185l25.437,94.932Zm-49.476,37.477l-0.276,-0.478l18.203,-10.51l-18.619,-4.989l-16.304,16.396l-0,1.751l14.975,14.975l0,-17.145l2.021,-0Zm-2.021,81.236l0,-39.821l-14.975,25.938l-0,28.858l14.975,-14.975Zm-14.975,-65.657l-0,32.811l12.009,-20.801l-12.009,-12.01Zm6.892,-98.752l15.836,59.101l21.632,5.796l-37.468,-64.897Zm-87.567,-43.192l80.034,-0l28.373,-28.374l-63.121,-16.913l-45.286,45.287Zm-110.37,-58.796l46.892,27.073l-15.631,-58.334l-31.261,31.261Zm58.505,33.778l40.241,23.233l17.983,-17.984l-6.605,-24.65l-61.213,-16.402l9.594,35.803Zm210.975,4.8l-0,0.818l-37.347,-0l62.382,62.382l48.876,-84.655l-8.878,-15.378l-64.724,37.369l-0.309,-0.536Z"/></g></svg>