<svg xmlns="http://www.w3.org/2000/svg" viewBox="0 0 200 100" style="fill: #fff;">
  <path d="M114.332 0a.501.501 0 00-.123.018l-3.082.826a.501.501 0 00-.281.195l-2.463 3.496a.501.501 0 00-.088.358l.824 5.941a.501.501 0 000 .006l.002.012a.501.501 0 00.006.04.501.501 0 00.01.036.501.501 0 00.004.012.501.501 0 00.016.039.501.501 0 00.011.025l4.692 11.053.777 3.615-15.129 4.492a.501.501 0 00-.035.014.501.501 0 00-.027.012.501.501 0 00-.02.007.501.501 0 00-.01.006.501.501 0 00-.043.026.501.501 0 00-.003.002.501.501 0 00-.028.02l-23.88 16.257a.501.501 0 00-.001.002l-.02.013a.501.501 0 00-.039.03.501.501 0 00-.037.035.501.501 0 00-.012.01.501.501 0 00-.011.011l-9.266 10.102-5.869 4.266a.501.501 0 00.371.9l10.815-1.676-2.395 3.828a.501.501 0 00.521.758l10.563-2.074a.501.501 0 00.045-.012l5.558-1.65a.501.501 0 00.079-.031l8.066-3.961-2.816 7.052a.501.501 0 00.341.67l8.159 2.094-.4 7.871a.501.501 0 00.009.127l4.107 19.774-3.964 3.826a.501.501 0 00.443.851l3.65-.713 8.043 1.381a.501.501 0 00.534-.717l-.407-.812 3.12-.986a.501.501 0 00-.122-.979l-5.738-.336-3.215-1.06-2.289-15.174.168-4.299a.501.501 0 00-.06-.26l-.938-1.717.438-5.908 6.744 1.717-2.53 1.049a.501.501 0 00.032.937l1.591.537-2.468 5.235a.501.501 0 00.718.639l1.24-.772 1.669 5.564a.501.501 0 00.978-.1l.772-8.376 2.44-6.234a.501.501 0 00-.335-.666l-10.6-2.907.083-1.111 2.195-5.678 3.31-5.847 10.873-9.293a.501.501 0 00.004-.004.501.501 0 00.032-.03.501.501 0 00.004-.006.501.501 0 00.021-.023.501.501 0 00.012-.014.501.501 0 00.025-.037.501.501 0 00.002-.004.501.501 0 00.024-.039.501.501 0 00.002-.006.501.501 0 00.011-.027.501.501 0 00.008-.018.501.501 0 00.004-.011.501.501 0 00.012-.04l2.793-11.107a.501.501 0 00.004-.224l-1.287-6.203a.501.501 0 00-.018-.063l-4.197-12.094 12.934 11.598a.501.501 0 00.742-.664L119.963 8.33l-.809-5.031a.501.501 0 00-.216-.338l-4.32-2.877a.501.501 0 00-.286-.084zm-.197 1.074l2.61 5.662-7.145-2.19 1.96-2.782zm1.52.905l2.546 1.695.631 3.928-.781-.42zm-6.26 3.554l6.767 2.074-6.137 2.473zm8.48 2.692l1.271.687 8.137 11.397-10.707-9.6zm-1.283.29l-1.078 2.063a.501.501 0 00-.002.004l-.002.006a.501.501 0 00-.03.398l3.877 11.172-8.927-11.16zm-5.086 5.432l8.39 10.489-4.289.982-.779-3.62a.501.501 0 00-.027-.089zm8.892 11.4l1.069 5.15-10.276.847 4.301-4.871zm-6.705 1.651l-3.9 4.416-7.711-.969zm-13.207 4.258l8.864 1.113-3.194 11.111zm20.93.248l-2.396 9.53-7.965-8.675zm-21.832.19l5.924 12.77-14.664 1.143zm-1.633.714l-7.715 12.28-.691-6.555zm12.278.531l8.091 8.815-11.34 2.486zm-21.624 5.832l.73 6.94-11.847.629zm28.83 4.202l-8.847 7.56-1.678-5.252zm-13.665 2.632L85.15 54.98l5.036-8.316zm2.287.295l1.68 5.26-8.755 4.729-.687-1.215zm-1.893.63l-6.617 7.476-.168-.057-.067.197-10.746 1.243zm-16.17.255l-11.066 6.969-.653-6.346zm.37.953l-4.788 7.907-5.762-1.264zm-13.026.358l.63 6.129-8.068 1.978zm31.709 4.578l-2.516 4.443a.501.501 0 00-.03.067l-1.864 4.82-3.149-5.25zM76.52 55.123l5.271 1.156-8.268 2.408-1.097.32-4.4-1.802zm18.34.316l-9.499 4.663-5.437 1.615 4.154-5.031zm1.96.153l-2.341 6.892a.501.501 0 00.341.645l4.819 1.314-.073 1.412-7.41-1.9 3.018-7.555zm.979.238l.555.98a.501.501 0 00.005.01.501.501 0 00.022.036l1.516 2.529-.206 4.033-4.093-1.115zm-15.4 1.316l-4.034 4.883-7.906 1.553 2.262-3.617zm-15.915.508l4.06 1.664-8.073 1.252zm34.338 3.274l1.4 2.336-.777 10.463a.501.501 0 00.06.277l.942 1.723-.166 4.209a.501.501 0 00.006.093l2.344 15.528a.501.501 0 00.338.4l3.568 1.176a.501.501 0 00.13.025l3.095.182-1.094.346a.501.501 0 00-.297.703l.225.449-7.158-1.229a.501.501 0 00-.182.002l-2.076.407 2.945-2.842a.501.501 0 00.143-.463l-4.15-19.98zm2.246 4.459l9.873 2.707-2.261 5.781a.501.501 0 00-.034.137l-.539 5.875-1.115-3.715a.501.501 0 00-.744-.283l-.355.22 1.984-4.207a.501.501 0 00-.295-.687l-.86-.291 2.688-1.113a.501.501 0 00-.068-.95l-8.373-2.132z"/>
</svg>
