<?xml version="1.0" encoding="UTF-8" standalone="no"?><!DOCTYPE svg PUBLIC "-//W3C//DTD SVG 1.1//EN" "http://www.w3.org/Graphics/SVG/1.1/DTD/svg11.dtd"><svg width="100%" height="100%" viewBox="0 0 790 465" version="1.1" xmlns="http://www.w3.org/2000/svg" xmlns:xlink="http://www.w3.org/1999/xlink" xml:space="preserve" xmlns:serif="http://www.serif.com/" style="fill-rule:evenodd;clip-rule:evenodd;stroke-linejoin:round;stroke-miterlimit:2;"><rect id="shiny_i18n" x="0.342" y="0.1" width="788.726" height="463.956" style="fill:none;"/><clipPath id="_clip1"><rect x="0.342" y="0.1" width="788.726" height="463.956"/></clipPath><g clip-path="url(#_clip1)"><rect id="retreat-logo" serif:id="retreat logo" x="0.342" y="364.056" width="519.685" height="519.685" style="fill:none;"/><path d="M459.654,365.976l-25.729,13.333l-0.86,36.055l-41.622,28.787l30.608,2.001l28.685,-8.146l46.522,-0.333l-37.604,-22.822l0,-48.875" style="fill:#4e4e50;"/><path d="M459.654,387.8l-24.669,13.189l-0.21,-24.468l24.879,-10.545l0,21.824Z" style="fill-opacity:0.26;"/><path d="M544.671,76.965l-17.931,-52.453l-35.806,-18.976l-54.839,2.335l-42.992,24.312l-34.062,122.072l-99.348,171.498l-81.926,79.863l43.955,1.428l-15.715,34.896l102.873,-25.547l20.038,-22.978l77.374,-19.188l12.471,11.714l66.276,-35.225l21.623,-76.788l22.762,-24.017l15.161,-57.656l-14.929,-55.901l15.015,-59.389Z" style="fill:#d2ab7c;"/><path d="M309.803,243.659l61.068,-86.183l-13.904,-0.638l-47.164,86.821" style="fill:#fff;"/><path d="M527.058,93.057l-7.52,-33.457l-28.529,-13.335l-18.364,75.424l-30.532,1.422l-23.501,-75.559l-34.516,22.891l14.236,49.615l49.543,49.749l48.54,-23.814l30.643,-52.936Z" style="fill:#fff;"/><path d="M453.272,158.581l15.105,-9.552l38.339,-92.674l-13.639,-10.09l-24.7,84.792l-15.105,27.524Z" style="fill-opacity:0.15;"/><path d="M468.377,123.111l-24.258,1.145l9.153,27.069l15.105,-28.214" style="fill:#b37734;"/><path d="M370.871,116.494l92.335,91.543l30.335,-17.797l27.074,-21.29l22.489,-89.215l-45.445,72.129l-47.616,22.08l-50.322,-46.269l-21.582,-57.232l-7.268,46.051Z" style="fill-opacity:0.24;"/><path d="M325.005,244.703l-63.545,82.422l38.684,-78.613l33.451,-5.125" style="fill:#fff;"/><path d="M433.412,222.247l-118.889,99.367l95.526,-99.367l23.363,0Z" style="fill:#fff;"/><path d="M356.178,234.56l-107.227,99.761l10.461,33.74l147.57,-145.814l-50.804,12.313Z" style="fill:#b37734;fill-opacity:0.25;"/><path d="M455.342,223.738l-182.081,140.528l143.46,-34.108l59.755,-107.911l-21.134,1.491" style="fill:#b37734;fill-opacity:0.18;"/><path d="M529.171,136.928l-13.874,38.92l-21.567,19.303l-77.004,136.262l-156.385,38.712l-12.376,-31.683l-70.198,68.536l45.607,0.582l-13.785,34.38l99.133,-24.129l24.678,-24.396l67.083,-16.888l17.638,12.059l65.15,-36.63l20.395,-79.733l25.879,-23.094l15.126,-58.957l-15.5,-53.244" style="fill:#b37734;"/><path d="M253.587,353.232l-29.862,56.038l-45.958,-2.437l69.272,-72.512l6.548,18.911Z" style="fill-opacity:0.27;"/><path d="M537.281,165.64l-8.785,18.835l-25.275,22.093l-72.445,129.757l-43.178,16.5l-136.481,35.459l-11.547,-40.717l7.312,-11.242l12.349,33.083l154.401,-39.792l80.583,-136.249l27.268,-28.354l8.576,-28.085l7.222,28.712Z" style="fill-opacity:0.17;"/><path d="M494.617,0.775l0.072,-0.125l38.117,22.006l0.092,-0.024l14.995,55.963l0.138,0.037l-0.064,0.239l0.064,0.238l-0.138,0.037l-14.567,54.367l15.402,57.481l0.119,0.032l-0.055,0.206l0.055,0.207l-0.119,0.032l-16.113,60.131l0.046,0.046l-25.349,25.35l-20.133,75.373l-0.17,-0.045l0.054,0.093l-23.815,13.75l-0,44.518l36.217,20.91l0.235,0l0,0.136l0.348,0.201l-0.348,0.601l0,7.932l-46.236,-0l-32.437,8.691l-0.079,-0.293l-36.548,-0l-0,-8.87l0.466,0l-0.227,-0.393l44.903,-25.925l-0,-28.048l-12.833,7.409l-0.044,-0.076l-0.093,0.093l-12.85,-12.851l-73.504,19.695l-20.038,20.038l-0.306,-0.307l-103.486,27.729l-0.111,0.191l-0.19,-0.11l-0.136,0.036l-0.036,-0.135l-7.319,-4.226l6.121,-10.602l-0.098,-0.171l0.296,-0.171l11.629,-20.143l-39.183,0l-0.146,0.146l-0.145,-0.146l-0.338,0l-0,-0.338l-5.788,-5.788l83.587,-83.587l0.019,0.019l99.375,-172.122l32.35,-120.731l0.184,0.049l-0.264,-0.457l49.231,-28.423l0.066,0.115l0,-0.074l59.125,-0l-0,0.084Zm-56.886,8.785l-43.696,25.228l-6.295,23.494l26.814,-15.481l-0.023,-0.086l8.567,-2.296l21.124,78.837l23.569,0l21.217,-79.186l8.568,2.296l-0.023,0.086l27.997,16.164l0.192,-0l-0,0.111l0.077,0.045l-0.076,0.133l0.088,27.894l2.998,-1.731l0.072,0.125l7.908,-13.696l-11.503,-42.929l-32.922,-19.008l-54.653,0Zm101.878,181.672l-10.875,-40.584l-5.758,21.491l-0.436,-0.117l0.017,0.017l-24.502,24.503l-19.652,34.038l16.088,60.044l4.875,-18.252l0.178,0.048l-0.099,-0.099l25.185,-25.185l14.979,-55.904Zm-233.489,220.222l64.333,-64.333l-0.911,0.244l-152.212,87.88l88.79,-23.791Zm148.258,-40.164l-15.967,9.218l0,28.17l15.967,-9.219l0,-28.169Zm40.098,-226.472l25.7,-44.513l-48.865,28.212l-17.959,31.106l-7.441,-4.297l-0.223,0.06l-7.86,-29.333l-46.678,-46.678l11.168,41.682l48.797,48.796l43.361,-25.035Zm-14.911,201.688l10.435,-39.065l-66.216,17.742l-5.273,9.132l-0.084,-0.048l-30.84,8.263l-44.825,44.826l63.606,-17.044l0.003,-0.002l0.001,0.001l0.048,-0.013l0.021,0.082l11.63,11.63l61.494,-35.504Zm-97.537,-266.905l-18.811,70.203l55.305,-0l-24.044,-24.044l-0.077,0.02l-12.373,-46.179Zm79.267,48.525l-13.729,-0l4.352,16.242l9.377,-16.242Zm33.881,-76.804l-16.856,62.907l38.657,-22.319l-0.088,-28.053l-21.713,-12.535Zm-40.699,364.215l-0.099,0l0,-5.836l-37.669,21.748l-0.052,-0.091l-14.96,8.637l19.258,0l31.082,-8.328l-0,-0.07l0.26,0l0.039,-0.01l0.003,0.01l29.387,0l-27.391,-15.814l0.142,-0.246Zm-208.597,-72.028l-59.65,59.65l35.435,-0l27.456,-47.556l-3.241,-12.094Zm289.433,-251.683l-34.252,59.326l0.046,0.08l-0.138,0.079l-0.268,0.465l-0.268,-0.155l-16.899,9.757l13.595,23.546l18.084,-18.084l8.93,-33.327l-0.117,-0.437l0.252,-0.067l11.035,-41.183Zm-118.383,-40.155l-25.955,14.985l40.941,40.941l-14.986,-55.926Zm-156.657,277.445l-7.151,7.151l7.563,28.223l135.798,-135.798l-91.833,24.606l-43.924,76.079l-0.453,-0.261Zm99.009,-170.443l-48.361,83.762l98.762,-26.463l0,-0.02l0.075,0l0.108,-0.029l0.008,0.029l33.697,0l45.922,-26.513l-13.64,-23.627l-26.244,15.153l-0.191,-0.331l-0.033,0.033l-21.994,-21.994l-68.109,0Zm53.614,66.149l-138.985,138.985l138.805,-37.193l56.168,-97.287l-0.027,-0.103l0.103,-0.027l2.526,-4.375l-58.59,-0Zm48.414,-8.87l15.296,0l7.649,-13.247l-22.945,13.247Zm26.222,82.967l-15.401,-57.476l-42.075,72.877l57.476,-15.401Zm-235.164,68.8l-32.091,55.582l116.163,-67.066l-81.751,21.905l-2.296,-8.567l0.44,-0.118l-0.465,-1.736Z"/><ellipse cx="401.624" cy="448.825" rx="180.557" ry="15.206" style="fill-opacity:0.14;"/></g></svg>