<?xml version="1.0" encoding="UTF-8" standalone="no"?><!DOCTYPE svg PUBLIC "-//W3C//DTD SVG 1.1//EN" "http://www.w3.org/Graphics/SVG/1.1/DTD/svg11.dtd"><svg width="100%" height="100%" viewBox="0 0 789 465" version="1.1" xmlns="http://www.w3.org/2000/svg" xmlns:xlink="http://www.w3.org/1999/xlink" xml:space="preserve" xmlns:serif="http://www.serif.com/" style="fill-rule:evenodd;clip-rule:evenodd;stroke-linejoin:round;stroke-miterlimit:2;"><rect id="shiny_telemetry" x="0" y="0.1" width="788.726" height="463.956" style="fill:none;"/><clipPath id="_clip1"><rect x="0" y="0.1" width="788.726" height="463.956"/></clipPath><g clip-path="url(#_clip1)"><rect id="retreat-logo" serif:id="retreat logo" x="0" y="364.056" width="519.685" height="519.685" style="fill:none;"/><ellipse cx="373.214" cy="448.933" rx="164.466" ry="14.889" style="fill-opacity:0.14;"/><path d="M256.86,448.075l0,-9.219c-1.205,-23.112 -4.833,-46.443 -11.061,-69.687c-9.506,-35.475 -24.36,-68.1 -43.465,-97.239l7.869,-5.16c19.641,29.956 34.914,63.495 44.686,99.964c0.688,2.567 1.345,5.136 1.971,7.705l0,-119.571l9.41,-0l0,183.744c0.103,1.994 0.188,3.986 0.256,5.976l-0.256,0.008l0,3.479l-9.41,-0Zm15.606,-0c1.201,-23.991 4.939,-48.217 11.406,-72.349c9.772,-36.47 25.045,-70.008 44.685,-99.964l7.87,5.16c-19.105,29.139 -33.96,61.764 -43.466,97.239c-6.248,23.32 -9.879,46.728 -11.072,69.914l-9.423,-0Zm205.949,-0c0.282,-17.773 -1.409,-35.85 -5.244,-53.969c-2.189,-10.34 -5.011,-20.385 -8.417,-30.102l8.881,-3.113c3.537,10.093 6.469,20.526 8.742,31.266c3.974,18.772 5.731,37.502 5.449,55.918l-9.411,-0Zm21.615,-0c1.213,-16.96 0.64,-34.305 -1.884,-51.815c-5.918,-41.065 -21.871,-78.228 -45.018,-109.362l7.552,-5.615c24.052,32.351 40.63,70.965 46.78,113.634c2.588,17.96 3.201,35.753 2.004,53.158l-9.434,-0Zm14.5,-0l0,-197.176l9.41,-0l0,129.262c9.41,-35.569 26.179,-67.519 48.323,-94.509l7.275,5.969c-24.607,29.993 -42.316,66.352 -50.189,107.087c-3.206,16.587 -4.628,33.109 -4.4,49.367l-10.419,-0Z"/><path d="M427.133,42.08l2.245,-15.496l-21.195,-4.285l-19.529,-18.369l-38.009,0.66l-19.403,15.669l-3.031,20.743l-0,31.099l8.739,11.978l-19.083,35.832l28.169,99.81l16.005,33.388l0.143,74.771c-0,0 -2.256,48.391 -23.63,68.05c-21.373,19.66 -35.212,37.604 -46.212,42.006c-10.999,4.401 -55.169,13.44 -55.169,13.44l35.66,3.915l29.726,-3.915l35.995,-13.375l35.567,-38.602l4.372,-0.694l11.082,41.562l12.252,5.685l35.023,0.148l-6.463,-10.952l-8.778,-5.99l-14.299,-5.295l-8.441,-31.396l18.627,-34.958l12.726,-48.183l-12.43,-50.657l-0.664,-39.515l15.514,17.871l1.512,-37.267l-18.802,-33.64l-20.494,-36.315l-2.447,-25.773l-15.408,-35.794l3.59,-12.232l46.54,-13.924" style="fill:#dfa06c;"/><path d="M366.036,276.634l24.9,67.896l4.088,-43.82l-28.988,-42.464l-0,18.388Z" style="fill-opacity:0.13;"/><path d="M351.639,199.141l39.297,89.896l-49.8,-78.188l10.503,-11.708Z" style="fill:#fff;"/><path d="M388.529,160.133l-42.727,48.695l32.436,-60.283l10.291,11.588Z" style="fill:#d69763;"/><path d="M405.61,24.888l-73.071,41.293l95.816,-21.218l2.837,-16.171l-25.582,-3.904" style="fill-opacity:0.18;"/><path d="M362.626,355.301c-11.604,43.805 -31.771,84.064 -78.153,97.817l-28.705,3.831l30.507,-18.766c33.308,-14.196 56.759,-45.242 76.351,-82.882Z" style="fill:#fff;fill-opacity:0.41;"/><path d="M378.416,58.422l-24.643,51.578l-16.762,58.68l-19.144,-52.364l20.687,-29.372l-10.343,-17.382l50.205,-11.14Z" style="fill:#88664a;"/><path d="M328.206,105.892l8.805,62.788l-19.144,-51.762l10.339,-11.026Z" style="fill:#fff;"/><path d="M411.16,178.395l-15.69,-9.715l-0.803,162.331l-7.987,31.966l-8.264,27.865l11.712,45.926l11.576,10.497l35.146,0.291l-7.039,-13.835l-10.847,-4.995l-13.231,-6.893l-6.947,-34.18l17.306,-25.304l13.687,-53.219l-13.303,-50.962l-1.026,-50.517l-5.434,-16.615l1.144,-12.641Z" style="fill:#88664a;"/><path d="M415.051,230.92l-20.027,-20.995l1.882,-42.863l14.228,11.058l-2.66,26.544l8.655,12.708l-2.078,13.548Z" style="fill-opacity:0.36;"/><path d="M426.012,292.166l-35.076,63.398l24.233,-97.318l10.843,33.92Z" style="fill-opacity:0.09;"/><path d="M375.591,404.135c-32.465,45.29 -90.735,68.127 -147.706,52.862l1.896,-7.076l0,-1.004c0.09,0 0.18,0 0.269,0l0.01,-0.036c0.044,0.012 0.087,0.024 0.131,0.036c71.12,-0.221 128.81,-57.95 128.97,-129.084l-0.007,-0l-0.078,-69.925l-17.497,-30.306l0.392,-0.226l-0.496,0.133l-27.284,-101.827l0.133,-0.036l17.972,-31.129l-8.245,-14.061l-0.041,-0l0,-0.07l-0.023,-0.039l0.023,-0.013l0,-34.667l-0.094,0c0,-20.834 16.915,-37.749 37.75,-37.749l-0,0.004l29.36,0.203l0.047,-0.046l0.047,0.047l0.055,0l-0,0.055l17.775,17.775l19.891,6.061l0.008,-0.029l8.115,2.174l-5.488,20.482l0.031,0.114l-0.066,0.018l-0.028,0.104l-0.178,-0.047l-26.284,7.185l-0.085,0.315l-0.54,-0.144l-20.042,5.479l-2.716,10.137l16.647,29.098l0.052,-0l-0,0.091l0.005,0.009l-0.005,0.003l-0,31.741l40.127,69.502l-0.096,0.056l0,44.105l-8.401,0l-0,-0.122l-0.247,0.142l-8.248,-14.287l-0,30.96l0.197,-0.053l12.984,48.46l-0.111,0.03l0.111,0.03l-14.433,53.867l-0.134,-0.036l-18.253,31.615l6.778,25.296l16.224,4.347l0.001,-0.002l0.003,0.003l0.095,0.025l-0.014,0.052l17.288,16.411l-0.082,0.086l0.348,-0l0,8.401l-43.627,0l-0.024,0.039l-0.063,-0.039l-0.087,0l-0,-0.052l-12.843,-7.781l-0.071,0.019l-0.02,-0.074l-10.078,-37.612Zm-112.722,49.178c44.905,0.249 86.935,-23.087 110.549,-61.036l0.07,0.043l16.716,-62.385l-0,-26.112l-22.71,-39.335l0.061,55.049l0.007,0c0,64.64 -44.608,118.942 -104.693,133.776Zm86.392,-237.207l40.943,70.915l-0,-47.414l-38.58,-38.579l-4.373,7.576l2.01,7.502Zm-26.019,-97.104l11.923,44.499l14.814,-55.285l0.296,0.079l22.918,-39.696l1.706,-6.365l-40.595,11.098l7.352,12.537l0.536,0.31l-18.95,32.823Zm16.272,60.729l4.662,17.396l28.386,-49.167l-19.35,-19.351l-13.698,51.122Zm-7.196,-142.249l0.093,0l0,27.657l36.281,-9.918l-36.187,-20.892c-0.117,1.036 -0.181,2.088 -0.187,3.153Zm29.259,-29.163c-11.988,0.035 -22.295,7.274 -26.815,17.612l7.041,4.065l21.661,-21.66l-1.887,-0.013l0,-0.004Zm26.039,0.184l-12.353,-0.085l-25.927,25.927l30.759,17.759l17.989,-4.918l5.962,-22.253l-16.43,-16.43Zm39.05,23.634l-14.656,-4.466l-4.541,16.949l17.105,-4.676l2.092,-7.807Zm-37.68,67.553l-11.966,-20.917l-19.508,33.79l-1.789,6.676l13.933,13.933l19.33,-33.482Zm0.88,33.298l-0,-18.018l-14.06,24.352l31.793,31.793l0,-7.402l-17.674,-30.613l-0.059,0l-0,-0.102l-0.005,-0.008l0.005,-0.002Zm40.031,69.346l-13.897,-24.069l0,25.721l13.897,24.069l-0,-25.721Zm-16.897,13.258l-5.498,-9.524l0.097,-0.056l0,-23.015l-8.994,-8.995l0,124.579l14.395,-53.725l0,-29.264Zm12.894,93.948l-10.764,-40.171l-23.517,87.767l7.075,26.403l13.767,-23.846l13.439,-50.153Zm-26.724,108.261l-11.906,-44.435l-5.61,20.937l5.428,20.259l12.088,3.239Zm21.363,14.422l-30.94,-8.291l3.317,12.379l8.126,4.923l28.99,-0l-9.493,-9.011Zm-30.329,-204.497l-0,-62.125l-11.491,-11.491l-22.74,39.386l34.231,34.23Z"/></g></svg>