<?xml version="1.0" encoding="UTF-8" standalone="no"?>
<svg
   width="170"
   height="100"
   viewBox="0 0 170 100"
   version="1.1"
   xml:space="preserve"
   style="clip-rule:evenodd;fill-rule:evenodd;stroke-linejoin:round;stroke-miterlimit:2"
   id="svg340"
   sodipodi:docname="shiny-telemetry.svg"
   inkscape:version="1.1.2 (0a00cf5339, 2022-02-04)"
   xmlns:inkscape="http://www.inkscape.org/namespaces/inkscape"
   xmlns:sodipodi="http://sodipodi.sourceforge.net/DTD/sodipodi-0.dtd"
   xmlns="http://www.w3.org/2000/svg"
   xmlns:svg="http://www.w3.org/2000/svg"><defs
   id="defs344" /><sodipodi:namedview
   id="namedview342"
   pagecolor="#ff00ff"
   bordercolor="#666666"
   borderopacity="1.0"
   inkscape:pageshadow="2"
   inkscape:pageopacity="0"
   inkscape:pagecheckerboard="0"
   showgrid="false"
   inkscape:zoom="2.0456434"
   inkscape:cx="44.729204"
   inkscape:cy="125.87727"
   inkscape:window-width="1920"
   inkscape:window-height="1024"
   inkscape:window-x="0"
   inkscape:window-y="28"
   inkscape:window-maximized="1"
   inkscape:current-layer="svg340" />
    <g
   transform="matrix(0.32388909,0,0,0.32388909,-1594.1118,6.2933726)"
   id="g338">
        <g
   transform="matrix(0.535442,0,0,0.535442,1354.85,-392.064)"
   id="g336">
            <path
   d="m 6995.34,1229.94 c -0.01,0 -0.01,0 -0.02,0 -0.45,17.11 -1.03,27.97 -1.03,27.97 l -3.53,-0.19 c 0,0 0.57,-10.74 1.02,-27.67 -22.54,0.75 -47.12,2.56 -73.16,5.96 l -0.46,-3.51 c 26.24,-3.43 51,-5.25 73.7,-6 0.81,-33.79 0.97,-88.89 -4.38,-133.96 -3.53,-29.78 -9.38,-55.16 -19.22,-66.8 l 2.7,-2.29 c 10.13,11.98 16.4,38.02 20.04,68.67 5.36,45.15 5.21,100.34 4.41,134.27 0.01,0 -0.07,3.55 -0.07,3.55 z m 3.53,27.69 c 0,0 6.93,-157.41 17.83,-195.79 l 3.41,0.97 c -10.81,38.06 -17.7,194.88 -17.7,194.88 z m 8.17,-31.48 c 0,0 4.94,-68.78 12.17,-103.93 5.28,-25.7 12.67,-48.22 22.79,-60.19 l 2.71,2.29 c -9.85,11.64 -16.9,33.61 -22.03,58.61 -7.17,34.88 -10.53,75.66 -12.07,103.18 66.89,-0.58 112.29,7.76 118.72,9.02 9,-5.29 14.31,-11.74 18.95,-18.41 5.12,-7.39 5.15,-16.72 4.22,-26.43 -0.98,-10.26 -3.06,-20.94 -2.14,-30.39 1.79,-18.6 1.2,-43.82 -1.83,-73.86 -3.07,-30.32 -3.92,-69.42 -2.85,-79.84 1.04,-10.033 1.59,-13.411 -9.15,-31.435 -11.2,-18.791 -13.37,-46.083 -18.36,-85.262 -1.32,-10.398 -2.45,-18.742 -3.26,-25.792 l -0.03,-0.008 0.02,-0.114 c -2.23,-19.508 -2.02,-29.109 3.17,-45.015 6.9,-21.143 1.55,-27.954 -1.25,-52.976 -2.75,-24.605 5.36,-38.922 20.17,-50.818 0.07,-0.069 0.1,-0.104 0.1,-0.104 l 0.01,0.012 c 0.91,-0.726 1.84,-1.443 2.8,-2.153 6.74,-5.006 18.14,-5.789 29.78,-4.537 10.78,1.161 21.75,3.997 29.18,6.404 0.75,0.17 1.57,0.406 2.46,0.715 l -0.04,0.097 c 3.05,1.058 5.24,1.972 6.21,2.53 2.89,1.671 4.69,3.977 6.62,6.391 1.67,2.083 3.45,4.251 6.49,5.964 6.56,3.686 22.13,12.423 22.13,12.423 0.3,0.174 0.55,0.436 0.71,0.753 0,0 1.45,2.956 1.45,5.488 0,1.394 -0.45,2.192 -1.09,2.968 -0.47,0.567 -1.15,1.097 -1.48,2.598 -0.38,1.801 -1.59,3.107 -3.49,4.033 -2.13,1.043 -5.29,1.595 -8.77,2.237 -4.67,0.86 -6.59,3.309 -6.59,3.309 -0.25,0.333 -0.61,0.57 -1.01,0.668 l -35.11,8.592 c -1.05,0.366 -2.12,0.67 -3.22,0.905 -2.11,0.915 -5.46,3.222 -6.3,8.798 -0.8,5.243 1.15,8.669 4.41,12.348 2.41,2.724 5.5,5.559 8.83,9.171 3.52,3.803 6.04,9.319 7.81,15.681 2.57,9.2 3.64,20.192 4.3,30.034 0.96,14.292 1.91,24.858 2.12,27.131 2.32,3.392 19.48,28.515 23.88,36.251 3.2,5.615 4.79,11.044 5.77,16.237 0.34,0.759 0.54,1.556 0.58,2.393 0.02,0.354 0.02,0.713 0,1.076 0.23,1.477 0.42,2.933 0.6,4.367 0.88,6.959 1.75,19.239 2.03,30.358 0.19,3.037 1.02,15.121 2.35,20.352 l -3.44,0.871 c -0.57,-2.251 -1.05,-5.733 -1.44,-9.255 -0.05,0.069 -0.1,0.137 -0.14,0.204 -0.17,0.22 -0.33,0.428 -0.5,0.625 0.08,1.73 0.22,6.205 -0.22,9.991 -0.26,2.307 -0.78,4.37 -1.55,5.601 l -3.01,-1.878 c 0.57,-0.902 0.85,-2.441 1.05,-4.132 0.27,-2.329 0.3,-4.936 0.27,-6.916 -0.14,0.068 -0.29,0.129 -0.42,0.184 -0.53,2.007 -1.72,5.841 -3.72,8.502 l -2.83,-2.131 c 1.7,-2.252 2.68,-5.502 3.12,-7.22 -0.4,-0.925 -1.93,-4.466 -1.93,-4.467 -2.21,7.692 -5.71,24.261 -0.38,39.241 7.49,21.06 9.94,28.18 12.93,65.09 1.5,18.65 -4.25,36.25 -11.75,51.83 -7.37,15.32 -16.42,28.66 -21.65,39.08 -7.07,14.11 -2.77,33.33 1.76,43.92 1.13,2.65 2.27,4.74 3.27,6.05 0.32,0.42 0.81,0.87 0.91,0.96 1.43,0.31 2.33,0.18 3.69,0.16 2.42,-0.05 6.09,0.1 15.14,2.62 4.4,1.23 6.89,2.26 8.02,3.09 0.22,0.16 0.41,0.32 0.58,0.49 10.97,0.77 70.51,5.11 88.23,10.11 1.11,-24.37 2.31,-71.7 -2.29,-111.56 -2.76,-23.9 -7.55,-45.1 -15.83,-56.85 l 2.89,-2.04 c 8.53,12.09 13.62,33.88 16.46,58.48 6.55,56.73 1.4,128.51 1.4,128.51 l -3.53,-0.25 c 0,0 0.34,-4.77 0.74,-12.83 l -0.05,0.16 c -16.24,-4.98 -75.66,-9.32 -87.82,-10.17 -0.32,0.38 -0.76,0.74 -1.34,1.05 -1.7,0.91 -5.1,1.77 -8.49,2.87 -7.78,2.52 -18.72,5.61 -23.76,7.35 -2.03,0.7 -3.24,0.74 -4.15,0.48 -0.73,-0.21 -1.32,-0.6 -1.94,-1.19 -0.9,-0.87 -1.95,-2.37 -4.96,-4.05 -1.54,-0.86 -3.01,-2.64 -4.32,-5.01 -2.98,0.04 -23.17,0.4 -35.66,3.17 -0.74,1.35 -1.48,2.45 -2.19,3.29 -6.77,7.99 -21.7,13.77 -39.19,15.33 -1.83,0.21 -3.57,0.33 -5.24,0.38 -18.03,1.33 -42.1,5.81 -58.72,6.22 -5.54,0.14 -10.74,-0.95 -13.76,-2.52 -2.35,-1.22 -3.49,-2.88 -3.49,-4.41 -0.01,-1.12 0.53,-2.37 2.04,-3.51 1.51,-1.15 4.26,-2.32 8.6,-3.31 6.05,-1.37 15.4,-2.46 29.1,-2.89 25.43,-0.81 41.86,-4.49 53.24,-9.8 -14.05,-2.43 -55.83,-8.66 -113.83,-8.14 -0.9,17.06 -1.08,28.2 -1.08,28.2 l -3.54,-0.06 c 0,0 0.18,-10.98 1.06,-27.86 h 0.02 z m 170.92,-418.846 5.12,-2.679 -13.09,-3.967 c 2.73,2.195 5.4,4.405 7.97,6.646 z m 36.55,293.226 -29.39,17.47 26.06,15.89 c 1.81,-10.17 3.17,-21.6 3.33,-33.36 z m -35.49,77.19 c 1.41,5.62 2.86,12.15 4.02,17.77 l 5.02,-6.66 z m -19.28,-385.145 15.19,-17.074 c -5.2,0.933 -12.05,2.552 -16.59,5.129 -2.23,1.264 -3.94,2.669 -4.12,4.537 -0.19,1.968 1.31,4.118 4.77,6.819 0.25,0.196 0.5,0.393 0.75,0.589 z m 37.62,36.917 c -0.52,-2.928 -1.14,-5.777 -1.89,-8.468 -1.61,-5.759 -3.81,-10.787 -6.99,-14.23 -0.21,-0.225 -0.42,-0.448 -0.63,-0.667 l -7.07,3.696 c 2.61,2.383 5.09,4.805 7.36,7.282 3.65,3.964 6.79,8.073 9.22,12.387 z m -17.67,71.205 c -1.47,-1.085 -4.75,-3.661 -8.51,-7.543 l 6.04,15.077 3.61,-6.738 c -0.77,-0.443 -1.21,-0.675 -1.21,-0.675 z m -3.36,256.313 c -0.33,3.69 -0.45,7.79 0.39,11.99 l 8.25,-5.74 z m 7.64,43.12 c 0.64,3.22 1.11,5.84 1.34,7.34 0.35,2.31 1.27,7.86 2.72,13.66 l 9.41,-20.78 -7.08,-8.7 z m -54.12,-314.726 c 2.35,15.063 4.96,30.949 7.87,44.475 l 16.22,-26.41 z m 9.47,51.515 c 2.65,11.022 5.5,19.744 8.72,23.858 1.03,1.312 1.95,2.595 2.76,3.85 l 3.35,-54.735 -14.92,24.302 z m -7.26,313.211 c 7.42,-2.49 13.36,-5.94 16.9,-10.12 1.99,-2.35 4.11,-7.04 6.19,-13.13 0.04,-0.11 0.07,-0.22 0.11,-0.32 -3.15,4.2 -7.05,8.98 -11.46,13.49 -3.61,3.7 -7.57,7.2 -11.74,10.08 z m -9.21,-407.332 c 1.76,8.678 3.66,21.081 5.77,34.676 l 26.15,-74.388 -31.49,37.666 z m 73.59,122.928 -19.48,-48.624 c -5.53,12.148 -22.41,49.221 -22.41,49.221 z M 7178.3,712.843 c -2.96,-0.542 -5.99,-0.999 -9,-1.323 -2.1,-0.226 -4.19,-0.391 -6.25,-0.475 -1.75,0.747 -9.2,4.221 -13.9,11.113 -2.77,4.059 -4.59,9.302 -3.73,15.872 0.21,1.586 0.54,3.103 0.96,4.559 1.79,-2.022 4.26,-4.751 5.93,-6.356 -0.8,-2.499 -1.43,-4.963 -1.8,-7.262 -0.53,-3.306 0.38,-5.05 1.57,-5.865 1.19,-0.821 3.05,-0.869 5.16,-0.103 1.61,0.586 3.43,1.622 5.11,2.719 1.47,-1.52 5.28,-5.353 9.72,-8.765 2,-1.539 4.13,-2.983 6.23,-4.114 z m 17,321.707 -7.31,29.33 20.94,-4.31 c -3.42,-10.09 -8.28,-18.33 -13.63,-25.02 z m 45.03,-284.194 c 0.02,-0.03 0.05,-0.061 0.07,-0.091 0.21,-0.267 0.42,-0.498 0.62,-0.726 0.17,-0.208 0.33,-0.401 0.33,-0.776 0,-1.28 -0.54,-2.708 -0.86,-3.431 -2.7,-1.519 -15.76,-8.851 -21.62,-12.147 -0.31,-0.174 -0.61,-0.352 -0.9,-0.533 0.38,1.11 0.85,2.298 1.4,3.454 1.19,2.483 2.76,4.891 4.97,5.751 3.87,1.504 8.01,2.196 10.9,3.245 2.6,0.939 4.3,2.279 4.82,4.102 0.11,0.386 0.2,0.771 0.27,1.152 z M 7154,1109.34 c 0.54,8.61 0.84,16.7 0.9,24.21 l 22.44,-98.92 0.06,0.01 c -2.94,-7.73 -7.16,-14.84 -13.15,-20.51 l -10.17,95.21 z m 69.48,-157.893 c 0.53,-1.131 1.18,-2.324 1.88,-3.558 1.79,-3.122 3.95,-6.534 5.34,-9.852 0.67,-1.608 1.16,-3.186 1.28,-4.687 -0.12,-0.824 -0.26,-1.654 -0.41,-2.492 -0.36,-0.631 -0.92,-1.208 -1.59,-1.761 -1.47,-1.208 -3.5,-2.246 -5.79,-3.212 -4.16,-1.756 -9.12,-3.269 -13.46,-4.852 3.75,4.454 6.84,9.333 8.47,14.441 1.8,5.574 3.19,11.01 4.28,15.973 z m -21.91,200.253 -21.25,3.83 7.73,5.58 z m -140.44,99.9 c -14.39,0.93 -22.07,2.72 -25.27,4.73 -0.34,0.21 -0.61,0.41 -0.82,0.62 -0.12,0.13 -0.23,0.23 -0.24,0.35 -0.02,0.17 0.16,0.27 0.32,0.42 0.32,0.3 0.75,0.58 1.26,0.85 2.65,1.37 7.2,2.24 12.04,2.12 11.91,-0.3 27.64,-2.68 42.22,-4.5 -1.04,-0.23 -2.07,-0.48 -3.09,-0.74 -7.88,-1.94 -15.55,-4.23 -26.4,-3.54 z m 126.88,-86.15 -9.2,6.41 11.45,14.05 9.18,-12.2 z m -31.64,-195.611 24.36,14.848 13.78,-15.392 z m 24.83,19.625 -13.87,15.486 c 9.73,0.6 21.72,1.58 31.76,5.52 z m 31.97,-260.936 c -0.65,-0.723 -1.25,-1.455 -1.83,-2.181 -0.67,-0.846 -1.32,-1.685 -2.02,-2.479 -0.83,0.456 -2.37,1.339 -3.98,2.466 1.31,1.355 2.93,3.615 2.74,6.423 -0.11,1.684 -0.84,3.616 -2.78,5.654 0.8,0.938 1.42,1.825 1.89,2.669 0.55,0.995 0.91,1.944 1.1,2.862 l 8.3,-5.483 c -0.14,-0.271 -0.28,-0.544 -0.41,-0.82 -1.8,-3.739 -2.73,-7.767 -3.01,-9.111 z m -6.58,-7.162 c -0.28,-0.194 -0.57,-0.379 -0.87,-0.556 -1.09,-0.628 -3.8,-1.715 -7.55,-2.942 -1.29,-0.306 -2.31,-0.36 -3.24,-0.145 -1.34,0.312 -2.42,1.179 -3.76,2.401 -0.97,0.886 -2.05,1.948 -3.34,3.163 -0.52,0.983 -2.04,4.321 -1.12,8.001 0.76,3.019 3.2,6.164 8.92,8.586 4.05,1.715 6.58,4.272 7.85,7.244 l 1.32,-0.876 c 0.22,-1.075 -0.01,-2.192 -0.71,-3.439 -1.01,-1.824 -2.9,-3.835 -5.76,-6.228 -1.08,-0.903 -1.66,-1.892 -1.91,-2.893 -0.36,-1.457 -0.01,-3.01 0.92,-4.527 1.94,-3.16 6.67,-6.257 9.25,-7.789 z m -11.57,307.124 8.69,-11.86 c -4.05,-2.42 -8.72,-4.07 -13.56,-5.24 -7.35,-1.77 -15.11,-2.45 -21.92,-2.87 1.13,0.55 2.36,1.18 3.65,1.9 1.18,0.56 2.38,1.21 3.61,1.95 2.53,1.52 5.17,3.41 7.89,5.59 2.85,2.2 5.77,4.73 8.65,7.63 0.99,0.94 1.99,1.9 2.99,2.9 z m -5.15,199.04 c 0.43,1.3 0.88,2.54 1.36,3.71 1.27,3.07 2.64,5.58 4.32,6.52 2.81,1.56 4.17,2.99 5.14,4.01 0.21,0.22 0.36,0.43 0.52,0.59 l 8.43,-13.88 z m 7.93,-32.35 c -0.32,-4.88 -0.1,-9.88 0.94,-14.64 l -6.18,8.2 z m 8.73,29.61 c -0.98,-1.47 -2.07,-3.51 -3.13,-5.99 -1.59,-3.73 -3.14,-8.47 -4.23,-13.69 l -8.56,18.91 z m -51.98,-73.7 c -0.17,3.21 -0.39,6.26 -0.67,9.15 -0.81,8.34 0.81,17.65 1.84,26.76 l 11.12,-41 c 0.49,-7.99 1.17,-15.53 2.31,-22.05 1.59,-9.03 4.13,-16.13 8.11,-19.98 1.04,-1.01 1.9,-1.61 2.57,-1.91 0.58,-0.27 1.09,-0.36 1.53,-0.35 1.44,-9.07 3.89,-29.77 0.49,-50.12 -0.59,-3.54 -1.36,-7.07 -2.34,-10.53 z m 51.29,90.47 c 5.59,-1.8 14.86,-4.45 21.71,-6.67 2.32,-0.75 4.65,-1.37 6.38,-1.98 0.25,-0.09 0.51,-0.2 0.75,-0.31 -1.17,-0.56 -3.09,-1.19 -5.96,-1.99 -9.23,-2.57 -12.47,-2.55 -14.73,-2.48 z m -17.99,-9.23 c -3.39,-8.35 -5.47,-20.53 -6.05,-24.33 -0.4,-2.69 -1.61,-9 -3.1,-15.95 l -17.63,27.61 c -0.83,2.99 -1.69,5.79 -2.57,8.36 -0.88,2.59 -1.78,4.93 -2.68,6.99 11.25,-2.05 26.6,-2.56 32.03,-2.68 z m -5.83,-195.19 c 1.46,4.52 2.54,9.18 3.33,13.87 0.31,1.87 0.57,3.75 0.79,5.62 1.83,-7.33 4.33,-17.35 5.59,-22.42 z m -27.04,-63.999 c 4.36,13.082 -2.07,22.63 -4.4,29.679 -0.01,0.01 -0.01,0.02 -0.01,0.03 0.04,0.04 0.09,0.08 0.14,0.11 0.13,0.08 0.29,0.16 0.46,0.23 0.5,0.21 1.12,0.38 1.84,0.53 0.67,0.14 1.42,0.25 2.24,0.36 0.36,0.04 0.73,0.08 1.12,0.12 l 0.03,-0.06 c 0.04,0.03 0.09,0.05 0.14,0.08 1.84,0.19 3.96,0.33 6.28,0.47 l 15.5,-17.32 z m 12.61,39.299 c 6,5.99 10.27,13.37 13.26,21.36 l 10.96,-3.31 c -0.77,-0.85 -1.55,-1.66 -2.33,-2.44 -2.82,-2.68 -5.57,-5.13 -8.24,-7.27 -3.91,-3.03 -7.68,-5.4 -10.96,-7.21 -0.92,-0.44 -1.81,-0.81 -2.69,-1.13 z m 23.5,150.87 10.57,7.63 c 1.1,-3.15 3.31,-9.86 5.6,-18.87 z m -34.61,34.4 c 0.1,7.72 -1.09,14.97 -5.29,21.03 -10.13,14.58 -23.28,28.48 -68.75,31.8 2.01,0.48 3.97,0.99 5.96,1.48 5.7,1.4 11.52,2.65 18.74,2.45 0.7,-0.06 1.4,-0.1 2.09,-0.14 0.94,-0.06 1.87,-0.13 2.79,-0.21 1.22,-0.14 2.48,-0.31 3.79,-0.54 9.17,-1.57 18.05,-8.43 25.45,-16 7.92,-8.1 14.15,-17.08 17.19,-21.78 3.62,-13.75 6.53,-30.73 7.22,-45.43 0.12,-2.6 0.24,-5.21 0.35,-7.81 z m -0.82,-486.567 c -5.42,0.415 -10.2,1.677 -13.65,4.236 -0.9,0.671 -1.78,1.349 -2.64,2.035 -1.84,1.931 -15.38,17.104 -9.53,39.135 0.51,-3.839 1.5,-7.66 2.78,-11.31 4.87,-13.895 13.73,-25.259 13.73,-25.259 l 0.04,0.03 c 2.75,-3.922 6.26,-6.845 9.27,-8.867 z m 41.55,55.966 c 10.4,-2.545 23.86,-5.838 23.86,-5.837 0.97,-1.031 3.56,-3.274 8.35,-4.156 2.64,-0.487 5.08,-0.884 6.95,-1.556 0.15,-0.057 0.31,-0.114 0.45,-0.172 0.19,-0.99 0.44,-3.088 -0.17,-5.212 -0.09,-0.318 -0.33,-0.552 -0.63,-0.773 -0.34,-0.257 -0.76,-0.478 -1.24,-0.681 l 0.01,0.042 -31.44,9.33 c -1.2,3.199 -3.33,6.342 -6.14,9.015 z m -16.29,352.481 c -0.99,3.1 -1.88,5.59 -2.12,6.25 -0.25,1.61 -2.14,14.09 -1.57,19.12 0.22,1.99 -0.06,4.59 -0.41,7.6 5.64,-1.02 28.86,-5.19 28.86,-5.19 l -24.35,-27.53 z m -31.68,-113.39 c -0.01,0.12 -0.02,0.24 -0.03,0.36 -1.07,10.33 -0.2,49.07 2.84,79.12 0.16,1.64 0.32,3.26 0.47,4.87 l 8.46,-79.22 c -1.72,-1.34 -3.56,-2.57 -5.54,-3.67 -1.01,-0.11 -1.93,-0.24 -2.75,-0.39 -1.43,-0.27 -2.59,-0.63 -3.45,-1.07 z m 28.38,180.95 c -1.21,-5.36 -2.52,-10.71 -3.71,-14.76 -1.95,-6.68 -1.42,-13.27 -0.79,-18.72 0.39,-3.34 0.82,-6.2 0.59,-8.31 -0.63,-5.65 1.62,-20.24 1.62,-20.24 0.02,-0.11 0.05,-0.23 0.09,-0.34 0,0 3.83,-10.34 4.9,-16.68 0.1,-0.59 0.18,-1.13 0.23,-1.62 l -0.03,-0.01 c 0,0 0.02,-0.07 0.05,-0.22 0.01,-0.16 0.02,-0.32 0.02,-0.47 -0.27,0.21 -0.58,0.46 -0.87,0.74 -3.57,3.46 -5.65,9.92 -7.08,18.05 -2.24,12.8 -2.66,29.62 -3.43,45.97 -0.58,12.23 -2.67,26.02 -5.42,38.29 z m 6.42,-80.21 c -0.24,2.37 -1.03,5.6 -1.93,8.74 l 25.38,-15.1 -23.02,4.05 c -0.2,1.15 -0.36,1.94 -0.43,2.31 z m -24.08,-307.92 -24.82,70.593 20.5,-29.404 c 3.73,-17.809 5.24,-28.839 5.04,-35.733 -0.06,-2.288 -0.3,-4.069 -0.72,-5.456 z m 66.87,173.027 c 0.13,0.143 0.24,0.309 0.32,0.493 0,0 3.22,7.462 3.22,7.462 0.66,-0.361 1.51,-0.975 2.26,-2.001 0.5,-0.684 0.95,-1.535 1.3,-2.586 -1.7,-1.907 -5.18,-5.946 -7.91,-9.873 0.39,2.71 0.65,4.928 0.81,6.505 z m -25.15,-95.542 c -0.33,-3.62 -1.17,-13.415 -2.03,-26.163 -0.06,-0.935 -0.13,-1.881 -0.2,-2.835 l -0.3,0.012 c -0.02,-0.621 -0.07,-1.237 -0.13,-1.848 l -27.99,36.83 z m 24.09,152.885 c -1.09,-3.27 -2.32,-6.74 -3.74,-10.72 -6.63,-18.66 -0.35,-39.674 1.41,-44.862 -0.3,-3.304 -1.37,-13.365 -4.34,-25.602 l -12.1,34.327 -0.01,-0.004 z m 4.42,-104.458 c -0.93,-3.157 -2.21,-6.393 -4.09,-9.693 -3.55,-6.241 -15.46,-23.87 -21.04,-32.077 -0.51,9.058 -2.44,16.505 -2.98,22.21 -0.36,3.852 -0.17,6.813 2.24,8.715 4.19,3.315 14,5.476 21.25,8.534 1.69,0.716 3.26,1.483 4.62,2.311 z m -21.03,233.708 c 4.51,-7.7 9.67,-16.36 14.2,-25.76 0.51,-1.07 1.02,-2.14 1.51,-3.22 l -10.76,7.68 c -1.54,8.16 -3.33,15.42 -4.95,21.3 z m -42.45,-276.314 29.93,-39.37 -37.31,-1.856 -0.38,0.544 c -0.21,1.002 -0.42,2.025 -0.65,3.069 -3.34,15.499 1.94,28.369 8.41,37.613 z m -5.57,-51.591 13.7,-21.457 c -3.52,-3.037 -7.23,-6.019 -10.99,-8.986 0.2,1.194 0.33,2.547 0.37,4.083 0.16,5.627 -0.76,13.956 -3.08,26.36 z m 66.43,292.645 c 5.04,-12.55 8.35,-26.21 7.2,-40.52 -0.08,-0.9 -0.15,-1.78 -0.22,-2.65 l -16.5,17.2 c 0.05,12.25 -1.24,24.23 -3.04,34.94 z m 6.57,-47.86 c -0.69,-7.82 -1.38,-14.12 -2.14,-19.48 l -0.11,0.05 c 0,0 -1.87,-3.84 -9.49,-15.93 l -9.34,20.68 c 0.68,2.22 1.3,4.52 1.84,6.9 1.83,8.08 2.77,16.4 3.05,24.65 z m -69.92,-344.126 c -1.97,-1.541 -5.41,-4.054 -8.19,-5.062 -0.45,-0.163 -0.88,-0.284 -1.27,-0.335 -0.26,-0.035 -0.5,-0.091 -0.67,0.028 -0.15,0.101 -0.15,0.318 -0.18,0.59 -0.05,0.481 -0.02,1.075 0.1,1.798 1.25,7.815 5.74,17.632 9.46,23.8 1.51,2.493 2.85,4.374 3.8,5.18 0.97,0.82 2,0.319 2.91,-0.506 1.43,-1.285 2.61,-3.404 3.25,-5.416 0.97,-3.087 4,-4.776 8.04,-5.319 5.47,-0.738 12.87,0.527 17.35,1.296 0.3,0.05 0.6,0.099 0.9,0.145 -1.07,-1.82 -2.86,-3.354 -5.47,-4.457 -7.18,-3.038 -10.03,-7.202 -10.97,-10.989 -0.12,-0.461 -0.21,-0.917 -0.27,-1.368 -1.54,2.333 -3.39,4.94 -5.36,7.337 -3.97,4.828 -4.13,7.662 -6.5,12.37 -0.91,1.808 -2.04,2.222 -2.81,2.211 -0.69,-0.01 -1.45,-0.329 -2.09,-1.175 -0.6,-0.8 -1.22,-2.385 -1.82,-4.248 -0.75,-2.299 -1.53,-5.087 -2.64,-6.823 -1.57,-2.489 -0.93,-4.862 0.53,-6.804 0.57,-0.754 1.27,-1.43 1.96,-2.001 -0.1,-0.112 -0.15,-0.18 -0.15,-0.18 z m 36.67,19.954 c -0.53,-0.063 -1.17,-0.157 -1.89,-0.278 -3.35,-0.565 -8.92,-1.616 -13.85,-1.605 -2.16,0.005 -4.2,0.208 -5.8,0.806 -1.23,0.455 -2.19,1.13 -2.55,2.269 -1,3.174 -3.15,6.482 -5.51,7.933 -2.05,1.257 -4.25,1.364 -6.31,-0.379 -1.12,-0.949 -2.77,-3.115 -4.54,-6.05 -2.29,-3.798 -4.85,-8.914 -6.84,-14.153 -0.14,0.14 -0.28,0.285 -0.42,0.434 -1.9,2.001 -4.21,4.644 -5.46,6.089 2.47,5.987 6.22,10.942 8.76,15.617 2.04,3.755 3.36,7.358 3.07,11.075 -0.08,1.082 -0.3,2.179 -0.68,3.297 8.35,-3.748 20.97,-5.254 22.82,-5.46 l -0.01,-0.039 c 0.44,-0.059 0.88,-0.13 1.32,-0.214 1.16,-0.462 2.05,-0.629 2.32,-0.674 l 1.07,-0.26 c 6.08,-2.191 10.89,-6.792 13.16,-11.737 1.02,-2.224 1.52,-4.52 1.34,-6.671 z m -22.02,-20.834 c -4.56,2.882 -7.87,3.385 -10.08,3.168 -0.39,-0.039 -0.76,-0.101 -1.11,-0.179 -0.77,0.514 -1.8,1.305 -2.53,2.275 -0.6,0.796 -1.01,1.755 -0.37,2.775 1.46,2.288 2.49,6.197 3.45,8.914 0.06,0.166 0.13,0.342 0.2,0.518 2.1,-4.44 2.56,-7.339 6.49,-12.118 1.49,-1.813 2.8,-3.636 3.95,-5.353 z m -43.6,42.567 c 1.33,3.826 2.53,7.403 3.31,10.73 0.76,3.241 1.14,6.258 0.95,9.057 4.38,-4.511 8.33,-8.177 10.8,-10.389 3.77,-3.503 5.45,-6.604 5.69,-9.646 0.24,-3.068 -0.96,-6.009 -2.65,-9.109 -3.82,-7.017 -10.07,-14.7 -11.46,-25.233 -0.21,-1.642 -0.28,-3.213 -0.23,-4.712 -2.02,3.684 -4.1,8.012 -5.72,12.631 -2.59,7.407 -4.04,15.583 -1.98,22.995 0.36,1.045 0.73,2.074 1.08,3.085 0.08,0.19 0.17,0.38 0.25,0.569 z m -1.03,30.827 c -0.76,0.889 -1.51,1.793 -2.25,2.708 -6.21,7.668 -11.7,16.086 -13.06,23.465 0.22,0.264 0.42,0.577 0.62,0.945 0.66,1.251 1.35,3.372 2.06,6.202 l 35.38,-42.31 -0.19,-0.143 c -3.73,-2.922 -5.49,-5.608 -5.99,-7.951 -3.55,3.272 -8.8,8.325 -14.05,14.192 -0.69,1.003 -1.53,1.967 -2.52,2.892 z m 70.16,-53.156 c 0.11,1.094 0.09,2.216 -0.05,3.35 l 24.29,-7.208 c -1.81,-0.478 -3.73,-1.015 -5.58,-1.736 -1.76,-0.683 -3.29,-2.028 -4.58,-3.704 z m -1.85,-22.233 c -0.36,0.331 -0.71,0.669 -1.04,1.014 -1.37,1.466 -2.47,3.014 -0.9,4.326 0.82,0.687 1.57,1.349 2.24,1.99 1.12,-1.204 1.63,-2.307 1.7,-3.327 0.07,-1.058 -0.35,-1.966 -0.84,-2.685 -0.38,-0.546 -0.8,-0.992 -1.16,-1.318 z m -10.96,397.581 17.23,19.47 c 0.57,-2.53 1.13,-5.19 1.67,-7.95 z m -73.12,-262.287 c 0.81,6.9 1.92,15.066 3.21,25.243 1.06,8.307 1.98,16.072 2.89,23.329 l 1.13,-28.748 c 0.01,-0.252 0.07,-0.497 0.18,-0.721 -1.77,-11.417 -3.41,-22.219 -4.93,-30.985 z m 12.48,17.991 24.85,18.634 9.05,-14.745 c -6.68,-9.06 -12.59,-21.716 -10.79,-37.023 z m -3.74,49.961 c 2.23,14.382 4.98,26.287 9.65,36.099 l -1.06,-30.47 c -0.16,-0.642 -0.31,-1.291 -0.46,-1.946 -2.45,-10.568 -4.69,-22.973 -6.74,-35.471 l -1.25,31.793 z m 30.88,-28.293 -3.29,53.749 20.34,-44.665 -0.02,-0.061 -0.14,-0.072 0.06,-0.113 -8.83,-22.052 z m -40.48,-67.534 c -0.62,5.036 -0.67,10.072 -0.28,15.994 l 1.91,-9.141 c -0.56,-2.718 -1.1,-5.032 -1.63,-6.853 z m 73.37,-120.209 c -2,-0.541 -4.13,-1.076 -6.34,-1.58 -3.25,0.605 -7.02,3.002 -10.41,5.615 -3.92,3.015 -7.34,6.373 -8.94,8.015 1.43,1.063 2.47,1.925 2.73,2.143 1.64,0.572 5.22,0.67 11.64,-4.294 1.98,-1.527 3.59,-2.932 4.96,-4.193 0.22,-0.243 0.44,-0.438 0.64,-0.592 1.38,-1.291 2.51,-2.413 3.53,-3.338 0.76,-0.696 1.48,-1.289 2.19,-1.776 z m -13.45,95.918 -16.6,25.986 36.88,1.836 c -2.12,-7.214 -6.57,-13.765 -12.27,-19.967 -2.47,-2.678 -5.16,-5.289 -8.01,-7.855 z m 5.11,-10.855 c -1.86,-1.886 -3.5,-3.619 -4.82,-5.372 -2.85,-3.781 -4.32,-7.662 -3.49,-13.08 0.05,-0.356 0.11,-0.702 0.18,-1.038 l -11.93,13.409 z m 37.49,235.798 c -2.13,-3.35 -4.64,-7.22 -7.56,-11.68 -1.62,-2.46 -3.63,-4.54 -5.93,-6.29 l -9.35,12.76 c 5.44,6.6 10.44,14.69 14.11,24.55 z m -41.19,-124.065 2.63,6.568 6.26,-13.223 c -1.47,-0.985 -2.81,-1.842 -3.96,-2.556 z m 35.51,180.655 c -0.26,-8.26 -1.17,-16.58 -3,-24.66 -0.44,-1.91 -0.92,-3.76 -1.45,-5.56 l -20.61,4.24 z m -27.39,-23.3 c 0.3,12.88 -0.99,24.33 -2,31.05 l 27.32,-4.8 z m 7.95,-117.259 9.99,24.937 12.5,-35.468 c -0.51,-1.819 -1.07,-3.668 -1.67,-5.532 -1.8,-5.624 -5.53,-10.922 -9.91,-15.633 l -10.83,31.723 z m -11.64,-29.043 9.67,24.12 10.1,-29.604 c -0.88,-0.852 -1.77,-1.68 -2.67,-2.484 -3.28,-2.935 -6.65,-5.532 -9.69,-7.699 z m 51.24,43.841 c -0.25,-9.15 -0.89,-19.011 -1.6,-25.925 -1.37,2.774 -3.09,5.561 -4.57,8.151 -0.96,1.68 -1.81,3.269 -2.36,4.708 -0.42,1.129 -0.69,2.126 -0.49,2.964 0.36,1.536 1.55,3.573 3,5.7 1.89,2.793 4.25,5.699 6.07,7.84 0.01,-0.373 0.01,-0.76 0,-1.161 -0.01,-0.547 -0.02,-1.097 -0.04,-1.651 -0.02,-0.402 -0.03,-0.625 -0.03,-0.625 z m -93.96,7.348 c 6.12,10.464 8.37,16.048 8.96,21.014 3.34,-7.963 6.79,-18.578 -4.35,-32.822 -1.89,-2.413 -3.7,-6.316 -5.42,-11.304 z m 66.81,40.083 c 3.17,2.18 5.92,4.85 8.07,8.12 4.2,6.39 7.54,11.6 10.18,15.8 l -27.41,-68.401 -14.71,16.432 z m -8.99,-105.568 c -0.1,-1.301 -0.06,-2.714 0.09,-4.241 0.58,-6.247 2.89,-14.61 3.07,-24.918 l -31.86,6.232 c 6.34,7.707 12.71,11.989 12.71,11.989 v 0.013 c 2.58,1.483 9.09,5.395 15.99,10.925 z m -70.4,-180.24 c -6.5,9.119 -9.49,20.39 -7.73,36.163 2.51,22.431 6.87,30.63 3.24,46.773 1.74,-2.573 3.66,-5.122 5.66,-7.591 0.74,-0.916 1.49,-1.821 2.25,-2.712 l -0.03,-0.031 c 0.08,-0.066 0.15,-0.133 0.23,-0.2 0.72,-0.85 1.45,-1.687 2.18,-2.508 2.7,-4.004 2.56,-8.788 1.26,-14.314 -0.78,-3.309 -1.97,-6.866 -3.3,-10.671 -0.51,-1.174 -0.92,-2.371 -1.26,-3.587 -1.34,-3.823 -2.74,-7.877 -3.95,-12.163 -3.31,-11.74 -1.52,-21.725 1.45,-29.159 z m 215.19,529.568 -3.54,-0.12 c 0,0 3.09,-89.85 16.8,-155.52 5.96,-28.52 14.02,-52.49 24.54,-62.92 l 2.49,2.52 c -10.2,10.11 -17.78,33.46 -23.56,61.12 -13.66,65.42 -16.73,154.92 -16.73,154.92 z m -7.61,-0.76 -3.54,-0.25 c 0,0 9.49,-132.24 -0.51,-184.54 l 3.47,-0.67 c 10.06,52.56 0.58,185.46 0.58,185.46 z"
   style="fill:#ffffff"
   id="path334" />
        </g>
    </g>
</svg>
