<svg xmlns="http://www.w3.org/2000/svg" viewBox="0 0 200 100" style="fill: #fff;">
  <path d="M70.38 9.9a.5.5 0 00-.042.004.5.5 0 00-.045.006.5.5 0 00-.006.002.5.5 0 00-.094.031.5.5 0 00-.039.018.5.5 0 00-.006.004.5.5 0 00-.039.025.5.5 0 00-.008.004.5.5 0 00-.003.004L55.104 21.033a.5.5 0 00.283.903l9.824.261 8.018 6.764-6.983 18.607a.5.5 0 00-.03.139.5.5 0 00.01.148l6.575 28.407a.5.5 0 00.25.328l24.992 13.45.002.001a.5.5 0 00.043.02.5.5 0 00.031.011.5.5 0 00.016.006.5.5 0 00.002 0 .5.5 0 00.047.012.5.5 0 00.002 0 .5.5 0 00.047.008.5.5 0 00.002 0 .5.5 0 00.023 0 .5.5 0 00.023.002.5.5 0 00.002 0h33.928a.5.5 0 00.393-.81l-3.147-3.981a.5.5 0 00-.382-.19l-10.42-.234 9.363-14.508a.5.5 0 00.08-.27v-7.785l4.992.446a.5.5 0 00.291-.065l6.48-3.68 5.333 2.376a.5.5 0 00.685-.325l.998-3.64a.5.5 0 00-.119-.477l-2.818-2.984a.5.5 0 00-.38-.156l-8.862.283 2.48-2.953 7.113.257a.5.5 0 00.395-.17l3.691-4.21a.5.5 0 00.051-.59l-6.586-10.784a.5.5 0 00-.012-.017.5.5 0 00-.017-.024.5.5 0 00-.014-.017.5.5 0 00-.018-.022.5.5 0 00-.015-.015.5.5 0 00-.022-.02.5.5 0 00-.015-.014.5.5 0 00-.024-.017.5.5 0 00-.01-.006l-.008-.006a.5.5 0 00-.006-.004l-6.455-4.394-4.67-9.09a.5.5 0 00-.908.043l-4.664 11.644-6.877 3.065-16.781 4.976-.028.008a.5.5 0 00-.037.012.5.5 0 00-.023.01.5.5 0 00-.016.007.5.5 0 00-.015.008.5.5 0 00-.02.012.5.5 0 00-.035.021.5.5 0 00-.008.006.5.5 0 00-.02.016.5.5 0 00-.037.035.5.5 0 00-.033.037.5.5 0 00-.023.03.5.5 0 00-.014.021.5.5 0 00-.006.008.5.5 0 00-.008.015.5.5 0 00-.016.03l-5.138 9.344 1.097-14.086a.5.5 0 00-.013-.157l-4.22-17.623a.5.5 0 00-.293-.343L70.588 9.939a.5.5 0 00-.006-.001.5.5 0 00-.096-.028.5.5 0 00-.043-.008.5.5 0 00-.006 0 .5.5 0 00-.056-.002zm.675 1.32l19.976 8.42-16.842 8.422zm-1.877.696l-4.098 9.275-8.209-.214zm1.02.166l2.874 15.438-7.062-5.96zm21.689 8.25l3.857 16.098-20.672-7.692zm38.281 3.104l3.945 7.681-7.902 2.197zM74.055 29.6l20.3 14.906-26.89 2.66zm2.949.925l18.916 7.04-.504 6.478zm57.746 1.455l4.703 3.202-11.478-1.32zm-8.332 2.71l14.574 1.675 2.707 14.018-6.48-.235zm-1.022.283l10.926 15.636-2.824 3.362-13.31-10.643.083-.137zm-1.314.216l-4.658 7.473-.13.21-15.02-.972 14.15-4.195a.5.5 0 00.06-.023zm18.35 3.348l4.95 8.104-2.775 3.166zm-39.65 4.268l15.911 1.029-5.533 8.875zm-1.216.224l10.455 9.975-16.001.113zm18.088 1.153l12.367 9.888-17.89-1.025zM95.31 45.414l-.59 7.604-24.692-5.1zm-27.93 2.977l26.8 5.537-20.61 21.217zm44.346 5.617L94.934 66.369l.71-12.25zm1.57.084l13.059 7.543-10.749 3.304a.5.5 0 00-.273.206l-10.215 15.793-10.039-13.432zm2.039.023l17.215.989-5.065 6.029zm28.033.71l2.47 2.614-.769 2.809-5.03-2.24a.5.5 0 00-.452.021l-6.563 3.729-4.425-.395 5.236-6.234zm-48.773.11l-.692 11.98-11.232.296zm32.504 7.518v7.506l-9.703 15.035-6.645 3.94-5.002-7.133 10.324-15.96zm-35.4 5.52l-16.36 6.787 6.334-6.522zm2.292.129l3.62 20.568-23.157-12.461zm1.24 1.28l9.272 12.405-5.908 6.703zm9.872 13.237l4.543 6.48H99.389zm14.695 3.293l8.174.182-2.557 2.877zm-2.037.027l5.799 3.16h-11.13zm11.281.456l2.137 2.705h-4.541z"/>
</svg>
