<svg xmlns="http://www.w3.org/2000/svg" viewBox="0 0 200 100" style="fill: #fff;">
  <path d="M81.34.002a.5.5 0 00-.334.871l5.99 5.377-4.941 2.867a.5.5 0 00-.243.52h-.001l2.164 12.32-.022-.012-5.316 10.418-.016.03a.5.5 0 00-.004.007.5.5 0 00-.006.014.5.5 0 00-.015.04.5.5 0 00-.004.01l-8.426 21.454a.5.5 0 00-.016.047h-.002L66.09 68.307l-.008.025a.5.5 0 00-.004.018.5.5 0 00-.004.011.5.5 0 00-.006.03.5.5 0 00-.002.013.5.5 0 00-.002.026.5.5 0 00-.002.013l-1.06 20.815a.5.5 0 000 .025v7.932a.5.5 0 00.756.428l11.83-7.063 3.619 5.453a.5.5 0 00.271.203l12.393 3.74a.5.5 0 00.543-.779l-2.184-2.885 4.559.495 9.033 3.164a.5.5 0 00.564-.774l-2.183-2.886 8.426.908a.5.5 0 00.328-.914l-6.53-4.325a.5.5 0 00-.146-.066l-7.947-2.143 4.408-2.035a.5.5 0 00.137-.093l.023-.024 19.473-18.79a.5.5 0 00.132-.226l4.545-16.312a.5.5 0 00.016-.088l1.496-16.625a.5.5 0 00-.002-.103l-1.469-12.23a.5.5 0 00-.011-.07l-1.524-5.833-.103.027 1.62-7.672a.5.5 0 00.003-.004.5.5 0 00-.23-.58L121.5 6.064l5.773-5.191a.5.5 0 00-.334-.871h-5.048a.5.5 0 00-.192.037l-8.88 3.682-2.284-.588a.5.5 0 00-.125-.016H98.098a.5.5 0 00-.13.016l-2.386.633L86.59.039a.5.5 0 00-.192-.037zm1.306 1H86.3l7.69 3.187-6.014 1.594zm39.344 0h3.647l-5.21 4.682-6-1.547zM98.682 4.117h11.13l-4.654 26.547h-2.224zm12.125.12l1.359.349-2.582 6.633zm-13.116.005l1.194 7.455-2.739-7.045zm15.452.596l7.084 1.826-13.79 22.5 2.268-12.935zm-17.967.07l4.43 11.405.017-.006 2.074 12.96L88.6 6.653zm-7.518 2.113L97.59 24.17l-6.412-4.252-.026.039-3.175-5.555a.5.5 0 00-.086-.111l-4.764-4.64zm33.518.01l4.595 2.621-4.81 4.639a.5.5 0 00-.076.092l-3.514 5.57-6.662 4.158zm-38.114 3.953l4.08 3.975 6.53 11.426-7.004 5.127zm42.708.059l-4.33 20.486-6.971-5.103 7.228-11.457zm-.729 8.281l1.064 4.072 1.442 11.999-10.559 14.273-12.043-9.232 17.026-7.588a.5.5 0 00.287-.354zM92.203 21.8l6.516 4.318 2.117 3.658-6.123-3.586zm23.942.096l-2.704 4.287-6.187 3.566 2.308-3.766.01.016zm-31.89 1.658l1.47 8.353-5.829.188zm10.255 3.676l7.459 4.367a.5.5 0 00.11.049l1.255 7.841-12.195-5.478zm19.08.021l3.422 6.713-12.383 5.52 1.379-7.864a.5.5 0 00.04-.021zm-20.666.922L90.227 33.6l-2.922-1.313zm22.271.025l5.582 4.086-2.851 1.272zm-12.101 3.467h1.888l-.986 5.635zM85.938 32.9l3.968 14.748L79.99 33.09zm1.136.38l15.942 7.16-11.57 9.074zm-8.125 1.01l4.285 17.946-11.838 1.282zm1.233.86L90.365 50.1l-6.15 1.935zm47.228 2.112l-1.135 12.613h-8.195zm-23.433 3.693l12.388 9.494-12.12 14.1-12.362-14.106zm13.767 9.92h8.442l-.108 1.193-4.045 14.518zm-26.902.123l4.562 13.701-3.875-4.281-6.781-7.502zm26.013.416l4.48 16.422-16.138-2.863zM92.42 52.57l10.879 12.416-6.334 1.235zm-10.03.764l-14.869 13.58 3.499-12.35zm1.43.049l4.66 5.156-20.334 9.16zm5.674 6.275l1.293 1.432 5.182 5.72L79.27 87.25zm-1.068.002L77.682 88.668 67.459 69.106zm16.277 6.24l16.272 2.89-17.842 17.218zm-1.672.159l-15.01 19.289 8.948-18.11zm.588.873l-1.562 20.02-5.393 2.488a.5.5 0 00.08.937l9.2 2.482 4.75 3.145-7.536-.813a.5.5 0 00-.453.8l1.885 2.49-7.524-2.637a.5.5 0 00-.11-.026l-5.768-.625a.5.5 0 00-.454.8l1.955 2.583-10.75-3.246-3.302-4.978 6.777-.31v-.003a.5.5 0 00.371-.191zm-36.65 3.392l10.127 19.383-11.094 6.627v-7.039zm27.261.196l-9.158 18.535-6.215.287z"/>
</svg>
