<svg xmlns="http://www.w3.org/2000/svg" viewBox="0 0 200 100">
  <defs/>
  <path fill="#fff" d="M59.182 5.102L41.1 19.432l6.736 16.464v13.358l15.906-.918-13.41 12.775-.975.06.69.645-.027 20.602-.721.746 1.072-.037 16.783 11.709 14.157-3.637 13.51-16.52 5.001 8.284 5.002-8.254 13.51 16.488 14.154 3.639 16.783-11.709 1.073.037-.72-.746-.028-20.602.69-.644-.975-.06-13.41-12.776 15.908.918V35.896l6.736-16.464-18.084-14.33-15.631 9.15-21.375 21.478-1.789-9.656 5.762-8.517 3.465-.864-.243-.97-3.838.957-6.203 9.174 1.928 10.406h-5.432l1.928-10.406-6.205-9.174-3.838-.955-.24.968 3.465.866 5.76 8.515-1.79 9.653-21.37-21.475zm-.28 1.496l3.858 18.379-.658 8.525-19.567-13.934zm81.842.004L157.11 19.57l-19.568 13.932-.658-8.525zm-80.799.103l13.723 8.033-10.094 9.246zm79.754.002l-3.63 17.275-10.094-9.242zM74.49 15.344l21.326 21.43-5.689 6.246-26.064-18.127zm50.664 0l10.426 9.547-26.064 18.129-5.688-6.247zM42.82 21l18.334 13.055-12.496 1.21zm114 .002l-5.834 14.264-12.496-1.211zm-93.125 4.852l26.116 18.164 8.931 18.066-17.513-8.158-17.645-19.104.328-.03-.857-.612zm72.252 0l.64 8.326-.857.611.329.031-17.641 19.102-17.518 8.162 8.932-18.068zm-74.746 9.199L48.836 47.51V36.252zm77.238 0l12.37 1.199v11.26zm-1.316.092l12.91 13.003-15.549-.896L120.633 53zm-74.602.002l16.49 17.855-13.853-5.75-15.547.896zm34.551 2.113h5.5l-2.75 21.869zm-.927.638l2.812 22.36-8.156-16.494zm7.355 0l5.342 5.868-8.153 16.49zM65.182 48.344l14.588 6.054-10.034 5.499-17.851 1.117zm69.279 0l13.297 12.67-17.856-1.117-10.03-5.499zm-53.52 6.55l16.061 7.481-25.441-2.336zm37.758.003l9.383 5.144-25.441 2.336zm-48.588 6.011l26.446 2.432-34.114 7.437zm59.42.002l7.666 9.867-34.103-7.437zm-60.722.045l-7.664 9.863-9.41-8.793zm62.023 0l17.074 1.07-9.408 8.793zM51.045 62.75l9.445 8.826-9.469 9.805zm97.553 0l.023 18.63-9.469-9.804zM96.93 64.281L68.334 81.326l-6.309-9.435zm5.785 0l34.9 7.61-6.308 9.433zm-2.893.051l4.375 9.48-4.373 7.217-4.377-7.246zm1.131.063l26.701 15.917-22.53-6.88zm-2.264.002l-4.168 9.007-22.519 6.899zm39.82 7.953l9.393 9.728-15.529-.549zm-77.378.002l6.137 9.177-15.53.55zm32.316 2.427L80.932 90.084 69.324 82.17zm12.746.024l24.125 7.367-11.603 7.914zm-38.552 7.713l-.823 10.867-14.783-10.315zm64.359 0l15.611.552-14.79 10.315zm-63.385.38l11.219 7.65-12.033 3.093zm62.41 0l.813 10.739-12.025-3.09z"/>
</svg>
