<?xml version="1.0" encoding="UTF-8" standalone="no"?><!DOCTYPE svg PUBLIC "-//W3C//DTD SVG 1.1//EN" "http://www.w3.org/Graphics/SVG/1.1/DTD/svg11.dtd"><svg width="100%" height="100%" viewBox="0 0 790 465" version="1.1" xmlns="http://www.w3.org/2000/svg" xmlns:xlink="http://www.w3.org/1999/xlink" xml:space="preserve" xmlns:serif="http://www.serif.com/" style="fill-rule:evenodd;clip-rule:evenodd;stroke-linejoin:round;stroke-miterlimit:2;"><rect id="shiny_gosling" x="0.86" y="0.1" width="788.726" height="463.956" style="fill:none;"/><clipPath id="_clip1"><rect x="0.86" y="0.1" width="788.726" height="463.956"/></clipPath><g clip-path="url(#_clip1)"><rect id="retreat-logo" serif:id="retreat logo" x="0.86" y="364.056" width="519.685" height="519.685" style="fill:none;"/><ellipse cx="405.737" cy="448.677" rx="173.994" ry="15.379" style="fill-opacity:0.14;"/><path d="M461.594,54.08l35.45,36.637l-0.814,-16.687l-5.135,-13.462l7.845,-35.549c0,0 -11.088,-18.178 -24.556,-20.133c-13.468,-1.956 -45.4,-1.887 -45.4,-1.887l-26.398,28.796l-1.967,86.119l15.225,52.4l16.519,36.587l-96.195,58.745l-141.883,35.482l63.997,43.217l36.334,18.028l61.51,64.701l42.594,23.672l44.601,-1.552l-31.919,-22.12l27.063,-28.251c-0,0 37.123,-12.091 54.649,-32.672c17.525,-20.581 44.738,-47.053 50.673,-67.829c5.936,-20.776 1.7,-35.391 1.7,-35.391l-77.526,-123.848l-44.894,-74.042l15.538,-11.636l22.989,0.675Z" style="fill:#fff;"/><path d="M319.307,293.118l-117.485,11.363l131.769,-36.007l-14.284,24.644" style="fill:#fde5a2;"/><path d="M497.86,72.414l-18.702,-33.839l-21.137,14.039l38.52,35.571l1.319,-15.771Z" style="fill:#ff8d31;"/><path d="M430.255,82.575l-4.599,102.054l-16.475,-31.395l21.074,-70.659Z" style="fill:#1c1500;fill-opacity:0.21;"/><path d="M458.021,245.582l-11.002,57.283l29.828,-51.615l-18.826,-5.668Z" style="fill:#fde5a2;"/><path d="M458.021,246.443l-162.86,116.077l-22.215,-13.469l179.708,-101.491l5.367,-1.117Z" style="fill-opacity:0.17;"/><path d="M427.104,213.458l-12.231,52.451l37.781,-22.432l-18.263,-34.946l-7.287,4.927Z" style="fill-opacity:0.14;"/><path d="M427.104,64.306l-14.54,-42.81l-9.921,11.948l24.461,30.862Z" style="fill:#170800;fill-opacity:0.12;"/><path d="M481.862,247.56l-88.154,158.808l-40.248,15.085l40.193,29.293l54.338,-0l-34.485,-23.672l25.764,-31.057c-0,-0 68.455,-24.022 89.321,-69.997c20.865,-45.974 23.256,-59.387 23.256,-59.387l-69.985,-19.073Z" style="fill:#d5b7a7;"/><path d="M409.181,428.252l-17.105,16.901l7.506,6.041l43.475,0.006l-33.876,-22.948Z" style="fill:#8b8573;"/><path d="M409.181,429.915l5.692,20.847l-20.984,-4.094l15.292,-16.753" style="fill-opacity:0.15;"/><path d="M506.15,29.377l-2.386,1.378l-8.136,30.361l6.911,11.97l-0.025,0.015l1.099,18.491l0.063,0.063l-6.136,6.136l-41.574,-41.574l-16.696,0l-10.421,10.421l125.352,199.283l-0.085,0.053l0.014,0.002c-9.956,62.392 -53.901,113.508 -112.228,133.738l-26.414,26.415l35.361,20.416l-0.014,0.024l0.068,0l0,8.678l-53.403,-0l0,-0.058l-41.067,-23.71l-0.022,0.022l-0.082,-0.083l-0.039,-0.022l0.006,-0.01l-66.668,-66.668l-101.557,-58.634l4.339,-7.515l0.029,0.017l-0.012,-0.045l141.136,-37.817l96.296,-55.596l-20.511,-35.525l0.256,-0.148l-13.716,-51.188l-0.178,-0l0,-88.143l-0.081,-0.086l31.681,-30.117l38.743,-0l-0,0.109c18.467,0.918 34.079,12.759 40.501,29.189l-0.404,0.158Zm-99.426,2.086l17.387,27.642l9.843,-9.843l-9.329,-34.816l-17.901,17.017Zm25.317,-22.865l10.435,38.942l14.86,-0l15.337,-8.855l-0,-28.955c-2.863,-0.706 -5.855,-1.08 -8.934,-1.08l-0,-0.052l-31.698,0Zm49.309,4.473l-0,20.604l13.729,-7.926c-3.421,-5.3 -8.15,-9.679 -13.729,-12.678Zm-47.153,199.572l-95.086,54.898l-32.383,56.088l143.66,-82.942l-16.191,-28.044Zm-29.81,-96.184l4.35,16.234l15.358,-57.316l-19.708,-31.331l0,72.413Zm72.613,-70.253l-11.901,6.872l29.272,29.272l-0.402,-6.753l-7.436,-12.881l-0.296,-0.079l0.079,-0.295l-9.316,-16.136Zm-273.99,258.483l68.261,39.411l20.428,-11.794l35.093,-60.784l-123.782,33.167Zm206.125,127.792l-12.302,12.303l3.093,1.785l33.611,0l-24.402,-14.088Zm130.814,-163.452l-46.068,-12.344l0,58.412l46.068,-46.068Zm-121.963,-101.82l41.088,71.166l81.241,21.769l-109.92,-174.751l-17.166,64.063l4.757,17.753Zm75.15,-130.319l-8.621,4.978l4.978,8.62l3.643,-13.598Zm-7.932,217.47l-0.662,-0.177l-30.83,53.398l31.492,18.182l-0,-71.403Zm-205.255,94.75l15.07,8.7l-0.01,0.017l57.253,57.253l34.74,-9.308l54.856,-95.015l-47.74,-27.563l-114.169,65.916Zm231.405,-8.25c14.645,-17.967 25.5,-39.144 31.342,-62.306l-48.815,48.815l0,3.404l17.473,10.087Zm-54.252,-94.03l-54.307,31.354l43.402,25.058l29.667,-51.384l-18.762,-5.028Zm-68.049,193.462l35.634,-35.634l-65.34,17.507l2.31,2.31l27.396,15.817Zm45.192,-47.179l-0.003,-0.011c27.732,-8.644 52.263,-24.576 71.348,-45.55l-19.9,-11.489l-0.486,0l-0,-0.28l-35.831,-20.687l-50.518,87.5l35.39,-9.483Z"/><path d="M491.808,254.624l-62.013,145.932l-35.488,5.641l86.301,-158.637l11.2,7.064Z" style="fill-opacity:0.11;"/></g></svg>