<?xml version="1.0" encoding="UTF-8" standalone="no"?><!DOCTYPE svg PUBLIC "-//W3C//DTD SVG 1.1//EN" "http://www.w3.org/Graphics/SVG/1.1/DTD/svg11.dtd"><svg width="100%" height="100%" viewBox="0 0 789 465" version="1.1" xmlns="http://www.w3.org/2000/svg" xmlns:xlink="http://www.w3.org/1999/xlink" xml:space="preserve" xmlns:serif="http://www.serif.com/" style="fill-rule:evenodd;clip-rule:evenodd;stroke-linejoin:round;stroke-miterlimit:2;"><rect id="shiny.benchmark" x="0" y="0.158" width="788.726" height="463.956" style="fill:none;"/><clipPath id="_clip1"><rect x="0" y="0.158" width="788.726" height="463.956"/></clipPath><g clip-path="url(#_clip1)"><rect id="retreat-logo" serif:id="retreat logo" x="0" y="364.114" width="519.685" height="519.685" style="fill:none;"/><ellipse cx="383.557" cy="450.267" rx="259.997" ry="15.414" style="fill-opacity:0.14;"/><path d="M658.079,321.587l-6.201,4.251l6.283,11.227l-3.354,21.428l-9.278,-8.982l-62.68,3.206l-39.595,11.324l-147.057,14.851l-178.322,-82.938l-147.956,-23.159l291.711,-33.533l-34.69,-18.011l-3.403,-66.544l-78.247,-35.982l-27.415,-109.341l11.263,3.961l191.637,87.739l-16.892,-53.111l172.025,76.376l64.479,33.058l6.882,15.009l-1.679,20.521l-14.32,21.13l-26.979,13.744l-61.037,22.308l49.465,25.339l31.576,19.781l33.784,26.348Z" style="fill:#8f382c;"/><path d="M529.294,250.308l-202.202,-34.26l-5.526,-59.817l209.748,92.696" style="fill-opacity:0.26;"/><path d="M525.806,250.308l-204.24,-66.978l1.925,-27.099l202.315,94.077Z" style="fill-opacity:0.25;"/><path d="M329.091,203.664l109.162,60.445l-107.443,-47.517l-1.719,-12.928" style="fill:#fff;"/><path d="M580.972,274.812l-42.987,85.552l65.746,-76.595l-22.759,-8.957Z" style="fill-opacity:0.16;"/><path d="M411.034,66.322l169.938,66.38l-172.043,-80.449l2.105,14.069Z" style="fill:#fff;"/><path d="M225.339,27.439l189.385,71.18l-194.191,-92.733l4.806,21.553Z" style="fill:#fff;"/><path d="M89.534,271.163l108.317,-0l-7.766,-11.776l-105.818,11.776" style="fill:#fff;"/><path d="M651.293,325.694l-57.331,22.732l47.742,-1.282l14.91,9.477l2.131,-18.29l-7.452,-12.637Z" style="fill:#fff;"/><path d="M505.829,141.829l131.429,61.441l-9.675,13.318l-41.58,15.816l-45.332,17.904l-23.675,-7.971c0,0 8.699,-23.076 7.581,-34.862c-1.117,-11.787 -4.926,-41.618 -4.926,-41.618l-13.822,-24.028Z" style="fill-opacity:0.16;"/><path d="M508.98,143.537c31.168,31.208 37.49,66.969 30.029,105.256l-22.745,-6.857l11.378,-51.244l-20.024,-40.933l1.362,-6.222Z" style="fill-opacity:0.3;"/><path d="M548.311,161.496l73.435,55.234l-100.447,-40.539l-18.016,-35.683l11.163,-0.851l33.865,21.839Z" style="fill-opacity:0.25;"/><path d="M526.265,219.644l42.027,19.618l-27.713,11.046l-24.707,-9.521l10.393,-21.143" style="fill-opacity:0.27;"/><path d="M217.313,254.639l30.902,55.535l29.551,13.025l-45.196,-70.227l-15.257,1.667" style="fill-opacity:0.2;"/><path d="M606.106,281.542l-64.362,83.315l116.417,-44.548l-52.055,-38.767Z" style="fill:#cd6445;"/><path d="M614.29,289.541l-61.661,67.08l53.25,-71.111l8.411,4.031Z" style="fill:#fff;"/><path d="M228.676,44.087l291.951,129.801l5.371,43.705l-287.036,-136.751l-10.286,-36.755Z" style="fill:#cd6445;"/><path d="M371.813,239.262l114.562,50.585l4.62,41.007l-118.786,34.003l-88.468,-41.489l-44.779,-69.692l132.851,-14.414" style="fill:#cd6445;"/><path d="M487.015,297.171l-248.053,-39.607l132.879,-18.302l112.802,52.171l2.372,5.738Z" style="fill-opacity:0.18;"/><path d="M259.711,250.308l96.982,54.531l-110.83,-49.596l13.848,-4.935Z" style="fill:#fff;"/><path d="M272.063,301.072l157.409,73.172l-34.215,4.487l-108.838,-51.044l-14.356,-26.615Z" style="fill-opacity:0.35;"/><path d="M216.258,300.091l-158.578,-26.722l1.445,-8.576l1.015,0.171l-0.039,-0.413l295.022,-28.07l-32.435,-14.825l-0.077,0.007l-0.004,-0.045l-0.154,-0.07l0.122,-0.266l-6.321,-66.431l-73.038,-33.385l-0.07,0.019l-0.016,-0.058l-0.085,-0.039l0.047,-0.103l-30.29,-113.043l0.07,-0.019l-0.006,-0.003l3.616,-7.91l197.386,90.225l-17.28,-44.644l8.111,-3.139l0.085,0.22l0.045,-0.098l236.02,107.884l0.164,-0.127c0.08,0.104 0.159,0.207 0.239,0.311l0.133,0.061l-0.033,0.072c5.219,6.888 8.652,15.262 9.53,24.489c2.126,22.351 -11.406,42.608 -31.604,49.892l0.017,0.045l-70.276,26.184l77.529,35.438l-0.045,0.097l34.228,28.281l0.229,-0.085l0.147,0.396l0.023,0.018l-0.011,0.013l2.877,7.722l-6.467,2.41c2.096,4.674 3.477,9.763 3.988,15.143c0.779,8.179 -0.541,16.078 -3.515,23.164l-8.02,-3.366c0.038,-0.09 0.076,-0.181 0.113,-0.271l-0.114,0.081l-7.324,-10.294l-67.437,6.417l-0.019,-0.199l-31.574,11.764l-0.015,-0.039l-55.861,5.315l-0.006,0.013l-0.022,-0.01l-90.155,8.578l-0.263,0.576l-30.594,-13.984l-0.725,0.194l-0.161,-0.599l-81.986,-37.476l-0.058,0.041l-0.071,-0.1l-67.452,-30.832Zm-124.561,-29.809l118.761,20.012l-20.868,-29.326l-97.893,9.314Zm279.246,-26.569l-121.392,11.55l105.026,48.006l80.798,-30.105l-64.432,-29.451Zm-139.824,13.303l-31.532,3l24.142,33.927l49.896,22.808l-42.506,-59.735Zm99.67,-41.22l33.838,15.467l-38.753,-67.121l4.915,51.654Zm-80.318,-100.576l264.299,120.81c5.44,-12.503 7.88,-26.515 6.498,-41.038c-2.853,-29.991 -21.309,-54.767 -46.569,-67.067l0.009,-0.018l-55.931,-25.566l-0.295,0.114l-0.117,-0.302l-195.317,-89.279l7.266,27.118l233.311,106.645l-3.616,7.91l-226.775,-103.658l7.259,27.09l150.59,68.834l-3.615,7.91l-144.056,-65.847l7.059,26.344Zm272.21,124.426l15.152,6.926l24.163,-9.003l-33.682,-15.397c-1.298,6.049 -3.195,11.898 -5.633,17.474Zm3.637,11.225l-119.212,-54.492l42.59,73.769l41.674,19.049l-3.615,7.91l-41.193,-18.829l-80.799,30.105l71.348,32.612l141.371,-37.88l-52.205,-52.204l0.041,-0.04Zm-132.855,-60.728l-57.783,-26.412l42.59,73.768l57.783,26.412l-42.59,-73.768Zm15.763,-135.696l15.972,41.267l126.444,57.797l-3.615,7.91l-39.561,-18.083c6.826,8.023 12.318,17.259 16.093,27.393l96.873,44.28c13.668,-7.268 22.348,-22.262 20.792,-38.623c-0.654,-6.87 -3.034,-13.162 -6.672,-18.488l-226.326,-103.453Zm164.296,178.827l36.881,-13.741l-82.496,-37.709c0.939,4.01 1.618,8.131 2.019,12.344c0.617,6.485 0.544,12.878 -0.16,19.106l43.756,20Zm48.005,61.116l-13.167,-6.018l-14.623,17.699l25.056,25.056l32.527,-12.12l-29.793,-24.617Zm-21.356,-9.761l-51.346,-23.47l38.735,38.734l12.611,-15.264Zm52.664,65.106c0.26,-2.544 0.276,-5.151 0.024,-7.793c-0.438,-4.606 -1.652,-8.953 -3.501,-12.923l-43.391,16.168l40.934,-3.895l0.011,0.12l5.923,8.323Zm-100.152,6.024l57.149,-21.294l-21.66,-21.659l-35.489,42.953Zm-63.463,9.055l48.513,-4.616l39.434,-47.727l-127.638,34.201l39.691,18.142Zm-91.417,8.698l74.101,-7.051l-35.564,-16.255l-56.44,15.123l17.903,8.183Zm-108.358,-49.53l78.037,35.67l56.44,-15.123l-177.633,-81.195l43.156,60.648Z"/></g></svg>