<?xml version="1.0" encoding="UTF-8" standalone="no"?><!DOCTYPE svg PUBLIC "-//W3C//DTD SVG 1.1//EN" "http://www.w3.org/Graphics/SVG/1.1/DTD/svg11.dtd"><svg width="100%" height="100%" viewBox="0 0 789 465" version="1.1" xmlns="http://www.w3.org/2000/svg" xmlns:xlink="http://www.w3.org/1999/xlink" xml:space="preserve" xmlns:serif="http://www.serif.com/" style="fill-rule:evenodd;clip-rule:evenodd;stroke-linejoin:round;stroke-miterlimit:2;"><rect id="shiny_emptystate" x="0" y="0.159" width="788.726" height="463.956" style="fill:none;"/><clipPath id="_clip1"><rect x="0" y="0.159" width="788.726" height="463.956"/></clipPath><g clip-path="url(#_clip1)"><rect id="retreat-logo" serif:id="retreat logo" x="0" y="364.116" width="519.685" height="519.685" style="fill:none;"/><ellipse cx="404.379" cy="282.738" rx="318.868" ry="22.646" style="fill-opacity:0.11;"/><path d="M617.353,199.941l-169.219,-0l0,19.365l35.443,-0l0,34.156l30.2,31.759l-40.971,4.158l-32.358,-1.672l4.638,-38.001l-197.142,0l-10.42,19.374l20.081,103.748l61.05,38.036c0,-0 20.187,-38.358 31.405,-39.165c11.219,-0.808 42.433,-0.272 50.25,10.965c7.817,11.237 20.418,36.496 8.509,52.701c-11.908,16.205 -34.001,28.744 -60.32,24.78c-26.319,-3.965 -58.607,-16.861 -82.558,-27.434c-23.952,-10.574 -62.676,-45.593 -77.099,-69.789c-14.423,-24.195 -60.035,-169.972 26.356,-257.952c56.235,-57.271 114.334,-63.395 114.334,-63.395c38.952,-3.845 78.57,0.505 118.602,9.981l0,-42.101c0,-0 38.366,1.489 91.986,46.382c55.501,46.466 71.15,100.666 68.575,102.084l8.658,42.02Z" style="fill:#87b324;"/><path d="M376.74,139.276l-90.855,-2.235l-22.4,21.366l44.018,88.342l73.622,5.096l-4.385,-112.569Z" style="fill:#91cc33;"/><path d="M448.65,51.556l-67.525,-14.088l0,39.627l68.087,25.198l-0.562,-50.737Z" style="fill:#91cc33;"/><path d="M218.136,283.554l-12.349,-31.709l-35.227,50.462l64.514,15.583l-16.938,-34.336Z" style="fill:#91cc33;"/><path d="M375.201,42.773c-145.396,23.188 -211.958,109.667 -205.596,254.692c0,0 -23.062,-84.16 18.071,-148.894c41.134,-64.735 80.434,-88.489 108.882,-97.442c28.449,-8.952 78.643,-8.356 78.643,-8.356" style="fill:#fff;"/><path d="M374.089,50.085c0,143.081 -76.6,194.847 -162.098,194.847l169.134,2.124l-7.036,-196.971Z" style="fill-opacity:0.14;"/><path d="M559.319,68.79l8.848,8.24l-108.942,96.463l100.094,-104.703Z" style="fill:#fff;"/><path d="M610.718,156.163l-42.551,14.18l42.363,3.15l0.188,-17.33Z" style="fill-opacity:0.19;"/><path d="M530.585,41.919l-77.071,124.884l105.805,-99.329l-28.734,-25.555Z" style="fill-opacity:0.22;"/><path d="M388.998,405.008c0,-0 13.172,53.001 -25.423,53.399c-46.822,0.482 -65.214,-8.059 -85.538,-21.743c-20.323,-13.683 -46.741,-113.248 -46.741,-113.248c13.494,38.779 45.217,68.348 86.399,85.991c0,0 8.954,-13.91 17.063,-22.37c8.11,-8.46 -12,23.677 -7.161,33.691c4.84,10.014 5.871,21.728 24.587,19.278c18.716,-2.449 22.274,-3.347 25.403,-9.858c3.129,-6.512 11.411,-25.14 11.411,-25.14Z" style="fill:#40872a;"/><path d="M322.305,413.932l-58.82,17.65l67.281,21.476l-8.461,-39.126Z" style="fill-opacity:0.22;"/><path d="M245.927,249.706l-39.504,0l9.115,31.095l29.335,61.569l4.083,-14.406l-9.5,-59.617l6.471,-18.641Z" style="fill:#40872a;"/><rect x="452.925" y="174.787" width="160.459" height="22.024" style="fill:#40872a;"/><path d="M446.631,181.687l-65.506,68.019l64.884,0l-5.871,38.432l72.347,0.832l-30.48,-39.264l0.947,-34.6l-30.027,0.499l-6.294,-33.918Z" style="fill:#40872a;"/><path d="M449.212,261.456l58.178,23.412l-64.778,-0l6.6,-23.412Z" style="fill-opacity:0.26;"/><path d="M370.415,464.355c-118.324,-0.419 -214.257,-96.611 -214.257,-215.032c-0,-118.68 96.353,-215.033 215.033,-215.033c25.943,-0 50.818,4.604 73.854,13.039l0,-45.502l8.334,-0l-0,3.026l0.462,-2.051c82.442,18.573 147.669,85.155 164.292,168.464l60.028,-0c-0,-0 15.268,-15.269 15.268,-15.269l-13.917,-13.916l-11.464,11.464l-5.893,-5.892l17.357,-17.357l25.702,25.701l-23.601,23.602l-61.989,-0c0.825,5.208 1.461,10.476 1.901,15.796l1.216,-0l-0,8.333c-0,0 -142.958,0 -169.362,0c-0,0 -0,10.868 -0,10.868l33.82,0l0,38.617l32.004,32.004l-2.946,7.113l-76.089,0l-4.026,-5.24l6.988,-26.192c-0,-0 -0,-7.529 -0,-7.529l-190.722,-0l-8.337,13.598l17.295,103.361l59.128,36.465c3.471,-24.454 24.515,-43.285 49.921,-43.285c27.83,-0 50.424,22.594 50.424,50.424c0,27.571 -22.175,50.003 -49.648,50.418l0,0.006c-0.174,0 -0.348,-0 -0.523,-0c-0.084,-0 -0.168,0 -0.253,0l0,-0.001Zm74.63,-408.127c-19.484,-7.466 -40.384,-12.064 -62.179,-13.28l-0,30.185l62.179,21.694l0,-38.599Zm-72.945,-13.603c-0.303,-0.001 -0.606,-0.002 -0.909,-0.002c-36.86,0 -71.479,9.669 -101.458,26.607l0,75.762l102.367,-102.367Zm-110.7,31.575c-42.717,26.854 -74.936,68.9 -89.054,118.535l89.054,-40.87l-0,-77.665Zm-91.787,129.231c-3.352,14.762 -5.122,30.122 -5.122,45.892c0,14.866 1.573,29.368 4.561,43.349l31.622,-41.496l-0.148,-0.349l2.254,-3.402l-33.167,-43.994Zm3.122,103.829c9.589,32.856 27.124,62.338 50.381,86.222l0.726,-73.927l-51.107,-12.295Zm60.112,95.588c26.21,23.637 58.494,40.664 94.215,48.445l-0,-18.062c-3.66,-4.78 -6.099,-10.543 -6.851,-16.821l-62.426,-38.5l-24.938,24.938Zm102.548,50.081c11.458,2.004 23.24,3.063 35.262,3.093c23.119,-0.13 41.849,-18.94 41.849,-42.09c0,-23.23 -18.86,-42.091 -42.091,-42.091c-23.088,0 -41.859,18.63 -42.088,41.665c0.648,13.887 12.128,24.964 26.175,24.964c14.462,-0 26.204,-11.742 26.204,-26.204c-0,-7.946 -6.452,-14.397 -14.398,-14.397c-7.946,-0 -14.397,6.451 -14.397,14.397l-8.333,-0c-0,-12.546 10.185,-22.731 22.73,-22.731c12.546,0 22.731,10.185 22.731,22.731c-0,19.061 -15.476,34.537 -34.537,34.537c-7.063,-0 -13.634,-2.125 -19.107,-5.769l0,11.895Zm117.984,-441.684l-0,38.585l1.289,1.289c0.222,0.094 0.444,0.188 0.665,0.283l-0.114,0.268l56.333,56.334l41.308,-41.308c-26.989,-26.955 -61.284,-46.569 -99.481,-55.451Zm156.25,160.021c-1.576,-7.579 -3.571,-15.012 -5.959,-22.272l-38.964,22.272l44.923,-0Zm-8.772,-30.263c-9.564,-25.481 -24.029,-48.64 -42.217,-68.302l-98.565,98.565l87.838,-0l52.944,-30.263Zm12.305,54.392c-0.458,-5.323 -1.12,-10.591 -1.979,-15.796l-61.057,-0l-0.625,0.358l-0.205,-0.358l-95.917,-0l-0,15.796l159.783,-0Zm-370.529,57.974l-31.98,-0l13.067,30.851l18.913,-30.851Zm-14.919,40.28l20.453,48.289l-10.733,-64.144l-9.72,15.855Zm24.153,78.393l-19.748,-46.626l-0.659,67.034l20.407,-20.408Zm-25.616,-60.478l-21.834,-51.551c-11.533,15.134 -29.815,39.125 -29.815,39.125l51.649,12.426Zm-14.836,-66.529l93.095,0l-41.448,-84.763l-85.848,39.398l34.201,45.365Zm102.076,0l61.041,0l0,-102.27l-90.787,-0l-13.41,13.41l43.394,88.744l-0.238,0.116Zm72.814,0l61.942,0l25.608,-22.106l-28.81,0l0,-36.634l-58.74,58.74Zm65.158,8.838l0,8.117l-5.871,22.007l60.606,-0l-27.332,-27.332c-0,0 -0,-1.055 -0,-2.792l-27.403,0Zm27.403,-8.333c-0,-5.269 -0,-11.386 -0,-15.928l-18.451,15.928l18.451,-0Zm-33.821,-71.03l0,-70.857l-62.179,-21.694l-0,154.731l62.179,-62.18Zm8.334,-112.895l-0,104.562l52.281,-52.281l-52.281,-52.281Zm-78.847,72.817l0,-82.454l-82.453,82.454l82.453,-0Z"/><path d="M435.974,51.129l-54.849,193.666l62.604,-0l4.921,-188.059l-12.676,-5.607Z" style="fill-opacity:0.14;"/></g></svg>