<?xml version="1.0" encoding="UTF-8" standalone="no"?><!DOCTYPE svg PUBLIC "-//W3C//DTD SVG 1.1//EN" "http://www.w3.org/Graphics/SVG/1.1/DTD/svg11.dtd"><svg width="100%" height="100%" viewBox="0 0 789 465" version="1.1" xmlns="http://www.w3.org/2000/svg" xmlns:xlink="http://www.w3.org/1999/xlink" xml:space="preserve" xmlns:serif="http://www.serif.com/" style="fill-rule:evenodd;clip-rule:evenodd;stroke-linejoin:round;stroke-miterlimit:2;"><rect id="shiny_react" x="0" y="0.099" width="788.726" height="463.956" style="fill:none;"/><clipPath id="_clip1"><rect x="0" y="0.099" width="788.726" height="463.956"/></clipPath><g clip-path="url(#_clip1)"><rect id="retreat-logo" serif:id="retreat logo" x="0" y="364.055" width="519.685" height="519.685" style="fill:none;"/><path d="M368.23,350.413c-0,-0 77.59,-46.708 102.97,-119.088c25.379,-72.38 14.698,-149.98 -20.177,-194.235c-34.875,-44.254 -32.262,-34.165 -32.262,-34.165l-62.249,-0l-54.709,38.948l-22.82,19.874l41.997,71.638l-19.44,65.229l-40.485,-7.582l-29.477,30.033l-0.776,76.948l52.685,50.887l84.743,1.513Z" style="fill:#eb4786;"/><path d="M429.416,180.108l0.76,116.996l-11.076,14.142l1.613,-150.018l8.703,18.88Z" style="fill-opacity:0.17;"/><path d="M236.076,299.108l6.051,7.917l41.351,-19.841l-47.402,11.924" style="fill:#fff;"/><path d="M290.444,54.461l45.866,74.729l54.597,207.904l12.114,-8.157l-54.482,-211.181l-44.037,-75.612l-14.058,12.317Z" style="fill-opacity:0.15;"/><path d="M233.801,258.683l61.523,-0l-11.538,23.092l-53.955,16.417l3.97,-39.509" style="fill:#bd3977;"/><path d="M365.245,259.493l-132.264,-36.276l-2.532,73.453l134.796,-37.177Z" style="fill-opacity:0.28;"/><path d="M243.338,309.531c-0,0 80.36,0.193 80.36,0.193l-21.191,23.653l-17.315,17.485l-41.854,-41.331Z" style="fill:#bd3977;"/><path d="M338.008,210.668l-94.09,-0.967l-14.087,13.324l74.241,18.128l42.95,-12.175l-9.014,-18.31Z" style="fill:#bd3977;"/><path d="M234.337,221.839l7.037,-8.336l66.48,24.538l-73.517,-16.202Z" style="fill:#fff;"/><path d="M422.664,14.329l55.639,199.613l-24.745,55.795l-34.818,-123.972l3.924,-131.436Z" style="fill:#591a58;fill-opacity:0.32;"/><path d="M418.74,3.416l0,308.122l-14.083,13.494l-57.493,-205.123l-43.092,-78.381l38.321,-31.983l33.169,-6.129l43.178,0Z" style="fill:#fff;fill-opacity:0.22;"/><circle cx="343.722" cy="327.455" r="23.528" style="fill-opacity:0.14;"/><path d="M356.153,134.088l15.551,24.133l33.464,166.811l-53.518,-187.639l4.503,-3.305Z" style="fill:#fff;"/><path d="M304.072,42.978l10.468,-10.438l27.535,67.047l-38.003,-56.609Z" style="fill:#fff;"/><circle cx="361.52" cy="319.596" r="29.301" style="fill:#a93360;"/><circle cx="380.037" cy="102.103" r="36.05" style="fill:#ef6fa0;"/><path d="M434.859,292.813c-44.187,50.161 -92.154,82.363 -140.626,112.175c0,-0 53.518,-13.468 65.375,-20.104c11.857,-6.635 60.453,-45.83 60.453,-45.83l2.603,-14.215l20.844,-6.035l7.515,-17.215l-16.164,-8.776" style="fill:#2a3e5f;"/><path d="M442.38,298.989c-33.547,38.376 -72.944,70.745 -116.682,98.655l-16.447,2.559l7.551,-12.187l58.887,-36.362l45.256,-44.504l12.906,-12.236l8.529,4.075Z" style="fill-opacity:0.23;"/><path d="M227.685,220.879l-0.504,-0.504l35.48,-35.479l0.55,0.549l0.193,-0.722l37.208,9.97l17.097,-63.809l-41.102,-71.191l0.47,-0.272l-0.493,-0.601l71.823,-58.864l0.092,0.112l-0.004,-0.372l74.125,-0.862l-0,0.008l0.027,-0.028c41.401,39.467 67.304,94.997 67.304,156.654c0,42.913 -12.504,82.928 -34.065,116.598l0.32,0.233c-1.498,2.054 -3.014,4.094 -4.548,6.121c-3.545,5.13 -7.305,10.099 -11.269,14.896l8.552,2.292l34.022,-34.022l4.685,-17.486l7.238,1.939l-5.164,19.274l-0.528,-0.141l0.39,0.39l-17.007,17.007l47.377,-27.354l15.367,-26.615l6.489,3.747l-16.278,28.194l-0.643,-0.371l0.367,0.636l-71.728,41.413l-5.15,19.217l-0.736,-0.197l0.197,0.736l-25.256,6.768l0,11.859l-0.744,0l0.539,0.501c-33.976,36.532 -80.405,61.326 -132.499,67.604l-0.896,-7.439l0.019,-0.003c26.943,-12.725 52.323,-28.223 75.774,-46.123l-80.738,-0l0,-0.869l-0.641,0.641l-55.77,-55.77l0.163,-0.164l-0.105,-0l-0,-78.101Zm65.729,126.77l35.67,-0l-22.614,-13.056l-13.056,13.056Zm14.435,-151.017l60.522,16.217l-25.49,-95.13l-40.542,-70.22l-16.373,13.419l39.855,69.031l-0.236,0.136l0.089,0.024l-17.825,66.523Zm-64.102,17.774l-4.769,4.77l65.914,17.661l36.879,-9.881l-7.245,-12.55l-90.779,0Zm171.343,123.507l0,-17.175c-29.386,29.859 -63.108,55.439 -100.14,75.715c38.826,-9.788 73.349,-30.445 100.14,-58.54Zm-87.645,-24.295l-15.49,15.489l22.728,13.122c-4.933,-5.935 -7.902,-13.561 -7.902,-21.875c0,-2.305 0.229,-4.558 0.664,-6.736Zm66.136,17.446c1.739,-1.589 3.464,-3.193 5.176,-4.811l-0.297,-1.11l-3.176,-5.501c0.005,0.237 0.007,0.474 0.007,0.712c0,3.74 -0.6,7.34 -1.71,10.71Zm-14.804,-40.012l-10.529,-18.237l-13.948,13.948c2.179,-0.435 4.431,-0.664 6.736,-0.664c6.493,0 12.565,1.81 17.741,4.953Zm-17.741,3.44c-14.273,0 -25.861,11.589 -25.861,25.862c-0,14.274 11.588,25.862 25.861,25.862c14.274,0 25.862,-11.588 25.862,-25.862c0,-14.273 -11.588,-25.862 -25.862,-25.862Zm43.886,25.817c3.415,-3.36 6.772,-6.778 10.072,-10.251l-0,-67.436l-57.638,-99.831l47.566,177.518Zm72.366,-118.461c3.384,-14.92 5.17,-30.443 5.17,-46.38c0,-54.694 -21.119,-104.392 -55.554,-141.655l50.384,188.035Zm-31.592,100.648l-11.08,-2.969c-3.918,4.552 -7.93,9.021 -12.033,13.404l0,8.054l19.563,-5.242l3.55,-13.247Zm-207.05,-2.93l6.02,6.02l68.3,-0l-30.68,-17.713l-43.64,11.693Zm13.513,13.513l32.614,32.614l32.614,-32.614l-65.228,0Zm162.835,-230.231l-0,-76.348l-63.53,0.738l-43.251,35.448l32.153,55.691c2.013,-20.177 19.061,-35.955 39.764,-35.955c14.962,0 28.015,8.24 34.864,20.426Zm-51.272,55.983l51.272,88.805l-0,-85.144l-0.333,-1.242l0.333,-0.089l-0,-19.237c-6.849,12.185 -19.902,20.425 -34.864,20.425c-5.846,0 -11.401,-1.258 -16.408,-3.518Zm16.408,-68.016c-17.424,0 -31.57,14.146 -31.57,31.571c-0,17.424 14.146,31.57 31.57,31.57c17.425,0 31.571,-14.146 31.571,-31.57c-0,-17.425 -14.146,-31.571 -31.571,-31.571Zm-54.125,233.647l38.364,-38.365l-0.108,-0.189l-71.739,19.222l33.483,19.332Zm-16.956,-58.753l-18.603,32.22l69.426,-18.602l-50.823,-13.618Zm36.601,-12.035l-26.282,7.042l35.902,9.62l-9.62,-16.662Zm76.837,-63.217l-0,131.503c8.086,-8.969 15.793,-18.287 23.095,-27.928c1.131,-1.64 2.24,-3.297 3.326,-4.971l-26.421,-98.604Zm-187.309,55.458l-0,28.707l60.072,-0l6.306,-10.921l-66.378,-17.786Zm-0,36.2l-0,30.623l45.032,-12.066l10.714,-18.557l-55.746,0Zm135.432,-40.908l-27.807,-7.451l48.164,83.422l-20.357,-75.971Zm83.699,39.06c7.964,-13.714 14.413,-28.414 19.12,-43.87l-50.942,-190.119l-0,115.227l31.822,118.762Zm-189.116,-67.307l-13.953,13.953l66.026,0l-52.073,-13.953Z"/><ellipse cx="386.088" cy="450.008" rx="188.549" ry="13.867" style="fill-opacity:0.14;"/><path d="M422.644,20.076l-3.904,32.773l50.077,184.186l9.368,-20.918l-55.541,-196.041Z" style="fill-opacity:0.1;"/></g></svg>