<?xml version="1.0" encoding="UTF-8" standalone="no"?>
<!DOCTYPE svg PUBLIC "-//W3C//DTD SVG 1.1//EN" "http://www.w3.org/Graphics/SVG/1.1/DTD/svg11.dtd">
<svg width="100%" height="100%" viewBox="0 0 789 464" version="1.1" xmlns="http://www.w3.org/2000/svg" xmlns:xlink="http://www.w3.org/1999/xlink" xml:space="preserve" xmlns:serif="http://www.serif.com/" style="fill-rule:evenodd;clip-rule:evenodd;stroke-miterlimit:1.5;">
    <g transform="matrix(1,0,0,1,-10424.4,-18586.7)">
        <g id="tapyr" transform="matrix(4.63956,0,0,4.63956,10424.4,18586.7)">
            <rect x="0" y="0" width="170" height="100" style="fill:none;"/>
            <clipPath id="_clip1">
                <rect x="0" y="0" width="170" height="100"/>
            </clipPath>
            <g clip-path="url(#_clip1)">
                <g id="retreat-logo" serif:id="retreat logo" transform="matrix(0.215538,0,0,0.215538,4.26326e-14,78.4462)">
                    <rect x="0" y="0" width="519.685" height="519.685" style="fill:none;"/>
                </g>
                <g id="g82" transform="matrix(0.0466927,0,0,0.0466927,5.92168,76.9974)">
                    <g transform="matrix(4.61609,-0,-0,4.61609,-126.823,-1649.03)">
                    </g>
                </g>
                <g transform="matrix(0.264725,0,0,0.264725,-1532.92,-6213.64)">
                    <path d="M5885.3,23618.9L5856.66,23641L5877.69,23643.8L5887.84,23625.2L5885.3,23618.9Z" style="fill:rgb(81,86,103);"/>
                </g>
                <g transform="matrix(0.264725,0,0,0.264725,-1532.92,-6213.64)">
                    <path d="M6170.95,23548.3L5988.46,23548.3C5988.46,23548.3 5934.86,23564.7 5925.66,23574.6C5916.46,23584.5 5880.47,23642.9 5880.47,23642.9L6012.78,23715.5L6084.56,23715.7L6122,23704.1L6170.95,23548.3Z" style="fill:rgb(225,240,254);"/>
                </g>
                <g transform="matrix(0.264725,0,0,0.264725,-1532.92,-6213.64)">
                    <path d="M6146.81,23548.3C6129.08,23627.3 6087.76,23696.6 6011.55,23715.7C6042.94,23717.9 6088.83,23716.9 6122,23701.3L6162.33,23548.3L6146.81,23548.3Z" style="fill-opacity:0.18;"/>
                </g>
                <g transform="matrix(0.264725,0,0,0.264725,-1530.48,-6213.64)">
                    <path d="M6146.81,23548.3C6127.08,23627.7 6107.4,23703.6 6030.51,23715.7L6074.73,23715.7L6112.75,23701.7L6153.08,23548.3L6146.81,23548.3Z" style="fill-opacity:0.18;"/>
                </g>
                <g transform="matrix(0.264725,0,0,0.264725,-1532.92,-6213.64)">
                    <path d="M6012.78,23715.4L5878.2,23642.9L5869.85,23687.8L5870.03,23775.3L5878.2,23817.8L5911.82,23820.1L5896.17,23794.1L5891.83,23766.3L5904.13,23729L5921.52,23788.3L5939.61,23819.1L5970.65,23818.9L5944.98,23789.1L5963.59,23716.5L6012.78,23715.4Z" style="fill:rgb(81,86,103);"/>
                </g>
                <g transform="matrix(0.264725,0,0,0.264725,-1532.92,-6213.64)">
                    <path d="M5883.81,23651.8L5903.64,23727.9L5892.24,23767L5897.42,23799.8L5915.65,23816.2L5882.76,23821.4L5869.44,23778.2L5868.3,23691.6L5879.73,23646.5L5883.81,23651.8Z" style="fill-opacity:0.27;"/>
                </g>
                <g transform="matrix(0.264725,0,0,0.264725,-1532.92,-6213.64)">
                    <path d="M5999.83,23716.6L5961.13,23716.6L5966.52,23691.6L6002.95,23711.8L5999.83,23716.6Z" style="fill-opacity:0.51;"/>
                </g>
                <g transform="matrix(0.264725,0,0,0.264725,-1839.95,-6213.64)">
                    <path d="M7324.09,23548.3L7281.3,23702.8L7306.94,23792.3L7321.17,23815.4L7344.49,23813.5L7346.56,23810.4L7329,23792.2L7334.4,23735.9L7369.17,23755.6L7385.21,23827.2L7421.43,23827.2L7404.17,23810.4L7402.03,23769.6L7377.32,23721.1L7428.82,23708.1L7493.18,23743.4L7510.57,23770.1L7509.47,23800.9L7530.59,23798.1C7530.59,23798.1 7532.54,23702.2 7521.87,23687.7C7511.2,23673.3 7495.61,23639.2 7495.61,23639.2L7513.98,23618.2L7494.43,23607.1L7487.28,23627.9C7487.28,23627.9 7423.78,23585.1 7413.51,23579.1C7403.23,23573.2 7324.09,23548.3 7324.09,23548.3Z" style="fill:rgb(81,86,103);"/>
                </g>
                <g transform="matrix(0.264725,0,0,0.264725,-1532.92,-6213.64)">
                    <path d="M6335.67,23608.8L6355.02,23617.8L6337.12,23636.9L6329.12,23628.2L6335.67,23608.8Z" style="fill:white;"/>
                </g>
                <g transform="matrix(0.264725,0,0,0.264725,-1532.92,-6213.64)">
                    <path d="M6253.86,23582.1L6167.82,23630.9L6156.21,23608.5L6253.86,23582.1Z" style="fill-opacity:0.09;"/>
                </g>
                <g transform="matrix(0.264725,0,0,0.264725,-1532.92,-6213.64)">
                    <path d="M6150.27,23613.5L6136.67,23651.8L6234.12,23760.9L6150.27,23613.5Z" style="fill-opacity:0.17;"/>
                </g>
                <g transform="matrix(0.264725,0,0,0.264725,-1532.92,-6213.64)">
                    <path d="M6127.72,23705.7L6176.93,23734.9L6170.05,23794.1L6186.37,23807.7L6182.3,23815.6L6161.07,23816.2C6161.07,23816.2 6148.23,23789.7 6147.17,23786.3C6146.11,23782.8 6127.72,23705.7 6127.72,23705.7Z" style="fill-opacity:0.48;"/>
                </g>
                <g transform="matrix(0.264725,0,0,0.264725,-1532.92,-6213.64)">
                    <path d="M6264.66,23587L6230.53,23716.6L6268.45,23707.7L6264.66,23587Z" style="fill-opacity:0.29;"/>
                </g>
                <g transform="matrix(0.405398,0,0,0.153847,-1601.9,-3140.87)">
                    <ellipse cx="4160.28" cy="21016.7" rx="165.741" ry="28.966" style="fill-opacity:0.23;"/>
                </g>
                <g transform="matrix(0.264725,0,0,0.264725,-1532.92,-6213.64)">
                    <ellipse cx="6238.62" cy="23819.5" rx="14.825" ry="6.659" style="fill:white;"/>
                </g>
                <g transform="matrix(0.264725,0,0,0.264725,-1532.92,-6213.64)">
                    <path d="M6172.96,23796.2L6183.97,23812.9L6156.45,23812.9L6156.45,23796.4L6172.96,23796.2Z" style="fill:white;"/>
                </g>
                <g transform="matrix(0.264725,0,0,0.264725,-1591.24,-6212.22)">
                    <path d="M6167.85,23792.8L6183.97,23812.9L6156.45,23812.9L6148.1,23793L6167.85,23792.8Z" style="fill:white;"/>
                </g>
                <g transform="matrix(0.264725,0,0,0.264725,-1604.37,-6211.91)">
                    <path d="M6148.69,23777.7L6183.97,23812.9L6156.45,23812.9L6143.97,23787L6148.69,23777.7Z" style="fill:white;"/>
                </g>
                <g transform="matrix(0.769474,0,0,0.769474,-7155.27,-17688.8)">
                    <path d="M9327.39,23048.8L9318.72,23049.6L9317.73,23047L9334.16,23034.8C9341.8,23023 9354.16,23013.3 9371.34,23013C9371.6,23013 9371.86,23013 9372.11,23013L9372.11,23013L9427.88,23013L9428.4,23013.1L9458.85,23023.2L9459.04,23023.2C9468.43,23027.9 9476.64,23033.5 9483.26,23040.4L9484.82,23034.5L9486.86,23033.6L9494.07,23037.3L9494.43,23039.6L9488.08,23046C9498.4,23059.4 9503.2,23077.1 9500.06,23100.9L9499.89,23102.2L9490.21,23102.2L9490.21,23090.3L9484.78,23082.5L9465.04,23070.7L9447.16,23075L9456.58,23091.5C9456.58,23091.5 9456.58,23104.6 9456.58,23104.6L9463.16,23109L9462.36,23111.6L9447.81,23111.6L9441.6,23086C9441.6,23086 9432.61,23080.7 9432.61,23080.7C9432.61,23080.7 9430.85,23097.8 9430.85,23097.8L9437.21,23104.5L9436.27,23106.9L9426.06,23107.6L9421.85,23100.4L9421.73,23100.4L9421.73,23100.2L9419.59,23096.5L9412.6,23069.5L9399.67,23073.3L9358.73,23073.3L9352.88,23096.8L9362.02,23106.5L9360.98,23108.9L9349.12,23108.9L9341.95,23098.6L9337.52,23080.5L9335.05,23091.6L9336.82,23100.5L9342.6,23106L9342.91,23106L9342.91,23106.3L9343.02,23106.4L9342.91,23106.6L9342.91,23108.9L9329.57,23108.9L9324.81,23092.4L9324.81,23062.3L9324.83,23062.3C9324.95,23058.3 9325.81,23053.6 9327.39,23048.8ZM9330.03,23049.9C9328.6,23054.2 9327.83,23058.5 9327.7,23062.2L9333.36,23086L9335.98,23074.2L9330.03,23049.9ZM9428.02,23097.3L9429.92,23078.8L9415.81,23070.4L9422.27,23095.4L9423.46,23097.5L9428.02,23097.3ZM9358.73,23018.1C9345.44,23022.7 9336.48,23034 9331.73,23045.3L9340.05,23050.1C9342.63,23037.1 9348.59,23026.2 9358.73,23018.1ZM9333,23096.8L9327.68,23074.5L9327.68,23091.7L9333,23096.8ZM9329.14,23097.1L9331.73,23106L9338.46,23106L9329.14,23097.1ZM9425.11,23100.3L9427.64,23104.6C9427.64,23104.6 9433.02,23104.3 9433.02,23104.3L9429.1,23100.2L9429.1,23100.2L9425.11,23100.3ZM9484.2,23045.8C9478.92,23039.5 9472.32,23034.1 9464.7,23029.6L9465.24,23064.8L9484.2,23045.8ZM9485.41,23042.7C9485.7,23043 9485.99,23043.4 9486.27,23043.7L9491.02,23039L9487.13,23036.9L9485.59,23042.8L9485.41,23042.7ZM9375.36,23070.4L9377.26,23070.4L9372.34,23053.6L9355.08,23058.7L9375.36,23070.4ZM9342.68,23051.6L9351.65,23056.8L9371.54,23050.9L9362.2,23019C9351.32,23027.1 9345.15,23038.2 9342.68,23051.6ZM9380.95,23070.4L9399.26,23070.4L9412.08,23066.6L9425.21,23017.7L9387.98,23039.8L9380.95,23070.4ZM9444.95,23087.7L9448.77,23103.5L9453.71,23103.5L9453.71,23092.9L9444.95,23087.7ZM9451.35,23088.2L9422.75,23037.9L9415.05,23066.6L9451.35,23088.2ZM9449.47,23106.3L9450.06,23108.8L9457.68,23108.8L9454.06,23106.3L9449.47,23106.3ZM9424.07,23033L9443.41,23027.4L9426.87,23022.6L9424.07,23033ZM9339.7,23053.2L9332.84,23049.3L9342.35,23088.2L9339.7,23053.2ZM9453.58,23024.4L9428.59,23016.1L9427.61,23019.8L9448.14,23025.8L9448.5,23025.9L9453.58,23024.4ZM9444.98,23071.2L9456.82,23026.5L9424.82,23035.8L9444.98,23071.2ZM9370.22,23021.2L9386.93,23037.1L9413.77,23021.2L9370.22,23021.2ZM9371.34,23015.9C9369.36,23015.9 9367.45,23016.1 9365.61,23016.3C9365.61,23016.3 9365.64,23016.7 9365.58,23016.7L9367.21,23018.3L9418.59,23018.3L9422.67,23015.9L9371.34,23015.9ZM9484.99,23049.1L9466.07,23068L9484.97,23079.3L9484.99,23049.1ZM9349.61,23098.1L9358.14,23063.8L9342.71,23054.9L9345.68,23098.1L9349.61,23098.1ZM9359.45,23070.4L9369.61,23070.4L9360.72,23065.3L9359.45,23070.4ZM9385.14,23039.4L9365.71,23020.8L9378.99,23066.1L9385.14,23039.4ZM9330.6,23041L9323.5,23046.3L9328.46,23045.9C9329.09,23044.2 9329.81,23042.6 9330.6,23041ZM9347.26,23101.4L9350.64,23106L9357.67,23106L9353.24,23101.4L9347.26,23101.4ZM9487.8,23081.8L9493.08,23089.4C9493.08,23089.4 9493.08,23099.3 9493.08,23099.3L9497.37,23099.3C9499.86,23078.7 9496.11,23063 9487.85,23050.7L9487.83,23081.8L9487.8,23081.8ZM9461.81,23027.9C9461.11,23027.5 9460.41,23027.2 9459.7,23026.8C9457.31,23035.8 9447.75,23071.9 9447.75,23071.9L9462.43,23068.4L9461.81,23027.9Z"/>
                </g>
                <g transform="matrix(0.264725,0,0,0.264725,-1532.92,-6213.64)">
                    <path d="M6355.02,23767L6346.68,23761.1L6325.01,23739.6L6268.45,23705.5L6268.45,23587L6272.28,23592C6272.28,23592 6282.77,23661.3 6313.41,23687.5C6342.51,23712.3 6355.02,23767 6355.02,23767Z" style="fill-opacity:0.39;"/>
                </g>
                <g transform="matrix(0.164895,0.164895,-0.164895,0.164895,2931.3,-4857.3)">
                    <rect x="6039.76" y="23515.8" width="27.968" height="27.968" style="fill:rgb(252,200,54);stroke:black;stroke-width:7.7px;"/>
                </g>
                <g transform="matrix(0.164895,0.164895,-0.164895,0.164895,2925.77,-4806.68)">
                    <rect x="6039.76" y="23515.8" width="27.968" height="27.968" style="fill:rgb(252,200,54);stroke:black;stroke-width:7.7px;"/>
                </g>
                <g transform="matrix(0.164895,0.164895,-0.164895,0.164895,2980.38,-4858.11)">
                    <rect x="6039.76" y="23515.8" width="27.968" height="27.968" style="fill:rgb(252,200,54);stroke:black;stroke-width:7.7px;"/>
                </g>
                <g transform="matrix(0.164895,0.164895,-0.164895,0.164895,2952.03,-4870.51)">
                    <rect x="6039.76" y="23515.8" width="27.968" height="27.968" style="fill:rgb(57,120,174);stroke:black;stroke-width:7.7px;"/>
                </g>
                <g transform="matrix(0.164895,0.164895,-0.164895,0.164895,2959.62,-4803.83)">
                    <rect x="6039.76" y="23515.8" width="27.968" height="27.968" style="fill:rgb(57,120,174);stroke:black;stroke-width:7.7px;"/>
                </g>
                <g transform="matrix(0.164895,0.164895,-0.164895,0.164895,3000.43,-4832.93)">
                    <rect x="6039.76" y="23515.8" width="27.968" height="27.968" style="fill:rgb(57,120,174);stroke:black;stroke-width:7.7px;"/>
                </g>
            </g>
        </g>
    </g>
</svg>
