<svg xmlns="http://www.w3.org/2000/svg">
  <symbol id="appsilon-logo" width="100" height="29" viewBox="0 0 100 29">
    <path d="M94.154 4c.87-.195 1.649-.293 2.335-.293 1.165 0 2.042.229 2.63.686.587.457.881 1.208.881 2.253V12.2h-2.433V7.137c0-.948-.534-1.421-1.6-1.421-.24 0-.485.027-.736.082-.25.054-.446.12-.588.196v6.205H92.21V4.638c.425-.229 1.072-.441 1.944-.637zm-10.827 7.333c-.697-.74-1.045-1.84-1.045-3.299 0-1.524.345-2.634 1.037-3.331.691-.696 1.739-1.045 3.143-1.045 1.405 0 2.46.357 3.169 1.07.707.713 1.06 1.816 1.06 3.307 0 1.437-.364 2.531-1.093 3.282-.73.752-1.775 1.127-3.136 1.127-1.394 0-2.439-.37-3.135-1.11zm4.49-1.461c.305-.42.458-1.031.458-1.837 0-.882-.15-1.51-.45-1.886-.299-.376-.753-.564-1.363-.564-.632 0-1.086.188-1.364.564-.278.375-.416 1.004-.416 1.886 0 .838.144 1.459.433 1.862.288.403.737.604 1.347.604.599 0 1.05-.21 1.356-.63zm-9.814 2.327V.817h2.417v11.382h-2.417zM73.169.931h2.515V2.81H73.17zm.05 3.12h2.432l.017 8.148h-2.45zm-7.007 8.238a10.703 10.703 0 01-1.306-.449V9.7c.882.665 1.807.997 2.776.997.37 0 .64-.063.808-.188a.606.606 0 00.253-.515c0-.25-.136-.435-.408-.555-.273-.12-.708-.25-1.307-.392-.631-.13-1.151-.392-1.56-.784-.408-.392-.612-.964-.612-1.714 0-.642.163-1.17.49-1.584a2.843 2.843 0 011.233-.907 4.27 4.27 0 011.544-.285c.653 0 1.184.057 1.592.171.408.115.808.292 1.2.53v1.912a16.133 16.133 0 00-1.29-.654 2.684 2.684 0 00-1.062-.195c-.402 0-.702.062-.897.187a.595.595 0 00-.295.531c0 .272.11.471.327.596.218.126.566.253 1.045.384.545.142.974.28 1.29.416.316.136.599.37.85.702.25.332.375.798.375 1.396-.022.937-.375 1.62-1.061 2.05-.686.43-1.557.645-2.613.645-.523 0-.98-.052-1.372-.155zm-4.034-7.594c.73.692 1.095 1.843 1.095 3.454 0 1.296-.327 2.335-.98 3.12-.653.783-1.547 1.175-2.679 1.175-.827 0-1.518-.147-2.074-.441v3.151h-2.384v-9.47c0-.665.367-1.166 1.102-1.504.735-.337 1.68-.511 2.834-.522 1.328 0 2.357.346 3.086 1.037zm-1.812 5.234c.315-.37.473-.99.473-1.862 0-.784-.139-1.374-.416-1.772-.278-.397-.754-.596-1.429-.596-.969 0-1.454.186-1.454.555v3.887c.196.12.414.207.654.261.24.055.473.082.702.082.664 0 1.154-.184 1.47-.555zm-7.84-5.234c.73.692 1.095 1.843 1.095 3.454 0 1.296-.326 2.335-.98 3.12-.653.783-1.546 1.175-2.678 1.175-.828 0-1.519-.147-2.074-.441v3.151h-2.385v-9.47c0-.665.368-1.166 1.103-1.504.735-.337 1.679-.511 2.833-.522 1.329 0 2.357.346 3.087 1.037zm-1.812 5.234c.316-.37.474-.99.474-1.862 0-.784-.14-1.374-.416-1.772-.278-.397-.755-.596-1.43-.596-.968 0-1.452.186-1.452.555v3.887c.195.12.413.207.653.261.24.055.473.082.702.082.663 0 1.154-.184 1.47-.555zM40.54 9.847h-4.066L35.69 12.2h-2.498l4.115-10.892h2.89l3.854 10.892h-2.71zm-.653-1.943L38.5 3.79l-1.372 4.115zM96.05 20.731h3.91v.632h-3.242v2.136h2.851v.65h-2.85v2.145h3.24v.631h-3.91zm-6.078 5.47c-.48-.532-.72-1.325-.72-2.377 0-1.053.24-1.845.72-2.378.48-.532 1.196-.798 2.15-.798.63 0 1.26.152 1.885.455v.64a3.81 3.81 0 00-1.811-.463c-.78 0-1.35.203-1.709.612s-.539 1.053-.539 1.932c0 .885.178 1.53.534 1.936.356.406.928.608 1.714.608.656 0 1.26-.151 1.81-.455v.64c-.631.298-1.26.446-1.885.446-.953 0-1.67-.265-2.149-.798zm-2.763-5.47v6.194h-.752l-3.705-5.219v5.219h-.669v-6.194h.762l3.695 5.22v-5.22zm-11.264 0h3.91v.632h-3.241v2.136h2.85v.65h-2.85v2.145h3.24v.631h-3.909zm-2.99 0h.668v6.194h-.668zm-6.264 5.47c-.48-.532-.72-1.325-.72-2.377 0-1.053.24-1.845.72-2.378.48-.532 1.197-.798 2.15-.798.632 0 1.26.152 1.885.455v.64a3.807 3.807 0 00-1.811-.463c-.78 0-1.35.203-1.709.612s-.538 1.053-.538 1.932c0 .885.178 1.53.534 1.936.356.406.926.608 1.713.608.656 0 1.26-.151 1.81-.455v.64c-.63.298-1.259.446-1.884.446-.953 0-1.67-.265-2.15-.798zm-5.419.696a5.654 5.654 0 01-.919-.408v-.725c.223.186.503.34.84.46.338.12.714.181 1.129.181.452 0 .79-.096 1.012-.288.223-.192.335-.452.335-.78a.91.91 0 00-.196-.6 1.415 1.415 0 00-.464-.37 9.453 9.453 0 00-.808-.34 6.69 6.69 0 01-.915-.37 1.625 1.625 0 01-.58-.52c-.16-.23-.242-.533-.242-.91a1.515 1.515 0 01.804-1.347c.281-.161.645-.242 1.091-.242.328 0 .596.031.803.093.207.062.481.177.822.344v.687l-.348-.2a2.249 2.249 0 00-.585-.237 2.735 2.735 0 00-.655-.074c-.427 0-.743.088-.947.265a.84.84 0 00-.307.664c0 .241.054.436.162.585.109.148.254.269.437.362.182.093.441.195.775.307.384.13.698.259.943.385.244.127.453.308.626.544.174.235.26.535.26.9 0 .49-.162.904-.486 1.245-.325.34-.847.51-1.565.51-.427 0-.768-.04-1.022-.12zm-6.044-1.903h-2.675l-.743 1.931h-.725l2.471-6.194h.669l2.46 6.194h-.715zm-.251-.641L53.89 21.52l-1.086 2.833zm-7.3-2.99h-2.191v-.632h5.042v.632h-2.182v5.562h-.669v-5.562zm-4.206 3.63h-2.675l-.742 1.932h-.725l2.47-6.194h.67l2.46 6.194h-.715zm-.25-.64l-1.087-2.833-1.086 2.833zm-9.854-3.622h1.941c.966 0 1.692.259 2.178.775.486.518.729 1.29.729 2.318 0 2.067-.97 3.101-2.907 3.101h-1.941v-6.194zm1.895 5.563c.786 0 1.36-.198 1.722-.595.363-.396.544-1.021.544-1.875 0-.855-.181-1.48-.544-1.877-.362-.396-.936-.594-1.722-.594h-1.226v4.94z"/>
    <path d="M9.339 14.102h14.35v.84H9.338zm-.362.209l.727.42-7.176 12.424-.727-.42zM1.804 2.305l.727-.42 7.167 12.427-.727.42zm22.724 12.217L1.746 27.675V1.37zM2.585 26.221L22.85 14.522 2.586 2.823z"/>
    <path d="M22.478 12.582a2.183 2.183 0 00-.796 2.979 2.183 2.183 0 002.977.799 2.184 2.184 0 00.8-2.98 2.184 2.184 0 00-2.98-.798zm-21.39 12.35a2.182 2.182 0 00-.796 2.978 2.183 2.183 0 002.978.799 2.183 2.183 0 00.798-2.979 2.184 2.184 0 00-2.98-.799zm7.16-12.3a2.184 2.184 0 00-.797 2.98 2.183 2.183 0 002.977.798 2.183 2.183 0 00.8-2.979 2.184 2.184 0 00-2.98-.799zM1.123.292A2.183 2.183 0 00.326 3.27c.601 1.04 1.937 1.4 2.978.8a2.184 2.184 0 00.798-2.98 2.185 2.185 0 00-2.98-.799z"/>
  </symbol>
  <symbol id="hex" width="100" height="115.47" viewBox="0 0 100 115.47">
    <path d="M100 28.867v57.735L50 115.47 0 86.602V28.867L50 0z"/>
  </symbol>
  <symbol id="shiny.semantic" viewBox="0 0 100 100">
    <path d="M78.304 35.692l9.466-.499 2.986-1.658M78.09 65.855l.535-7.228-4.938-5.562m5.116-1.64l-.178 7.202 2.246 8.458 1.703.9.846 1.57h-3.404l-3.789-7.3-4.002-8.727m23.006-10.152l-2.148-3.36-5.313-4.823-.998-2.986M73.687 53.065l6.944-7.657 5.811-2.906M52.91 51.424l10.954-.953.874 10.687 3.11-2.06-1.497 6.312M42.285 52.788l3.646 4.484m1.658 9.813l-1.658-9.813 6.64-11.454L62.6 35.862l4.251 8.467 6.472-7.638 3.654 5.642 4.483 3.075 3.815.41m-50.628 7.47l7.64-.5L31.82 57.94l2.656 4.974m18.094-17.096L37.303 43.83 21.07 52.066h8.111M47.59 34.694l4.982 11.124 14.28-1.489 10.125-1.996 1.328-6.64 8.138 3.324m-59.096.998L6.096 57.94l13.977-3.966m-15.411 2.05l1.435 1.916 1.328 3.984m9.296-1.497l10.625-20.412 9.957 3.815.66-7.968 14.608 9.956 11.293 4.653 5.473 3.984 7.64-12.122 9.465.17 7.969.498 2.157.99 1.827 1.667M90.756 28.89l-2.986 6.302-1.328 3.824v6.391m9.787.91l-6.97-1.908-3.985 1.408-6.47 5.606-9.467 3.031-1.488 4.644 1.328 7.772 1.988 1.364.347 1.32h-3.155L66.35 65.41l-1.81-4.983-2.504-7.3-9.127-1.703-6.98 5.848 3.156 7.638 2.986 1.961.348 1.195h-4.163l-2.825-4.154-3.316-5.811.17-5.313-6.142 5.651-1.667 4.475.998 3.957 1.498.696.829 1.987h-4.314L31.99 65.91l-.17-7.969 2.826-4.653 2.657-9.457-7.31 7.594-13.272 9.003-9.296 1.497-6.98-1.996 4.653-4.314 22.248-15.599 10.616-4.153 9.627-1.168 25.733 1.997 4.982-.999 4.644-2.157 3.824-1.328 3.984-3.316v4.644l2.656 2.327 2.157 4.813 3.985 3.735-1.159 1.248z"/>
  </symbol>
  <symbol id="semantic.dashboard" viewBox="0 0 100 100">
    <path d="M25.219 35.49l-4.87 2.528-1.866 7.026 1.31 3.93 3.269-2.62-2.99-6.643M73.795 18.17l-1.455 15.627 6.272 11.301 4.777-.251-10.613-13.379 10.19-3.586m5.928-7.026l.767 2.5M83.39 5.678l-.847 5.518m10.07 10.057l-3.718-.397-6.92-2.078-2.793-2.21-.701-1.72-5.452-1.217 1.072-1.178 1.071-1.178m-9.871-9.183l9.422 8.64m5.16-.25l3.507-4.804L88.26.662l.344 6.695-2.422 2.554-2.924 1.482m9.355 9.859l-5.227-4.274-2.977-5.28-4.526-1.218-4.71.794-2.144-5.597-8.244-3.811 1.918 8.125 6.326 3.639.767 4.539 4.195 4.644 13.339.622zM68.384 61.995L62.76 75.771l3.374 20.815m10.27-31.044l-4.778 1.985 4.777 16.435-1.601 7.265M56.673 42.689l2.329 13.709H46.55l-7.424-8.773m-4.684 48.96l-2.74-6.655 4.103-14.86-1.654-8.125 11.539-6.352-9.885 14.476L34.442 93v3.587l.556 2.752h-2.726l-.57-9.408.689-19.108 5.12-11.248-1.203-2.316m-15.39 3.322l-2.382 10.599-6.67 8.112-.29 9.448M37.59 54.916l1.535-7.291-3.467-10.07m-9.752-2.29l4.989 1.35 4.724 1.284.701-6.432m8.562 8.43l-.9-8.43m28.662 26.89l5.968-13.26-19.611 11.301.172 5.597zm-49.583-4.698l16.064-6.034 17.547-4.936 6.246-8.509m9.422-.384L56.673 42.69l-20.696-4.896-12.915 4.168m58.925 7.172v5.148l-5.584 11.26.304 26.4 2.488 7.397h-2.792l-1.19-5.081-1.536-11.658-2.051-15.072-1.614-6.921m2.329-26.81l-9.422.384-18.936-2.713h-7.675L25.563 35.08l-2.554 3.705V53.871l-1.88 6.219-4.38 3.864-8.587 26.32v9.064h3.414L10.9 95.74l.847-7.344 7.159-18.076 17.4-13.06 1.377-2.489 8.006 5.823 7.344 1.402h6.14l3.586 13.776.225 20.497.847 3.07h3.07l-.688-2.554.29-20.841 1.88-13.948 4.433-3.784 9.898-9.806.675-3.56-.41-21.516"/>
  </symbol>
  <symbol id="shiny.info" viewBox="0 0 100 100">
    <path d="M52.877 54.104l-2.895 8.516 5.196 1.417m2.46.678L68.6 67.72l-2.46 6.287-.775 8.43-1.853-6.177-1.793 1.114 2.702-5.73-2.12-.714 3.912-1.623-8.757-2.229m-2.399-.618l-8.54-2.192 3.295-8.249M64.99 31.986L54.67 30.69m-9.74 15.504l9.74-15.504 6.601 14.233 2.071 6.48-3.367 5.947-2.229 5.766-3.936-6.565m23.232-25.558l-12.052.993 9.266 10.09-12.985 2.847-16.34 1.271-14.136.751.787 7.656 7.292 1.599 6.057-10.006M27.476 59.52l11.398-3.32m22.397-11.276L52.707 54.6 38.874 56.2l-5.172 6.262m10.357-24.54l.872 8.272-13.349 8.407-10.078 2.47 5.972 2.448 11.398-3.32 22.397-11.276 3.719-12.937 5.22-5.911m5.548-1.272l-11.144-13.93 8.031-3.234-8.854-2.713m6.42 21.149l5.547-1.272M55.421 59.276l-.788 15.444 4.155 19.999-4.155 4.01L58.364 98l8.116 1.393-.666-1.332 3.67-1.163-5.79-.34-3.561-1.174-2.338-15.492.17-4.337-1.006-1.841.787-10.599m6.868-52.243l-.823-5.947 2.459-3.489 3.076-.824 4.312 2.871.824 5.136L85.28 23.773 70.937 10.91l4.821 13.894 1.284 6.19-2.786 11.083-10.914 9.327-9.532 5.148-1.103-1.95-12.113 5.947-5.547 1.648-10.539 2.07 2.968-4.747-11.87 1.84 5.898-4.287 9.291-10.127L54.67 30.69l15.54-4.615-.884-4.106zm6.323.036l1.708-3.27 1.817.981m-1.817-.981L69.411.613"/>
  </symbol>
  <symbol id="shiny.router" viewBox="0 0 100 100">
    <path d="M43.044 53.997l6.68-12.149 17.94-5.32 7.555-3.366 5.05-12.607 5.037 9.805 7.004 4.768 7.017 11.488-3.933 4.485-7.838-.283-9.967 11.865v8.876L67.098 87.815l12.054.27 3.353 4.242H46.357L19.73 77.997l-7.004-30.263 7.57-20.175-8.97-7.57-10.654-.282L16.646 7.949l23.26 9.805 4.498 18.775zM11.326 19.99l5.32-12.04 3.65 19.609 19.61-9.805m4.498 18.775l-24.108-8.97L43.61 44.677l-30.882 3.057 30.317 6.263-23.313 24m0 0l22.464-9.32 20.121-14.815 15.273 8.821-12.62 3.88L53.67 84.03l5.818 8.297 7.61-4.512 8.282 4.512 3.772-4.243m-32.795 4.243l-4.162-23.65L53.67 84.03zM95.394 51.1L92.31 35.128l-17.091-1.966 10.087-2.802m2.25 20.458L75.219 33.162l-5.886 9.44-7.017 11.26 21.347 1.225 10.95-.35 3.003 3.179-1.064 3.879-5.926-2.64-7.138 4.054-5.899-.526m6.33-7.596l-15.003-12-19.192-1.239 12.592 12.014-19.272.135-.849 14.68-13.683.363"/>
  </symbol>
  <symbol id="shiny.i18n" viewBox="0 0 100 100">
    <path d="M61.229 16.253L65.838 4.42 74.866.678h5.03l-6.467 5.815m-20.306 9.76L48.527 4.42 39.5.678h-5.042l6.48 5.815M70.69 20.442l-8.364 5.219m-18.34-5.22l8.119 5.383m27.586 24.549H70.08L57.284 65.257l-1.708 21.892-5.639 2.603v0l9.245 2.494 6.507 4.31-9.543-1.03 2.873 3.796-9.055-3.172-5.747-.623 2.873 3.795-12.349-3.728-3.877-5.842 7.632-.352M19.952 68.795L42.4 58.682l-11.509 31.07m6.616-67.48l-5.314 10.41 7.225-.23M49.693 66.735l7.591-1.478m-20.32-12.593l-13.176 1.423 8.405-21.404m12.05 17.69l13.041 14.884 17.718 3.145m0 0l-4.921-18.03m-25.837 0l5.45 16.362L38.495 89.4l18.788-24.143m-33.496-11.17l-4.053 14.315 11.156 21.35 18.802-23.018-5.45-6.018-7.279-8.052 7.28-2.291-4.826-17.92 7.944-5.816-3.742 7.523m31.124-1.708L66.8 26.637l3.89 7.632M40.937 6.493l-5.517 3.2 5.219 5.083 6.778 11.86 7.848 4.596h3.566l7.97-4.595 7.483-11.861 5.273-5.084-5.612-3.199M40.936 6.493l14.328 24.74m3.566 0l15.02-24.51M63.424 3.783l-6.412 36.573-5.856-36.573m26.881 13.8l1.518 5.815 1.464 12.187-1.49 16.565-4.528 16.253-19.426 18.747m-24.685 2.603l-12.213 7.293v-7.903l1.057-20.74 17.23-15.738-4.772-19.981 12.05 17.69 12.77-10.018 13.068 10.018 10.94-14.79M35.418 9.694l3.999 22.76 17.595 7.902 17.731-7.903 4.812-22.76m-5.612-3.199L63.425 3.782H51.157l-10.22 2.711"/>
  </symbol>
</svg>
